<?xml version="1.0" encoding="UTF-8" standalone="no"?>
<!-- Uploaded to: SVG Repo, www.svgrepo.com, Generator: SVG Repo Mixer Tools -->

<svg
   width="585.41931"
   height="445.96777"
   viewBox="0 0 374.66836 285.41938"
   fill="#5865f2"
   aria-label="Discord"
   role="img"
   version="1.1"
   id="svg1"
   sodipodi:docname="discord.svg"
   inkscape:version="1.4.3 (0d15f75, 2025-12-25)"
   xmlns:inkscape="http://www.inkscape.org/namespaces/inkscape"
   xmlns:sodipodi="http://sodipodi.sourceforge.net/DTD/sodipodi-0.dtd"
   xmlns="http://www.w3.org/2000/svg"
   xmlns:svg="http://www.w3.org/2000/svg">
  <defs
     id="defs1" />
  <sodipodi:namedview
     id="namedview1"
     pagecolor="#ffffff"
     bordercolor="#000000"
     borderopacity="0.25"
     inkscape:showpageshadow="2"
     inkscape:pageopacity="0.0"
     inkscape:pagecheckerboard="0"
     inkscape:deskcolor="#d1d1d1"
     inkscape:zoom="1.312567"
     inkscape:cx="196.94233"
     inkscape:cy="350.83924"
     inkscape:window-width="2880"
     inkscape:window-height="1766"
     inkscape:window-x="-11"
     inkscape:window-y="-11"
     inkscape:window-maximized="1"
     inkscape:current-layer="svg1" />
  <path
     d="m 317.15967,23.719381 c -24,-11 -49.5,-18.9999995 -76.3,-23.69999952 -0.5,0 -1,0 -1.2,0.6 -3.3,5.90000002 -7,13.49999952 -9.5,19.49999952 -29,-4.3 -57.5,-4.3 -85.7,0 -2.6,-6.2 -6.3,-13.6999995 -10,-19.49999952 -0.3,-0.4 -0.7,-0.7 -1.2,-0.6 -23,4.60000002 -52.400002,12.99999952 -76.000002,23.69999952 -0.2,0 -0.4,0.2 -0.5,0.4 -49,73 -62,142.999999 -55,212.999999 0,0.3 0.2,0.7 0.5,1 32,23.6 63,38 93.6,47.3 0.5,0 1,0 1.3,-0.4 7.200002,-9.8 13.600002,-20.2 19.200002,-31.2 0.3,-0.6 0,-1.4 -0.7,-1.6 -10,-4 -20.000002,-8.6 -29.300002,-14 -0.7,-0.4 -0.8,-1.5 0,-2 2,-1.5 4,-3 5.8,-4.5 0.3,-0.3 0.8,-0.3 1.2,-0.2 61.400002,28 128.000002,28 188.000002,0 0.4,-0.2 0.9,-0.1 1.2,0.1 1.9,1.6 3.8,3.1 5.8,4.6 0.7,0.5 0.6,1.6 0,2 -9.3,5.5 -19,10 -29.3,14 -0.7,0.3 -1,1 -0.6,1.7 5.6,11 12.1,21.3 19,31 0.3,0.4 0.8,0.6 1.3,0.4 30.6,-9.5 61.7,-23.8 93.8,-47.3 0.3,-0.2 0.5,-0.5 0.5,-1 7.8,-80.9 -13.1,-150.999999 -55.4,-212.999999 0,-0.2 -0.3,-0.4 -0.5,-0.4 z m -192,170.999999 c -19,0 -34.000002,-17 -34.000002,-38 0,-21 15.000002,-38 34.000002,-38 19,0 34,17 34,38 0,21 -15,38 -34,38 z m 125,0 c -19,0 -34,-17 -34,-38 0,-21 15,-38 34,-38 19,0 34,17 34,38 0,21 -15,38 -34,38 z"
     fill="#5865f2"
     id="path1" />
</svg>
