<?xml version="1.0" encoding="UTF-8" standalone="no"?>
<svg
   version="1.1"
   x="0"
   y="0"
   width="535.51373"
   height="394.31009"
   viewBox="0 0 535.51373 394.31009"
   id="svg13"
   sodipodi:docname="acorn.svg"
   inkscape:version="1.4.3 (0d15f75, 2025-12-25)"
   xmlns:inkscape="http://www.inkscape.org/namespaces/inkscape"
   xmlns:sodipodi="http://sodipodi.sourceforge.net/DTD/sodipodi-0.dtd"
   xmlns="http://www.w3.org/2000/svg"
   xmlns:svg="http://www.w3.org/2000/svg">
  <defs
     id="defs13" />
  <sodipodi:namedview
     id="namedview13"
     pagecolor="#ffffff"
     bordercolor="#000000"
     borderopacity="0.25"
     inkscape:showpageshadow="2"
     inkscape:pageopacity="0.0"
     inkscape:pagecheckerboard="0"
     inkscape:deskcolor="#d1d1d1"
     inkscape:zoom="2.5241672"
     inkscape:cx="193.52917"
     inkscape:cy="155.10066"
     inkscape:window-width="2880"
     inkscape:window-height="1766"
     inkscape:window-x="-11"
     inkscape:window-y="-11"
     inkscape:window-maximized="1"
     inkscape:current-layer="svg13" />
  <path
     d="m 521.39291,68.964245 c -48.822,-26.564 -103.034,2.077 -159.715,56.027005 4.416,9.094 8.83,18.191 13.248,27.285 35.624,-19.526 71.973,-35.965 117.406,-13.771 9.688,-23.18 19.373,-46.359005 29.061,-69.541005"
     fill="#ba7c40"
     id="path2" />
  <path
     d="m 419.74891,132.25025 c 22.18,-6.484 45.804,-6.827 72.583,6.255 l 5.096,-12.193 -4.222,-18.115 c -4.86,-0.611 -9.721,-1.222 -14.581,-1.834 -11.479,-8.518005 -51.469,4.429 -61.618,15.75 l 2.742,10.137"
     fill="#b27236"
     id="path3" />
  <path
     d="m 184.51991,33.545245 c 61.709,-36.8789997 100.1,-45.829 153.934,-14.345 52.771,30.863 113.275,130.602005 112.954,197.176005 -0.262,54 -29.3,85.603 -86.094,119.562 L 184.51991,33.545245"
     fill="#54321d"
     id="path4" />
  <path
     d="m 393.45791,72.141245 c 32.506,43.320005 58.159,100.826005 57.95,144.235005 -0.262,54 -29.3,85.603 -86.094,119.562 l -44.445,-74.335 12.36,-159.432 c 46.596,47.446 82.748,116.992 75.125,176.512 54.321,-43.871 32.766,-131.28 -14.896,-206.542005"
     fill="#412a1a"
     id="path5" />
  <path
     d="m 184.50791,33.551245 c 108.457,-64.796 289.223,237.568005 180.775,302.406005 l -0.018,0.011 C 256.80791,400.76425 76.040913,98.399245 184.48991,33.563245 l 0.018,-0.012"
     fill="#211912"
     id="path6" />
  <path
     d="m 195.70291,52.318245 c 88.294,-52.78599972 246.656,212.094005 158.364,264.881005 l -81.211,48.553 c -63.122,37.739 -136.609,38.059 -199.762997,1.05 -22.751,-13.332 -47.698,2.058 -58.508,-16.019 l -11.904,-19.911 c -10.748,-17.978 14.312,-32.708 14.009,-58.282 -0.84,-71.323 33.987,-133.563 95.600997,-170.399 l 83.412,-49.873005"
     fill="#e49e2e"
     id="path7" />
  <path
     d="m 327.73891,124.55125 c 48.514,69.334 75.177,163.443 26.328,192.648 l -81.209,48.553 c -63.124,37.739 -136.611,38.059 -199.763997,1.05 -22.752,-13.332 -47.699,2.058 -58.509,-16.019 l -3.477,-5.818 c 11.479,14.973 34.235,-0.502 55.748,11.759 62.184997,35.445 133.373997,31.411 193.512997,-11.152 l 77.368,-54.759 c 39.454,-27.925 25.075,-101.813 -9.998,-166.262"
     fill="#cd8e30"
     id="path8" />
  <path
     d="m 196.21191,71.548245 c 81.469,-47.971 172.191,99.407005 94.202,152.846005 l -71.732,49.152 c -55.758,38.207 -113.776,53.781 -157.741997,42.453 -15.837,-4.081 -36.133,10.017 -43.617,1.612 -11.573,-12.998 12.878,-24.359 14.021,-52.261 1.736,-42.38 29.689,-114.211 86.541997,-147.685 l 78.326,-46.117005"
     fill="#efa72c"
     id="path9" />
  <path
     d="m 69.287913,241.88725 c 2.599,0.234 5.197,0.67 7.799,1.342 38.512997,9.92 86.756997,-12.588 117.714997,-33.802 l 63.888,-43.779 c 39.971,-27.387 -12.368,-113.446005 -53.917,-88.981005 l -69.758,41.075005 c -34.085,20.069 -61.719997,69.253 -63.330997,108.59 -0.221,5.383 -1.04,10.545 -2.396,15.555"
     fill="#f7c14e"
     id="path10" />
  <path
     d="m 225.08091,14.786245 c 67.861,-28.824 117.699,1.35 148.882,43.958 -33.913,-34.335 -88.966,-54.0959997 -148.882,-43.958"
     fill="#7c4726"
     id="path11" />
  <path
     d="m 405.11491,88.725245 c 28.753,-18.834 64.903,-37.639 109.367,-21.256 4.209,1.551 -12.149,11.767 -17.863,12.136 -8.713,-16.747 -59.622,-7.177 -91.504,9.12"
     fill="#ca9661"
     id="path12" />
  <path
     d="m 521.39291,68.964245 c 13.634,5.699 18.182,25.885 10.159,45.088005 -8.026,19.203 -25.584,30.152 -39.22,24.453 -13.636,-5.697 -18.183,-25.885 -10.159,-45.088005 8.025,-19.203 25.584,-30.149 39.22,-24.453"
     fill="#a36530"
     id="path13" />
</svg>
