<?xml version="1.0" encoding="UTF-8" standalone="no"?>
<!-- Generator: Adobe Illustrator 27.5.0, SVG Export Plug-In . SVG Version: 6.00 Build 0)  -->

<svg
   version="1.1"
   x="0px"
   y="0px"
   viewBox="0 0 632.83557 611.87903"
   xml:space="preserve"
   id="svg33"
   sodipodi:docname="amanita.svg"
   width="632.83557"
   height="611.87903"
   inkscape:version="1.4.2 (f4327f4, 2025-05-13)"
   xmlns:inkscape="http://www.inkscape.org/namespaces/inkscape"
   xmlns:sodipodi="http://sodipodi.sourceforge.net/DTD/sodipodi-0.dtd"
   xmlns="http://www.w3.org/2000/svg"
   xmlns:svg="http://www.w3.org/2000/svg"><defs
   id="defs33">
	
	
	
	
</defs><sodipodi:namedview
   id="namedview33"
   pagecolor="#ffffff"
   bordercolor="#000000"
   borderopacity="0.25"
   inkscape:showpageshadow="2"
   inkscape:pageopacity="0.0"
   inkscape:pagecheckerboard="0"
   inkscape:deskcolor="#d1d1d1"
   inkscape:zoom="0.25324011"
   inkscape:cx="1619.0168"
   inkscape:cy="1470.936"
   inkscape:window-width="2880"
   inkscape:window-height="1766"
   inkscape:window-x="-11"
   inkscape:window-y="-11"
   inkscape:window-maximized="1"
   inkscape:current-layer="svg33" />

<path
   style="fill:#e0c7af"
   d="m 12.683751,273.131 c -2.184,-0.573 -4.3269997,-1.229 -6.4569997,-1.952 -0.218,-1.065 -0.409,-2.143 -0.573,-3.208 -0.109,-0.628 -0.205,-1.269 -0.287,-1.897 -0.014,-0.082 -0.014,-0.15 -0.027,-0.218 -0.123,-0.901 -0.219,-1.802 -0.314,-2.703 1.816,3.522 4.382,6.852 7.6579997,9.978 z"
   id="path12" /><g
   id="g33"
   transform="translate(-1437.1822,-427.067)">
		<path
   style="fill:#efd5b0"
   d="m 1842.108,768.019 c 7.24,44.906 10.494,90.128 6.527,135.492 -2.248,25.731 -6.957,51.674 -18.575,74.746 -11.618,23.072 -30.865,43.154 -55.329,51.443 -24.262,8.223 -51.121,4.227 -75.322,-4.175 -26.491,-9.205 -52.151,-24.545 -66.589,-48.59 -21.598,-35.97 -13.517,-81.622 -4.747,-122.655 6.187,-28.966 12.379,-57.932 18.566,-86.898 l 94.403,-12.356 z"
   id="path17" />
		<path
   style="fill:#ce4e4e"
   d="m 2047.439,729.73 c -21.844,21.716 -78.16,39.498 -293.839,39.498 -215.679,0 -271.995,-17.782 -293.839,-39.498 -17.012,-16.913 -20.139,-42.979 -16.375,-66.674 11.727,-73.853 60.378,-138.657 122.259,-180.644 39.3,-26.671 104.831,-50.621 187.955,-50.621 83.124,0 148.655,23.95 187.955,50.621 61.88,41.987 110.532,106.791 122.259,180.644 3.763,23.695 0.637,49.761 -16.375,66.674 z"
   id="path18" />
		<path
   style="fill:#fce6cd"
   d="m 1667.235,533.174 c -6.163,10.121 -16.667,14.263 -27.048,15.458 -11.141,1.289 -25.107,-2.3 -30.624,-15.94 -3.736,-9.233 -2.002,-20.158 2.347,-27.658 1.015,-1.743 2.144,-3.339 3.367,-4.813 4.671,-5.649 10.646,-9.257 17.149,-10.901 2.555,-0.647 5.143,-1.148 7.755,-1.502 8.563,-1.162 18.448,-0.208 25.216,8.034 8.167,9.957 8.006,27.201 1.838,37.322 z"
   id="path19" />
		<path
   style="fill:#fce6cd"
   d="m 1958.509,693.094 c -9.804,16.1 -26.513,22.689 -43.027,24.59 -17.723,2.051 -39.939,-3.659 -48.714,-25.356 -5.943,-14.688 -3.185,-32.065 3.734,-43.996 1.615,-2.772 3.411,-5.312 5.357,-7.656 7.43,-8.985 16.934,-14.725 27.28,-17.34 4.064,-1.029 8.182,-1.826 12.336,-2.389 13.621,-1.848 29.346,-0.331 40.112,12.78 12.99,15.837 12.734,43.267 2.922,59.367 z"
   id="path20" />
		<path
   style="fill:#fce6cd"
   d="m 1728.077,726.858 c -30.166,15.69 -70.575,9.219 -93.534,-15.855 -22.958,-25.074 -23.757,-65.484 -5.016,-93.85 40.713,-61.623 103.414,-32.447 118.362,-20.2 13.314,10.905 21.206,27.544 23.553,44.589 4.639,33.685 -13.205,69.631 -43.365,85.316 z"
   id="path21" />
		<path
   style="fill:#fce6cd"
   d="m 1567.402,620.141 c -3.576,33.688 -26.972,64.523 -58.463,77.026 -20.68,8.204 -44.253,8.272 -65.288,1.078 -2.293,-11.398 -2.116,-23.573 -0.273,-35.189 8.204,-51.651 34.48,-98.88 70.679,-136.963 4.368,1.734 8.531,3.945 12.312,6.484 28.175,18.81 44.595,53.876 41.033,87.564 z"
   id="path22" />
		<path
   style="fill:#fce6cd"
   d="m 1959.645,495.641 c -0.437,4.081 -1.106,8.149 -1.952,12.162 -4.382,20.461 -14.455,40.486 -31.49,52.62 -13.159,9.391 -29.429,13.404 -45.495,15.179 -30.944,3.44 -63.417,-1.024 -90.199,-16.885 -26.795,-15.861 -47.065,-44.021 -49.29,-75.074 -1.31,-18.332 4.464,-37.21 15.424,-51.842 81.681,0.573 146.095,24.269 184.915,50.614 6.171,4.189 12.204,8.598 18.087,13.226 z"
   id="path23" />
		<path
   style="fill:#d8bc9a"
   d="m 1848.388,903.513 c -2.239,25.73 -6.948,51.679 -18.578,74.747 -11.616,23.068 -30.862,43.147 -55.323,51.433 -24.256,8.231 -51.119,4.231 -75.32,-4.163 -26.494,-9.214 -52.156,-24.556 -66.584,-48.594 -12.285,-20.448 -14.974,-44.035 -13.391,-68.113 9.896,24.406 28.324,45.304 52.306,56.006 33.811,15.083 77.477,7.166 101.364,-21.103 15.575,-18.441 21.854,-42.779 27.122,-66.339 6.579,-29.511 12.189,-60.442 9.282,-90.158 -55.337,3.276 -111.137,1.474 -165.969,-5.364 1.037,-4.832 2.075,-9.651 3.099,-14.483 l 94.403,-12.353 101.064,12.995 c 7.249,44.895 10.498,90.117 6.525,135.489 z"
   id="path24" />
		<path
   style="fill:#e0c7af"
   d="m 1959.403,495.641 c -0.437,4.081 -1.106,8.149 -1.952,12.162 -1.01,4.668 -2.307,9.323 -3.918,13.855 -21.676,-27.464 -47.665,-51.269 -76.508,-70.365 25.798,8.763 47.461,19.697 64.291,31.122 6.156,4.177 12.176,8.572 18.045,13.199 0.015,-10e-4 0.028,0.013 0.042,0.027 z"
   id="path25" />
		<path
   style="fill:#af454d"
   d="m 2047.199,729.736 c -21.84,21.703 -78.159,39.489 -293.841,39.489 -215.682,0 -272.001,-17.786 -293.841,-39.489 -8.668,-8.627 -13.732,-19.642 -16.107,-31.49 2.129,0.723 4.272,1.379 6.457,1.952 53.48,51.078 293.309,49.74 433.384,37.442 22.399,-1.966 45.072,-4.327 66.147,-12.476 21.089,-8.149 40.718,-22.809 50.682,-43.816 15.384,-32.419 4.791,-71.689 -11.125,-103.821 -9.855,-19.902 -21.785,-38.616 -35.422,-55.869 1.611,-4.532 2.907,-9.186 3.918,-13.855 0.846,-4.013 1.515,-8.081 1.952,-12.162 53.125,41.769 93.611,100.914 104.162,167.416 3.768,23.696 0.642,49.753 -16.366,66.679 z"
   id="path26" />
		<g
   id="g27">
			<path
   style="fill:#ffffff"
   d="m 1677.831,473.56 c -2.375,-10.196 -12.095,-16.952 -22.474,-15.585 -24.978,3.289 -49.743,13.421 -76.583,31.853 -28.126,19.316 -50.819,36.271 -67.449,73.291 -1.956,4.353 -6.49,16.013 0.605,20.561 11.792,7.559 21.771,-2.419 29.235,-15.719 11.197,-19.952 32.518,-31.907 53.046,-42.01 22.607,-11.125 46.017,-20.617 69.988,-28.381 10.093,-3.268 16.038,-13.675 13.632,-24.01 z"
   id="path27" />
		</g>
		<g
   id="g31">
			<path
   d="m 2068.478,662.315 c -11.252,-70.862 -56.548,-137.859 -124.271,-183.812 -22.789,-15.465 -86.98,-51.436 -190.607,-51.436 -103.627,0 -167.818,35.971 -190.606,51.436 -67.725,45.952 -113.021,112.949 -124.271,183.811 -6.347,39.943 8.37,61.481 17.708,70.764 17.193,17.093 53.466,33.158 184.425,38.769 l -17.401,81.445 c -9.349,43.741 -16.64,89.507 5.317,126.074 13.211,22.001 37.101,39.505 69.089,50.62 17.197,5.971 33.269,8.96 48.071,8.96 10.798,0 20.921,-1.591 30.314,-4.773 23.711,-8.034 44.863,-27.64 58.033,-53.792 10.221,-20.296 16.277,-44.592 19.062,-76.459 3.53,-40.357 1.639,-83.391 -5.75,-131.366 146.321,-4.839 185.192,-21.596 203.179,-39.477 9.335,-9.283 24.053,-30.819 17.708,-70.764 z M 1954.634,497.723 c -0.396,3.01 -0.918,6.058 -1.564,9.092 -4.663,21.806 -15.176,39.479 -29.603,49.765 -10.655,7.597 -24.813,12.285 -43.285,14.332 -32.479,3.612 -63.469,-2.166 -87.271,-16.259 -26.971,-15.967 -44.97,-43.307 -46.975,-71.35 -1.164,-16.242 3.612,-33.139 13.122,-46.751 97.791,1.224 158.178,35.065 179.845,49.768 5.399,3.663 10.634,7.475 15.731,11.403 z M 1448.05,663.796 c 7.57,-47.671 31.226,-93.574 67.114,-132.088 2.977,1.364 5.855,2.968 8.587,4.793 26.677,17.818 42.332,51.229 38.955,83.139 -3.382,31.91 -25.688,61.3 -55.508,73.134 -18.313,7.269 -39.84,7.89 -59.49,1.812 -1.4,-8.469 -1.587,-18.648 0.342,-30.79 z M 1843.93,903.1 c -2.677,30.635 -8.424,53.842 -18.089,73.033 -12.063,23.955 -31.245,41.849 -52.627,49.094 -20.236,6.857 -44.546,5.456 -72.256,-4.163 -20.829,-7.238 -48.856,-21.191 -64.09,-46.561 -20.203,-33.646 -13.504,-75.601 -4.177,-119.237 l 17.741,-83.034 c 29.545,1.113 63.669,1.719 103.167,1.719 31.427,0 59.452,-0.383 84.477,-1.1 7.42,47.677 9.345,90.334 5.854,130.249 z M 1753.6,764.505 c -222.204,0 -271.548,-19.272 -290.51,-38.125 -4.077,-4.053 -9.332,-10.872 -12.795,-21.25 8.146,2.031 16.519,3.046 24.835,3.046 12.288,0 24.448,-2.212 35.553,-6.622 32.993,-13.093 57.674,-45.612 61.415,-80.919 3.737,-35.306 -13.584,-72.273 -43.101,-91.988 -2.237,-1.495 -4.566,-2.852 -6.955,-4.083 13.843,-13.902 29.316,-26.752 46.255,-38.245 21.644,-14.689 81.934,-48.476 179.553,-49.763 -8.403,14.314 -12.502,31.15 -11.336,47.42 2.222,31.086 21.988,61.282 51.584,78.803 20.629,12.215 46.156,18.625 73.378,18.624 6.5,0 13.099,-0.366 19.748,-1.104 20.113,-2.229 35.726,-7.472 47.728,-16.028 16.352,-11.659 28.197,-31.363 33.355,-55.484 0.304,-1.429 0.575,-2.861 0.829,-4.291 52.079,43.054 86.565,99.805 96.013,159.301 5.685,35.792 -6.983,54.574 -15.041,62.583 -18.962,18.852 -68.305,38.125 -290.508,38.125 z"
   id="path28" />
			<path
   d="m 1640.727,553.324 c 13.906,-1.601 24.468,-7.719 30.542,-17.692 6.737,-11.056 7.806,-30.553 -2.221,-42.776 -6.631,-8.075 -16.837,-11.432 -29.5,-9.716 -2.783,0.378 -5.569,0.917 -8.278,1.603 -7.708,1.948 -14.496,6.26 -19.625,12.462 -1.419,1.709 -2.703,3.543 -3.82,5.46 -5.548,9.567 -6.584,22.049 -2.64,31.798 5.762,14.248 19.367,19.125 30.931,19.125 1.582,-10e-4 3.129,-0.092 4.611,-0.264 z m -26.786,-22.403 c -3.289,-8.127 -1.338,-17.667 2.049,-23.508 0.852,-1.459 1.834,-2.864 2.928,-4.181 3.847,-4.652 8.918,-7.878 14.668,-9.332 2.367,-0.6 4.801,-1.071 7.231,-1.4 1.817,-0.247 3.537,-0.37 5.162,-0.37 6.884,0 12.072,2.219 15.768,6.719 7.058,8.605 6.432,23.702 1.455,31.868 0,0 0,10e-4 -10e-4,10e-4 -4.567,7.501 -12.492,11.95 -23.558,13.223 -9.438,1.092 -21.146,-1.755 -25.702,-13.02 z"
   id="path29" />
			<path
   d="m 1914.84,616.267 c -4.322,0.586 -8.649,1.424 -12.858,2.49 -11.683,2.952 -21.975,9.491 -29.756,18.902 -2.162,2.604 -4.114,5.395 -5.81,8.303 -8.41,14.502 -9.99,33.397 -4.025,48.137 4.454,11.014 12.575,19.361 23.484,24.139 6.844,2.998 14.769,4.558 22.874,4.558 2.416,0 4.85,-0.139 7.273,-0.419 21.236,-2.444 37.322,-11.72 46.521,-26.825 v 0 c 10.264,-16.843 11.386,-46.908 -3.306,-64.821 -10.045,-12.231 -24.98,-17.097 -44.397,-14.464 z m 39.636,74.369 c 0,0 0,10e-4 0,0.002 -7.735,12.705 -21.036,20.226 -39.535,22.354 -16.031,1.854 -35.959,-3.064 -43.793,-22.436 -4.911,-12.138 -3.561,-27.782 3.437,-39.847 1.428,-2.452 3.08,-4.812 4.916,-7.023 6.5,-7.86 15.074,-13.314 24.799,-15.771 3.867,-0.979 7.842,-1.749 11.812,-2.288 2.932,-0.398 5.73,-0.596 8.396,-0.596 11.84,0 21.045,3.916 27.43,11.691 11.966,14.592 10.943,40.125 2.539,53.914 z"
   id="path30" />
			<path
   d="m 1750.883,593.3 c -8.095,-6.632 -36.188,-22.771 -68.488,-17.881 -22.823,3.456 -41.937,16.621 -56.808,39.13 -20.492,31.017 -18.14,73.854 5.473,99.643 15.423,16.844 38.328,25.896 61.291,25.896 13.074,0 26.17,-2.937 37.904,-9.041 31.514,-16.388 50.803,-54.302 45.866,-90.15 -2.655,-19.285 -11.854,-36.634 -25.238,-47.597 z m -24.986,129.367 c 0,10e-4 -10e-4,10e-4 0,0 -10.427,5.423 -22.05,8.031 -33.657,8.031 -20.322,-10e-4 -40.585,-8 -54.214,-22.885 -20.774,-22.689 -22.734,-60.546 -4.559,-88.057 13.335,-20.184 30.272,-31.959 50.341,-34.998 3.625,-0.549 7.196,-0.795 10.69,-0.795 24.225,0 44.535,11.84 50.397,16.644 11.563,9.471 19.533,24.626 21.867,41.58 4.412,32.025 -12.775,65.873 -40.865,80.48 z"
   id="path31" />
		</g>
		<g
   id="g32">
			<path
   style="fill:#ffffff"
   d="m 1694.247,809.005 c -11.725,30.139 -18.277,74.911 -23.846,108.708 -10.169,-3.153 -20.188,-7.917 -24.079,-17.485 -2.894,-7.166 -1.474,-15.274 0.123,-22.85 4.887,-23.096 11.016,-45.932 18.345,-68.372 h 29.457 z"
   id="path32" />
		</g>
	</g>
</svg>
