<?xml version="1.0" encoding="UTF-8" standalone="no"?>
<svg
   version="1.1"
   id="Layer_1"
   x="0px"
   y="0px"
   viewBox="0 0 122.88 122.87"
   style="enable-background:new 0 0 122.88 122.87"
   xml:space="preserve"
   sodipodi:docname="bones.svg"
   inkscape:version="1.4.2 (f4327f4, 2025-05-13)"
   xmlns:inkscape="http://www.inkscape.org/namespaces/inkscape"
   xmlns:sodipodi="http://sodipodi.sourceforge.net/DTD/sodipodi-0.dtd"
   xmlns="http://www.w3.org/2000/svg"
   xmlns:svg="http://www.w3.org/2000/svg"><defs
     id="defs1" /><sodipodi:namedview
     id="namedview1"
     pagecolor="#ffffff"
     bordercolor="#000000"
     borderopacity="0.25"
     inkscape:showpageshadow="2"
     inkscape:pageopacity="0.0"
     inkscape:pagecheckerboard="0"
     inkscape:deskcolor="#d1d1d1"
     inkscape:zoom="6.0429721"
     inkscape:cx="-31.110519"
     inkscape:cy="99.868076"
     inkscape:window-width="2880"
     inkscape:window-height="1766"
     inkscape:window-x="-11"
     inkscape:window-y="-11"
     inkscape:window-maximized="1"
     inkscape:current-layer="Layer_1" /><style
     type="text/css"
     id="style1">.st0{fill-rule:evenodd;clip-rule:evenodd;}</style><path
     class="st0"
     d="m 18.324536,99.651806 -0.211965,-0.01927 C 13.391534,99.227876 9.2678527,96.95407 6.415961,93.62044 3.5544345,90.26754 1.9550629,85.845181 2.3019145,81.124144 c 0,-0.07708 0.00963,-0.173425 0.01927,-0.250504 C 2.7258444,76.152604 4.9996499,72.028922 8.33328,69.177031 11.715084,66.2866 16.185617,64.687228 20.954828,65.062984 l 11.446105,0.924938 C 43.596535,54.79232 54.782502,43.596719 65.978104,32.401117 L 65.053166,20.955011 c -0.366121,-4.778846 1.223616,-9.249378 4.114047,-12.6215477 2.89043,-3.3721692 7.062285,-5.6556095 11.821861,-6.0217307 4.778846,-0.3661213 9.249379,1.2236157 12.621548,4.1140464 3.372169,2.8904308 5.65561,7.062286 6.021731,11.821862 l 0.414297,5.135332 2.74591,-0.09635 v -0.0096 h 0.13488 c 4.70177,-0.09635 8.99888,1.666815 12.19762,4.643959 3.23728,3.025318 5.32803,7.274251 5.49182,12.053096 v 0.08671 h 0.01 v 0.134887 c 0.11562,4.701767 -1.66681,8.998874 -4.64395,12.197618 -3.02532,3.237282 -7.27425,5.328027 -12.06273,5.491818 L 89.024472,58.443898 C 78.811617,68.637484 68.6373,78.831069 58.41481,89.043925 l -0.558816,14.895355 c -0.173426,4.77884 -2.254536,9.03741 -5.491819,12.05309 -3.237282,3.01569 -7.630737,4.79812 -12.409583,4.63433 -4.778845,-0.17343 -9.037413,-2.25454 -12.053096,-5.49182 -3.015683,-3.23728 -4.798115,-7.63074 -4.634324,-12.40958 l 0.09635,-2.64956 z"
     id="path1"
     style="fill:#ffffff;fill-opacity:1;stroke:#000000;stroke-width:3.85391;stroke-dasharray:none;stroke-opacity:1"
     sodipodi:nodetypes="ccccccccccscscccccccccccccccscsccc" /></svg>
