<?xml version="1.0" encoding="UTF-8" standalone="no"?>
<svg
   width="591.91925"
   height="595.31433"
   version="1.1"
   viewBox="0 0 591.91924 595.31433"
   id="svg126"
   sodipodi:docname="branches.svg"
   inkscape:version="1.4.2 (f4327f4, 2025-05-13)"
   xmlns:inkscape="http://www.inkscape.org/namespaces/inkscape"
   xmlns:sodipodi="http://sodipodi.sourceforge.net/DTD/sodipodi-0.dtd"
   xmlns:xlink="http://www.w3.org/1999/xlink"
   xmlns="http://www.w3.org/2000/svg"
   xmlns:svg="http://www.w3.org/2000/svg">
  <defs
     id="defs126" />
  <sodipodi:namedview
     id="namedview126"
     pagecolor="#ffffff"
     bordercolor="#000000"
     borderopacity="0.25"
     inkscape:showpageshadow="2"
     inkscape:pageopacity="0.0"
     inkscape:pagecheckerboard="0"
     inkscape:deskcolor="#d1d1d1"
     inkscape:zoom="1.3046136"
     inkscape:cx="456.84024"
     inkscape:cy="298.55583"
     inkscape:window-width="2880"
     inkscape:window-height="1766"
     inkscape:window-x="-11"
     inkscape:window-y="-11"
     inkscape:window-maximized="1"
     inkscape:current-layer="svg126" />
  <g
     transform="matrix(1.7409,-3.4948,3.0328,1.5107,-2835.2581,501.84335)"
     stroke-width="1.0738"
     id="g79">
    <g
       fill="#008f4c"
       id="g71">
      <g
         stroke-width="1.0738"
         id="g58">
        <path
           d="m 422.63,734.99 -5.4929,-5.3017 c -11.623,-0.9258 -15.655,-13.254 -20.252,-21.519 8.8113,0.45536 23.59,16.98 21.124,20.123 -0.29289,0.37319 3.5562,4.4356 5.0063,6.1712 z"
           fill-rule="evenodd"
           stroke="#000000"
           id="path56" />
        <use
           transform="rotate(132.68,431.76,794.62)"
           width="381.88275"
           height="311.70178"
           xlink:href="#a"
           id="use56" />
        <path
           d="m 422.8,737.79 1.1927,-7.5404 c -5.9077,-10.052 1.8791,-20.426 6.0131,-28.932 4.6805,7.4792 -0.38047,29.063 -4.369,28.845 -0.4737,-0.0259 -1.594,5.4571 -2.1841,7.6405 l -0.65266,-0.0136 z"
           fill-rule="evenodd"
           stroke="#000000"
           id="path57" />
        <path
           d="m 450.57,807.95 4.639,-6.063 c -0.40895,-11.653 11.378,-17.067 19.063,-22.579 0.55489,8.8056 -14.172,25.376 -17.576,23.285 -0.40422,-0.24832 -4,4.0399 -5.5584,5.679 z"
           fill-rule="evenodd"
           stroke="#000000"
           id="path58" />
      </g>
      <use
         transform="rotate(134.99,397.12,818.12)"
         width="744.09448"
         height="1052.3622"
         stroke-width="1.0738"
         xlink:href="#a"
         id="use58" />
      <use
         transform="rotate(92.207,385.51,818.48)"
         width="744.09448"
         height="1052.3622"
         stroke-width="1.0738"
         xlink:href="#a"
         id="use59" />
      <use
         transform="rotate(127.57,416.3,796.02)"
         width="744.09448"
         height="1052.3622"
         stroke-width="1.0738"
         xlink:href="#a"
         id="use60" />
      <use
         transform="rotate(78.345,406.54,797.33)"
         width="744.09448"
         height="1052.3622"
         stroke-width="1.0738"
         xlink:href="#a"
         id="use61" />
      <use
         transform="rotate(79.349,432.56,778.51)"
         width="744.09448"
         height="1052.3622"
         stroke-width="1.0738"
         xlink:href="#a"
         id="use62" />
      <use
         transform="rotate(88.242,420.29,786.08)"
         width="744.09448"
         height="1052.3622"
         stroke-width="1.0738"
         xlink:href="#a"
         id="use63" />
      <use
         transform="rotate(65.401,444.27,774.43)"
         width="744.09448"
         height="1052.3622"
         stroke-width="1.0738"
         xlink:href="#a"
         id="use64" />
      <g
         stroke-width="1.0738"
         id="g67">
        <use
           transform="rotate(26.813,457.21,788.76)"
           width="744.09448"
           height="1052.3622"
           xlink:href="#a"
           id="use65" />
        <use
           transform="rotate(8.4706,253.68,820.16)"
           width="744.09448"
           height="1052.3622"
           xlink:href="#a"
           id="use66" />
        <path
           id="a"
           d="m 429.97,772.19 -5.4929,-5.3017 c -11.623,-0.9258 -15.655,-13.254 -20.252,-21.519 8.8113,0.45536 23.59,16.98 21.124,20.123 -0.29289,0.37319 3.5562,4.4356 5.0063,6.1712 z"
           fill="#008f4c"
           fill-rule="evenodd"
           stroke="#000000"
           stroke-width="1.0738" />
        <use
           transform="rotate(87.897,363.17,809.17)"
           width="744.09448"
           height="1052.3622"
           xlink:href="#a"
           id="use67" />
      </g>
      <use
         transform="rotate(-3.0697,1362.9,869.44)"
         width="744.09448"
         height="1052.3622"
         stroke-width="1.0738"
         xlink:href="#a"
         id="use68" />
      <use
         transform="rotate(5.8092,106.14,716.57)"
         width="744.09448"
         height="1052.3622"
         stroke-width="1.0738"
         xlink:href="#a"
         id="use69" />
      <use
         transform="rotate(63.352,352.82,817.62)"
         width="744.09448"
         height="1052.3622"
         stroke-width="1.0738"
         xlink:href="#a"
         id="use70" />
      <use
         transform="rotate(-6.9023,201.71,794.16)"
         width="744.09448"
         height="1052.3622"
         stroke-width="1.0738"
         xlink:href="#a"
         id="use71" />
    </g>
    <use
       transform="rotate(-98.71,372.64,805.66)"
       width="381.88275"
       height="311.70178"
       fill="#000000"
       stroke-width="1.0738"
       xlink:href="#c"
       id="use72" />
    <g
       id="c"
       transform="matrix(-0.20628,-0.41747,-0.41747,0.20628,577.99,933.83)">
      <ellipse
         transform="matrix(0.49428,-0.78415,0.92478,0.58293,194,236.46)"
         cx="69.463997"
         cy="61.702"
         rx="9.8213997"
         ry="5.7143002"
         fill-rule="evenodd"
         stroke="#000000"
         stroke-linecap="round"
         stroke-linejoin="round"
         stroke-width="2.2909"
         id="ellipse72" />
      <path
         d="m 280.86,225.8 -4.8214,6.25 -1.6072,-0.89286 5.5357,-6.7411 z"
         fill-rule="evenodd"
         stroke="#000000"
         stroke-width="2.306"
         id="path72" />
    </g>
    <g
       fill="#000000"
       id="g78">
      <g
         stroke-width="1.0738"
         id="g77">
        <use
           transform="rotate(-11.341,139.26,705.15)"
           width="381.88275"
           height="311.70178"
           xlink:href="#c"
           id="use73" />
        <use
           transform="rotate(-23.223,282.31,750.55)"
           width="381.88275"
           height="311.70178"
           xlink:href="#c"
           id="use74" />
        <use
           transform="rotate(47.109,552.49,832.24)"
           width="381.88275"
           height="311.70178"
           xlink:href="#c"
           id="use75" />
        <use
           transform="rotate(-51.641,326.7,800.27)"
           width="381.88275"
           height="311.70178"
           xlink:href="#c"
           id="use76" />
        <use
           transform="translate(2.6683,-117.93)"
           width="381.88275"
           height="311.70178"
           xlink:href="#c"
           id="use77" />
      </g>
      <use
         transform="rotate(-72.795,376.1,830.93)"
         width="381.88275"
         height="311.70178"
         stroke-width="1.0738"
         xlink:href="#c"
         id="use78" />
    </g>
    <path
       d="m 482.3,784.65 c -1.4708,7.077 -17.127,16.962 -19.363,14.573 -5.9208,3.4562 -10.449,9.1083 -16.769,12.808 -4.894,2.1874 -15.737,4.6089 -15.737,4.6089 -7.4706,23.407 -38.995,52.464 -41.104,54.129 -2.0669,1.6322 -0.39269,2.117 -0.17447,2.8631 8.7262,4.1888 30.994,-5.7251 46.454,-11.606 l 3.8986,-1.4838 c 5.5971,-10.228 18.495,-8.864 27.917,-9.6799 -4.0182,7.855 -25.649,14.271 -27.508,10.736 -12.068,5.1846 -21.419,10.324 -33.727,14.07 -8.9756,1.9498 -15.829,4.371 -24.09,-0.0614 -7.6689,4.0554 -16.522,6.6208 -22.108,14.326 -3.4936,-1.0574 -2.8749,-4.3631 -0.12715,-7.1396 14.788,-12.012 19.333,-8.8444 26.498,-14.654 7.1252,-5.7775 29.316,-26.106 38.211,-47.651 -2.3006,-5.3256 -5.0076,-7.6565 -4.0909,-15.886 0,0 8.347,-22.585 8.8022,-32.085 0.45523,-9.5003 -3.4679,-23.332 -5.1619,-29.693 -1.1502,-4.3939 -2.8019,-9.2103 -3.4507,-13.182 -9.603,-6.613 -6.9324,-19.295 -6.7812,-28.751 7.4032,4.7999 12.218,28.228 8.2315,27.983 -0.0683,3.5292 2.408,9.1082 3.4658,12.924 1.6793,6.3573 5.9378,21.556 5.7141,30.596 -0.22361,9.0394 -6.7663,28.358 -6.7663,28.358 -2.5304,7.0261 0.30079,23.218 6.0771,7.8102 0,-10e-6 3.383,-13.214 4.9009,-20.922 1.5179,-7.708 5.1926,-30.772 5.1926,-30.772 -0.023,-2.1105 0.5387,-4.3562 -0.0745,-6.3303 -7.6275,-8.8188 -1.8473,-20.437 0.68094,-29.55 1.4888,1.6275 2.5358,4.2339 3.2105,7.2332 2.0241,8.9979 0.67903,21.552 -2.2927,21.932 l -0.5674,7.6884 c -2.7667,16.617 -3.6616,35.023 -7.5394,48.207 -3.8778,13.184 -1.9175,6.9396 -4.6797,9.2814 0,0 12.138,-2.4262 16.987,-4.8231 l 15.906,-12.146 c 2.2033,-9.2945 12.698,-11.023 19.965,-13.711 z"
       fill="#008f4c"
       fill-rule="evenodd"
       stroke="#000000"
       stroke-width="1.0738"
       id="path78" />
  </g>
</svg>
