<?xml version="1.0" encoding="UTF-8" standalone="no"?>
<svg
   version="1.1"
   width="256"
   height="168"
   id="svg58"
   sodipodi:docname="burrow.svg"
   inkscape:version="1.4.2 (f4327f4, 2025-05-13)"
   xmlns:inkscape="http://www.inkscape.org/namespaces/inkscape"
   xmlns:sodipodi="http://sodipodi.sourceforge.net/DTD/sodipodi-0.dtd"
   xmlns="http://www.w3.org/2000/svg"
   xmlns:svg="http://www.w3.org/2000/svg">
  <defs
     id="defs58" />
  <sodipodi:namedview
     id="namedview58"
     pagecolor="#ffffff"
     bordercolor="#000000"
     borderopacity="0.25"
     inkscape:showpageshadow="2"
     inkscape:pageopacity="0.0"
     inkscape:pagecheckerboard="0"
     inkscape:deskcolor="#d1d1d1"
     inkscape:zoom="3.1251594"
     inkscape:cx="235.188"
     inkscape:cy="34.718229"
     inkscape:window-width="2880"
     inkscape:window-height="1766"
     inkscape:window-x="-11"
     inkscape:window-y="-11"
     inkscape:window-maximized="1"
     inkscape:current-layer="svg58" />
  <path
     d="M 144.22437,6.5195312 C 201.12318,21.699961 254.98244,72.938223 250.72563,135.46909 220.17737,185.10675 149.52568,150.97336 102.02224,164.97836 60.602494,176.64827 -8.6358154,160.64363 26.578338,104.73475 45.009279,57.02541 86.867171,0.60256992 144.22437,6.5195312 Z"
     fill="#a28166"
     id="path1" />
  <path
     d="m 146.375,7.375 c 28.82539,27.261519 -72.922791,24.594483 -20.37115,31.170833 44.85247,6.32739 -28.3696,36.997736 -21.06047,65.385227 C 93.252584,168.96805 6.1640371,100.58392 49.915141,61.056996 71.144596,29.328661 105.44229,0.0641746 146.375,7.375 Z"
     fill="#ba9978"
     id="path2" />
  <path
     d="M 158,54 C 220.10321,86.199566 145.32219,192.3134 105.42687,124.96426 90.202508,91.581589 122.8692,51.352458 158,54 Z"
     fill="#281b16"
     id="path3" />
  <path
     d="M 228.71875,51.636719 C 264.58579,84.587412 246.61241,181.49255 190.71204,136.60041 214.90099,113.53269 206.5587,92.283282 188.42873,69.99928 186.15777,48.459438 213.8382,40.596954 228.71875,51.636719 Z"
     fill="#d4b58e"
     id="path4" />
  <path
     d="m 39,76 c -9.165757,51.46578 55.206795,62.69452 92.91143,65.95035 24.13987,-0.62395 82.8069,9.47341 24.65297,8.15952 C 115.32978,157.99523 11.972968,179.45028 23.403658,110.08035 28.313422,98.592232 36.349363,88.416801 39,76 Z"
     fill="#6c7331"
     id="path5" />
  <path
     d="m 74,34 c 8.021687,29.458783 7.266293,69.89469 23.393378,88.19774 C 54.642113,154.84818 11.428621,76.679534 58.157243,50.695745 63.342294,45.039373 68.848697,39.688019 74,34 Z"
     fill="#d4b68e"
     id="path6" />
  <path
     d="m 162,7 c 45.351,3.687031 19.51283,81.688979 -15.61331,38.153261 C 124.48858,45.470987 86.936677,31.049694 130.28678,25.430713 142.73075,25.506446 161.80101,23.510111 162,7 Z"
     fill="#bb9a78"
     id="path7" />
  <path
     d="m 16,146 c 69.11075,27.99736 142.91162,-6.66784 213.19203,8.29576 -43.21552,9.48035 -110.57412,12.48477 -163.281822,10.58659 C 57.624275,162.46555 -11.408262,163.41861 16,146 Z"
     fill="#8e9658"
     id="path8" />
  <path
     d="m 241,95 c 50.23332,38.71433 -65.7782,82.38736 -43.17384,30.90722 C 209.63147,112.51007 224.9582,102.58012 241,95 Z"
     fill="#ba9978"
     id="path9" />
  <path
     d="M 147.73737,30.416162 C 142.27931,57.894938 107.39109,86.027228 89.925778,93.574724 60.247047,66.305001 123.83015,28.261352 147.73737,30.416162 Z"
     fill="#785e4c"
     id="path10" />
  <path
     d="m 39,76 c -5.103032,24.17728 50.330373,81.25025 -6.782285,64.80154 C 2.5249197,123.96573 33.312581,96.901028 39,76 Z"
     fill="#94745e"
     id="path11" />
  <path
     d="M 74,34 C 117.12513,55.128235 37.175191,120.26026 44.449956,63.589729 51.94232,51.382629 66.354582,46.073312 74,34 Z"
     fill="#d3b58e"
     id="path12" />
  <path
     d="m 183,102 c 44.89713,-4.931746 -14.69557,52.05849 29.87166,48.92428 C 172.33976,165.91026 173.15042,129.43146 183,102 Z"
     fill="#785e4c"
     id="path14" />
  <path
     d="m 83,21 c 45.6061,0.435661 -8.100487,92.25321 -1.057262,29.677817 C 83.03905,40.833835 83.597456,30.90043 83,21 Z"
     fill="#94745e"
     id="path15" />
  <path
     d="M 162,7 C 186.29489,44.477543 82.344493,54.474702 120.35876,25.918277 135.17102,25.060041 162.43916,29.923023 162,7 Z"
     fill="#d2b48d"
     id="path16" />
  <path
     d="M 143.32525,35.280808 C 150.28009,62.013777 66.107253,118.53313 107.23924,66.057199 118.46871,54.854448 133.02782,47.48916 143.32525,35.280808 Z"
     fill="#60483c"
     id="path17" />
  <path
     d="M 84,122 C 127.24038,138.60768 33.621941,164.48935 73.735687,135.25578 79.176779,133.71416 86.549665,128.99969 84,122 Z"
     fill="#795f4d"
     id="path18" />
  <path
     d="m 189,28 c 32.98512,28.752042 -58.07955,28.7447 -7.22751,5.312064 l 3.97162,-2.168429 z"
     fill="#d3b58f"
     id="path19" />
  <path
     d="m 171,131 c 26.12991,-14.07874 59.44875,22.77418 14.25178,11.62147 C 179.3754,140.58412 173.7925,136.74275 171,131 Z"
     fill="#d3b58e"
     id="path20" />
  <path
     d="m 201,41 c 9.05986,30.829264 -58.16266,25.415686 -17.14046,6.435157 l 8.66131,-2.982895 z"
     fill="#7b614e"
     id="path21" />
  <path
     d="M 60.486869,63.084848 C 96.542179,65.30523 39.48823,106.56522 59.07412,65.912842 l 1.175029,-2.352134 z"
     fill="#a48368"
     id="path22" />
  <path
     d="m 104,56 c 15.4935,27.152133 -41.432004,28.031237 0,0 z"
     fill="#61493d"
     id="path24" />
  <path
     d="m 76,134 c 10.261979,24.53539 -35.388165,2.07116 0,0 z"
     fill="#614a3d"
     id="path25" />
  <path
     d="m 116.38586,9.9232323 c 6.53934,29.3313057 -37.952171,3.4680067 0,0 z"
     fill="#a58468"
     id="path26" />
  <path
     d="m 132.39798,30.723232 c -0.0781,28.776423 -30.90586,-15.433032 0,0 z"
     fill="#a38166"
     id="path27" />
  <path
     d="m 232,138 c 0.23376,27.87397 -38.69529,0.71614 -1.55658,3.18016 C 231.49655,140.5236 231.4639,139.04703 232,138 Z"
     fill="#79614b"
     id="path28" />
  <path
     d="m 149.98586,8 c -8.20124,26.502039 -44.17514,-11.3309299 0,0 z"
     fill="#d3b792"
     id="path29" />
  <path
     d="m 39,76 c 25.388278,14.411303 -30.181392,43.36725 0.512993,7.464216 l 0.479751,-3.781474 z"
     fill="#ba9c7e"
     id="path30" />
  <path
     d="m 171,131 c 31.22989,12.03231 -17.91582,23.67975 0,0 z"
     fill="#a38466"
     id="path31" />
  <path
     d="m 233,59 c 16.91789,15.739972 -25.11754,9.096262 0,0 z"
     fill="#ba9b7b"
     id="path32" />
  <path
     d="m 175,13 c 8.68604,20.574788 -25.65043,2.25569 0,0 z"
     fill="#a38267"
     id="path33" />
  <path
     d="m 150,32 c 8.30753,20.043709 -22.33117,-1.664734 0,0 z"
     fill="#795f4d"
     id="path34" />
  <path
     d="m 104.03636,124.53939 c 21.34752,18.46324 -26.907717,13.54897 0,0 z"
     fill="#ceb08a"
     id="path35" />
  <path
     d="m 77,35 c 18.394985,-4.186529 -1.847519,19.827113 0,0 z"
     fill="#a08065"
     id="path36" />
  <path
     d="m 218,51 c 1.19741,17.436435 -21.18146,3.81526 0,0 z"
     fill="#bb9a77"
     id="path37" />
  <path
     d="m 76,90 c 16.1522,-5.083071 -5.027108,16.30439 0,0 z"
     fill="#b79675"
     id="path38" />
  <path
     d="m 154.46667,42.682828 c 22.41961,0.771289 -10.37474,19.731205 0,0 z"
     fill="#92725c"
     id="path39" />
  <path
     d="m 25,133 c 19.520059,4.49254 -10.665416,17.24428 0,0 z"
     fill="#9f876b"
     id="path40" />
  <path
     d="m 175,13 c 8.45983,14.857057 -17.20214,-1.746821 0,0 z"
     fill="#7e6656"
     id="path41" />
  <path
     d="m 97,107 c -4.831378,16.6051 -10.925098,-13.501495 0,0 z"
     fill="#b69574"
     id="path42" />
  <path
     d="m 84,40 c 15.477568,-7.879965 3.194175,17.561086 0,0 z"
     fill="#634b3e"
     id="path46" />
  <path
     d="m 204,42 c 9.41732,12.460969 -11.60159,-2.572773 0,0 z"
     fill="#a4876e"
     id="path49" />
  <path
     d="m 119,22 c -0.0187,0.326957 -0.0187,0.326957 0,0 z"
     fill="#dabd99"
     id="path51" />
</svg>
