<?xml version="1.0" encoding="UTF-8" standalone="no"?>
<!-- Generator: Adobe Illustrator 27.5.0, SVG Export Plug-In . SVG Version: 6.00 Build 0)  -->

<svg
   version="1.1"
   x="0px"
   y="0px"
   viewBox="0 0 576.82135 586.328"
   xml:space="preserve"
   id="svg33"
   sodipodi:docname="mushroom.svg"
   width="576.82135"
   height="586.328"
   inkscape:version="1.4.2 (f4327f4, 2025-05-13)"
   xmlns:inkscape="http://www.inkscape.org/namespaces/inkscape"
   xmlns:sodipodi="http://sodipodi.sourceforge.net/DTD/sodipodi-0.dtd"
   xmlns="http://www.w3.org/2000/svg"
   xmlns:svg="http://www.w3.org/2000/svg"><defs
   id="defs33">
	
	
	
	

		
		
		
		
	</defs><sodipodi:namedview
   id="namedview33"
   pagecolor="#ffffff"
   bordercolor="#000000"
   borderopacity="0.25"
   inkscape:showpageshadow="2"
   inkscape:pageopacity="0.0"
   inkscape:pagecheckerboard="0"
   inkscape:deskcolor="#d1d1d1"
   inkscape:zoom="2.0259209"
   inkscape:cx="210.76835"
   inkscape:cy="242.60572"
   inkscape:window-width="2880"
   inkscape:window-height="1766"
   inkscape:window-x="-11"
   inkscape:window-y="-11"
   inkscape:window-maximized="1"
   inkscape:current-layer="svg33" />

<path
   style="fill:#e0c7af"
   d="m 1256.5206,284.2229 c -2.184,-0.573 -4.327,-1.229 -6.457,-1.952 -0.218,-1.065 -0.409,-2.143 -0.573,-3.208 -0.109,-0.628 -0.205,-1.269 -0.287,-1.897 -0.014,-0.082 -0.014,-0.15 -0.027,-0.218 -0.123,-0.901 -0.219,-1.802 -0.314,-2.703 1.816,3.522 4.382,6.852 7.658,9.978 z"
   id="path12" /><path
   d="M 557.23406,424.82888 C 585.93617,352.15924 568.94094,320.47612 548.41762,280.56715 521.56488,239.54813 470.08897,185.28971 382.36879,130.11972 294.64862,74.949741 274.96224,76.160018 175.37281,53.919691 102.95857,49.358401 71.397679,35.558047 24.146649,89.552217 -2.4910206,119.98624 -1.4983306,146.05301 1.4632594,158.88198 6.9161294,182.50404 29.068349,215.41444 136.93779,289.88541 l -58.090441,59.67901 c -31.20119,32.0494 -61.73838,66.90863 -62.62055,109.55172 -0.53001,25.65723 10.37475,53.19368 31.5342,79.63208 11.3792,14.21049 23.39197,25.29672 35.9227,33.17769 9.13965,5.74821 18.556641,9.79135 28.201871,12.09853 24.34856,5.82276 52.69144,0.48596 77.76152,-14.63976 19.45586,-11.73645 37.51667,-29.07799 56.84282,-54.57353 24.47594,-32.28622 45.78523,-69.72174 65.07058,-114.26245 126.43684,73.80363 168.26237,80.31337 193.00802,74.75322 12.84901,-2.88638 36.77302,-13.28224 52.66555,-50.47304 z"
   id="path13"
   sodipodi:nodetypes="ccscccccccscccccc"
   style="fill:#ffffff;fill-opacity:1;stroke:#000000;stroke-width:10;stroke-dasharray:none;stroke-opacity:1" />
</svg>
