<?xml version="1.0" encoding="UTF-8" standalone="no"?>
<svg
   version="1.1"
   width="482"
   height="362"
   id="svg1286"
   sodipodi:docname="carcas.svg"
   inkscape:version="1.4.2 (f4327f4, 2025-05-13)"
   xmlns:inkscape="http://www.inkscape.org/namespaces/inkscape"
   xmlns:sodipodi="http://sodipodi.sourceforge.net/DTD/sodipodi-0.dtd"
   xmlns="http://www.w3.org/2000/svg"
   xmlns:svg="http://www.w3.org/2000/svg">
  <defs
     id="defs1286" />
  <sodipodi:namedview
     id="namedview1286"
     pagecolor="#ffffff"
     bordercolor="#000000"
     borderopacity="0.25"
     inkscape:showpageshadow="2"
     inkscape:pageopacity="0.0"
     inkscape:pagecheckerboard="0"
     inkscape:deskcolor="#d1d1d1"
     inkscape:zoom="2.051105"
     inkscape:cx="214.51852"
     inkscape:cy="85.563636"
     inkscape:window-width="2880"
     inkscape:window-height="1766"
     inkscape:window-x="-11"
     inkscape:window-y="-11"
     inkscape:window-maximized="1"
     inkscape:current-layer="svg1286" />
  <path
     d="m 334,0 c 29.64718,30.58501 24.44152,76.176418 30.72378,115.00514 2.12257,52.42157 -5.03541,104.92848 -18.2084,155.61393 30.58587,-4.94771 34.31049,-41.04712 46.38033,-63.73452 17.49105,-43.28079 18.53678,-91.7914 9.06572,-137.087438 12.0493,-24.974343 38.00573,2.046259 37.91303,20.238514 -2.85717,27.258254 3.94581,55.646694 -1.57134,83.371064 -3.15236,23.24443 -9.57972,46.06053 -19.22368,67.45099 28.25537,-1.67176 22.33245,-38.25227 33.02663,-56.53509 1.4138,-18.95436 -12.55942,-58.24214 17.35289,-58.61402 20.07392,12.23547 13.3371,39.48559 9.61299,58.7304 -4.16989,24.47857 -9.00457,50.95183 -26.9018,69.46282 -21.59553,24.51235 14.37588,51.44684 0.99179,75.24011 -17.36102,15.41666 -42.66947,10.41668 -63.77722,15.53749 C 275.86881,360.84157 160.60358,362.28287 46.364941,353.88622 17.557758,366.40548 -5.3854553,327.2768 14.376154,305.2818 22.206726,273.37324 0.55379037,242.46796 8.406152,210.43613 6.3492262,191.37493 1.5001818,144.59139 32.517331,154.0421 c 15.166113,17.74619 3.216277,40.47032 4.460052,60.63018 1.307514,21.19896 8.801315,41.43318 10.43487,62.58935 12.054648,28.71758 52.671047,-0.70475 39.40454,-24.30638 -10.239816,-29.14549 -4.740209,-60.71639 -3.411559,-90.82084 -1.349862,-16.42646 -10.641283,-49.5299 16.017906,-47.31319 34.64869,6.09575 7.60243,44.67008 14.75402,66.22553 1.35271,26.5883 5.60069,53.10417 4.04986,79.78346 6.70749,26.25339 46.44835,12.06796 47.50658,-10.55652 0.22423,-21.15513 -2.11111,-42.33298 0.69276,-63.5385 2.48314,-36.05781 7.19637,-72.22331 4.10138,-108.400342 10.78409,-32.352621 55.28152,5.395243 35.36928,27.056022 -3.24858,52.9634 0.8666,106.66497 -10.14939,158.9344 7.99852,27.82817 43.11855,-1.82379 41.01276,-20.92943 0.25525,-33.48891 6.64967,-67.01845 8.71246,-100.57802 -1.78895,-18.0565 -0.92917,-58.693214 27.6209,-45.538753 24.37342,12.990263 9.65066,41.622803 10.89187,62.574163 -2.94068,28.22906 0.17263,58.27157 -12.29663,84.05411 -11.7585,25.64319 21.04171,41.82144 30.58672,14.91497 11.01461,-22.15013 7.66722,-47.90715 14.62687,-71.2235 9.48776,-55.86102 13.50409,-113.706984 1.52736,-169.522688 C 318.18293,9.5677014 324.04633,-1.5186305 334,0 Z m -5,1 c -7.3182,13.642745 12.31398,-3.422027 0,0 z m -10,13 c 1.51736,3.034643 1.16093,2.321807 0,0 z m 33,32 c 1.0476,3.142782 1.43843,4.315258 0,0 z m -251,61 c 3.536,0.88399 6.0217,1.50541 0,0 z m 220,80 c 1.51734,3.03467 1.1609,2.32178 0,0 z m 132,2 c 1.51734,3.03467 1.1609,2.32178 0,0 z m -1,4 c 1.51734,3.03467 1.1609,2.32178 0,0 z m -1,5 c 1.51734,3.03467 1.1609,2.32178 0,0 z m -2,7 c 1.51734,3.03467 1.1609,2.32178 0,0 z m -55,9 c 1.51734,3.03467 1.1609,2.32178 0,0 z"
     fill="#302827"
     id="path1" />
  <path
     d="m 467,113 c 23.42213,43.82593 12.82547,97.79095 -10.95967,139.1166 -28.30526,18.80021 4.12184,49.80092 -1.88569,73.2187 -16.11602,24.15103 -49.37264,15.69588 -73.90323,21.36058 -79.0049,9.44666 -158.74189,15.51352 -238.30765,10.77261 -17.74956,-0.78286 -47.999037,11.23735 -55.179752,-11.58841 6.608641,-20.98596 37.476732,-13.7724 55.484532,-17.05865 18.78082,-7.95014 42.29824,-15.01723 53.98528,8.32271 15.07767,25.15266 43.7082,3.43218 65.73635,2.55765 19.74335,-6.07847 46.66027,19.70568 57.45551,-8.20624 -2.72823,-20.74147 22.90735,-20.05323 33.35076,-34.4715 16.03868,-15.03567 24.74448,-35.58665 35.90435,-54.00573 2.21034,-17.30156 34.99806,-45.70421 35.79492,-15.08541 -7.38097,20.66724 12.35974,11.13319 13.77475,-2.97355 8.65788,-23.6586 19.81508,-48.98115 12.88099,-74.53494 C 448.7481,138.92166 447.30902,106.79899 467,113 Z m -14,76 c 1.51734,3.03467 1.1609,2.32178 0,0 z m -1,4 c 1.51734,3.03467 1.1609,2.32178 0,0 z m -1,5 c 1.51734,3.03467 1.1609,2.32178 0,0 z m -2,7 c 1.51734,3.03467 1.1609,2.32178 0,0 z"
     fill="#904341"
     id="path3" />
  <path
     d="m 467,113 c 25.18259,48.12721 10.18361,106.47899 -16.82929,150.43561 -13.73859,24.03443 -40.89828,42.54267 -69.39279,39.09265 -19.59417,-12.47334 -10.0381,-38.43082 1.22954,-53.39762 8.36447,-12.70953 24.78981,-44.62422 41.77585,-27.75242 -3.09569,9.71926 -3.83156,34.08189 8.39633,14.73767 20.28464,-33.80391 24.89229,-75.98506 16.64527,-114.26007 C 449.89294,114.16189 460.22701,106.6805 467,113 Z m -14,76 c 1.51734,3.03467 1.1609,2.32178 0,0 z m -1,4 c 1.51734,3.03467 1.1609,2.32178 0,0 z m -1,5 c 1.51734,3.03467 1.1609,2.32178 0,0 z m -2,7 c 1.51734,3.03467 1.1609,2.32178 0,0 z"
     fill="#050505"
     id="path4" />
  <path
     d="m 357,135 c 16.50069,28.15782 0.75687,60.20526 -0.9601,89.87516 -5.2446,24.85296 -5.37438,55.84975 -29.33438,71.0878 -22.01188,2.31977 -32.03731,-23.85 -26.16641,-41.8724 9.81686,-18.12277 12.74355,-37.54509 21.22461,-56.57091 13.95409,-19.04319 27.68109,-35.56213 32.10279,-59.13538 z"
     fill="#2f2c2b"
     id="path5" />
  <path
     d="m 29,138 c 20.521809,21.15249 1.840814,50.93142 8.515281,75.81895 4.469369,25.78529 5.786935,52.55448 16.160101,76.92125 28.973262,6.83853 19.815878,51.80068 -1.895974,61.66955 C 20.867759,355.62333 31.943471,311.37894 49.039246,302.50369 54.771573,269.09058 17.734746,251.7203 11.37085,221.78471 4.2682374,196.00061 7.0556457,166.74063 20.950942,143.73163 23.07976,141.18398 25.796147,139.0173 29,138 Z"
     fill="#645357"
     id="path6" />
  <path
     d="m 270,162 c -4.98934,25.73491 18.82321,51.01732 4.94502,75.97327 0.23618,21.21024 -10.36237,67.6987 -39.56571,50.37498 -17.47484,-18.96808 -3.98967,-45.38491 3.6738,-65.71733 C 247.0128,201.35204 256.32948,180.29293 270,162 Z"
     fill="#191614"
     id="path7" />
  <path
     d="m 260.0625,85.0625 c 25.89932,11.398936 28.65067,43.93192 25.01137,68.4794 8.88286,17.87357 -9.11989,42.19494 -27.03103,31.48579 -24.81761,16.59675 -15.69093,49.94615 -23.99997,74.29714 -14.82834,18.07043 2.02233,-19.08427 0.92569,-27.0253 5.4834,-35.5244 7.18548,-71.62793 14.15604,-106.88765 1.27254,-12.56638 -6.5914,-36.603599 10.9379,-40.34938 z"
     fill="#4d4948"
     id="path8" />
  <path
     d="m 85,139 c 3.340002,30.43668 -2.537588,64.48391 16.50885,90.92307 4.76556,26.27493 28.37166,51.01929 16.70783,78.73989 -2.57686,27.95112 -61.495573,21.44238 -42.806402,-7.87744 13.988943,-25.95631 8.867765,-56.22007 4.844188,-83.86764 C 80.012765,190.85822 83.749686,164.98997 85,139 Z"
     fill="#171414"
     id="path9" />
  <path
     d="m 222,298 c 25.31594,9.18284 48.93225,24.50672 75.82224,28.11568 22.81605,-16.03644 25.40334,39.75771 0.0776,20.84825 -29.89476,-1.65671 -61.98392,-4.036 -89.20775,11.92621 -14.04659,2.05073 -13.62864,-18.30682 -15.6113,-27.46335 C 201.05667,317.2423 235.08767,322.07785 222,298 Z"
     fill="#94383f"
     id="path10"
     style="stroke-width:1.03578" />
  <path
     d="m 467,113 c 15.35676,24.68552 16.41812,55.89815 8.85175,83.36261 -17.35721,23.23579 -29.70981,50.62855 -52.0885,69.79533 7.91469,19.59628 -33.96303,6.28001 -8.69274,-3.70305 27.26494,-35.30758 43.9809,-81.10992 36.77853,-125.97472 C 440.72946,127.66512 453.55291,103.9672 467,113 Z m -14,76 c 1.51734,3.03467 1.1609,2.32178 0,0 z m -1,4 c 1.51734,3.03467 1.1609,2.32178 0,0 z m -1,5 c 1.51734,3.03467 1.1609,2.32178 0,0 z m -2,7 c 1.51734,3.03467 1.1609,2.32178 0,0 z"
     fill="#6a6869"
     id="path11" />
  <path
     d="m 94,106 c 22.38952,4.55213 22.87191,31.07899 21.46718,49.30684 -1.46802,19.57185 11.61875,51.73056 -13.13919,60.50789 C 79.140352,207.99793 86.851632,177.09253 86.850381,157.93304 87.773399,140.4294 78.451786,120.00764 94,106 Z m 7,1 c 3.536,0.88399 6.0217,1.50541 0,0 z"
     fill="#888788"
     id="path12" />
  <path
     d="m 409,46 c 25.21512,11.332531 22.66575,42.771586 32.07744,64.58175 15.96597,25.9911 -32.52261,39.04503 -31.93354,56.08362 -10.50243,-18.89174 1.45645,-41.70096 -1.16972,-62.28325 3.61862,-19.091226 -13.87456,-39.844354 -0.92473,-56.733852 z"
     fill="#888687"
     id="path13" />
  <path
     d="m 171,315 c 23.99924,1.53379 30.47393,47.02093 -0.69751,36.90489 -25.03798,-2.21235 -49.82043,4.76767 -74.603899,4.98386 -24.6435,-8.3326 3.469826,-34.33497 20.096619,-26.39818 C 134.78719,330.05858 158.47029,332.81089 171,315 Z"
     fill="#7e4e4d"
     id="path14" />
  <path
     d="M 8,201 C 6.4352117,239.42845 45.006308,262.18216 52.754463,297.66834 34.813759,311.79194 32.943905,343.46311 35.44078,355.60419 4.9417651,358.61215 -0.19732242,316.4656 19.097151,299.92891 23.710031,275.27424 2.566198,254.08593 7.3642091,229.10605 7.6374112,219.73908 7.9987282,210.37241 8,201 Z"
     fill="#131211"
     id="path16" />
  <path
     d="m 330.36018,0 c 30.27257,23.771949 23.46916,62.765443 32.84656,94.340753 6.77505,24.189827 -39.49034,28.846417 -29.24301,1.663757 C 329.65885,67.854344 324.26308,39.808636 316.7333,12.191361 317.27219,6.2673312 322.64236,-1.3902455 330.36018,0 Z m -5.60893,1 c -8.20942,13.642745 13.81363,-3.422027 0,0 z m 25.80104,45 c 1.17517,3.142782 1.6136,4.315258 0,0 z"
     fill="#8f8e8d"
     id="path17"
     style="stroke-width:1.05914" />
  <path
     d="m 195,55 c 16.28412,29.989373 3.93995,64.85217 10.33805,96.78788 C 173.1153,158.24063 170.12889,115.66641 174.17616,93.587697 173.08111,78.717894 173.65013,53.195828 195,55 Z"
     fill="#8b8a89"
     id="path18" />
  <path
     d="m 174,82 c 9.12938,23.64642 -6.11474,54.11284 15.15536,73.29996 9.90343,4.97685 19.51486,-22.02045 15.44303,0.004 -3.73822,18.42861 9.14478,59.38905 -15.97179,61.06092 C 166.86807,205.23123 159.97123,176.36811 168.21515,154.44111 173.78351,130.83733 169.97667,105.97864 174,82 Z"
     fill="#4e4c4b"
     id="path19" />
  <path
     d="m 29,138 c 22.040401,19.81466 -2.022546,51.57031 12.978506,74.17513 -2.855436,32.5591 -45.0651178,0.91717 -31.383342,-19.9574 C 8.1989945,173.12133 8.3877159,147.21981 29,138 Z"
     fill="#767678"
     id="path20" />
  <path
     d="m 261.03758,73.605261 c 27.581,5.704795 36.17948,49.866689 10.64023,63.666879 -27.01262,-0.40118 -28.20652,-36.0057 -19.11596,-54.559038 1.53797,-3.925373 4.20665,-7.866979 8.47573,-9.107841 z"
     fill="#6f6e6c"
     id="path21" />
  <path
     d="m 274,317 c 4.96944,18.24529 50.70669,3.39937 38.41485,25.88249 -24.97406,-1.41722 -51.13515,5.39391 -75.05393,-4.66413 C 232.80334,318.13968 260.41244,314.89997 274,317 Z"
     fill="#814b42"
     id="path22" />
  <path
     d="m 356,182 c 11.25078,32.13207 -8.97383,63.70786 -7.85237,96.00647 -6.32102,27.75982 -54.17124,-2.72066 -35.10635,-19.15807 10.18306,0.92274 33.53802,11.18999 28.82244,-11.05778 C 345.64939,225.81632 339.19946,199.9039 356,182 Z m -31,55 c 4.23793,2.34242 -5.84909,0.92927 0,0 z"
     fill="#28211f"
     id="path23" />
  <path
     d="m 412,111 c -10.08101,28.2205 39.12243,35.21092 28.38449,63.37578 -2.77772,14.91172 -18.09294,44.87247 -33.27388,37.34433 -0.009,-21.22971 15.52189,-41.4718 6.46849,-63.3707 C 410.9504,136.18033 407.52311,123.18987 412,111 Z"
     fill="#484443"
     id="path25" />
  <path
     d="m 189,209 c 19.19884,20.99121 5.46223,50.07335 5.68384,74.75799 5.48596,33.69869 -60.3076,17.54653 -36.99311,-8.30197 20.06884,-7.03243 50.74856,-23.40632 35.31667,-49.18872 C 191.77726,220.48718 190.23097,214.77993 189,209 Z m 2,24 c 7.04215,-6.22092 -2.23593,5.79114 0,0 z"
     fill="#242121"
     id="path26" />
  <path
     d="m 105,209 c 19.50846,18.90737 5.75494,51.43688 24.91387,70.53471 28.40814,-22.73554 22.19504,50.78626 -1.0936,20.97086 C 110.92667,273.76433 104.18039,240.81043 105,209 Z"
     fill="#6a493e"
     id="path27" />
  <path
     d="m 102.02609,103.43803 c 17.79578,17.36461 19.82515,65.40038 -10.369134,66.04185 -16.186075,-18.27994 -10.804964,-51.4965 7.393119,-65.74985 l 1.530255,-0.15014 z"
     fill="#adadae"
     id="path28"
     style="stroke-width:1.12832" />
  <path
     d="m 329,110 c 4.65985,20.89772 23.44473,43.46382 9.39087,64.48591 -21.1609,12.58687 -20.33921,39.20649 -30.055,58.99139 3.26751,-30.32209 14.13372,-59.33785 15.72177,-89.93751 C 325.47931,132.32872 326.9446,121.11587 329,110 Z"
     fill="#555152"
     id="path29" />
  <path
     d="M 330.63874,-0.08618608 C 350.28775,16.380801 359.03606,45.925179 348.67098,69.845104 335.88841,49.72024 314.92643,25.386736 327.99836,0.38095492 c 0.88013,-0.15571367 1.76025,-0.31142733 2.64038,-0.467141 z m -5,1 c -7.3182,13.64274508 12.31398,-3.42202702 0,0 z m 23,45.00000008 c 1.0476,3.142782 1.43843,4.315258 0,0 z"
     fill="#adadaf"
     id="path31" />
  <path
     d="m 405,161 c 12.15299,32.87743 -5.03463,67.65935 -25.39647,93.18636 2.32588,10.77285 -22.44638,41.34832 -21.09935,20.61022 C 379.04289,239.3573 401.65762,202.86377 405,161 Z m -11,53 c 1.51734,3.03467 1.1609,2.32178 0,0 z"
     fill="#565152"
     id="path32" />
  <path
     d="m 90,332 c 9.501547,19.38363 54.25676,-4.73072 50.02924,18.40729 C 122.84067,361.7749 80.813273,364.28981 79.858943,338.26987 82.346919,335.03126 86.21347,333.22728 90,332 Z"
     fill="#824a45"
     id="path33" />
  <path
     d="m 429,196 c 2.53148,29.90745 -11.7476,64.50981 -41.83587,74.86092 -4.91508,-25.684 21.31722,-39.99056 33.9804,-58.1554 C 425.15755,207.78965 426.42554,201.56958 429,196 Z"
     fill="#060403"
     id="path34" />
  <path
     d="m 437.62626,179.1798 c -1.50554,36.66389 -49.08959,51.76659 -55.21572,86.8052 28.43056,-24.78077 36.32058,40.69343 3.58705,21.42282 -30.94279,-17.48243 -2.36043,-50.59893 17.23369,-64.95311 13.64979,-12.86387 23.85106,-28.28713 34.39498,-43.27491 z"
     fill="#2b2725"
     id="path35"
     style="stroke-width:1.23159" />
  <path
     d="m 188.12109,53.003906 c 20.23647,18.565738 19.63703,49.608154 11.72765,73.864964 -13.00315,-21.27522 -29.75538,-50.39376 -11.72765,-73.864964 z"
     fill="#ababac"
     id="path36" />
  <path
     d="m 456,143 c 7.49976,35.43308 5.29519,77.37785 -21.5647,104.51347 -6.17789,11.92003 -12.68675,31.2831 -29.6327,28.43264 C 434.53755,238.45055 461.72794,192.81164 456,143 Z"
     fill="#736f6e"
     id="path37" />
  <path
     d="m 278,332 c 19.44736,19.40318 48.5227,10.0503 72.65903,9.84814 10.87793,-12.40489 31.51488,13.70789 7.30312,6.58997 -27.29884,0.20286 -56.52415,-5.1447 -81.86788,7.95775 C 254.18993,359.45891 269.04788,337.27883 278,332 Z"
     fill="#784138"
     id="path39" />
  <path
     d="m 467,113 c 31.90705,3.41449 -1.07008,63.52583 -10.38914,25.86069 C 454.23701,129.52435 455.32843,115.26341 467,113 Z"
     fill="#7f7e7d"
     id="path41" />
  <path
     d="m 252,122.5266 c 3.73733,22.81038 -3.25446,46.20729 3.44441,68.75382 -16.00104,24.43269 -18.88115,53.17732 -23.05362,80.62387 -20.02408,-7.93455 11.22227,-29.63642 3.90375,-44.66524 C 240.23237,192.1729 246.0926,157.3354 252,122.5266 Z"
     fill="#3b3a3b"
     id="path42"
     style="stroke-width:0.943218" />
  <path
     d="m 409,46 c 27.75578,-11.034205 29.05431,55.72752 3.36025,31.573178 C 405.80579,68.693949 403.81376,55.995598 409,46 Z"
     fill="#9e9ea0"
     id="path43" />
  <path
     d="m 189,209 c 19.97463,20.56521 3.30724,49.90449 8.12131,74.36029 -27.57462,4.70907 -10.98731,-30.17616 -3.61246,-39.73415 C 192.79607,231.9787 187.26669,220.81619 189,209 Z m 2,24 c 7.04215,-6.22092 -2.23593,5.79114 0,0 z"
     fill="#2a2323"
     id="path45" />
  <path
     d="M 20,306 C 8.7037178,321.95531 50.926405,352.43118 23.103536,355.41542 3.9495963,347.37359 2.5820283,316.59366 20,306 Z"
     fill="#352926"
     id="path47" />
  <path
     d="m 38,153 c -0.123872,26.60859 -2.595747,53.43161 1.699522,79.856 C 7.7928589,225.74237 29.650725,188.53885 34.536629,168.81426 35.186,163.46333 35.558576,157.91163 38,153 Z"
     fill="#747272"
     id="path48" />
  <path
     d="m 404.21684,310.55152 c 16.84868,-10.88797 44.3503,23.02134 14.32284,21.29952 -12.04095,1.79923 -36.26979,-12.66672 -14.32284,-21.29952 z"
     fill="#7c4339"
     id="path49" />
  <path
     d="m 25,138 c 30.514268,-1.29137 9.15543,57.02473 -4.954871,33.26758 C 20.918506,160.12646 19.133859,148.10437 25,138 Z"
     fill="#989798"
     id="path50" />
  <path
     d="m 190.63704,165.75623 c 31.25903,3.82812 -4.18561,62.83738 -14.0123,28.20998 2.02963,-10.61268 11.22793,-17.90309 14.0123,-28.20998 z"
     fill="#313234"
     id="path51" />
  <path
     d="m 294,290 c 1.46843,13.31755 -13.78189,27.19287 -15.09694,35.99151 C 251.2404,323.35492 272.97009,275.84287 294,290 Z"
     fill="#82403a"
     id="path54" />
  <path
     d="m 412,111 c -18.92207,23.62325 34.29148,27.17901 24.62621,48.12084 C 408.88513,176.73814 399.85262,127.62755 412,111 Z"
     fill="#6d6b6c"
     id="path55" />
  <path
     d="m 167,317 c 8.52389,20.2237 -42.61363,38.39379 -35.80503,11.48768 C 143.16504,325.11124 158.84331,328.77639 167,317 Z m -52,28 c 3.14285,1.04761 4.31522,1.43839 0,0 z"
     fill="#7e4239"
     id="path59" />
  <path
     d="m 474,200 c 0.52187,27.34288 -21.23497,47.6778 -41.15516,63.19089 C 442.38493,239.62471 460.72541,221.32229 474,200 Z"
     fill="#202020"
     id="path63" />
  <path
     d="m 90,332 c 28.89196,5.40821 -19.855655,39.02448 -13.399059,9.94042 C 79.058121,336.61138 84.51657,333.39725 90,332 Z"
     fill="#72433e"
     id="path67" />
  <path
     d="m 359,66 c 2.61372,13.688767 14.01825,51.74772 -4.39504,47.10925 C 355.61315,97.414526 367.14294,81.532388 359,66 Z"
     fill="#838386"
     id="path70" />
  <path
     d="m 403,56 c 16.03694,27.060539 9.83394,59.60653 7.20535,89.19014 C 400.91186,116.16518 413.28177,84.844898 403,56 Z"
     fill="#6e6968"
     id="path77" />
  <path
     d="m 179,54 c 12.59355,8.201278 5.9615,43.580377 -3.44316,41.635176 C 171.30066,81.884145 174.92691,67.316847 179,54 Z"
     fill="#929193"
     id="path81" />
  <path
     d="m 415,118 c 22.44487,2.8419 16.06876,50.26428 0.11469,19.62257 C 413.9493,131.12606 415.00279,124.53516 415,118 Z"
     fill="#706f6f"
     id="path83" />
  <path
     d="m 409,46 c 26.21389,-7.182671 -3.74609,39.059632 -3.49977,9.686607 C 405.58344,52.216143 406.50376,48.554525 409,46 Z"
     fill="#a9a9aa"
     id="path85" />
  <path
     d="m 203,110 c 5.77551,17.24099 8.56755,47.82632 -11.15355,56.41191 C 188.15414,153.25293 216.40178,129.59423 203,110 Z"
     fill="#5e5d5e"
     id="path86" />
  <path
     d="m 272,97 c 22.58868,-14.487939 12.07754,45.70409 6.26942,16.35953 C 276.2266,107.88964 272.96735,102.84491 272,97 Z"
     fill="#817f85"
     id="path87" />
  <path
     d="m 260.0625,85.0625 c -1.29895,8.315915 -5.28224,45.68903 -11.96313,21.29584 -0.0338,-8.363183 2.88783,-18.712825 11.96313,-21.29584 z"
     fill="#7d7a79"
     id="path96" />
  <path
     d="m 357.0835,303.49832 c 30.66655,-1.94791 -14.43755,37.18651 -2.00502,1.49337 z"
     fill="#7b4541"
     id="path99" />
  <path
     d="m 251,194 c 15.58159,8.71031 -12.61323,48.19891 -9.6963,19.68204 C 243.57866,206.70792 246.75619,199.99771 251,194 Z"
     fill="#232220"
     id="path103" />
  <path
     d="m 324,153 c 1.85802,33.11609 -10.23286,64.6167 -16.97146,96.53253 C 306.78833,216.50899 320.31698,185.49766 324,153 Z"
     fill="#2c2e2f"
     id="path109" />
  <path
     d="m 180,57 c 9.59222,3.384685 18.38421,39.69755 4.50585,21.627156 C 182.53274,71.517585 182.1851,64.059304 180,57 Z"
     fill="#b3b5b5"
     id="path113" />
  <path
     d="m 458,205 c 1.3126,27.40657 -18.83957,49.51255 -38.63698,65.77771 C 430.33226,247.73244 453.98223,231.38577 458,205 Z"
     fill="#5d5958"
     id="path117" />
  <path
     d="m 325,237 c 4.23793,2.34242 -5.84909,0.92927 0,0 z m 0,6 c 17.1395,18.41641 -30.04826,14.31062 -8.45999,1.46728 C 318.94708,243.34795 322.24764,241.28427 325,243 Z"
     fill="#13100f"
     id="path127" />
  <path
     d="m 271,92 c 22.24694,-1.8532 -3.77787,37.13249 -2.31495,9.18415 C 268.13,98.015611 268.54804,94.336557 271,92 Z"
     fill="#8e8e8d"
     id="path133" />
  <path
     d="m 409,95 c -0.92554,12.4753 7.68073,27.4652 -3.19334,37.70183 C 405.94589,120.07226 407.64968,107.53733 409,95 Z"
     fill="#242928"
     id="path161" />
  <path
     d="m 174,82 c 15.03937,4.966152 -2.01015,46.99483 -1.84407,19.04241 C 172.72964,94.691004 173.41306,88.350154 174,82 Z"
     fill="#666666"
     id="path167" />
  <path
     d="m 409,46 c 19.40646,4.514106 -15.63008,26.381391 -3.1548,4.587216 C 406.33838,48.684673 407.74567,47.415608 409,46 Z"
     fill="#9a9b9c"
     id="path179" />
  <path
     d="m 97,106 c 20.0453,-17.289695 20.31507,46.88373 14.85256,14.18151 C 110.40344,113.1397 105.03797,105.45907 97,106 Z"
     fill="#5c5f62"
     id="path189" />
  <path
     d="m 412,111 c 10.34372,6.21297 -1.94962,39.78392 -0.1242,14.13645 C 412.57266,120.47082 412.99438,115.6609 412,111 Z"
     fill="#6e6c6d"
     id="path190" />
  <path
     d="m 359,66 c 2.60285,9.095358 9.50942,29.491023 1.4624,33.303177 C 360.04109,88.199475 359.67487,77.0921 359,66 Z"
     fill="#787777"
     id="path196" />
  <path
     d="m 202,85 c 0.14693,12.551146 9.02695,29.14804 -4.3787,38.0012 C 198.40975,110.25699 204.51272,97.918571 202,85 Z"
     fill="#818289"
     id="path204" />
  <path
     d="m 25,138 c 13.495606,12.49406 -17.0757126,7.48031 0,0 z"
     fill="#9a9c9e"
     id="path236" />
  <path
     d="m 246,213 c 11.70563,9.15764 -14.79826,10.12704 0,0 z"
     fill="#1c1a1a"
     id="path246" />
  <path
     d="m 179,54 c 15.14848,-0.05266 -3.46585,22.135834 0.33967,2.51112 C 179.22645,55.67408 179.11322,54.83704 179,54 Z"
     fill="#9c9c9f"
     id="path250" />
  <path
     d="m 175,64 c 14.49692,2.391822 -7.07486,23.554634 0.0358,5.306078 l -0.006,-2.653105 z"
     fill="#888a8b"
     id="path258" />
  <path
     d="m 174,120 c 10.7698,9.86291 -7.791,16.88261 0,0 z"
     fill="#524f4f"
     id="path260" />
  <path
     d="m 256,87 c 14.23886,5.540221 -13.36282,7.397236 0,0 z"
     fill="#7b7a7a"
     id="path269" />
  <path
     d="m 260.0625,85.0625 c -1.27706,17.76001 -9.77432,-12.467902 0,0 z"
     fill="#6e6f71"
     id="path272" />
  <path
     d="m 176,60 c 13.12863,9.276215 -4.7598,22.512555 0,0 z"
     fill="#9c9c9e"
     id="path324" />
  <path
     d="m 267,106 c 16.53605,4.39762 -11.74975,12.26685 0,0 z"
     fill="#888685"
     id="path333" />
  <path
     d="m 196,56 c 15.58878,8.966102 -9.52718,13.893517 0,0 z"
     fill="#a2a5a7"
     id="path343" />
  <path
     d="m 202,116 c 12.86649,14.28138 -13.73006,13.69924 0,0 z"
     fill="#9a99a0"
     id="path368" />
  <path
     d="m 180,57 c 17.99789,7.880984 -12.06427,15.366332 0,0 z"
     fill="#c3c3c5"
     id="path407" />
  <path
     d="m 248,119 c 12.56149,10.38637 -9.60587,13.43113 0,0 z"
     fill="#2b2c2c"
     id="path414" />
  <path
     d="m 91,344 c 10.45797,-12.45703 5.845466,12.51545 0,0 z"
     fill="#734440"
     id="path419" />
  <path
     d="m 14,338 c 13.531747,9.71669 -13.45587261,2.05783 0,0 z"
     fill="#483a3f"
     id="path420" />
  <path
     d="m 412,111 c 8.69846,12.53125 -6.20919,16.6921 0,0 z"
     fill="#585354"
     id="path427" />
  <path
     d="m 408,47 c 9.43882,18.61583 -18.75853,5.272786 0,0 z"
     fill="#787679"
     id="path429" />
  <path
     d="m 327.17608,321.70036 c 59.24951,-6.78051 -11.33552,42.55841 0,0 z"
     fill="#7d3e33"
     id="path464"
     style="stroke-width:2.48939" />
  <path
     d="m 197,95 c 18.17258,10.36669 -13.93104,12.29156 0,0 z"
     fill="#a1a2a5"
     id="path494" />
  <path
     d="m 244,209 c 12.93569,15.04973 -16.27457,8.11798 0,0 z"
     fill="#262526"
     id="path504" />
  <path
     d="m 454.5625,120.9375 c 16.87364,-2.84435 -5.69211,13.53548 0,0 z"
     fill="#726f6f"
     id="path588" />
  <path
     d="m 412,47 c 15.73818,-4.13385 -7.94547,11.138193 0,0 z"
     fill="#b7b9ba"
     id="path589" />
  <path
     d="m 368.67904,317.34883 c 34.02381,0.22661 -29.09644,8.84607 0,0 z m -5.03162,8.87515 c 88.63452,10.58876 -50.4878,20.91253 0,0 z"
     fill="#93483c"
     id="path606"
     style="stroke-width:3.85817" />
  <path
     d="m 92,272 c 15.27801,9.15989 -12.913954,8.2845 0,0 z"
     fill="#050406"
     id="path645" />
  <path
     d="m 328,252 c 3.09928,16.10264 -10.82791,-7.34678 0,0 z"
     fill="#191514"
     id="path646" />
  <path
     d="m 413,121 c 14.35134,10.30236 -10.72427,12.90591 0,0 z"
     fill="#676567"
     id="path649" />
  <path
     d="m 112,144 c -0.42348,16.11502 -9.47084,-10.20234 0,0 z"
     fill="#aeadb1"
     id="path661" />
  <path
     d="m 201,90 c 12.95377,11.60807 -12.99318,11.60214 0,0 z"
     fill="#b5b6bb"
     id="path738" />
  <path
     d="m 22,298 c 16.234983,-1.5513 -8.980214,10.80137 0,0 z"
     fill="#161819"
     id="path750" />
  <path
     d="m 403,50 c 22.26634,-2.356002 -7.33601,14.843438 0,0 z"
     fill="#b6b3b8"
     id="path881" />
  <path
     d="m 312,255 c 7.68629,-14.61778 7.91494,11.3256 0,0 z"
     fill="#2a2425"
     id="path1013" />
  <path
     d="m 418,99 c 16.37295,3.05236 -11.62404,7.57702 0,0 z"
     fill="#8d8b8c"
     id="path1055" />
  <path
     d="m 321,254 c 16.13832,0.0192 -9.49161,11.13938 0,0 z"
     fill="#090706"
     id="path1087" />
  <path
     d="m 265,220 c 12.73539,6.17292 -10.80978,4.12669 0,0 z"
     fill="#0a0704"
     id="path1088" />
  <path
     d="m 197,115 c 10.36551,1.57091 -6.63082,5.04973 0,0 z"
     fill="#a8a8ab"
     id="path1191" />
</svg>
