<?xml version="1.0" encoding="UTF-8"?>
<svg width="600" height="230" version="1.1" xmlns="http://www.w3.org/2000/svg" xmlns:xlink="http://www.w3.org/1999/xlink">
	<g fill="#eac102" stroke="#000" stroke-linecap="round" stroke-linejoin="round">
		<g stroke-width="4.1749">
			<path d="m254.01 191c29.98 14.557 47.317 15.314 66.511 17.29-0.473-25.726 1.8658-32.17 4.8428-34.209"/>
			<path d="m209.34 58.106c3.3149-10.394 15.842-28.29 44.569-45.939 9.0249 17.049 33.749 34.292 52.456 51.01"/>
			<path d="m357.25 155.34c67.938 37.181 41.565-3.866 93.601-28.832"/>
		</g>
		<path d="m23.136 103.16c74.74-45.297 164.43-44.55 234.65-45.947 64.544 2.776 165.68 21.517 189.24 24.769 10.147 1.401 28.054-6.479 48.612-18.741 22.329-13.319 42.057-26.743 68.595-43.717 12.332 29.365-21.676 66.538-30.517 84.663 9.9296 25.997 44.34 46.776 54.187 67.679-39.482 1.48-93.545-22.848-126.32-33.464-38.431-3.939-40.803 2.544-63.748 8.232-67.292 16.678-94.945 59.712-240.97 40.897" stroke-width="4.1753"/>
		<g stroke-width="4.1749">
			<path d="m117.36 151.58c31.193 23.4 51.728 44.576 53.518 65.648-9.9859 5.287-47.358-25.584-79.343-53.504"/>
			<path d="m121.12 108.79c18.474 62.784-47.118 71.748-101.06 29.545-5.7889-14.954 4.6888-12.123 12.167-12.212"/>
			<path d="m101.97 105.41c6.5396 26.454 0.8296 44.355-25.404 47.925"/>
			<path d="m70.062 135.44c-39.362 7.924-94.134-59.157-24.784-22.187"/>
			<path d="m81.7 107.66a8.9257 12.685 88.052 0 1-25.355 0.862 8.9257 12.685 88.052 1 1 25.355-0.862z"/>
			<path d="m76.069 106.16a5.0038 6.0043 88.052 1 1-1.2614-2.917l-4.7377 3.121z"/>
			<path d="m533.69 104.28c-18.098 0.102-41.408 2.666-63.88 5.62"/>
			<path d="m550.96 76.501c-13.492 4.465-24.379 7.308-33.944 10.187"/>
			<path d="m565.23 45.342c-19.555 10.69-32.957 16.361-58.271 30.057"/>
			<path d="m570.86 150.08c-18.733-1.16-40.826-9.156-59.702-14.572"/>
			<path d="m549.09 127.56c-10.391-1.316-21.954-2.737-32.345-4.052"/>
			<path d="m262.27 23.943c-12.426 10.735-23.155 21.971-30.885 34.094"/>
			<path d="m273.16 35.206c-8.045 6.488-14.964 14.134-19.859 22.067"/>
			<path d="m284.05 44.966c-5.1581 5.519-7.3805 9.443-9.5617 13.342"/>
			<path d="m121.12 173.73 49.242 42.782"/>
			<path d="m292.3 195.13c8.6307 2.511 18.084 4.14 28.212 5.048"/>
			<path d="m309.95 187.62 11.101 2.626"/>
			<path d="m389.91 157.59 18.275 7.389"/>
			<path d="m403.05 151.21 13.729 3.757"/>
			<path d="m140.64 83.634c12.051 9.188 2.932 21.798 0.7245 21.273"/>
			<path d="m154.9 111.04c12.351 9.417 3.007 22.341 0.7433 21.802"/>
			<path d="m171.8 73.873c12.351 9.417 3.0071 22.341 0.7433 21.803"/>
			<path d="m186.06 102.03c15.655 11.934 3.8104 28.313 0.9423 27.63"/>
			<path d="m136.51 138.07c10.973 8.365 2.6692 19.845 0.6607 19.367"/>
			<path d="m168.8 142.57c12.347 9.417 3.0032 22.341 0.7395 21.803"/>
			<path d="m211.22 121.55c12.351 9.418 3.0033 22.341 0.7395 21.803"/>
			<path d="m201.83 159.47c12.351 9.418 3.0033 22.342 0.7396 21.803"/>
			<path d="m208.59 71.62c12.351 9.418 3.007 22.342 0.7433 21.804"/>
			<path d="m247.63 73.122c14.6 11.134 3.5513 26.413 0.8747 25.777"/>
			<path d="m239 141.07c14.652 11.171 3.5664 26.502 0.8822 25.863"/>
			<path d="m262.65 112.92c14.19 10.82 3.4538 25.669 0.8522 25.05"/>
			<path d="m288.55 86.261c12.952 9.876 3.1535 23.428 0.7771 22.863"/>
			<path d="m291.18 145.58c12.351 9.417 3.0033 22.342 0.7433 21.803"/>
			<path d="m317.46 119.67c12.347 9.417 3.0033 22.341 0.7396 21.803"/>
			<path d="m329.47 76.876c12.351 9.417 3.0033 22.342 0.7396 21.803"/>
			<path d="m347.87 124.55c12.347 9.418 3.0033 22.342 0.7396 21.803"/>
			<path d="m376.4 116.29c11.431 8.716 2.7818 20.677 0.687 20.179"/>
			<path d="m365.89 81.381c10.508 8.014 2.5565 19.013 0.6307 18.555"/>
			<path d="m437.59 99.401c9.13 6.962 2.2187 16.516 0.5481 16.118"/>
			<path d="m413.56 107.28c10.512 8.015 2.5565 19.013 0.6307 18.555"/>
			<path d="m396.67 89.265c10.512 8.014 2.5566 19.013 0.6307 18.554"/>
		</g>
	</g>
</svg>
