<?xml version="1.0" encoding="UTF-8" standalone="no"?>
<svg
   id="svg2"
   viewBox="0 0 267.27976 332.5656"
   version="1.0"
   sodipodi:docname="lookout.svg"
   width="267.27975"
   height="332.56558"
   inkscape:version="1.4.3 (0d15f75, 2025-12-25)"
   xmlns:inkscape="http://www.inkscape.org/namespaces/inkscape"
   xmlns:sodipodi="http://sodipodi.sourceforge.net/DTD/sodipodi-0.dtd"
   xmlns="http://www.w3.org/2000/svg"
   xmlns:svg="http://www.w3.org/2000/svg"
   xmlns:rdf="http://www.w3.org/1999/02/22-rdf-syntax-ns#"
   xmlns:cc="http://creativecommons.org/ns#"
   xmlns:dc="http://purl.org/dc/elements/1.1/">
  <defs
     id="defs1" />
  <sodipodi:namedview
     id="namedview1"
     pagecolor="#ffffff"
     bordercolor="#000000"
     borderopacity="0.25"
     inkscape:showpageshadow="2"
     inkscape:pageopacity="0.0"
     inkscape:pagecheckerboard="0"
     inkscape:deskcolor="#d1d1d1"
     inkscape:zoom="2.266622"
     inkscape:cx="114.92874"
     inkscape:cy="270.6671"
     inkscape:window-width="2880"
     inkscape:window-height="1766"
     inkscape:window-x="-11"
     inkscape:window-y="-11"
     inkscape:window-maximized="1"
     inkscape:current-layer="svg2" />
  <path
     id="path2384"
     d="m 257.40437,329.20773 c -1.16,-0.47 -3.05,-2.46 -4.22,-4.44 -2.53,-4.28 -6.7,-4.9 -9.78,-1.44 -5,5.62 -15.96,7.36 -26.14,4.15 -6.81,-2.15 -8.46,-4.03 -20.58,-23.4 -7.33,-11.72 -11.14,-16.74 -15.96,-21.02 -4,-3.57 -7.51,-7.88 -9.58,-11.75 -3.5,-6.57 -5.13,-7.41 -7.59,-3.9 -1.84,2.63 -2,6.7 -0.41,10.2 0.89,1.94 0.86,2.87 -0.12,4.05 -1.04,1.25 -4.13,1.52 -17.4,1.51 -8.87,-0.01 -16.79,-0.44 -17.61,-0.95 -1.24,-0.79 -1.03,-1.41 1.31,-3.85 2.34,-2.45 3.83,-3 9.44,-3.53 6.6,-0.61 5.1007,-1.11119 11.8407,-7.80119 7.36,-7.3 10.3093,-10.80881 6.5993,-14.16881 -2.59,-2.35 -28.87,-13.68 -31.71,-13.68 -1.68,0 -3.31,1.27 -5.42,4.25 -2.05378,5.14733 -5.58793,9.84415 -8.15793,11.21415 -3.56,1.91 -9.86726,11.47644 -9.86726,15.47644 0,4.69 0.54519,7.05941 3.45519,7.05941 2.38,0 5.33,3.5 4.03,4.79 -0.83,0.84 -36.613004,1.39 -38.533004,0.6 -1.845,-0.76 4.165,-3.2 8.168,-3.32 4.37,-0.12 5.81,-1.11 7.975,-5.45 1.132,-2.27 4.675,-6.82 7.873,-10.12 3.413856,-7.87326 7.284744,-12.32 9.987004,-15.98 2.32242,-3.14554 -6.846004,-16.52 -12.744004,-23.48 -3.007,-3.54 -9.237,-12.18 -13.846,-19.18 -4.609,-7 -8.848,-13.01 -9.419,-13.37 -1.854,-1.14 -6.613,-11.77 -9.4,-20.99 -1.497,-4.95 -4.042,-12.6 -5.658,-17 -3.39,-9.24 -6.219,-18.66 -7.963,-26.5 -0.673,-3.03 -1.621,-6.82 -2.107,-8.43 -2.674,-8.84 -1.965,-22.171001 1.592,-29.964001 2.017,-4.417 4.299,-14.977 4.918,-22.749 0.454,-5.719 0.257,-6.883 -1.424,-8.405 -1.074,-0.971 -1.952,-2.302 -1.952,-2.958 0,-0.655 -0.694,-2.582 -1.543,-4.283 -2.494,-5 -8.481,-7.578 -23.458,-10.102 -7.381,-1.244 -14.9550003,-2.903 -16.8320003,-3.688 -2.9277,-1.223 -3.2286,-1.647 -2.1195,-2.983 3.0178,-3.636 15.4620003,-9.114 24.9520003,-10.985 7.837,-1.544 12.516,-3.803 16.617,-8.024 2.33,-2.3969 5.507,-4.6483998 7.06,-5.0031998 1.553,-0.3549 6.649,-1.9148 11.324,-3.4666 11.035,-3.6627 16.594,-4.4119 22.071,-2.9742 6.712,1.7621 20.692004,11.4489998 26.182004,18.1489998 2.62,3.188 9.01,9.431 14.2,13.872 9.19,7.865 14.53,14.045 17.98,20.812 1.24,2.424 3.37,4.114 7.88,6.249 3.4,1.61 6.86,2.932 7.69,2.937 2.68,0.019 11.61,5.761 16.38,10.533 9.45,9.453 20,27.433001 26.07,44.423001 1.46,4.11 3.01,7.93 3.45,8.5 1.05,1.39 2.86,8.87 3.62,15.04 0.34,2.75 1.46,7.47 2.49,10.5 1.02,3.02 3.06,10.9 4.53,17.5 1.47,6.6 3.74,15.51 5.06,19.81 1.32,4.29 2.4,8.8 2.4,10.02 0,3.5 6.73,25.98 9.79,32.67 1.13,2.47 3.7,9.4 5.71,15.38 2.11,6.3 5.65,14.1 8.39,18.5 2.61,4.19 5.68,9.64 6.81,12.12 3.41,7.4 7.3,16.22 7.3,16.55 0,0.17 -1.02,0.45 -2.25,0.63 -1.99,0.28 -2.22,0.8 -1.94,4.57 0.18,2.34 1.88,7.62 3.78,11.73 4.19,9.08 5.08,13 3.41,15.01 -1.38,1.66 -3.41,1.82 -6.6,0.53 z"
     style="fill:#000000;fill-opacity:1;stroke:#ffffff;stroke-width:5;stroke-dasharray:none;stroke-opacity:1"
     sodipodi:nodetypes="ccccccccccccccccsccsscccccscsccccccccscccccccccccccccccccscsccccscccccc" />
  <metadata
     id="metadata1">
    <rdf:RDF>
      <cc:Work>
        <dc:format>image/svg+xml</dc:format>
        <dc:type
           rdf:resource="http://purl.org/dc/dcmitype/StillImage" />
        <cc:license
           rdf:resource="http://creativecommons.org/licenses/publicdomain/" />
        <dc:publisher>
          <cc:Agent
             rdf:about="http://openclipart.org/">
            <dc:title>Openclipart</dc:title>
          </cc:Agent>
        </dc:publisher>
        <dc:title>crow standing</dc:title>
        <dc:date>2008-07-25T09:46:41</dc:date>
        <dc:description>animal, animal, bird, bird, black, black, clip art, clipart, crow, crow, gothic, gothic, image, media, nature, nature, png, public domain, raven, raven, silhouette, silhouette, svg, </dc:description>
        <dc:source>http://openclipart.org/detail/18095/crow-standing-by-peileppe-18095</dc:source>
        <dc:creator>
          <cc:Agent>
            <dc:title>Peileppe</dc:title>
          </cc:Agent>
        </dc:creator>
        <dc:subject>
          <rdf:Bag>
            <rdf:li>animal</rdf:li>
            <rdf:li>bird</rdf:li>
            <rdf:li>black</rdf:li>
            <rdf:li>clip art</rdf:li>
            <rdf:li>clipart</rdf:li>
            <rdf:li>crow</rdf:li>
            <rdf:li>gothic</rdf:li>
            <rdf:li>image</rdf:li>
            <rdf:li>media</rdf:li>
            <rdf:li>nature</rdf:li>
            <rdf:li>png</rdf:li>
            <rdf:li>public domain</rdf:li>
            <rdf:li>raven</rdf:li>
            <rdf:li>silhouette</rdf:li>
            <rdf:li>svg</rdf:li>
          </rdf:Bag>
        </dc:subject>
      </cc:Work>
      <cc:License
         rdf:about="http://creativecommons.org/licenses/publicdomain/">
        <cc:permits
           rdf:resource="http://creativecommons.org/ns#Reproduction" />
        <cc:permits
           rdf:resource="http://creativecommons.org/ns#Distribution" />
        <cc:permits
           rdf:resource="http://creativecommons.org/ns#DerivativeWorks" />
      </cc:License>
    </rdf:RDF>
  </metadata>
</svg>
