<?xml version="1.0" encoding="UTF-8" standalone="no"?>
<!-- Created with Inkscape (http://www.inkscape.org/) -->

<svg
   version="1.1"
   id="svg14165"
   width="166.51453"
   height="206.58052"
   viewBox="0 0 166.51453 206.58052"
   sodipodi:docname="milkcapmushroom.svg"
   inkscape:version="1.4.3 (0d15f75, 2025-12-25)"
   xmlns:inkscape="http://www.inkscape.org/namespaces/inkscape"
   xmlns:sodipodi="http://sodipodi.sourceforge.net/DTD/sodipodi-0.dtd"
   xmlns="http://www.w3.org/2000/svg"
   xmlns:svg="http://www.w3.org/2000/svg">
  <defs
     id="defs14169">
    <clipPath
       clipPathUnits="userSpaceOnUse"
       id="clipPath1">
      <path
         d="m -360.4805,425.8447 h 600 v -600 h -600 z"
         id="path1"
         style="stroke-width:0.999998" />
    </clipPath>
    <clipPath
       clipPathUnits="userSpaceOnUse"
       id="clipPath2">
      <path
         d="m -358.9385,352.0264 h 600 v -600 h -600 z"
         id="path2"
         style="stroke-width:0.999998" />
    </clipPath>
    <clipPath
       clipPathUnits="userSpaceOnUse"
       id="clipPath3">
      <path
         d="m -421.2236,376.9697 h 600 v -600 h -600 z"
         id="path3"
         style="stroke-width:0.999998" />
    </clipPath>
    <clipPath
       clipPathUnits="userSpaceOnUse"
       id="clipPath4">
      <path
         d="m -333.8184,330.9062 h 600 v -600 h -600 z"
         id="path4"
         style="stroke-width:0.999998" />
    </clipPath>
    <clipPath
       clipPathUnits="userSpaceOnUse"
       id="clipPath5">
      <path
         d="m -426.5088,395.9746 h 600 v -600 h -600 z"
         id="path5"
         style="stroke-width:0.999998" />
    </clipPath>
    <clipPath
       clipPathUnits="userSpaceOnUse"
       id="clipPath6">
      <path
         d="m -336.3203,385.7197 h 600 v -600 h -600 z"
         id="path6"
         style="stroke-width:0.999998" />
    </clipPath>
    <clipPath
       clipPathUnits="userSpaceOnUse"
       id="clipPath7">
      <path
         d="m -435.291,372.8887 h 600 v -600 h -600 z"
         id="path7"
         style="stroke-width:0.999998" />
    </clipPath>
    <clipPath
       clipPathUnits="userSpaceOnUse"
       id="clipPath8">
      <path
         d="m -325.4727,339.501 h 600 v -600 h -600 z"
         id="path8"
         style="stroke-width:0.999998" />
    </clipPath>
    <clipPath
       clipPathUnits="userSpaceOnUse"
       id="clipPath9">
      <path
         d="m -306.1904,339.5889 h 600 v -600 h -600 z"
         id="path9"
         style="stroke-width:0.999998" />
    </clipPath>
    <clipPath
       clipPathUnits="userSpaceOnUse"
       id="clipPath10">
      <path
         d="m -284.3325,155.9097 h 600 v -600 h -600 z"
         id="path10"
         style="stroke-width:0.999998" />
    </clipPath>
    <clipPath
       clipPathUnits="userSpaceOnUse"
       id="clipPath11">
      <path
         d="m -210.2202,143.8252 h 600 v -600 h -600 z"
         id="path11"
         style="stroke-width:0.999998" />
    </clipPath>
    <clipPath
       clipPathUnits="userSpaceOnUse"
       id="clipPath12">
      <path
         d="m -184.7114,172.1533 h 600 v -600 h -600 z"
         id="path12"
         style="stroke-width:0.999998" />
    </clipPath>
    <clipPath
       clipPathUnits="userSpaceOnUse"
       id="clipPath13">
      <path
         d="m -216.5503,109.3804 h 600 v -600 h -600 z"
         id="path13"
         style="stroke-width:0.999998" />
    </clipPath>
    <clipPath
       clipPathUnits="userSpaceOnUse"
       id="clipPath14">
      <path
         d="m -463.5361,248.9995 h 600 v -600 h -600 z"
         id="path14"
         style="stroke-width:0.999998" />
    </clipPath>
    <clipPath
       clipPathUnits="userSpaceOnUse"
       id="clipPath15">
      <path
         d="m -236.1646,245.437 h 600 v -600 h -600 z"
         id="path15"
         style="stroke-width:0.999998" />
    </clipPath>
    <clipPath
       clipPathUnits="userSpaceOnUse"
       id="clipPath16">
      <path
         d="m -479.7959,189.2935 h 600 v -600 h -600 z"
         id="path16"
         style="stroke-width:0.999998" />
    </clipPath>
    <clipPath
       clipPathUnits="userSpaceOnUse"
       id="clipPath17">
      <path
         d="m -197.8374,132.8472 h 600 v -600 h -600 z"
         id="path17"
         style="stroke-width:0.999998" />
    </clipPath>
    <clipPath
       clipPathUnits="userSpaceOnUse"
       id="clipPath18">
      <path
         d="m -260.4116,398.2979 h 600 v -600 h -600 z"
         id="path18"
         style="stroke-width:0.999998" />
    </clipPath>
    <clipPath
       clipPathUnits="userSpaceOnUse"
       id="clipPath19">
      <path
         d="m -251.1177,289.3745 h 600 v -600 h -600 z"
         id="path19"
         style="stroke-width:0.999998" />
    </clipPath>
    <clipPath
       clipPathUnits="userSpaceOnUse"
       id="clipPath20">
      <path
         d="m -163.3228,335.8555 h 600 v -600 h -600 z"
         id="path20"
         style="stroke-width:0.999998" />
    </clipPath>
    <clipPath
       clipPathUnits="userSpaceOnUse"
       id="clipPath21">
      <path
         d="m -292.5708,273.5239 h 600 v -600 h -600 z"
         id="path21"
         style="stroke-width:0.999998" />
    </clipPath>
    <clipPath
       clipPathUnits="userSpaceOnUse"
       id="clipPath22">
      <path
         d="m -310.7178,286.8726 h 600 v -600 h -600 z"
         id="path22"
         style="stroke-width:0.999998" />
    </clipPath>
    <clipPath
       clipPathUnits="userSpaceOnUse"
       id="clipPath23">
      <path
         d="m -284.7925,254.3433 h 600 v -600 h -600 z"
         id="path23"
         style="stroke-width:0.999998" />
    </clipPath>
    <clipPath
       clipPathUnits="userSpaceOnUse"
       id="clipPath24">
      <path
         d="m -158.5186,364.6641 h 600 v -600 h -600 z"
         id="path24"
         style="stroke-width:0.999998" />
    </clipPath>
    <clipPath
       clipPathUnits="userSpaceOnUse"
       id="clipPath25">
      <path
         d="m -289.6938,335.4365 h 600 v -600 h -600 z"
         id="path25"
         style="stroke-width:0.999998" />
    </clipPath>
    <clipPath
       clipPathUnits="userSpaceOnUse"
       id="clipPath26">
      <path
         d="m -141.9741,332.0498 h 600 v -600 h -600 z"
         id="path26"
         style="stroke-width:0.999998" />
    </clipPath>
    <clipPath
       clipPathUnits="userSpaceOnUse"
       id="clipPath27">
      <path
         d="m -298.4253,265.6909 h 600 v -600 h -600 z"
         id="path27"
         style="stroke-width:0.999998" />
    </clipPath>
    <clipPath
       clipPathUnits="userSpaceOnUse"
       id="clipPath28">
      <path
         d="m -315.4541,427.2686 h 600 v -600 h -600 z"
         id="path28"
         style="stroke-width:0.999998" />
    </clipPath>
    <clipPath
       clipPathUnits="userSpaceOnUse"
       id="clipPath29">
      <path
         d="m -315.4541,515.3457 h 600 v -600 h -600 z"
         id="path29"
         style="stroke-width:0.999998" />
    </clipPath>
  </defs>
  <sodipodi:namedview
     id="namedview14167"
     pagecolor="#ffffff"
     bordercolor="#000000"
     borderopacity="0.25"
     inkscape:showpageshadow="2"
     inkscape:pageopacity="0.0"
     inkscape:pagecheckerboard="0"
     inkscape:deskcolor="#d1d1d1"
     showgrid="false"
     inkscape:zoom="5.9184838"
     inkscape:cx="93.18265"
     inkscape:cy="74.089922"
     inkscape:window-width="2880"
     inkscape:window-height="1766"
     inkscape:window-x="-11"
     inkscape:window-y="-11"
     inkscape:window-maximized="1"
     inkscape:current-layer="g14173">
    <inkscape:page
       x="0"
       y="0"
       id="page14171"
       width="166.51453"
       height="206.58052"
       margin="0"
       bleed="0" />
  </sodipodi:namedview>
  <g
     id="g14173"
     inkscape:groupmode="layer"
     inkscape:label="Page 1"
     transform="matrix(1.3333333,0,0,-1.3333333,-413.96158,362.69165)">
    <g
       id="g14271"
       transform="translate(325.4727,260.499)"
       clip-path="url(#clipPath8)"
       style="fill:#cccccc">
      <path
         d="m 0,0 c -1.386,-7.123 -0.841,-13.402 2.634,-18.403 4.746,1.799 9.495,3.599 14.241,5.4 C 11.25,-8.668 5.625,-4.334 0,0"
         style="fill:#cccccc;fill-opacity:1;fill-rule:evenodd;stroke:none"
         id="path14273" />
    </g>
    <g
       id="g14275"
       transform="translate(435.291,227.1113)"
       clip-path="url(#clipPath7)"
       style="fill:#cccccc">
      <path
         d="m 0,0 c -0.805,-7.708 -6.112,-12.369 -11.668,-16.862 -4.31,4.009 -8.62,8.022 -12.931,12.035 4.481,3.222 8.961,6.446 13.44,9.669 C -7.44,3.228 -3.719,1.615 0,0"
         style="fill:#cccccc;fill-opacity:1;fill-rule:evenodd;stroke:none"
         id="path14277" />
    </g>
    <g
       id="g14279"
       transform="translate(336.3203,214.2803)"
       clip-path="url(#clipPath6)"
       style="fill:#cccccc">
      <path
         d="m 0,0 c 21.759,-9.134 15.311,-27.292 17.622,-58.528 0.586,-7.883 5.132,-21.473 10.857,-31.481 7.772,-13.587 24.332,-6.049 15.42,7.172 -21.294,31.581 -5.123,71.822 21.2,59.838 C 61.469,-10.582 49.646,3.859 46.019,16.275 30.679,10.851 15.34,5.425 0,0"
         style="fill:#cccccc;fill-opacity:1;fill-rule:evenodd;stroke:none"
         id="path14281" />
    </g>
    <g
       id="g14283"
       transform="translate(426.5088,204.0254)"
       clip-path="url(#clipPath5)"
       style="fill:#ececec">
      <path
         d="m 0,0 c -3.847,-9.457 -9.632,-14.167 -18.752,-13.499 -26.763,1.957 -31.928,16.759 -46.562,19.326 -13.66,2.396 -33.531,4.141 -43.132,12.47 -3.632,3.151 -6.533,5.847 -7.587,14.811 -0.511,10.193 41.688,1.392 53.288,3.298 C -39.926,23.335 -40.902,27.02 0,0"
         style="fill:#ececec;fill-opacity:1;fill-rule:evenodd;stroke:none"
         id="path14285" />
    </g>
    <g
       id="g14287"
       transform="translate(333.8184,269.0938)"
       clip-path="url(#clipPath4)"
       style="fill:#f9f9f9">
      <path
         d="m 0,0 c 13.41,6.564 30.228,1.359 47.602,-8.456 13.547,-7.653 25.043,-2.032 30.931,-3.461 15.25,-3.699 10.455,-11.81 15.929,-17.413 15.722,-16.095 1.966,-18.967 -9.566,-18.967 10.53,-3.832 14.717,-26.307 -9.222,-24.556 -25.868,1.894 -29.128,17.592 -44.593,20.307 -19.981,3.504 -33.31,5.934 -41.723,8.485 -14.416,4.374 -16.454,15.157 -6.672,22.212 3.324,2.399 8.079,3.09 14.195,2.441 C -12.963,-9.557 -7.459,-3.65 0,0"
         style="fill:#f9f9f9;fill-opacity:1;fill-rule:evenodd;stroke:none"
         id="path14289" />
    </g>
    <g
       id="g14291"
       transform="translate(421.2236,223.0303)"
       clip-path="url(#clipPath3)"
       style="fill:#e6e6e6">
      <path
         d="M 0,0 C 6.172,2.48 9.078,6.262 6.683,12.163 14.454,5.232 10.387,1.707 0,0 m -102.493,22.363 c -3.937,-0.583 -7.596,-5.592 -6.029,-8.778 5.463,-11.119 40.809,-10.674 59.487,-18.316 12.614,-5.162 20.239,-14.393 32.881,-19.48 4.841,-1.951 15.131,-0.565 17.335,3.255 -4.062,-2.059 -12.627,-1.574 -16.693,1.096 -11.267,7.404 -18.784,15.516 -31.261,20.616 -18.001,7.356 -49.086,4.018 -58.031,13.974 -1.485,1.655 -0.14,5.163 2.311,7.633 m 11.233,10.262 c -6.953,11.731 16.95,19.962 35.334,11.082 -19.55,4.358 -37.442,-2.73 -35.334,-11.082"
         style="fill:#e6e6e6;fill-opacity:1;fill-rule:evenodd;stroke:none"
         id="path14293" />
    </g>
    <g
       id="g14295"
       transform="translate(358.9385,247.9736)"
       clip-path="url(#clipPath2)"
       style="fill:#cccccc">
      <path
         d="M 0,0 C 10.901,-12.035 25.749,-14.718 41.891,-14.331 31.181,-12.389 23.44,-8.941 25.128,-0.736 17.637,-7.612 8.939,-4.782 0,0"
         style="fill:#cccccc;fill-opacity:1;fill-rule:evenodd;stroke:none"
         id="path14297" />
    </g>
    <g
       id="g14299"
       transform="translate(360.4805,174.1553)"
       clip-path="url(#clipPath1)"
       style="fill:#ececec">
      <path
         d="m 0,0 c 1.393,12.071 3.615,22.992 4.164,34.825 1.529,0.598 3.06,1.198 4.589,1.798 C 8.102,35.677 7.451,34.731 6.802,33.785 3.513,23.241 2.276,11.748 0,0 m 1.8,-1.953 c 1.249,11.874 2.983,23.588 7.589,34.413 1.878,0.374 3.758,0.751 5.635,1.125 C 14.021,32.677 13.017,31.771 12.013,30.861 7.042,22.35 3.902,11.004 1.8,-1.953 m 1.13,-1.672 c 1.844,12.104 4.532,23.709 12.235,32.359 1.919,0.257 3.84,0.515 5.762,0.775 -1.088,-0.834 -2.175,-1.67 -3.262,-2.504 C 9.723,20.007 5.789,8.759 2.93,-3.625 m 3.289,0.593 c 1.166,11.78 4.985,21.79 13.969,28.353 1.856,0.233 3.71,0.467 5.566,0.699 C 24.837,25.209 23.92,24.4 23.003,23.59 13.024,18.101 8.316,8.542 6.219,-3.032 m 2.025,-0.197 c 3.336,12.943 9.43,21.878 20.182,24.044 0.696,1.06 1.389,2.12 2.085,3.177 C 28.956,23.341 27.4,22.689 25.846,22.039 15.853,18.066 10.186,9.427 8.244,-3.229 m -9.08,39.19 c 1.358,-12.295 0.708,-24.307 -1.336,-36.125 2.643,11.17 4.313,22.875 4.091,35.617 -0.21,0.634 -0.421,1.268 -0.634,1.9 -0.706,-0.464 -1.413,-0.928 -2.121,-1.392 m -5.84,0.933 c 0.329,0.614 0.659,1.227 0.987,1.841 0.715,-0.776 1.43,-1.554 2.145,-2.334 3.159,-11.762 2.867,-23.642 0.112,-35.688 1.284,16.994 0.336,28.621 -3.244,36.181 m -5.848,0.94 c 0.7,0.489 1.397,0.979 2.097,1.466 0.385,-0.666 0.771,-1.334 1.157,-2 6.062,-9.096 6.447,-20.945 4.575,-36.302 1.087,17.326 -0.232,29.081 -7.829,36.836 m -7.709,1.453 c 10.142,-4.413 15.418,-13.255 14.465,-38.238 2.502,17.209 -1.294,33.721 -10.12,37.357 -0.453,0.611 -2.438,1.544 -2.889,2.153 -0.486,-0.423 -0.97,-0.847 -1.456,-1.272"
         style="fill:#ececec;fill-opacity:1;fill-rule:evenodd;stroke:none"
         id="path14301" />
    </g>
  </g>
</svg>
