<?xml version="1.0" encoding="UTF-8" standalone="no"?>
<svg
   version="1.1"
   width="5627"
   height="2097"
   id="svg124"
   sodipodi:docname="mud.svg"
   inkscape:version="1.4.3 (0d15f75, 2025-12-25)"
   xmlns:inkscape="http://www.inkscape.org/namespaces/inkscape"
   xmlns:sodipodi="http://sodipodi.sourceforge.net/DTD/sodipodi-0.dtd"
   xmlns="http://www.w3.org/2000/svg"
   xmlns:svg="http://www.w3.org/2000/svg">
  <defs
     id="defs124" />
  <sodipodi:namedview
     id="namedview124"
     pagecolor="#ffffff"
     bordercolor="#000000"
     borderopacity="0.25"
     inkscape:showpageshadow="2"
     inkscape:pageopacity="0.0"
     inkscape:pagecheckerboard="0"
     inkscape:deskcolor="#d1d1d1"
     inkscape:zoom="0.17429485"
     inkscape:cx="4684.5905"
     inkscape:cy="1374.1083"
     inkscape:window-width="2880"
     inkscape:window-height="1766"
     inkscape:window-x="-11"
     inkscape:window-y="-11"
     inkscape:window-maximized="1"
     inkscape:current-layer="svg124" />
  <path
     d="M 843.84711,941.21411 1208.9733,541.60379 2994.0346,206.90478 C 5335.535,548.37823 5194.3847,717.85602 5261.8738,1013.7924 4725.3885,1652.2201 3564.3242,1658.7123 2357.0922,1723.7599 1668.0975,1655.6946 1051.6758,1511.8307 843.84711,941.21411 Z"
     fill="#542b22"
     id="path1"
     sodipodi:nodetypes="cccccc" />
  <path
     d="m 3183.9375,46.121094 c 329.6237,122.139666 643.056,321.140426 1008.9435,301.607456 309.8684,-32.82059 543.8674,146.24559 804.4919,264.41723 235.3119,-6.30054 584.8554,68.34551 512.3882,385.38867 -74.2699,200.58815 -62.8739,455.12315 -362.8974,469.57045 -199.1304,115.6471 -352.4973,310.5173 -632.5345,223.2896 -225.681,87.0813 -425.1955,383.8099 -737.0021,280.3559 -343.6372,18.6689 -694.5001,-210.6454 -1024.9924,-36.677 -278.7319,183.8731 -541.3058,-5.4609 -781.538,-149.2962 -323.4946,-196.5495 -713.5721,-176.889 -1076.50747,-253.1365 -167.62061,47.2446 -628.03643,70.9355 -443.809,-218.9945 158.70599,-29.0955 678.40427,-97.2477 251.50665,-125.5845 C 582.27464,1185.8663 190.51383,1041.1303 304.39732,1039.0204 -62.292445,969.75918 250.8303,606.68264 489.06378,625.5048 738.26901,418.13789 1049.7355,567.91718 1308.0585,433.50431 1613.7225,246.28252 1976.5668,246.98517 2319.9977,192.51622 2650.3669,260.27633 2878.1503,-73.125006 3183.9375,46.121094 Z M 2527.625,312.4375 c -431.5563,79.61205 -838.1576,270.38656 -1276.7894,312.65811 -127.1858,14.93024 -350.8705,557.29869 -278.118,412.73889 99.4513,91.9816 318.0222,173.388 119.3627,214.1233 243.748,-92.8099 203.8962,297.5362 467.5624,169.5841 327.1583,-86.2504 614.6803,100.1722 929.413,99.5357 326.4281,-42.0545 658.4276,-48.5547 1013.9566,-17.6315 202.7201,25.6819 489.5159,-228.1855 585.5362,19.0826 193.8477,-76.0538 278.3937,-347.4785 553.5106,-268.7557 485.3315,-160.0802 -8.1692,-59.9392 400.7646,-258.56088 C 5084.4565,810.36834 4783.1141,445.82796 4801.2168,651.31002 4489.9964,434.83968 4053.4213,541.83211 3699.9612,411.59964 3324.9186,255.01479 2918.5898,356.1309 2527.625,312.4375 Z"
     fill="#855143"
     id="path3" />
  <path
     d="m 2812,563 c 325.1976,116.66781 681.6385,7.57293 1011.4683,65.26199 362.428,212.71082 -32.7445,126.85702 279.8243,163.91925 253.8255,46.37958 -203.1865,217.82116 104.7278,196.65483 276.7201,48.52693 -475.4484,240.61983 -364.0678,237.07323 -295.0315,69.0767 -593.2304,117.7988 -897.4781,97.7746 -360.065,95.8663 -684.6537,-135.9631 -1038.6444,-66.7242 -222.4915,20.8862 178.319,-206.2682 -13.7094,-188.0275 C 1698.9085,1193.5628 1527.7159,744.11934 1797.835,832.80348 1735.4252,621.23452 2536.9884,529.00912 2383.02,613.29827 2524.8612,588.21074 2668.0832,570.15273 2812,563 Z"
     fill="#6e4035"
     id="path4" />
  <path
     d="m 3919.4509,332.89453 c 260.5523,76.4123 738.5795,-40.67674 842.0557,218.41276 257.1848,22.31168 556.0318,64.0946 751.0118,259.68843 -58.1316,255.84968 -55.2942,652.92418 -399.9101,614.27728 -179.9774,63.6049 -162.9997,339.9539 -431.2291,255.7195 -368.2072,-146.8982 -421.5546,370.8842 -779.9391,285.6654 -315.3354,2.4293 -618.1119,-92.1693 -928.8678,-113.2022 -296.7861,154.0803 -656.987,197.7207 -936.0039,-36.1339 -196.9263,-172.7285 -457.0707,-205.1826 -704.6055,-227.1572 -298.9257,-163.6323 -702.65589,78.5912 -937.50777,-155.7505 18.897,-223.4033 162.60359,158.9734 335.41754,23.0999 293.98883,-122.946 578.98433,33.4243 861.18713,102.2522 400.642,-89.0956 631.833,385.6573 1012.8759,360.7685 259.4431,-184.9459 597.5224,-138.4685 885.0872,-48.7882 292.2497,71.0167 648.0243,17.4138 741.3002,-269.816 287.8816,0.775 529.1442,-136.1824 794.3842,-195.7429 188.0532,19.2109 288.4706,-176.568 102.9475,-261.0843 -36.6461,-219.60363 435.9555,-310.18368 101.2453,-480.60528 -275.3973,-39.81256 -538.3401,-73.58607 -770.0247,-249.33905 -173.6923,-49.48911 -761.3071,-65.40429 -682.4168,-71.7423 47.7326,-2.33454 95.5547,-4.35974 142.9923,-10.52214 z"
     fill="#69392d"
     id="path5" />
  <path
     d="m 3183.9375,46.121094 c 329.6237,122.139666 643.056,321.140426 1008.9435,301.607456 309.8684,-32.82059 543.8674,146.24559 804.4919,264.41723 235.3119,-6.30054 584.8554,68.34551 512.3882,385.38867 -74.2699,200.58815 -62.8739,455.12315 -362.8974,469.57045 -199.1304,115.6471 -352.4973,310.5173 -632.5345,223.2896 -225.681,87.0813 -425.1955,383.8099 -737.0021,280.3559 -343.6372,18.6689 -694.5001,-210.6454 -1024.9924,-36.677 -278.7319,183.8731 -541.3058,-5.4609 -781.538,-149.2962 -323.4946,-196.5495 -713.5721,-176.889 -1076.50747,-253.1365 -167.62061,47.2446 -628.03643,70.9355 -443.809,-218.9945 158.70599,-29.0955 678.40427,-97.2477 251.50665,-125.5845 C 582.27464,1185.8663 190.51383,1041.1303 304.39732,1039.0204 -62.292445,969.75918 250.8303,606.68264 489.06378,625.5048 738.26901,418.13789 1049.7355,567.91718 1308.0585,433.50431 1613.7225,246.28252 1976.5668,246.98517 2319.9977,192.51622 2650.3669,260.27633 2878.1503,-73.125006 3183.9375,46.121094 Z M 3409,193 c -246.3495,123.9924 -537.4507,38.66006 -801.5687,53.58326 -309.2803,-29.45941 -646.1474,-54.60035 -930.6975,82.82611 -166.732,207.15482 -810.92589,368.51823 -653.0886,276.19932 277.571,157.76938 -314.96578,169.73947 -440.10002,16.1315 -284.48033,-116.82971 -474.34928,455.67731 -59.74877,295.66499 197.43192,80.92803 278.54639,258.21622 511.40099,243.28192 -65.2693,243.0305 -636.09513,-41.063 -615.5767,314.1749 298.80639,134.7116 641.86,-16.2734 947.2064,117.3991 329.5595,-5.5622 602.8776,164.8525 870.8659,332.1135 307.834,225.7578 594.3877,-140.6555 917.1935,-61.2876 317.9602,56.8926 649.5975,151.0086 971.8341,70.5731 183.739,-121.9872 283.0001,-364.929 559.927,-252.2673 266.4626,40.4237 263.8662,-371.1097 568.7159,-271.1847 247.9006,-65.7729 304.2996,-763.00313 248.2897,-578.95558 C 5338.9635,552.615 4946.7271,633.09531 4698.0447,469.21957 4394.3476,319.63048 4052.4851,367.0618 3728.8277,336.57771 3600.0438,325.9281 3545.5148,167.19483 3409,193 Z"
     fill="#5c3b16"
     id="path6" />
  <path
     d="m 2595.6875,309.75 c 430.2187,27.5206 868.7243,-24.85708 1278.4051,142.52486 326.7566,101.45605 867.6138,-48.34679 991.0979,367.03786 142.1205,8.85814 329.3116,202.34048 44.7637,224.19138 75.824,303.0477 -366.1644,141.4286 -544.3986,296.3086 -91.7094,36.4637 -268.1201,323.2746 -341.292,74.427 -336.1041,37.835 -668.3457,150.0442 -1014.0527,56.1345 -288.1943,58.9542 -551.916,110.1716 -800.1172,-45.5639 -266.3082,-13.6534 -531.4332,-12.6723 -797.7757,-7.3277 -161.5009,-1.3388 -29.9514,-247.0111 -278.4755,-171.9822 -159.90594,-7.3635 -184.20097,-151.3067 -16.2392,-114.2399 211.5837,-104.1392 -423.14661,-49.6861 -77.674,-220.05643 C 1130.98,501.47661 1590.3378,608.35053 1898.4084,486.28374 2134.4163,437.37889 2349.5303,306.30336 2595.6875,309.75 Z m -132.0381,36.65625 c -376.6722,122.073 -752.4932,261.96324 -1145.1229,314.58975 -267.2747,78.08307 -223.629,439.9084 76.9711,395.7412 206.6929,88.3509 -154.4989,292.35 147.5551,325.9808 358.8582,27.2437 729.1847,-22.5938 1079.0424,85.8078 332.8382,-42.9103 662.2695,-9.5204 992.3908,-23.1579 357.2145,-62.2941 703.4118,-183.4441 1042.2475,-307.0042 313.5525,-175.05575 38.4161,-596.43958 -253.8612,-586.00808 -399.3137,-49.12231 -795.2421,-133.48039 -1190.3124,-200.05196 -249.6039,0.5945 -499.7525,15.8656 -748.9104,-5.89741 z"
     fill="#68382d"
     id="path7" />
  <path
     d="m 1614.9414,1698.4854 c 352.1046,7.8143 85.5704,505.404 -160.1006,361.8617 -370.398,86.2055 -390.7025,-456.675 3.1766,-366.0739 52.3464,-1.587 104.6814,1.2609 156.924,4.2122 z"
     fill="#59311d"
     id="path8" />
  <path
     d="m 3919.4509,332.89453 c 282.4352,72.72757 716.5541,-32.56589 876.4532,218.51463 239.805,62.11989 733.365,14.96562 654.413,398.70215 -20.2324,272.94029 -536.1818,178.38099 -195.4498,-12.12 C 5601.7132,644.48087 4554.9517,551.01548 4743.7015,586.96142 4536.2392,362.43371 4225.4648,395.23776 3944.1171,380.93138 3777.4573,364.77655 3633.0265,339.92846 3919.4509,332.89453 Z"
     fill="#69392d"
     id="path9" />
  <path
     d="M 414,663 C 116.92932,687.65916 363.5282,1104.0276 568.6908,927.42654 764.57503,972.35681 735.49358,1232.8183 990.43308,1131.8892 1293.4276,1401.9696 141.23423,977.9226 534.88709,1114.5761 310.05861,1104.0499 -44.432697,891.0471 278.19762,694.46384 l 66.45022,-25.95716 z"
     fill="#69392d"
     id="path10" />
  <path
     d="m 5479,777 c 83.5053,197.17453 -224.8319,721.5738 -157.4845,601.8988 -202.2994,25.8778 -569.5612,221.9252 -431.2799,209.5591 -206.4622,-317.7616 414.0149,-57.1459 401.2899,-426.0609 C 5333.4222,1019.0859 5550.9553,949.79136 5479,777 Z"
     fill="#53281f"
     id="path11" />
  <path
     d="m 2636.4463,344.29272 c 356.2742,44.81489 721.7813,-45.20837 1065.9202,100.6755 340.8764,125.60739 891.1484,-24.08476 1070.2317,362.31121 128.2594,416.27657 -404.9197,385.94527 -649.9937,511.30267 -343.5144,137.0855 -712.9307,162.8189 -1077.2402,116.6251 -378.3661,89.8569 -751.0781,-58.7282 -1130.3118,-52.0887 -179.4085,71.3592 -701.8461,-25.647 -411.9182,-241.9072 -127.7034,-92.368 -504.3678,-119.0797 -312.9158,-393.47774 284.9035,-193.13514 687.9979,-158.93233 1008.7083,-308.91383 139.2809,-55.53517 282.5479,-125.44777 437.5195,-94.52701 z M 2506.109,355.7403 c -406.9731,107.52171 -803.3504,259.58596 -1219.3528,328.7455 -302.56315,155.88349 -28.5143,428.9412 208.9381,409.0189 7.2725,120.2331 -215.0279,217.7219 36.5992,277.5152 378.2598,17.0791 764.9254,-8.8988 1135.1776,87.0074 330.514,-57.863 658.751,1.3486 985.0735,-33.5387 355.1578,-99.7772 743.7898,-158.4223 1058.4995,-344.2144 C 4968.6744,800.64458 4540.9285,515.65798 4268.6558,543.84608 3889.9274,517.0205 3524.1626,389.4863 3147.8974,359.47194 c -213.696,4.97259 -429.6037,37.17088 -641.7884,-3.73164 z"
     fill="#331308"
     id="path12" />
  <path
     d="m 2870.625,780.875 c 196.9815,-93.4661 205.5487,243.2496 -16.4028,140.35799 -132.2506,86.45791 -641.7534,-29.5157 -320.3832,-137.62224 112.1597,-10.5146 224.818,12.21132 336.786,-2.73575 z"
     fill="#9e6a5c"
     id="path13" />
  <path
     d="m 3856,789 c 175.6018,22.97661 484.0319,80.29043 347.4747,36.26522 10.9739,162.25634 -114.8166,89.59153 -409.4448,126.78579 -162.816,37.35753 -419.0511,-180.37469 -111.1312,-158.84733 57.6942,-0.0724 115.6928,4.04705 173.1013,-4.20368 z"
     fill="#9a6659"
     id="path14" />
  <path
     d="m 2061.8867,886.8147 c 242.4738,-83.29184 277.072,267.2301 15.1522,198.4258 -188.456,57.1213 -443.0019,-178.99285 -134.2689,-193.56294 39.5382,-4.51281 79.3753,-4.98265 119.1167,-4.86286 z"
     fill="#9e6a5c"
     id="path15" />
  <path
     d="m 1687.5403,1745.3762 c -11.2725,329.7528 -730.22938,107.7668 -285.6948,-43.5677 96.8138,-15.7239 197.0329,3.3993 285.6948,43.5677 z"
     fill="#8c5d49"
     id="path16" />
  <path
     d="M 2350,240 C 2217.1114,474.80737 1461.8136,301.69889 1640.0565,376.62575 1830.2731,220.91179 2121.4106,313.9518 2350,240 Z"
     fill="#a8705f"
     id="path17" />
  <path
     d="m 5025.4961,628.22266 c 202.0139,-65.87934 501.3557,267.2016 133.3347,230.00192 -116.8841,-5.08371 -420.3726,-198.07747 -133.3347,-230.00192 z"
     fill="#a8705f"
     id="path18" />
  <path
     d="m 3870,1505 c 25.9078,326.3083 -695.1008,106.1361 -241.2445,-5.9802 80.4204,-7.6786 160.9015,2.9798 241.2445,5.9802 z"
     fill="#a8705f"
     id="path19" />
  <path
     d="m 633,598 c 2.95655,159.3133 438.3317,115.79747 97.9401,192.29961 -150.52888,85.7129 -538.86466,-73.69838 -212.32611,-162.95713 l 57.70802,-12.88692 z"
     fill="#a8705f"
     id="path20" />
  <path
     d="m 1644,1717 c 354.0562,189.525 -400.5544,473.279 -441.8855,118.961 -17.2507,-97.6936 146.2108,-140.9508 139.6341,-127.1242 C 1030.4226,2070.3182 1857.33,1985.0662 1644,1717 Z"
     fill="#6f4131"
     id="path21"
     sodipodi:nodetypes="cccc" />
  <path
     d="m 2707,165 c 207.489,81.9074 463.541,89.25047 678.9725,120.27471 -124.8553,-77.89219 -557.9919,21.68837 -790.4583,-52.59464 -163.0665,-45.44474 -342.0769,-34.58165 -80.6056,-49.72134 C 2579.115,179.41931 2643.5748,176.30283 2707,165 Z"
     fill="#69392d"
     id="path22" />
  <path
     d="m 1914.6694,1431.9058 c 177.3368,-81.641 315.2974,197.7558 47.6062,147.013 -167.9437,14.7302 -299.309,-160.4971 -47.6062,-147.013 z"
     fill="#a8705f"
     id="path23" />
  <path
     d="m 812.81885,472.73926 c 290.24075,134.0845 -355.07451,297.56195 -104.12926,33.85621 29.7154,-21.98422 66.52572,-36.84797 104.12926,-33.85621 z"
     fill="#b1846d"
     id="path24" />
  <path
     d="m 1559,330 c -93.054,103.24868 -67.1904,281.13683 -73.6376,142.70043 C 1359.017,589.48718 893.57291,567.95879 1266.7546,467.69437 1355.3219,407.59274 1443.9862,325.2178 1559,330 Z"
     fill="#68392d"
     id="path25" />
  <path
     d="m 4930.707,1207.7969 c 397.1588,-24.3052 -62.8366,313.714 -123.5637,31.5695 34.8468,-28.7783 80.727,-33.167 123.5637,-31.5695 z"
     fill="#a8705f"
     id="path26" />
  <path
     d="m 3069.9375,22.75 c 88.7096,257.13405 -481.7518,98.65529 -131.4014,3.539159 42.7529,-11.31322 88.0971,-12.354976 131.4014,-3.539159 z"
     fill="#b1856d"
     id="path27" />
  <path
     d="M 3082,24 C 3353.7829,263.27913 2539.7265,263.09539 2902.802,162.77512 2984.7548,168.06099 3133.4704,144.55441 3082,24 Z"
     fill="#8c5d49"
     id="path28" />
  <path
     d="M 855,477 C 1131.4986,575.40543 678.90261,932.22707 625.70767,653.03619 727.39406,699.79404 1039.4274,621.63862 855,477 Z"
     fill="#8c5d49"
     id="path29" />
  <path
     d="m 1058.0625,576.75 c 224.2151,170.77066 -320.38585,130.70284 -13.5416,1.32628 l 11.959,-1.17128 z"
     fill="#8c5d49"
     id="path30" />
  <path
     d="m 2872.75,1490.8125 c 305.0286,-12.6344 -143.2029,253.4984 -113.2802,29.6539 30.7807,-25.0744 73.8056,-41.0339 113.2802,-29.6539 z"
     fill="#a8705f"
     id="path31" />
  <path
     d="m 3341.562,112.27734 c 154.4681,247.96441 -376.1708,-35.280157 0,0 z"
     fill="#8c5d49"
     id="path32" />
  <path
     d="m 4544,1380.875 c 250.4316,112.5277 -342.4894,125.3199 -36.7218,2.3494 z"
     fill="#a8705f"
     id="path33" />
  <path
     d="m 5239,1178 c 303.0843,-2.5165 -51.9643,6.3991 -74.6326,182.5656 C 5241.9227,1337.0052 5393.0514,1232.319 5239,1178 Z"
     fill="#68382d"
     id="path34" />
  <path
     d="m 3041,22 c -23.9835,212.02143 -359.9821,13.27189 -56.0324,3.623356 z"
     fill="#e7c5ac"
     id="path35" />
  <path
     d="m 5069.4521,614.86963 c 117.3758,42.88064 473.4435,277.17389 185.3392,67.98001 -59.6968,-28.0781 -126.6962,-37.9744 -185.3392,-67.98001 z"
     fill="#845041"
     id="path36" />
  <path
     d="M 3170,52 C 3287.1046,351.26622 2511.2537,135.1633 2966.8759,220.33517 3060.0846,213.16331 3161.8932,154.79715 3170,52 Z"
     fill="#704232"
     id="path37" />
  <path
     d="m 2568,1032 c -19.7505,192.3119 -340.8566,-86.64003 0,0 z"
     fill="#5e3229"
     id="path38" />
  <path
     d="m 1041,579 c 223.2406,169.99522 -248.25681,67.37181 0,0 z"
     fill="#b1846d"
     id="path39" />
  <path
     d="m 1377.2109,1742.6836 c 28.0867,182.5534 -266.9148,-12.8591 0,0 z"
     fill="#a7745f"
     id="path40" />
  <path
     d="m 3621.2222,1293.9517 c -29.824,173.422 -259.5154,-80.1 -17.6139,-10.0863 l 15.6411,8.9566 z"
     fill="#422017"
     id="path41" />
  <path
     d="m 3504.625,179.3125 c 163.7926,-60.33164 190.4875,235.28479 11.1331,48.07845 -30.4055,5.95493 -150.379,-83.1224 -11.1331,-48.07845 z"
     fill="#68392d"
     id="path42" />
  <path
     d="m 1132.6862,540.86232 c 154.2866,234.6967 -455.97328,-35.6989 -69.3086,-3.10595 z"
     fill="#a8705f"
     id="path43" />
  <path
     d="m 864.78125,1334.8398 c -107.17091,72.0318 24.10287,-13.4694 -160.2184,24.5457 -177.37236,-6.7095 146.16431,-89.8004 160.2184,-24.5457 z"
     fill="#69392d"
     id="path44" />
  <path
     d="m 2782,1644 c 23.2139,141.329 -194.635,-73.0184 0,0 z"
     fill="#a8705f"
     id="path45" />
  <path
     d="m 2942.5,1141.375 c 151.8393,97.4759 -244.3204,6.0353 0,0 z"
     fill="#5e3229"
     id="path46" />
  <path
     d="m 4250,946 c -73.9656,130.8714 -327.2086,-4.77121 -56.1174,10.09055 z"
     fill="#c48b7a"
     id="path47" />
  <path
     d="m 2224.375,1282.6875 c 211.4722,75.8835 801.9253,19.5867 732.3352,55.0265 -233.7205,105.2048 -541.6867,7.9769 -732.3352,-55.0265 z"
     fill="#422017"
     id="path48" />
  <path
     d="m 3704.9219,1174.7969 c 2.7994,-0.3064 2.7994,-0.3064 0,0 z"
     fill="#4f291f"
     id="path49" />
  <path
     d="m 4950,1370 c -72.8838,101.7838 -217.7223,-56.6456 0,0 z"
     fill="#68392d"
     id="path50" />
  <path
     d="m 1265,785 c -5.0795,286.2939 476.8847,183.23134 471.9546,303.3338 C 1629.5589,934.00823 1149.617,1068.0372 1265,785 Z"
     fill="#3a1a12"
     id="path51" />
  <path
     d="m 3799.5977,812.90234 c -315.0401,112.77822 478.384,2.1037 67.4648,87.04136 -106.7929,12.34837 -318.3028,-81.36092 -67.4648,-87.04136 z"
     fill="#704535"
     id="path52" />
  <path
     d="m 2679.6769,819.93134 c -307.8762,76.87714 360.2688,55.08054 3.2089,64.57069 -152.03,-0.51595 -161.8014,-60.39497 -3.2089,-64.57069 z"
     fill="#714636"
     id="path53" />
  <path
     d="m 2421.4922,489.53906 c -115.0189,170.23653 -187.4618,-118.89496 0,0 z"
     fill="#422017"
     id="path54" />
  <path
     d="m 2460.5898,251.66406 c 174.363,-76.36395 -160.6675,67.11744 0,0 z"
     fill="#a8705f"
     id="path55" />
  <path
     d="m 2586,809 c -377.3656,38.07394 5.1967,107.44176 57.4773,124.03694 C 2453.4371,990.69581 2278.8993,786.37426 2586,809 Z"
     fill="#714636"
     id="path56" />
  <path
     d="m 3730,802 c -338.7687,32.00123 76.6816,95.56158 74.7411,123.28005 C 3621.8159,990.76218 3401.82,777.00476 3730,802 Z"
     fill="#714636"
     id="path57" />
  <path
     d="m 3687,281 c 318.3231,110.03785 -166.3733,92.85718 0,0 z"
     fill="#53281f"
     id="path58" />
  <path
     d="m 2129.4141,649.54297 c -83.6036,18.85328 -158.3359,-53.3293 0,0 z"
     fill="#422017"
     id="path59" />
  <path
     d="m 3327,102 c -55.9445,175.23183 -156.3948,-106.2125228 0,0 z"
     fill="#e7c5ac"
     id="path60" />
  <path
     d="m 3139,1007 c -109.9035,112.9006 -188.783,-49.44946 0,0 z"
     fill="#c58d7d"
     id="path61" />
  <path
     d="m 3333.625,926.625 c 222.3415,64.51727 -2.0762,-109.82068 0,0 z"
     fill="#c68e7d"
     id="path62" />
  <path
     d="m 1454,408 c 215.664,61.36709 -342.3338,94.25623 0,0 z"
     fill="#5a3813"
     id="path63" />
  <path
     d="m 5196,878 c 132.5741,89.2901 -167.832,11.22012 0,0 z"
     fill="#a8705f"
     id="path64" />
  <path
     d="m 3331,105 c -17.9107,105.07646 -139.9555,28.35705 0,0 z"
     fill="#b1856d"
     id="path65" />
  <path
     d="m 4433,692 c 240.3635,-63.98856 77.3582,525.2447 91.4057,145.86798 C 4568.375,733.35706 4562.5126,688.40403 4433,692 Z"
     fill="#381811"
     id="path66" />
  <path
     d="m 4393,1094 c -126.7917,99.2978 -539.7473,169.9701 -170.3925,75.7828 59.1257,-19.4777 116.673,-44.2089 170.3925,-75.7828 z"
     fill="#422017"
     id="path67" />
  <path
     d="m 2890.0273,799.42139 c 290.8621,156.40033 -356.5677,-123.42405 -95.9758,-2.58174 l 35.3514,1.01431 z"
     fill="#714636"
     id="path68" />
  <path
     d="m 2424.5391,1596.9141 c 236.5549,40.8474 -101.9658,-15.3287 -67.9072,13.1695 z"
     fill="#5a3913"
     id="path69" />
  <path
     d="m 1193,1210 c 299.2589,57.7519 -428.93047,17.7998 0,0 z"
     fill="#5a3913"
     id="path70" />
  <path
     d="m 638,866 c 4.07791,202.3842 -386.33293,-44.5111 -54.52987,-17.88717 z"
     fill="#5a3913"
     id="path71" />
  <path
     d="m 730.3125,1342.5625 c 227.1271,35.7009 -350.85011,21.0739 -40.73561,2.2302 z"
     fill="#5a3913"
     id="path72" />
  <path
     d="m 4659,1334 c -188.6596,97.6042 -249.6723,-26.3989 0,0 z"
     fill="#5a3913"
     id="path73" />
  <path
     d="m 1939.4468,799.92627 c 126.4485,38.39683 -145.7693,7.21552 0,0 z"
     fill="#5e3229"
     id="path74" />
  <path
     d="m 3152,1156 c 105.8592,67.9062 -158.1535,-0.043 0,0 z"
     fill="#5e3229"
     id="path75" />
  <path
     d="m 1897.9883,402.06641 c -15.5937,137.31895 -111.6645,-72.16509 0,0 z"
     fill="#5b3913"
     id="path76" />
  <path
     d="m 2849,656 c -104.1195,120.82522 -169.0036,-59.66998 0,0 z"
     fill="#c58d7d"
     id="path77" />
  <path
     d="m 2020,914 c -193.1406,-125.20113 8.5189,237.9558 -151.675,61.71285 C 1887.5102,917.56842 1966.286,895.48859 2020,914 Z"
     fill="#714636"
     id="path78" />
  <path
     d="m 3992,1723 c -129.15,-10.1745 -273.935,-8.96 -49.0549,-21.861 z"
     fill="#5b3913"
     id="path79" />
  <path
     d="m 2713,164 c -62.1855,158.35188 -175.2553,-49.6276 0,0 z"
     fill="#53281f"
     id="path80" />
  <path
     d="m 4950,1370 c -16.261,149.3484 -276.343,-61.6511 0,0 z"
     fill="#5a3913"
     id="path81" />
  <path
     d="m 1054.625,1002.3125 c -104.47204,66.1907 -181.21865,-42.21129 0,0 z"
     fill="#5a3813"
     id="path82" />
  <path
     d="m 2014.4375,942.8125 c 116.6612,26.31688 -119.5514,16.13243 0,0 z"
     fill="#714636"
     id="path83" />
  <path
     d="m 2680.5273,988.43359 c 95.9018,-64.98823 43.1203,78.06681 0,0 z"
     fill="#5e3229"
     id="path84" />
  <path
     d="m 3725,771 c -160.0666,23.67852 -335.0218,59.28061 -71.7976,4.28706 z"
     fill="#502a20"
     id="path85" />
  <path
     d="m 2580,778 c -158.9965,24.29908 -331.9114,58.75976 -70.9985,4.25424 z"
     fill="#502a20"
     id="path86" />
  <path
     d="m 3458,1002 c -53.9746,89.1735 -108.5283,-68.89578 0,0 z"
     fill="#4f2920"
     id="path87" />
  <path
     d="m 1744,1044 c 122.8692,-11.1385 19.7803,134.0732 0,0 z"
     fill="#5d3128"
     id="path88" />
  <path
     d="m 3388,160 c 192.1234,150.15791 901.426,706.68124 777.335,601.37082 C 3909.8741,556.31545 3658.0408,345.9537 3388,160 Z"
     fill="#53281f"
     id="path89" />
  <path
     d="m 4246,944 c -125.9054,35.9956 -124.8708,-2.15207 0,0 z"
     fill="#8b5b47"
     id="path90" />
  <path
     d="m 1116.4805,525.625 c -85.9391,60.98751 -123.53125,-40.87461 0,0 z"
     fill="#845041"
     id="path91" />
  <path
     d="m 3117,945 c -146.2395,48.61297 -214.3034,17.68929 0,0 z"
     fill="#502a20"
     id="path92" />
  <path
     d="m 2589.75,662.8125 c -52.1363,61.53948 -70.0841,-62.28659 0,0 z"
     fill="#c58d7c"
     id="path93" />
  <path
     d="m 1454,408 c -61.9813,84.16606 -152.9369,13.03285 0,0 z"
     fill="#53281f"
     id="path94" />
  <path
     d="m 3352,1639 c -115.9809,46.7565 -163.7747,-33.6918 0,0 z"
     fill="#5b3914"
     id="path95" />
  <path
     d="m 2164.125,930.9375 c 7.7071,129.679 -97.2028,-113.97782 0,0 z"
     fill="#724637"
     id="path96" />
  <path
     d="m 3948.9906,784.98364 c 192.5961,7.99242 -141.6904,20.44595 0,0 z"
     fill="#502a20"
     id="path97" />
  <path
     d="m 2108,883 c 134.6169,19.87618 140.8003,33.26644 0,0 z"
     fill="#502a20"
     id="path98" />
  <path
     d="m 2639.1406,1724.8477 c 132.2528,17.0801 -130.5912,14.1733 0,0 z"
     fill="#5b3914"
     id="path99" />
  <path
     d="m 414,663 c -34.2664,48.49869 -106.07754,39.54346 0,0 z"
     fill="#845040"
     id="path100" />
  <path
     d="m 1804,1115 c -12.7428,71.7752 -84.374,11.8136 0,0 z"
     fill="#4f291f"
     id="path101" />
  <path
     d="m 1713,1021 c 93.0653,20.2879 27.6095,46.6697 0,0 z"
     fill="#411f17"
     id="path102" />
  <path
     d="m 4092.5,1680.4375 c -46.6193,42.236 -56.7191,-41.1862 0,0 z"
     fill="#5b3913"
     id="path103" />
  <path
     d="m 4844,1379 c -52.6374,64.8741 -53.7611,-25.5637 0,0 z"
     fill="#69392d"
     id="path104" />
  <path
     d="m 4005.8535,788.72705 c 51.4069,-33.17274 56.9183,63.89191 0,0 z"
     fill="#442119"
     id="path105" />
  <path
     d="m 1208,1067.793 c -28.3625,53.3391 -61.6796,-83.64462 0,0 z"
     fill="#5a3813"
     id="path106" />
  <path
     d="m 1741,950 c 4.9475,44.89912 -38.6431,0.29706 0,0 z"
     fill="#996659"
     id="path107" />
  <path
     d="m 4163,954 c -64.6794,31.9117 -49.5853,-21.18961 0,0 z"
     fill="#b47d6c"
     id="path108" />
  <path
     d="m 2114,1066 c -50.3887,45.6928 -43.5907,-31.8159 0,0 z"
     fill="#512a20"
     id="path109" />
  <path
     d="m 4876,1213 c -0.8373,0.2161 -0.8373,0.2161 0,0 z"
     fill="#844f41"
     id="path110" />
  <path
     d="m 747,1342 c 34.67456,-9.6697 65.56356,23.218 0,0 z"
     fill="#7c4c3b"
     id="path111" />
  <path
     d="m 4262,938 c -0.9239,0.19114 -0.9239,0.19114 0,0 z"
     fill="#45221a"
     id="path112" />
  <path
     d="m 2177,1059 c -0.9297,0.1253 -0.9297,0.1253 0,0 z"
     fill="#905e51"
     id="path113" />
  <path
     d="m 5025,1405 c -0.482,0.099 -0.482,0.099 0,0 z"
     fill="#68382d"
     id="path114" />
  <path
     d="m 3241,100 c 11.7371,43.39046 -55.9429,-9.403831 0,0 z"
     fill="#b58973"
     id="path115" />
  <path
     d="m 4130.3125,955.9375 c -5.2719,18.82751 -57.5177,-26.40963 0,0 z"
     fill="#b8806f"
     id="path116" />
  <path
     d="m 4122,960 c -0.4235,-0.0259 -0.4235,-0.0259 0,0 z"
     fill="#ac7565"
     id="path117" />
  <path
     d="m 1015,585 c -7.5374,26.42579 -30.08526,-16.70698 0,0 z"
     fill="#8b5e48"
     id="path118" />
  <path
     d="m 3434,1009 c -0.3694,0.06 -0.3694,0.06 0,0 z"
     fill="#673a31"
     id="path119" />
  <path
     d="m 2712,797 c -6.9104,24.84979 -43.2018,-37.79544 0,0 z"
     fill="#7c4f3f"
     id="path120" />
  <path
     d="m 4087,801 c 0.3214,0.0186 0.3214,0.0186 0,0 z"
     fill="#855447"
     id="path121" />
  <path
     d="m 1147,670 c 0.093,1.1449 0.093,1.1449 0,0 z"
     fill="#65401f"
     id="path122" />
  <path
     d="m 3179,188 c 7.083,21.98752 -25.396,-10.40186 0,0 z"
     fill="#53291e"
     id="path123" />
  <path
     d="m 1383,1222 c 9.2222,12.1571 -18.0588,-3.4981 0,0 z"
     fill="#3d1910"
     id="path124" />
</svg>
