<?xml version="1.0" encoding="UTF-8" standalone="no"?>
<!-- Created with Inkscape (http://www.inkscape.org/) -->

<svg
   version="1.1"
   id="svg2423"
   xml:space="preserve"
   width="680.75189"
   height="823.48474"
   viewBox="0 0 680.75186 823.4847"
   sodipodi:docname="pinecone.svg"
   inkscape:version="1.4.2 (f4327f4, 2025-05-13)"
   xmlns:inkscape="http://www.inkscape.org/namespaces/inkscape"
   xmlns:sodipodi="http://sodipodi.sourceforge.net/DTD/sodipodi-0.dtd"
   xmlns="http://www.w3.org/2000/svg"
   xmlns:svg="http://www.w3.org/2000/svg"><defs
     id="defs2427" /><sodipodi:namedview
     id="namedview2425"
     pagecolor="#ffffff"
     bordercolor="#666666"
     borderopacity="1.0"
     inkscape:pageshadow="2"
     inkscape:pageopacity="0.0"
     inkscape:pagecheckerboard="0"
     showgrid="false"
     inkscape:zoom="1.1017607"
     inkscape:cx="367.59345"
     inkscape:cy="502.37771"
     inkscape:window-width="2880"
     inkscape:window-height="1766"
     inkscape:window-x="-11"
     inkscape:window-y="-11"
     inkscape:window-maximized="1"
     inkscape:current-layer="g2429"
     inkscape:showpageshadow="2"
     inkscape:deskcolor="#d1d1d1" /><g
     id="g2429"
     inkscape:groupmode="layer"
     inkscape:label="pinecone-pubicdomainvectors.org"
     transform="matrix(1.3333333,0,0,-1.3333333,-143.54545,1030.8773)"><path
       d="m 302.175,731.609 13.502,-47.771 -78.643,18.047 15.941,-58.473 -62.169,5.713 11.546,-36.587 -32.953,-10.121 34.486,-53.47 -65.835,-4.397 17.895,-34.873 -32.288,-12.507 15.319,-14.343 -10.248,-12.035 18.718,-28.033 -26.492,-44.797 25.144,-27.308 -20.699,-20.945 24.92,-24.334 -17.028,-30.979 49.264,-49.758 84.321,-54.039 69.84,-23.226 124.327,19.315 44.566,21.428 56.311,54.578 40.32,30.144 -32.595,40.134 38.998,41.444 -16.305,15.01 25.885,34.288 -46.789,27.88 28.685,45.289 -11.187,3.842 13.869,20.586 -26.49,1.066 15.173,24.605 -31.408,29.389 10.979,42.548 -29.571,2.644 9.881,31.09 -56.982,17.342 7.267,31.235 -76.029,-2.188 6.078,36.281 z"
       style="fill:#2f5a1e;fill-opacity:1;fill-rule:evenodd;stroke:none"
       id="path2441" /><path
       d="m 244.079,413.387 c 40.458,26.459 80.846,50.454 132.541,59.31 42.528,-7.15 84.48,-29.258 118.364,-54.008 -19.591,-15.814 -39.183,-31.627 -58.773,-47.44 -35.162,-28.38 -76.154,-31.11 -113.45,-7.556 -26.226,16.565 -52.454,33.129 -78.682,49.694"
       style="fill:#6fae42;fill-opacity:1;fill-rule:evenodd;stroke:none"
       id="path2443" /><path
       d="m 437.805,452.876 c 20.498,-9.616 39.888,-21.558 57.179,-34.187 -19.591,-15.814 -39.183,-31.627 -58.773,-47.44 -35.162,-28.38 -76.154,-31.11 -113.45,-7.556 l -9.222,5.826 c 69.277,-31.516 113.914,4.17 152.887,55.314 -6.559,12.764 -17.67,20.312 -28.621,28.043"
       style="fill:#5e9938;fill-opacity:1;fill-rule:evenodd;stroke:none"
       id="path2445" /><path
       d="m 244.079,413.387 c 40.458,26.459 80.846,50.454 132.541,59.31 10.335,-1.738 20.636,-4.362 30.796,-7.688 -61.588,-1.821 -113.04,-25.48 -163.337,-51.622"
       style="fill:#9fce74;fill-opacity:1;fill-rule:evenodd;stroke:none"
       id="path2447" /><path
       d="m 494.984,418.689 c -19.591,-15.814 -39.183,-31.627 -58.773,-47.44 -35.162,-28.38 -76.154,-31.11 -113.45,-7.556 -26.226,16.565 -52.454,33.129 -78.682,49.694 83.636,22.118 167.269,26.086 250.905,5.302"
       style="fill:#4f8830;fill-opacity:1;fill-rule:evenodd;stroke:none"
       id="path2449" /><path
       d="m 494.984,418.689 c -19.591,-15.814 -39.183,-31.627 -58.773,-47.44 -35.162,-28.38 -76.154,-31.11 -113.45,-7.556 l -9.222,5.826 c 69.275,-31.515 113.914,4.17 152.885,55.311 9.519,-1.735 19.041,-3.776 28.56,-6.141"
       style="fill:#3f7026;fill-opacity:1;fill-rule:evenodd;stroke:none"
       id="path2451" /><path
       d="m 268.684,534.876 c 32.524,21.269 64.99,40.558 106.545,47.677 34.189,-5.748 67.912,-23.519 95.15,-43.416 -15.748,-12.712 -31.498,-25.424 -47.246,-38.135 -28.265,-22.814 -61.217,-25.009 -91.198,-6.073 -21.085,13.315 -42.167,26.631 -63.251,39.947"
       style="fill:#6fae42;fill-opacity:1;fill-rule:evenodd;stroke:none"
       id="path2453" /><path
       d="m 424.414,566.619 c 16.477,-7.73 32.065,-17.328 45.965,-27.482 -15.748,-12.712 -31.498,-25.424 -47.246,-38.135 -28.265,-22.814 -61.217,-25.009 -91.198,-6.073 l -7.413,4.681 c 55.689,-25.335 91.572,3.354 122.9,44.467 -5.274,10.259 -14.203,16.327 -23.008,22.542"
       style="fill:#5e9938;fill-opacity:1;fill-rule:evenodd;stroke:none"
       id="path2455" /><path
       d="m 268.684,534.876 c 32.524,21.269 64.99,40.558 106.545,47.677 8.309,-1.397 16.59,-3.506 24.756,-6.181 -49.508,-1.465 -90.867,-20.482 -131.301,-41.496"
       style="fill:#9fce74;fill-opacity:1;fill-rule:evenodd;stroke:none"
       id="path2457" /><path
       d="m 470.379,539.137 c -15.748,-12.712 -31.498,-25.424 -47.246,-38.135 -28.265,-22.814 -61.217,-25.009 -91.198,-6.073 -21.085,13.315 -42.167,26.631 -63.251,39.947 67.233,17.78 134.462,20.968 201.695,4.261"
       style="fill:#4f8830;fill-opacity:1;fill-rule:evenodd;stroke:none"
       id="path2459" /><path
       d="m 470.379,539.137 c -15.748,-12.712 -31.498,-25.424 -47.246,-38.135 -28.265,-22.814 -61.217,-25.009 -91.198,-6.073 l -7.413,4.681 c 55.687,-25.332 91.572,3.353 122.898,44.464 7.652,-1.394 15.305,-3.035 22.959,-4.937"
       style="fill:#3f7026;fill-opacity:1;fill-rule:evenodd;stroke:none"
       id="path2461" /><path
       d="m 281.647,632.606 c 28.343,18.535 56.637,35.344 92.851,41.549 29.791,-5.009 59.18,-20.496 82.92,-37.836 -13.727,-11.077 -27.451,-22.155 -41.176,-33.233 -24.631,-19.88 -53.348,-21.793 -79.475,-5.292 -18.374,11.604 -36.746,23.209 -55.12,34.812"
       style="fill:#6fae42;fill-opacity:1;fill-rule:evenodd;stroke:none"
       id="path2463" /><path
       d="m 417.359,660.27 c 14.36,-6.737 27.946,-15.102 40.059,-23.951 -13.727,-11.077 -27.451,-22.155 -41.176,-33.233 -24.631,-19.88 -53.348,-21.793 -79.475,-5.292 l -6.459,4.08 c 48.529,-22.077 79.799,2.922 107.102,38.751 -4.596,8.941 -12.379,14.228 -20.051,19.645"
       style="fill:#5e9938;fill-opacity:1;fill-rule:evenodd;stroke:none"
       id="path2465" /><path
       d="m 281.647,632.606 c 28.343,18.535 56.637,35.344 92.851,41.549 7.239,-1.217 14.456,-3.055 21.572,-5.386 -43.145,-1.277 -79.187,-17.85 -114.423,-36.163"
       style="fill:#9fce74;fill-opacity:1;fill-rule:evenodd;stroke:none"
       id="path2467" /><path
       d="m 457.418,636.319 c -13.727,-11.077 -27.451,-22.155 -41.176,-33.233 -24.631,-19.88 -53.348,-21.793 -79.475,-5.292 -18.374,11.604 -36.746,23.209 -55.12,34.812 58.59,15.496 117.18,18.273 175.771,3.713"
       style="fill:#4f8830;fill-opacity:1;fill-rule:evenodd;stroke:none"
       id="path2469" /><path
       d="m 457.418,636.319 c -13.727,-11.077 -27.451,-22.155 -41.176,-33.233 -24.631,-19.88 -53.348,-21.793 -79.475,-5.292 l -6.459,4.08 c 48.529,-22.076 79.799,2.922 107.1,38.748 6.668,-1.214 13.338,-2.644 20.01,-4.303"
       style="fill:#3f7026;fill-opacity:1;fill-rule:evenodd;stroke:none"
       id="path2471" /><path
       d="m 268.684,292.313 c 32.524,21.268 64.99,40.556 106.545,47.675 34.189,-5.748 67.912,-23.519 95.15,-43.416 -15.748,-12.711 -31.498,-25.423 -47.246,-38.135 -28.265,-22.813 -61.217,-25.008 -91.198,-6.073 -21.085,13.316 -42.167,26.632 -63.251,39.949"
       style="fill:#6fae42;fill-opacity:1;fill-rule:evenodd;stroke:none"
       id="path2473" /><path
       d="m 424.414,324.056 c 16.477,-7.732 32.065,-17.329 45.965,-27.484 -15.748,-12.711 -31.498,-25.423 -47.246,-38.135 -28.265,-22.813 -61.217,-25.008 -91.198,-6.073 l -7.413,4.683 c 55.689,-25.335 91.572,3.352 122.9,44.465 -5.274,10.26 -14.203,16.328 -23.008,22.544"
       style="fill:#5e9938;fill-opacity:1;fill-rule:evenodd;stroke:none"
       id="path2475" /><path
       d="m 268.684,292.313 c 32.524,21.268 64.99,40.556 106.545,47.675 8.309,-1.396 16.59,-3.505 24.756,-6.18 -49.508,-1.465 -90.867,-20.482 -131.301,-41.495"
       style="fill:#9fce74;fill-opacity:1;fill-rule:evenodd;stroke:none"
       id="path2477" /><path
       d="m 470.379,296.572 c -15.748,-12.711 -31.498,-25.423 -47.246,-38.135 -28.265,-22.813 -61.217,-25.008 -91.198,-6.073 -21.085,13.316 -42.167,26.632 -63.251,39.949 67.233,17.78 134.462,20.967 201.695,4.259"
       style="fill:#4f8830;fill-opacity:1;fill-rule:evenodd;stroke:none"
       id="path2479" /><path
       d="m 470.379,296.572 c -15.748,-12.711 -31.498,-25.423 -47.246,-38.135 -28.265,-22.813 -61.217,-25.008 -91.198,-6.073 l -7.413,4.683 c 55.687,-25.333 91.572,3.352 122.898,44.462 7.652,-1.394 15.305,-3.034 22.959,-4.937"
       style="fill:#3f7026;fill-opacity:1;fill-rule:evenodd;stroke:none"
       id="path2481" /><path
       d="m 285.274,184.361 c 28.345,11.625 56.637,22.167 92.85,26.059 29.794,-3.143 59.183,-12.856 82.919,-23.732 -13.723,-6.946 -27.449,-13.896 -41.172,-20.842 -24.634,-12.47 -53.349,-13.67 -79.477,-3.321 -18.372,7.279 -36.745,14.558 -55.12,21.836"
       style="fill:#6fae42;fill-opacity:1;fill-rule:evenodd;stroke:none"
       id="path2483" /><path
       d="m 420.988,201.71 c 14.358,-4.225 27.942,-9.471 40.055,-15.022 -13.723,-6.946 -27.449,-13.896 -41.172,-20.842 -24.634,-12.47 -53.349,-13.67 -79.477,-3.321 l -6.46,2.559 c 48.532,-13.846 79.802,1.834 107.103,24.305 -4.594,5.609 -12.379,8.924 -20.049,12.321"
       style="fill:#5e9938;fill-opacity:1;fill-rule:evenodd;stroke:none"
       id="path2485" /><path
       d="m 285.274,184.361 c 28.345,11.625 56.637,22.167 92.85,26.059 7.241,-0.763 14.458,-1.915 21.574,-3.378 -43.145,-0.802 -79.187,-11.195 -114.424,-22.681"
       style="fill:#9fce74;fill-opacity:1;fill-rule:evenodd;stroke:none"
       id="path2487" /><path
       d="m 461.043,186.688 c -13.723,-6.946 -27.449,-13.896 -41.172,-20.842 -24.634,-12.47 -53.349,-13.67 -79.477,-3.321 -18.372,7.279 -36.745,14.558 -55.12,21.836 58.591,9.718 117.179,11.46 175.769,2.327"
       style="fill:#4f8830;fill-opacity:1;fill-rule:evenodd;stroke:none"
       id="path2489" /><path
       d="m 461.043,186.688 c -13.723,-6.946 -27.449,-13.896 -41.172,-20.842 -24.634,-12.47 -53.349,-13.67 -79.477,-3.321 l -6.46,2.559 c 48.53,-13.846 79.8,1.833 107.101,24.304 6.67,-0.762 13.34,-1.659 20.008,-2.7"
       style="fill:#3f7026;fill-opacity:1;fill-rule:evenodd;stroke:none"
       id="path2491" /><path
       d="m 157.414,493.076 c 28.463,16.114 56.878,30.506 93.248,33.599 29.922,-7.582 59.436,-25.619 83.277,-45.023 -13.784,-9.909 -27.568,-19.818 -41.351,-29.726 -24.738,-17.78 -53.579,-17.223 -79.818,1.548 -18.453,13.201 -36.905,26.402 -55.356,39.602"
       style="fill:#6fae42;fill-opacity:1;fill-rule:evenodd;stroke:none"
       id="path2493" /><path
       d="m 293.709,509.08 c 14.42,-7.981 28.065,-17.526 40.23,-27.428 -13.784,-9.909 -27.568,-19.818 -41.351,-29.726 -24.738,-17.78 -53.579,-17.223 -79.818,1.548 l -6.489,4.642 c 48.743,-26.284 80.145,-3.949 107.564,29.57 -4.613,9.347 -12.43,15.31 -20.136,21.394"
       style="fill:#5e9938;fill-opacity:1;fill-rule:evenodd;stroke:none"
       id="path2495" /><path
       d="m 157.414,493.076 c 28.463,16.114 56.878,30.506 93.248,33.599 7.272,-1.843 14.519,-4.304 21.668,-7.251 -43.331,2.438 -79.53,-11.049 -114.916,-26.348"
       style="fill:#9fce74;fill-opacity:1;fill-rule:evenodd;stroke:none"
       id="path2497" /><path
       d="m 333.939,481.652 c -13.784,-9.909 -27.568,-19.818 -41.351,-29.726 -24.738,-17.78 -53.579,-17.223 -79.818,1.548 -18.453,13.201 -36.905,26.402 -55.356,39.602 58.842,10.465 117.682,8.199 176.525,-11.424"
       style="fill:#4f8830;fill-opacity:1;fill-rule:evenodd;stroke:none"
       id="path2499" /><path
       d="m 333.939,481.652 c -13.784,-9.909 -27.568,-19.818 -41.351,-29.726 -24.738,-17.78 -53.579,-17.223 -79.818,1.548 l -6.489,4.642 c 48.739,-26.282 80.145,-3.949 107.562,29.568 6.699,-1.792 13.398,-3.797 20.096,-6.032"
       style="fill:#3f7026;fill-opacity:1;fill-rule:evenodd;stroke:none"
       id="path2501" /><path
       d="m 195.755,593.025 c 22.283,12.614 44.528,23.879 72.995,26.299 23.422,-5.934 46.527,-20.053 65.189,-35.242 -10.789,-7.758 -21.58,-15.514 -32.371,-23.269 -19.364,-13.92 -41.939,-13.482 -62.479,1.211 -14.445,10.333 -28.89,20.667 -43.334,31.001"
       style="fill:#6fae42;fill-opacity:1;fill-rule:evenodd;stroke:none"
       id="path2503" /><path
       d="m 302.447,605.553 c 11.289,-6.249 21.97,-13.72 31.492,-21.471 -10.789,-7.758 -21.58,-15.514 -32.371,-23.269 -19.364,-13.92 -41.939,-13.482 -62.479,1.211 l -5.08,3.634 c 38.154,-20.575 62.738,-3.092 84.2,23.147 -3.611,7.316 -9.729,11.985 -15.762,16.748"
       style="fill:#5e9938;fill-opacity:1;fill-rule:evenodd;stroke:none"
       id="path2505" /><path
       d="m 195.755,593.025 c 22.283,12.614 44.528,23.879 72.995,26.299 5.693,-1.442 11.366,-3.368 16.961,-5.676 -33.918,1.91 -62.253,-8.648 -89.956,-20.623"
       style="fill:#9fce74;fill-opacity:1;fill-rule:evenodd;stroke:none"
       id="path2507" /><path
       d="m 333.939,584.082 c -10.789,-7.758 -21.58,-15.514 -32.371,-23.269 -19.364,-13.92 -41.939,-13.482 -62.479,1.211 -14.445,10.333 -28.89,20.667 -43.334,31.001 46.063,8.191 92.121,6.418 138.184,-8.943"
       style="fill:#4f8830;fill-opacity:1;fill-rule:evenodd;stroke:none"
       id="path2509" /><path
       d="m 333.939,584.082 c -10.789,-7.758 -21.58,-15.514 -32.371,-23.269 -19.364,-13.92 -41.939,-13.482 -62.479,1.211 l -5.08,3.634 c 38.154,-20.574 62.737,-3.092 84.199,23.144 5.244,-1.402 10.488,-2.972 15.731,-4.72"
       style="fill:#3f7026;fill-opacity:1;fill-rule:evenodd;stroke:none"
       id="path2511" /><path
       d="m 237.034,701.885 c 17.204,7.876 34.38,14.714 56.364,14.201 18.087,-6.543 35.927,-19.378 50.336,-32.669 -8.331,-5.086 -16.663,-10.173 -24.995,-15.258 -14.952,-9.13 -32.385,-6.902 -48.245,6.163 -11.155,9.187 -22.308,18.375 -33.46,27.563"
       style="fill:#6fae42;fill-opacity:1;fill-rule:evenodd;stroke:none"
       id="path2513" /><path
       d="m 319.418,702.631 c 8.716,-5.769 16.962,-12.432 24.316,-19.214 -8.331,-5.086 -16.663,-10.173 -24.995,-15.258 -14.952,-9.13 -32.385,-6.902 -48.245,6.163 l -3.923,3.23 c 29.463,-19.08 48.445,-7.635 65.019,10.828 -2.79,5.953 -7.515,10.069 -12.172,14.251"
       style="fill:#5e9938;fill-opacity:1;fill-rule:evenodd;stroke:none"
       id="path2515" /><path
       d="m 237.034,701.885 c 17.204,7.876 34.38,14.714 56.364,14.201 4.395,-1.59 8.776,-3.553 13.097,-5.802 -26.191,4.312 -48.073,-1.47 -69.461,-8.399"
       style="fill:#9fce74;fill-opacity:1;fill-rule:evenodd;stroke:none"
       id="path2517" /><path
       d="m 343.734,683.417 c -8.331,-5.086 -16.663,-10.173 -24.995,-15.258 -14.952,-9.13 -32.385,-6.902 -48.245,6.163 -11.155,9.187 -22.308,18.375 -33.46,27.563 35.567,2.471 71.134,-2.752 106.7,-18.468"
       style="fill:#4f8830;fill-opacity:1;fill-rule:evenodd;stroke:none"
       id="path2519" /><path
       d="m 343.734,683.417 c -8.331,-5.086 -16.663,-10.173 -24.995,-15.258 -14.952,-9.13 -32.385,-6.902 -48.245,6.163 l -3.923,3.23 c 29.461,-19.079 48.444,-7.636 65.017,10.826 4.049,-1.521 8.097,-3.172 12.146,-4.961"
       style="fill:#3f7026;fill-opacity:1;fill-rule:evenodd;stroke:none"
       id="path2521" /><path
       d="m 182.038,352.63 c 24.091,13.641 48.142,25.82 78.925,28.437 25.325,-6.417 50.306,-21.681 70.485,-38.106 -11.667,-8.386 -23.334,-16.773 -35,-25.158 -20.938,-15.052 -45.347,-14.578 -67.556,1.309 -15.618,11.172 -31.236,22.345 -46.854,33.518"
       style="fill:#6fae42;fill-opacity:1;fill-rule:evenodd;stroke:none"
       id="path2523" /><path
       d="m 297.397,366.177 c 12.206,-6.756 23.754,-14.835 34.051,-23.216 -11.667,-8.386 -23.334,-16.773 -35,-25.158 -20.938,-15.052 -45.347,-14.578 -67.556,1.309 l -5.493,3.929 c 41.255,-22.247 67.836,-3.343 91.042,25.026 -3.905,7.912 -10.523,12.96 -17.044,18.11"
       style="fill:#5e9938;fill-opacity:1;fill-rule:evenodd;stroke:none"
       id="path2525" /><path
       d="m 182.038,352.63 c 24.091,13.641 48.142,25.82 78.925,28.437 6.154,-1.558 12.288,-3.642 18.339,-6.137 -36.674,2.065 -67.312,-9.352 -97.264,-22.3"
       style="fill:#9fce74;fill-opacity:1;fill-rule:evenodd;stroke:none"
       id="path2527" /><path
       d="m 331.448,342.961 c -11.667,-8.386 -23.334,-16.773 -35,-25.158 -20.938,-15.052 -45.347,-14.578 -67.556,1.309 -15.618,11.172 -31.236,22.345 -46.854,33.518 49.804,8.858 99.606,6.94 149.41,-9.669"
       style="fill:#4f8830;fill-opacity:1;fill-rule:evenodd;stroke:none"
       id="path2529" /><path
       d="m 331.448,342.961 c -11.667,-8.386 -23.334,-16.773 -35,-25.158 -20.938,-15.052 -45.347,-14.578 -67.556,1.309 l -5.493,3.929 c 41.255,-22.245 67.833,-3.343 91.041,25.025 5.67,-1.516 11.34,-3.213 17.008,-5.105"
       style="fill:#3f7026;fill-opacity:1;fill-rule:evenodd;stroke:none"
       id="path2531" /><path
       d="m 178.525,240.296 c 25.269,14.872 50.498,28.155 82.786,31.01 26.564,-6.998 52.767,-23.644 73.934,-41.553 -12.237,-9.145 -24.475,-18.289 -36.713,-27.434 -21.962,-16.412 -47.565,-15.895 -70.861,1.429 -16.383,12.183 -32.765,24.365 -49.146,36.548"
       style="fill:#6fae42;fill-opacity:1;fill-rule:evenodd;stroke:none"
       id="path2533" /><path
       d="m 299.528,255.066 c 12.802,-7.366 24.917,-16.174 35.717,-25.313 -12.237,-9.145 -24.475,-18.289 -36.713,-27.434 -21.962,-16.412 -47.565,-15.895 -70.861,1.429 l -5.761,4.283 c 43.271,-24.257 71.153,-3.643 95.496,27.289 -4.098,8.628 -11.038,14.133 -17.878,19.746"
       style="fill:#5e9938;fill-opacity:1;fill-rule:evenodd;stroke:none"
       id="path2535" /><path
       d="m 178.525,240.296 c 25.269,14.872 50.498,28.155 82.786,31.01 6.456,-1.702 12.89,-3.974 19.235,-6.693 -38.468,2.25 -70.606,-10.197 -102.021,-24.317"
       style="fill:#9fce74;fill-opacity:1;fill-rule:evenodd;stroke:none"
       id="path2537" /><path
       d="m 335.245,229.753 c -12.237,-9.145 -24.475,-18.289 -36.713,-27.434 -21.962,-16.412 -47.565,-15.895 -70.861,1.429 -16.383,12.183 -32.765,24.365 -49.146,36.548 52.24,9.659 104.479,7.567 156.72,-10.543"
       style="fill:#4f8830;fill-opacity:1;fill-rule:evenodd;stroke:none"
       id="path2539" /><path
       d="m 335.245,229.753 c -12.237,-9.145 -24.475,-18.289 -36.713,-27.434 -21.962,-16.412 -47.565,-15.895 -70.861,1.429 l -5.761,4.283 c 43.271,-24.257 71.152,-3.645 95.494,27.287 5.946,-1.652 11.892,-3.505 17.841,-5.565"
       style="fill:#3f7026;fill-opacity:1;fill-rule:evenodd;stroke:none"
       id="path2541" /><path
       d="m 127.627,458.681 c 10.554,2.617 21.701,4.284 33.753,4.614 28.813,-8.966 57.233,-27.977 80.191,-47.989 -13.274,-8.775 -26.548,-17.548 -39.819,-26.323 -23.822,-15.746 -51.592,-13.602 -76.859,5.933 -1.313,1.016 -2.626,2.031 -3.939,3.047 -9.526,7.363 -14.536,20.514 -13.031,34.2 1.504,13.688 9.081,23.883 19.704,26.518"
       style="fill:#6fae42;fill-opacity:1;fill-rule:evenodd;stroke:none"
       id="path2543" /><path
       d="m 241.235,415.086 -39.483,-26.101 c -23.822,-15.748 -51.592,-13.604 -76.859,5.931 -1.313,1.016 -2.626,2.031 -3.939,3.046 -9.526,7.364 -14.536,20.515 -13.031,34.201 0.262,2.385 0.709,4.664 1.325,6.816 43.997,0.568 87.992,-6.729 131.987,-23.893"
       style="fill:#4f8830;fill-opacity:1;fill-rule:evenodd;stroke:none"
       id="path2545" /><path
       d="m 127.627,458.681 c 10.554,2.617 21.701,4.284 33.753,4.614 6.793,-2.114 13.565,-4.787 20.246,-7.898 -24.137,2.53 -46.024,-0.095 -66.813,-5.234 3.355,4.27 7.737,7.258 12.814,8.518"
       style="fill:#9fce74;fill-opacity:1;fill-rule:evenodd;stroke:none"
       id="path2547" /><path
       d="m 202.832,443.958 c 13.887,-8.49 27.025,-18.44 38.739,-28.652 -13.274,-8.775 -26.548,-17.548 -39.819,-26.323 -23.822,-15.746 -51.592,-13.602 -76.859,5.933 l -6.248,4.83 c 46.933,-28.02 77.175,-8.261 103.576,22.488 -4.442,9.257 -11.97,15.435 -19.389,21.724"
       style="fill:#5e9938;fill-opacity:1;fill-rule:evenodd;stroke:none"
       id="path2549" /><path
       d="m 241.571,415.306 c -13.274,-8.775 -26.548,-17.548 -39.819,-26.323 -23.822,-15.746 -51.592,-13.602 -76.859,5.933 l -6.248,4.83 c 46.933,-28.02 77.174,-8.263 103.576,22.485 6.449,-2.096 12.9,-4.402 19.35,-6.925"
       style="fill:#3f7026;fill-opacity:1;fill-rule:evenodd;stroke:none"
       id="path2551" /><path
       d="m 150.263,339.29 c 9.35,0.805 19.101,0.723 29.475,-0.621 23.694,-11.516 45.911,-31.528 63.331,-51.656 -12.381,-5.678 -24.763,-11.358 -37.143,-17.036 -22.219,-10.193 -45.796,-4.624 -65.25,15.41 -1.01,1.041 -2.022,2.082 -3.033,3.123 -7.334,7.551 -10.136,19.421 -7.291,30.866 2.844,11.447 10.502,19.103 19.911,19.914"
       style="fill:#6fae42;fill-opacity:1;fill-rule:evenodd;stroke:none"
       id="path2553" /><path
       d="m 242.754,286.869 -36.828,-16.892 c -22.219,-10.193 -45.796,-4.624 -65.25,15.41 -1.01,1.041 -2.022,2.082 -3.033,3.123 -7.334,7.551 -10.136,19.421 -7.291,30.866 0.495,1.994 1.138,3.875 1.91,5.623 37.799,-5.447 74.706,-17.588 110.492,-38.13"
       style="fill:#4f8830;fill-opacity:1;fill-rule:evenodd;stroke:none"
       id="path2555" /><path
       d="m 150.263,339.29 c 9.35,0.805 19.101,0.723 29.475,-0.621 5.587,-2.716 11.09,-5.903 16.469,-9.453 -20.416,5.408 -39.487,6.125 -57.901,4.552 3.362,3.182 7.46,5.135 11.957,5.522"
       style="fill:#9fce74;fill-opacity:1;fill-rule:evenodd;stroke:none"
       id="path2557" /><path
       d="m 213.096,316.622 c 10.947,-9.098 21.084,-19.338 29.973,-29.609 -12.381,-5.678 -24.763,-11.358 -37.143,-17.036 -22.219,-10.193 -45.796,-4.624 -65.25,15.41 l -4.808,4.952 c 37.071,-30.177 65.256,-17.434 91.392,5.179 -2.76,8.479 -8.514,14.752 -14.164,21.104"
       style="fill:#5e9938;fill-opacity:1;fill-rule:evenodd;stroke:none"
       id="path2559" /><path
       d="m 243.069,287.013 c -12.381,-5.678 -24.763,-11.358 -37.143,-17.036 -22.219,-10.193 -45.796,-4.624 -65.25,15.41 l -4.808,4.952 c 37.071,-30.176 65.253,-17.436 91.39,5.178 5.294,-2.655 10.565,-5.485 15.811,-8.504"
       style="fill:#3f7026;fill-opacity:1;fill-rule:evenodd;stroke:none"
       id="path2561" /><path
       d="m 154.663,584.109 c 9.028,1.149 18.446,1.546 28.467,0.872 22.886,-8.889 44.347,-25.249 61.169,-41.939 -11.958,-5.539 -23.915,-11.077 -35.874,-16.616 -21.463,-9.941 -44.234,-6.223 -63.023,10.288 -0.978,0.857 -1.954,1.716 -2.932,2.573 -7.081,6.225 -9.79,16.424 -7.041,26.527 2.747,10.104 10.143,17.138 19.234,18.295"
       style="fill:#6fae42;fill-opacity:1;fill-rule:evenodd;stroke:none"
       id="path2563" /><path
       d="m 243.997,542.901 -35.572,-16.475 c -21.463,-9.941 -44.234,-6.223 -63.023,10.288 -0.978,0.857 -1.954,1.716 -2.932,2.573 -7.081,6.225 -9.79,16.424 -7.041,26.528 0.479,1.76 1.098,3.427 1.844,4.987 36.511,-2.93 72.158,-11.732 106.724,-27.901"
       style="fill:#4f8830;fill-opacity:1;fill-rule:evenodd;stroke:none"
       id="path2565" /><path
       d="m 154.663,584.109 c 9.028,1.149 18.446,1.546 28.467,0.872 5.395,-2.096 10.712,-4.607 15.907,-7.44 -19.72,3.73 -38.14,3.439 -55.925,1.186 3.247,2.932 7.204,4.83 11.551,5.382"
       style="fill:#9fce74;fill-opacity:1;fill-rule:evenodd;stroke:none"
       id="path2567" /><path
       d="m 215.35,567.385 c 10.573,-7.396 20.364,-15.826 28.949,-24.343 -11.958,-5.539 -23.915,-11.078 -35.874,-16.616 -21.463,-9.941 -44.234,-6.223 -63.023,10.288 l -4.646,4.082 c 35.808,-24.498 63.028,-12.051 88.275,8.893 -2.665,7.25 -8.225,12.436 -13.681,17.696"
       style="fill:#5e9938;fill-opacity:1;fill-rule:evenodd;stroke:none"
       id="path2569" /><path
       d="m 244.299,543.042 c -11.958,-5.539 -23.915,-11.078 -35.874,-16.616 -21.463,-9.941 -44.234,-6.223 -63.023,10.288 l -4.646,4.082 c 35.808,-24.498 63.028,-12.052 88.273,8.892 5.113,-2.058 10.205,-4.27 15.27,-6.646"
       style="fill:#3f7026;fill-opacity:1;fill-rule:evenodd;stroke:none"
       id="path2571" /><path
       d="m 205.569,675.667 c 6.834,0.588 13.961,0.529 21.545,-0.455 17.321,-8.417 33.56,-23.044 46.292,-37.757 -9.051,-4.152 -18.101,-8.303 -27.15,-12.454 -16.242,-7.449 -33.475,-3.38 -47.694,11.264 -0.74,0.761 -1.479,1.522 -2.218,2.283 -5.359,5.52 -7.409,14.196 -5.33,22.563 2.079,8.366 7.676,13.963 14.555,14.556"
       style="fill:#6fae42;fill-opacity:1;fill-rule:evenodd;stroke:none"
       id="path2573" /><path
       d="m 273.177,637.35 -26.921,-12.349 c -16.242,-7.449 -33.475,-3.38 -47.694,11.264 -0.74,0.761 -1.479,1.522 -2.218,2.283 -5.359,5.52 -7.409,14.196 -5.33,22.563 0.362,1.457 0.831,2.832 1.395,4.109 27.633,-3.98 54.609,-12.856 80.768,-27.87"
       style="fill:#4f8830;fill-opacity:1;fill-rule:evenodd;stroke:none"
       id="path2575" /><path
       d="m 205.569,675.667 c 6.834,0.588 13.961,0.529 21.545,-0.455 4.083,-1.984 8.107,-4.314 12.037,-6.909 -14.923,3.952 -28.862,4.477 -42.323,3.326 2.459,2.327 5.452,3.755 8.741,4.038"
       style="fill:#9fce74;fill-opacity:1;fill-rule:evenodd;stroke:none"
       id="path2577" /><path
       d="m 251.497,659.096 c 8.001,-6.649 15.412,-14.133 21.909,-21.641 -9.051,-4.152 -18.101,-8.303 -27.15,-12.454 -16.242,-7.449 -33.475,-3.38 -47.694,11.264 l -3.518,3.621 c 27.1,-22.058 47.702,-12.744 66.806,3.786 -2.017,6.197 -6.223,10.782 -10.353,15.424"
       style="fill:#5e9938;fill-opacity:1;fill-rule:evenodd;stroke:none"
       id="path2579" /><path
       d="m 273.406,637.455 c -9.051,-4.152 -18.101,-8.303 -27.15,-12.454 -16.242,-7.449 -33.475,-3.38 -47.694,11.264 l -3.518,3.621 c 27.1,-22.058 47.7,-12.745 66.804,3.785 3.871,-1.942 7.723,-4.01 11.558,-6.216"
       style="fill:#3f7026;fill-opacity:1;fill-rule:evenodd;stroke:none"
       id="path2581" /><path
       d="m 302.175,731.609 c 20.888,18.535 41.737,35.344 68.423,41.549 21.954,-5.01 43.609,-20.496 61.101,-37.835 -10.111,-11.078 -20.226,-22.156 -30.34,-33.233 -18.151,-19.882 -39.311,-21.794 -58.566,-5.293 -13.538,11.604 -27.077,23.209 -40.618,34.812"
       style="fill:#6fae42;fill-opacity:1;fill-rule:evenodd;stroke:none"
       id="path2583" /><path
       d="m 402.184,759.272 c 10.58,-6.736 20.589,-15.101 29.515,-23.949 -10.111,-11.078 -20.226,-22.156 -30.34,-33.233 -18.151,-19.882 -39.311,-21.794 -58.566,-5.293 l -4.758,4.08 c 35.761,-22.077 58.805,2.922 78.922,38.75 -3.385,8.942 -9.119,14.229 -14.773,19.645"
       style="fill:#5e9938;fill-opacity:1;fill-rule:evenodd;stroke:none"
       id="path2585" /><path
       d="m 302.175,731.609 c 20.888,18.535 41.737,35.344 68.423,41.549 5.334,-1.218 10.653,-3.055 15.897,-5.387 -31.794,-1.275 -58.353,-17.849 -84.32,-36.162"
       style="fill:#9fce74;fill-opacity:1;fill-rule:evenodd;stroke:none"
       id="path2587" /><path
       d="m 431.699,735.323 c -10.111,-11.078 -20.226,-22.156 -30.34,-33.233 -18.151,-19.882 -39.311,-21.794 -58.566,-5.293 -13.538,11.604 -27.077,23.209 -40.618,34.812 43.177,15.495 86.351,18.273 129.524,3.714"
       style="fill:#4f8830;fill-opacity:1;fill-rule:evenodd;stroke:none"
       id="path2589" /><path
       d="m 431.699,735.323 c -10.111,-11.078 -20.226,-22.156 -30.34,-33.233 -18.151,-19.882 -39.311,-21.794 -58.566,-5.293 l -4.758,4.08 c 35.761,-22.076 58.803,2.921 78.92,38.748 4.916,-1.215 9.832,-2.645 14.744,-4.302"
       style="fill:#3f7026;fill-opacity:1;fill-rule:evenodd;stroke:none"
       id="path2591" /><path
       d="m 407.545,478.639 c 31.051,20.898 62.051,40.066 101.725,49.269 32.644,-2.552 64.839,-15.628 90.849,-31.025 -15.037,-12.225 -30.074,-24.451 -45.111,-36.674 -26.988,-21.941 -58.449,-26.23 -87.074,-11.868 -20.129,10.098 -40.26,20.198 -60.389,30.298"
       style="fill:#6fae42;fill-opacity:1;fill-rule:evenodd;stroke:none"
       id="path2593" /><path
       d="m 556.232,517.55 c 15.731,-5.559 30.614,-12.811 43.887,-20.667 -15.037,-12.225 -30.074,-24.451 -45.111,-36.674 -26.988,-21.941 -58.449,-26.23 -87.074,-11.868 l -7.079,3.552 c 53.172,-18.092 87.432,9.52 117.344,47.646 -5.033,8.571 -13.562,13.222 -21.967,18.011"
       style="fill:#5e9938;fill-opacity:1;fill-rule:evenodd;stroke:none"
       id="path2595" /><path
       d="m 407.545,478.639 c 31.051,20.898 62.051,40.066 101.725,49.269 7.933,-0.619 15.839,-1.863 23.638,-3.608 -47.271,-4.845 -86.76,-24.415 -125.363,-45.661"
       style="fill:#9fce74;fill-opacity:1;fill-rule:evenodd;stroke:none"
       id="path2597" /><path
       d="m 600.119,496.883 c -15.037,-12.225 -30.074,-24.451 -45.111,-36.674 -26.988,-21.941 -58.449,-26.23 -87.074,-11.868 -20.129,10.098 -40.26,20.198 -60.389,30.298 64.191,20.354 128.383,27.978 192.574,18.244"
       style="fill:#4f8830;fill-opacity:1;fill-rule:evenodd;stroke:none"
       id="path2599" /><path
       d="m 600.119,496.883 c -15.037,-12.225 -30.074,-24.451 -45.111,-36.674 -26.988,-21.941 -58.449,-26.23 -87.074,-11.868 l -7.079,3.552 c 53.172,-18.092 87.432,9.518 117.342,47.643 7.307,-0.665 14.616,-1.545 21.922,-2.653"
       style="fill:#3f7026;fill-opacity:1;fill-rule:evenodd;stroke:none"
       id="path2601" /><path
       d="m 408.906,586.837 c 22.282,16.037 44.526,30.719 72.994,37.512 23.424,-2.337 46.528,-12.907 65.19,-25.23 -10.789,-9.413 -21.58,-18.827 -32.369,-28.24 -19.366,-16.895 -41.942,-19.925 -62.481,-8.386 -14.443,8.114 -28.888,16.229 -43.334,24.344"
       style="fill:#6fae42;fill-opacity:1;fill-rule:evenodd;stroke:none"
       id="path2603" /><path
       d="m 515.6,615.753 c 11.287,-4.514 21.966,-10.345 31.49,-16.634 -10.789,-9.413 -21.58,-18.827 -32.369,-28.24 -19.366,-16.895 -41.942,-19.925 -62.481,-8.386 l -5.08,2.854 c 38.154,-14.715 62.736,6.546 84.199,36.079 -3.611,6.763 -9.728,10.491 -15.759,14.327"
       style="fill:#5e9938;fill-opacity:1;fill-rule:evenodd;stroke:none"
       id="path2605" /><path
       d="m 408.906,586.837 c 22.282,16.037 44.526,30.719 72.994,37.512 5.694,-0.567 11.366,-1.623 16.961,-3.07 -33.918,-3.302 -62.254,-18.211 -89.955,-34.442"
       style="fill:#9fce74;fill-opacity:1;fill-rule:evenodd;stroke:none"
       id="path2607" /><path
       d="m 547.09,599.119 c -10.789,-9.413 -21.58,-18.827 -32.369,-28.24 -19.366,-16.895 -41.942,-19.925 -62.481,-8.386 -14.443,8.114 -28.888,16.229 -43.334,24.344 46.063,15.267 92.123,20.568 138.184,12.282"
       style="fill:#4f8830;fill-opacity:1;fill-rule:evenodd;stroke:none"
       id="path2609" /><path
       d="m 547.09,599.119 c -10.789,-9.413 -21.58,-18.827 -32.369,-28.24 -19.366,-16.895 -41.942,-19.925 -62.481,-8.386 l -5.08,2.854 c 38.153,-14.715 62.736,6.544 84.199,36.077 5.243,-0.596 10.487,-1.361 15.731,-2.305"
       style="fill:#3f7026;fill-opacity:1;fill-rule:evenodd;stroke:none"
       id="path2611" /><path
       d="m 394.948,683.849 c 17.204,13.656 34.382,26.264 56.365,33.137 18.085,-0.465 35.925,-7.307 50.337,-15.756 -8.332,-7.886 -16.664,-15.772 -24.996,-23.657 -14.953,-14.153 -32.384,-17.782 -48.244,-10.046 -11.154,5.44 -22.308,10.881 -33.462,16.322"
       style="fill:#6fae42;fill-opacity:1;fill-rule:evenodd;stroke:none"
       id="path2613" /><path
       d="m 477.332,712.273 c 8.719,-2.839 16.965,-6.732 24.318,-11.043 -8.332,-7.886 -16.664,-15.772 -24.996,-23.657 C 461.701,663.42 444.27,659.791 428.41,667.527 l -3.924,1.913 c 29.461,-9.182 48.446,8.639 65.018,32.671 -2.787,5.016 -7.514,7.546 -12.172,10.162"
       style="fill:#5e9938;fill-opacity:1;fill-rule:evenodd;stroke:none"
       id="path2615" /><path
       d="m 394.948,683.849 c 17.204,13.656 34.382,26.264 56.365,33.137 4.394,-0.112 8.775,-0.604 13.097,-1.402 -26.191,-4.487 -48.072,-17.62 -69.462,-31.735"
       style="fill:#9fce74;fill-opacity:1;fill-rule:evenodd;stroke:none"
       id="path2617" /><path
       d="m 501.65,701.23 c -8.332,-7.886 -16.664,-15.772 -24.996,-23.657 -14.953,-14.153 -32.384,-17.782 -48.244,-10.046 -11.154,5.44 -22.308,10.881 -33.462,16.322 35.568,14.421 71.134,21.146 106.702,17.381"
       style="fill:#4f8830;fill-opacity:1;fill-rule:evenodd;stroke:none"
       id="path2619" /><path
       d="M 501.65,701.23 C 493.318,693.344 484.986,685.458 476.654,677.573 461.701,663.42 444.27,659.791 428.41,667.527 l -3.924,1.913 c 29.461,-9.182 48.444,8.639 65.018,32.671 4.047,-0.161 8.098,-0.453 12.146,-0.881"
       style="fill:#3f7026;fill-opacity:1;fill-rule:evenodd;stroke:none"
       id="path2621" /><path
       d="m 409.441,342.846 c 29.559,18.709 59.065,35.949 96.83,45.045 31.073,-1.088 61.719,-11.099 86.477,-23.276 -14.312,-10.842 -28.627,-21.683 -42.939,-32.524 -25.69,-19.456 -55.635,-24.119 -82.885,-12.904 -19.16,7.886 -38.322,15.773 -57.483,23.659"
       style="fill:#6fae42;fill-opacity:1;fill-rule:evenodd;stroke:none"
       id="path2623" /><path
       d="m 550.973,380.665 c 14.974,-4.187 29.142,-9.837 41.775,-16.05 -14.312,-10.842 -28.627,-21.683 -42.939,-32.524 -25.69,-19.456 -55.635,-24.119 -82.885,-12.904 l -6.736,2.772 c 50.613,-13.566 83.224,10.932 111.695,44.184 -4.791,7.089 -12.908,10.746 -20.91,14.522"
       style="fill:#5e9938;fill-opacity:1;fill-rule:evenodd;stroke:none"
       id="path2625" /><path
       d="m 409.441,342.846 c 29.559,18.709 59.065,35.949 96.83,45.045 7.551,-0.265 15.079,-1.058 22.5,-2.28 -44.994,-5.652 -82.583,-23.514 -119.33,-42.765"
       style="fill:#9fce74;fill-opacity:1;fill-rule:evenodd;stroke:none"
       id="path2627" /><path
       d="m 592.748,364.615 c -14.312,-10.842 -28.627,-21.683 -42.939,-32.524 -25.69,-19.456 -55.635,-24.119 -82.885,-12.904 -19.16,7.886 -38.322,15.773 -57.483,23.659 61.104,19.337 122.204,27.899 183.307,21.769"
       style="fill:#4f8830;fill-opacity:1;fill-rule:evenodd;stroke:none"
       id="path2629" /><path
       d="m 592.748,364.615 c -14.312,-10.842 -28.627,-21.683 -42.939,-32.524 -25.69,-19.456 -55.635,-24.119 -82.885,-12.904 l -6.736,2.772 c 50.611,-13.566 83.222,10.93 111.693,44.181 6.955,-0.323 13.91,-0.828 20.867,-1.525"
       style="fill:#3f7026;fill-opacity:1;fill-rule:evenodd;stroke:none"
       id="path2631" /><path
       d="m 403.896,233.836 c 26.272,20.775 52.497,39.951 86.063,50.346 27.613,-0.792 54.854,-11.319 76.855,-24.283 -12.72,-12.003 -25.441,-24.005 -38.162,-36.007 -22.832,-21.543 -49.449,-27.007 -73.666,-15.125 -17.029,8.356 -34.06,16.712 -51.09,25.069"
       style="fill:#6fae42;fill-opacity:1;fill-rule:evenodd;stroke:none"
       id="path2633" /><path
       d="m 529.688,276.871 c 13.31,-4.376 25.9,-10.356 37.126,-16.972 -12.72,-12.003 -25.441,-24.005 -38.162,-36.007 -22.832,-21.543 -49.449,-27.007 -73.666,-15.125 l -5.988,2.939 c 44.984,-14.151 73.969,12.975 99.273,49.595 -4.257,7.671 -11.472,11.553 -18.583,15.57"
       style="fill:#5e9938;fill-opacity:1;fill-rule:evenodd;stroke:none"
       id="path2635" /><path
       d="m 403.896,233.836 c 26.272,20.775 52.497,39.951 86.063,50.346 6.711,-0.193 13.398,-0.962 19.996,-2.199 -39.99,-6.735 -73.398,-26.689 -106.059,-48.147"
       style="fill:#9fce74;fill-opacity:1;fill-rule:evenodd;stroke:none"
       id="path2637" /><path
       d="m 566.814,259.899 c -12.72,-12.003 -25.441,-24.005 -38.162,-36.007 -22.832,-21.543 -49.449,-27.007 -73.666,-15.125 -17.029,8.356 -34.06,16.712 -51.09,25.069 54.307,21.86 108.612,31.973 162.918,26.063"
       style="fill:#4f8830;fill-opacity:1;fill-rule:evenodd;stroke:none"
       id="path2639" /><path
       d="m 566.814,259.899 c -12.72,-12.003 -25.441,-24.005 -38.162,-36.007 -22.832,-21.543 -49.449,-27.007 -73.666,-15.125 l -5.988,2.939 c 44.984,-14.151 73.967,12.975 99.272,49.593 6.183,-0.265 12.365,-0.726 18.544,-1.4"
       style="fill:#3f7026;fill-opacity:1;fill-rule:evenodd;stroke:none"
       id="path2641" /><path
       d="m 530.113,676.988 c -26.504,2.282 -43.082,-12.183 -63.488,-35.762 8.469,-3.885 16.939,-7.771 25.408,-11.656 15.203,-6.972 31.33,-3.163 44.639,10.542 0.691,0.712 1.385,1.424 2.074,2.137 5.018,5.165 6.936,13.285 4.99,21.116 -1.947,7.831 -7.185,13.069 -13.623,13.623"
       style="fill:#6fae42;fill-opacity:1;fill-rule:evenodd;stroke:none"
       id="path2643" /><path
       d="m 530.113,676.988 c -26.504,2.282 -43.082,-12.183 -63.488,-35.762 17.711,18.133 38.301,31.083 63.488,35.762"
       style="fill:#9fce74;fill-opacity:1;fill-rule:evenodd;stroke:none"
       id="path2645" /><path
       d="m 466.84,641.127 25.193,-11.557 c 15.203,-6.972 31.33,-3.163 44.639,10.542 0.691,0.712 1.385,1.424 2.074,2.137 5.018,5.165 6.936,13.285 4.99,21.116 -0.34,1.364 -0.779,2.65 -1.308,3.846 -25.858,-3.727 -51.106,-12.032 -75.588,-26.084"
       style="fill:#4f8830;fill-opacity:1;fill-rule:evenodd;stroke:none"
       id="path2647" /><path
       d="m 498.736,627.205 c 13.147,-3.283 26.571,1.201 37.936,12.907 0.691,0.712 1.385,1.424 2.074,2.137 5.018,5.165 6.936,13.285 4.99,21.116 -0.34,1.364 -0.779,2.65 -1.308,3.846 -1.748,-16.829 -16.782,-38.869 -43.692,-40.006"
       style="fill:#3f7026;fill-opacity:1;fill-rule:evenodd;stroke:none"
       id="path2649" /><path
       d="m 578.51,583.413 c -30.717,2.646 -49.936,-14.12 -73.588,-41.451 9.818,-4.503 19.635,-9.006 29.451,-13.509 17.619,-8.081 36.315,-3.666 51.74,12.219 0.801,0.826 1.602,1.651 2.405,2.476 5.812,5.989 8.037,15.399 5.781,24.476 -2.256,9.075 -8.326,15.147 -15.789,15.789"
       style="fill:#6fae42;fill-opacity:1;fill-rule:evenodd;stroke:none"
       id="path2651" /><path
       d="m 578.51,583.413 c -30.717,2.646 -49.936,-14.12 -73.588,-41.451 20.531,21.017 44.396,36.028 73.588,41.451"
       style="fill:#9fce74;fill-opacity:1;fill-rule:evenodd;stroke:none"
       id="path2653" /><path
       d="m 505.172,541.849 29.201,-13.396 c 17.619,-8.081 36.315,-3.666 51.74,12.219 0.801,0.826 1.602,1.651 2.405,2.476 5.812,5.989 8.037,15.399 5.781,24.476 -0.393,1.581 -0.904,3.071 -1.514,4.457 -29.974,-4.319 -59.238,-13.945 -87.613,-30.232"
       style="fill:#4f8830;fill-opacity:1;fill-rule:evenodd;stroke:none"
       id="path2655" /><path
       d="m 542.143,525.712 c 15.236,-3.806 30.795,1.392 43.97,14.96 0.801,0.826 1.602,1.651 2.405,2.476 5.812,5.989 8.037,15.399 5.781,24.476 -0.393,1.581 -0.904,3.071 -1.514,4.457 -2.029,-19.505 -19.451,-45.05 -50.642,-46.369"
       style="fill:#3f7026;fill-opacity:1;fill-rule:evenodd;stroke:none"
       id="path2657" /><path
       d="m 595.021,458.524 c -38.3,3.297 -62.261,-17.606 -91.748,-51.681 12.239,-5.614 24.479,-11.229 36.719,-16.842 21.967,-10.076 45.276,-4.571 64.506,15.232 1.002,1.031 2,2.06 2.998,3.089 7.25,7.467 10.022,19.199 7.209,30.516 -2.81,11.315 -10.381,18.887 -19.684,19.686"
       style="fill:#6fae42;fill-opacity:1;fill-rule:evenodd;stroke:none"
       id="path2659" /><path
       d="m 595.021,458.524 c -38.3,3.297 -62.261,-17.606 -91.748,-51.681 25.594,26.207 55.35,44.92 91.748,51.681"
       style="fill:#9fce74;fill-opacity:1;fill-rule:evenodd;stroke:none"
       id="path2661" /><path
       d="m 503.582,406.701 36.41,-16.7 c 21.967,-10.076 45.276,-4.571 64.506,15.232 1.002,1.031 2,2.06 2.998,3.089 7.25,7.467 10.022,19.199 7.209,30.516 -0.488,1.973 -1.125,3.83 -1.889,5.558 -37.369,-5.386 -73.853,-17.386 -109.234,-37.695"
       style="fill:#4f8830;fill-opacity:1;fill-rule:evenodd;stroke:none"
       id="path2663" /><path
       d="m 549.68,386.584 c 18.998,-4.746 38.392,1.735 54.818,18.649 1.002,1.031 2,2.06 2.998,3.089 7.25,7.467 10.022,19.199 7.209,30.516 -0.488,1.973 -1.125,3.83 -1.889,5.558 -2.527,-24.32 -24.248,-56.169 -63.136,-57.812"
       style="fill:#3f7026;fill-opacity:1;fill-rule:evenodd;stroke:none"
       id="path2665" /><path
       d="m 594.016,339.074 c -33.231,2.861 -54.022,-15.276 -79.606,-44.842 10.619,-4.87 21.24,-9.741 31.86,-14.613 19.06,-8.74 39.281,-3.966 55.97,13.219 0.865,0.892 1.733,1.786 2.6,2.679 6.291,6.476 8.695,16.658 6.254,26.476 -2.438,9.819 -9.008,16.386 -17.078,17.081"
       style="fill:#6fae42;fill-opacity:1;fill-rule:evenodd;stroke:none"
       id="path2667" /><path
       d="m 594.016,339.074 c -33.231,2.861 -54.022,-15.276 -79.606,-44.842 22.207,22.738 48.026,38.976 79.606,44.842"
       style="fill:#9fce74;fill-opacity:1;fill-rule:evenodd;stroke:none"
       id="path2669" /><path
       d="m 514.678,294.11 31.592,-14.491 c 19.06,-8.74 39.281,-3.966 55.97,13.219 0.865,0.892 1.733,1.786 2.6,2.679 6.291,6.476 8.695,16.658 6.254,26.476 -0.424,1.711 -0.975,3.323 -1.637,4.823 -32.424,-4.673 -64.082,-15.087 -94.779,-32.706"
       style="fill:#4f8830;fill-opacity:1;fill-rule:evenodd;stroke:none"
       id="path2671" /><path
       d="m 554.674,276.655 c 16.482,-4.118 33.314,1.506 47.566,16.183 0.865,0.892 1.733,1.786 2.6,2.679 6.291,6.476 8.695,16.658 6.254,26.476 -0.424,1.711 -0.975,3.323 -1.637,4.823 -2.195,-21.101 -21.041,-48.735 -54.783,-50.161"
       style="fill:#3f7026;fill-opacity:1;fill-rule:evenodd;stroke:none"
       id="path2673" /><path
       d="m 173.626,626.683 c 4.125,0.833 8.425,1.295 13.003,1.231 10.451,-3.869 20.25,-11.56 27.933,-19.549 -5.46,-3.137 -10.921,-6.274 -16.382,-9.412 -9.802,-5.631 -20.201,-4.379 -28.781,3.464 -0.445,0.407 -0.893,0.815 -1.338,1.223 -3.233,2.956 -4.472,8.048 -3.217,13.242 1.255,5.194 4.633,8.963 8.782,9.801"
       style="fill:#6fae42;fill-opacity:1;fill-rule:evenodd;stroke:none"
       id="path2675" /><path
       d="m 214.425,608.286 -16.245,-9.333 c -9.802,-5.63 -20.201,-4.379 -28.781,3.464 -0.445,0.407 -0.893,0.815 -1.338,1.223 -3.233,2.956 -4.472,8.048 -3.217,13.242 0.219,0.905 0.502,1.767 0.842,2.577 16.674,-0.472 32.953,-3.941 48.739,-11.173"
       style="fill:#4f8830;fill-opacity:1;fill-rule:evenodd;stroke:none"
       id="path2677" /><path
       d="m 173.626,626.683 c 4.125,0.833 8.425,1.295 13.003,1.231 2.463,-0.913 4.891,-2.036 7.263,-3.328 -9.005,1.343 -17.417,0.685 -25.54,-0.95 1.482,1.576 3.292,2.646 5.274,3.047"
       style="fill:#9fce74;fill-opacity:1;fill-rule:evenodd;stroke:none"
       id="path2679" /><path
       d="m 201.342,619.894 c 4.828,-3.454 9.301,-7.453 13.22,-11.529 -5.46,-3.137 -10.921,-6.274 -16.382,-9.412 -9.802,-5.631 -20.201,-4.379 -28.781,3.464 l -2.123,1.939 c 16.353,-11.418 28.784,-4.357 40.313,6.954 -1.215,3.598 -3.756,6.07 -6.247,8.584"
       style="fill:#5e9938;fill-opacity:1;fill-rule:evenodd;stroke:none"
       id="path2681" /><path
       d="m 214.562,608.365 c -5.46,-3.137 -10.921,-6.274 -16.382,-9.412 -9.802,-5.631 -20.201,-4.379 -28.781,3.464 l -2.123,1.939 c 16.353,-11.417 28.783,-4.357 40.312,6.952 2.336,-0.9 4.661,-1.879 6.974,-2.943"
       style="fill:#3f7026;fill-opacity:1;fill-rule:evenodd;stroke:none"
       id="path2683" /><path
       d="m 124.125,524.38 c 4.125,0.832 8.425,1.295 13.001,1.231 10.453,-3.869 20.252,-11.56 27.934,-19.549 -5.46,-3.136 -10.922,-6.275 -16.381,-9.412 -9.802,-5.63 -20.201,-4.379 -28.781,3.464 -0.445,0.407 -0.893,0.816 -1.338,1.223 -3.235,2.956 -4.472,8.048 -3.217,13.241 1.255,5.194 4.632,8.964 8.782,9.802"
       style="fill:#6fae42;fill-opacity:1;fill-rule:evenodd;stroke:none"
       id="path2685" /><path
       d="m 164.922,505.983 -16.243,-9.333 c -9.802,-5.63 -20.201,-4.379 -28.781,3.464 -0.445,0.407 -0.893,0.816 -1.338,1.223 -3.235,2.956 -4.472,8.048 -3.217,13.241 0.219,0.906 0.502,1.768 0.842,2.578 16.674,-0.471 32.953,-3.941 48.737,-11.173"
       style="fill:#4f8830;fill-opacity:1;fill-rule:evenodd;stroke:none"
       id="path2687" /><path
       d="m 124.125,524.38 c 4.125,0.832 8.425,1.295 13.001,1.231 2.465,-0.912 4.893,-2.037 7.265,-3.328 -9.005,1.342 -17.417,0.685 -25.54,-0.95 1.482,1.575 3.292,2.646 5.274,3.047"
       style="fill:#9fce74;fill-opacity:1;fill-rule:evenodd;stroke:none"
       id="path2689" /><path
       d="m 151.841,517.59 c 4.828,-3.453 9.301,-7.451 13.219,-11.528 -5.46,-3.136 -10.922,-6.275 -16.381,-9.412 -9.802,-5.63 -20.201,-4.379 -28.781,3.464 l -2.122,1.939 c 16.352,-11.417 28.783,-4.357 40.312,6.953 -1.217,3.598 -3.755,6.071 -6.247,8.584"
       style="fill:#5e9938;fill-opacity:1;fill-rule:evenodd;stroke:none"
       id="path2691" /><path
       d="m 165.06,506.062 c -5.46,-3.136 -10.922,-6.275 -16.381,-9.412 -9.802,-5.63 -20.201,-4.379 -28.781,3.464 l -2.122,1.939 c 16.352,-11.416 28.782,-4.358 40.311,6.952 2.336,-0.9 4.661,-1.88 6.973,-2.943"
       style="fill:#3f7026;fill-opacity:1;fill-rule:evenodd;stroke:none"
       id="path2693" /><path
       d="m 130.159,489.538 c 2.956,0.598 6.042,0.929 9.324,0.884 7.497,-2.776 14.527,-8.293 20.039,-14.025 -3.916,-2.25 -7.835,-4.501 -11.753,-6.751 -7.029,-4.039 -14.489,-3.142 -20.645,2.486 -0.32,0.291 -0.64,0.584 -0.959,0.877 -2.32,2.12 -3.207,5.772 -2.307,9.499 0.899,3.725 3.322,6.43 6.301,7.03"
       style="fill:#6fae42;fill-opacity:1;fill-rule:evenodd;stroke:none"
       id="path2695" /><path
       d="m 159.421,476.342 -11.652,-6.696 c -7.029,-4.039 -14.489,-3.142 -20.645,2.486 -0.32,0.291 -0.64,0.584 -0.959,0.877 -2.32,2.12 -3.207,5.772 -2.307,9.499 0.156,0.648 0.36,1.267 0.603,1.848 11.961,-0.338 23.638,-2.827 34.96,-8.014"
       style="fill:#4f8830;fill-opacity:1;fill-rule:evenodd;stroke:none"
       id="path2697" /><path
       d="m 130.159,489.538 c 2.956,0.598 6.042,0.929 9.324,0.884 1.768,-0.654 3.51,-1.462 5.212,-2.388 -6.46,0.963 -12.494,0.49 -18.322,-0.681 1.065,1.13 2.361,1.898 3.786,2.185"
       style="fill:#9fce74;fill-opacity:1;fill-rule:evenodd;stroke:none"
       id="path2699" /><path
       d="m 150.039,484.668 c 3.464,-2.478 6.67,-5.346 9.483,-8.271 -3.916,-2.25 -7.835,-4.501 -11.753,-6.751 -7.029,-4.039 -14.489,-3.142 -20.645,2.486 l -1.522,1.391 c 11.73,-8.19 20.648,-3.126 28.918,4.987 -0.872,2.582 -2.693,4.356 -4.481,6.158"
       style="fill:#5e9938;fill-opacity:1;fill-rule:evenodd;stroke:none"
       id="path2701" /><path
       d="m 159.522,476.397 c -3.916,-2.25 -7.835,-4.501 -11.753,-6.751 -7.029,-4.039 -14.489,-3.142 -20.645,2.486 l -1.522,1.391 c 11.73,-8.19 20.648,-3.126 28.918,4.987 1.674,-0.647 3.342,-1.349 5.002,-2.113"
       style="fill:#3f7026;fill-opacity:1;fill-rule:evenodd;stroke:none"
       id="path2703" /><path
       d="m 130.932,372.781 c 4.125,0.834 8.425,1.295 13.001,1.232 10.452,-3.867 20.251,-11.56 27.934,-19.549 -5.46,-3.137 -10.922,-6.275 -16.382,-9.411 -9.803,-5.632 -20.2,-4.379 -28.782,3.464 -0.445,0.406 -0.891,0.815 -1.338,1.221 -3.234,2.956 -4.47,8.049 -3.215,13.243 1.254,5.195 4.633,8.963 8.782,9.8"
       style="fill:#6fae42;fill-opacity:1;fill-rule:evenodd;stroke:none"
       id="path2705" /><path
       d="m 171.729,354.386 -16.244,-9.333 c -9.803,-5.63 -20.2,-4.379 -28.782,3.464 -0.445,0.406 -0.891,0.815 -1.338,1.221 -3.234,2.956 -4.47,8.049 -3.215,13.243 0.219,0.906 0.502,1.767 0.841,2.578 16.675,-0.472 32.954,-3.942 48.738,-11.173"
       style="fill:#4f8830;fill-opacity:1;fill-rule:evenodd;stroke:none"
       id="path2707" /><path
       d="m 130.932,372.781 c 4.125,0.834 8.425,1.295 13.001,1.232 2.465,-0.911 4.893,-2.036 7.265,-3.326 -9.005,1.34 -17.417,0.682 -25.54,-0.952 1.482,1.576 3.291,2.647 5.274,3.046"
       style="fill:#9fce74;fill-opacity:1;fill-rule:evenodd;stroke:none"
       id="path2709" /><path
       d="m 158.648,365.993 c 4.827,-3.454 9.299,-7.452 13.219,-11.529 -5.46,-3.137 -10.922,-6.275 -16.382,-9.411 -9.803,-5.632 -20.2,-4.379 -28.782,3.464 l -2.121,1.938 c 16.353,-11.416 28.784,-4.357 40.311,6.953 -1.216,3.599 -3.754,6.072 -6.245,8.585"
       style="fill:#5e9938;fill-opacity:1;fill-rule:evenodd;stroke:none"
       id="path2711" /><path
       d="m 171.867,354.464 c -5.46,-3.137 -10.922,-6.275 -16.382,-9.411 -9.803,-5.632 -20.2,-4.379 -28.782,3.464 l -2.121,1.938 c 16.353,-11.416 28.783,-4.357 40.311,6.951 2.337,-0.899 4.661,-1.879 6.974,-2.942"
       style="fill:#3f7026;fill-opacity:1;fill-rule:evenodd;stroke:none"
       id="path2713" /><path
       d="m 563.41,630.626 c -14.195,1.222 -23.074,-6.525 -34.004,-19.154 4.535,-2.081 9.073,-4.161 13.61,-6.243 8.14,-3.734 16.779,-1.694 23.908,5.646 0.369,0.382 0.74,0.764 1.111,1.146 2.686,2.766 3.713,7.115 2.67,11.309 -1.041,4.194 -3.848,7 -7.295,7.296"
       style="fill:#6fae42;fill-opacity:1;fill-rule:evenodd;stroke:none"
       id="path2715" /><path
       d="m 563.41,630.626 c -14.195,1.222 -23.074,-6.525 -34.004,-19.154 9.487,9.713 20.514,16.649 34.004,19.154"
       style="fill:#9fce74;fill-opacity:1;fill-rule:evenodd;stroke:none"
       id="path2717" /><path
       d="m 529.521,611.419 13.495,-6.19 c 8.14,-3.734 16.779,-1.694 23.908,5.646 0.369,0.382 0.74,0.764 1.111,1.146 2.686,2.766 3.713,7.115 2.67,11.309 -0.18,0.731 -0.416,1.42 -0.699,2.06 -13.85,-1.997 -27.373,-6.445 -40.485,-13.971"
       style="fill:#4f8830;fill-opacity:1;fill-rule:evenodd;stroke:none"
       id="path2719" /><path
       d="m 546.605,603.963 c 7.041,-1.758 14.229,0.643 20.319,6.912 0.369,0.382 0.74,0.764 1.111,1.146 2.686,2.766 3.713,7.115 2.67,11.309 -0.18,0.731 -0.416,1.42 -0.699,2.06 -0.938,-9.014 -8.988,-20.818 -23.401,-21.427"
       style="fill:#3f7026;fill-opacity:1;fill-rule:evenodd;stroke:none"
       id="path2721" /><path
       d="m 597.143,534.598 c -12.09,1.041 -19.655,-5.558 -28.961,-16.314 3.863,-1.772 7.726,-3.544 11.589,-5.316 6.934,-3.181 14.292,-1.443 20.364,4.808 0.314,0.326 0.629,0.651 0.945,0.976 2.287,2.355 3.162,6.06 2.275,9.632 -0.888,3.571 -3.277,5.961 -6.212,6.214"
       style="fill:#6fae42;fill-opacity:1;fill-rule:evenodd;stroke:none"
       id="path2723" /><path
       d="m 597.143,534.598 c -12.09,1.041 -19.655,-5.558 -28.961,-16.314 8.078,8.272 17.47,14.179 28.961,16.314"
       style="fill:#9fce74;fill-opacity:1;fill-rule:evenodd;stroke:none"
       id="path2725" /><path
       d="m 568.279,518.24 11.492,-5.272 c 6.934,-3.181 14.292,-1.443 20.364,4.808 0.314,0.326 0.629,0.651 0.945,0.976 2.287,2.355 3.162,6.06 2.275,9.632 -0.154,0.621 -0.355,1.209 -0.597,1.754 -11.795,-1.7 -23.311,-5.489 -34.479,-11.898"
       style="fill:#4f8830;fill-opacity:1;fill-rule:evenodd;stroke:none"
       id="path2727" /><path
       d="m 582.83,511.89 c 5.996,-1.498 12.119,0.547 17.305,5.886 0.314,0.326 0.629,0.651 0.945,0.976 2.287,2.355 3.162,6.06 2.275,9.632 -0.154,0.621 -0.355,1.209 -0.597,1.754 -0.797,-7.676 -7.653,-17.73 -19.928,-18.248"
       style="fill:#3f7026;fill-opacity:1;fill-rule:evenodd;stroke:none"
       id="path2729" /><path
       d="m 607.66,393.105 c -12.088,1.041 -19.652,-5.556 -28.959,-16.312 l 11.59,-5.317 c 6.934,-3.18 14.291,-1.443 20.363,4.808 0.313,0.325 0.629,0.651 0.946,0.976 2.287,2.355 3.162,6.059 2.275,9.632 -0.889,3.571 -3.277,5.961 -6.215,6.213"
       style="fill:#6fae42;fill-opacity:1;fill-rule:evenodd;stroke:none"
       id="path2731" /><path
       d="m 607.66,393.105 c -12.088,1.041 -19.652,-5.556 -28.959,-16.312 8.078,8.27 17.471,14.179 28.959,16.312"
       style="fill:#9fce74;fill-opacity:1;fill-rule:evenodd;stroke:none"
       id="path2733" /><path
       d="m 578.799,376.748 11.492,-5.272 c 6.934,-3.18 14.291,-1.443 20.363,4.808 0.313,0.325 0.629,0.651 0.946,0.976 2.287,2.355 3.162,6.059 2.275,9.632 -0.156,0.621 -0.355,1.209 -0.598,1.754 -11.795,-1.7 -23.312,-5.489 -34.478,-11.898"
       style="fill:#4f8830;fill-opacity:1;fill-rule:evenodd;stroke:none"
       id="path2735" /><path
       d="m 593.35,370.398 c 5.994,-1.498 12.119,0.547 17.304,5.886 0.313,0.325 0.629,0.651 0.946,0.976 2.287,2.355 3.162,6.059 2.275,9.632 -0.156,0.621 -0.355,1.209 -0.598,1.754 -0.797,-7.676 -7.654,-17.728 -19.927,-18.248"
       style="fill:#3f7026;fill-opacity:1;fill-rule:evenodd;stroke:none"
       id="path2737" /></g></svg>
