<?xml version="1.0" encoding="UTF-8" standalone="no"?>
<svg
   version="1.1"
   width="435"
   height="689"
   id="svg79"
   sodipodi:docname="ramas.svg"
   inkscape:version="1.4.2 (f4327f4, 2025-05-13)"
   xmlns:inkscape="http://www.inkscape.org/namespaces/inkscape"
   xmlns:sodipodi="http://sodipodi.sourceforge.net/DTD/sodipodi-0.dtd"
   xmlns="http://www.w3.org/2000/svg"
   xmlns:svg="http://www.w3.org/2000/svg">
  <defs
     id="defs79" />
  <sodipodi:namedview
     id="namedview79"
     pagecolor="#ffffff"
     bordercolor="#000000"
     borderopacity="0.25"
     inkscape:showpageshadow="2"
     inkscape:pageopacity="0.0"
     inkscape:pagecheckerboard="0"
     inkscape:deskcolor="#d1d1d1"
     inkscape:zoom="0.76201275"
     inkscape:cx="295.27065"
     inkscape:cy="217.18797"
     inkscape:window-width="2880"
     inkscape:window-height="1766"
     inkscape:window-x="-11"
     inkscape:window-y="-11"
     inkscape:window-maximized="1"
     inkscape:current-layer="svg79" />
  <path
     d="m 0,0 c 45.819338,-6.2620085 86.262077,20.764602 122.87757,44.465662 30.35542,23.002825 57.46589,52.026724 69.63727,88.921658 17.87793,41.68862 13.81046,87.8538 18.10747,131.83521 0.82675,14.18588 11.74224,26.53033 8.75331,3.54556 2.52579,-45.92629 45.9091,-81.21364 37.91973,-129.02309 -3.83593,-46.702119 -18.97021,-92.252349 -42.63959,-132.6170703 23.46232,-8.8924614 39.9705,25.9836233 57.75487,38.0659543 47.4907,53.740235 50.37898,140.658146 6.19663,197.278286 -20.45339,29.31988 -56.73384,57.40407 -46.86485,97.69995 6.95785,26.37877 12.31531,70.71348 18.93051,87.00821 9.10075,-44.26314 12.37062,-91.82158 36.13173,-131.48075 C 308.85084,264.69371 338.20959,236.04862 345,197 c 19.25685,20.91318 19.28707,52.4402 19.78553,79.30454 -2.02721,45.46808 -26.07524,87.33383 -60.07492,116.62566 -22.57434,22.48753 -56.44755,49.61941 -44.19202,86.06229 5.1924,19.6128 13.82525,57.32311 21.01308,64.46923 0.87474,-34.19898 4.30888,-70.12262 25.16378,-98.67561 18.46768,-27.77853 48.11046,-44.31581 76.06566,-60.74437 24.20896,-14.5926 27.85925,-54.926 37.06137,-70.13161 16.8556,20.56575 14.78931,50.8436 12.53907,75.90923 -9.90133,56.20371 -58.0924,91.7717 -93.42553,132.24774 -21.26583,23.46588 -45.34974,58.5711 -27.58822,90.48374 7.63697,23.20126 52.53958,58.00293 45.66976,71.14825 -24.82093,-19.14587 -36.5591,-49.65789 -58.58846,-71.13574 -25.95809,-13.82557 -58.27435,-7.77711 -85.82033,-19.02768 -32.67491,-8.99787 -62.41033,-29.92265 -77.511,-60.79986 -9.05819,-13.22038 -35.942528,-49.17683 -21.95528,-54.82238 49.97325,35.52128 113.6908,46.39469 161.04568,86.12559 -1.63778,-23.78641 -17.64208,-59.63111 -24.31094,-87.9205 C 231.25902,443.62287 178.89354,462.29735 147.86325,444.86164 100.50916,431.73071 61.437579,390.28617 53.885088,341.34152 71.882145,327.58052 89.303919,369.42768 110.20885,372.03057 152.84913,396.49371 203.72499,406.4295 241,440 c -13.11444,-32.21054 0.35632,-82.98241 -31.48607,-101.96836 -48.41,-19.6254 -108.6448,0.53178 -150.474131,-37.15087 C 20.77594,270.07329 0.70659067,220.37061 0.66864467,171.86406 29.103108,171.98299 36.976513,210.18227 62.464125,219.64164 114.15492,256.98872 182.23837,272.87464 220.62821,327 210.28228,293.61094 206.9128,256.1265 180.42244,230.39071 149.50903,190.33626 108.32582,160.18703 66.158458,133.07881 38.088665,110.9751 19.526722,78.170078 12.013461,43.484003 3.7270727,30.705611 -3.5564749,15.650014 0,0 Z"
     fill="#5e9b63"
     id="path1" />
  <path
     d="m 25,22 c 41.653736,23.600935 76.13507,58.019752 109.58334,91.8248 31.37834,31.8747 51.85152,74.21122 60.78415,117.70876 -3.26152,6.72991 -11.34835,-27.7211 -16.75552,-38.14297 C 166.94643,163.29551 150.3748,135.36104 127.05307,112.79274 97.359978,81.012743 62.629866,54.656458 29.477875,26.757996 l -2.292231,-2.35087 z"
     fill="#31523c"
     id="path2" />
  <path
     d="m 24.720539,218.4569 c 26.791572,19.47442 50.23154,44.81244 80.727181,57.7485 36.43525,18.52936 78.52937,26.2912 109.17669,56.32601 C 186.53874,319.94103 158.95988,303.66495 128.8066,296.02599 98.647789,281.71444 68.305846,266.76133 44.106523,241.56935 37.000984,234.5646 30.424293,226.88247 24.720539,218.4569 Z"
     fill="#304d3c"
     id="path3"
     style="stroke-width:1.10328" />
  <path
     d="m 413.89396,372.01874 c 0.62596,33.88629 -28.31517,59.5212 -50.06806,83.6275 -27.46659,24.85695 -52.54719,53.70219 -62.64117,90.173 -15.40175,41.30272 1.06069,-35.63288 14.41338,-43.63735 29.43815,-46.00157 79.90553,-76.83953 98.29585,-130.16315 z"
     fill="#304f3c"
     id="path4"
     style="stroke-width:1.26162" />
  <path
     d="m 285.03715,90.326888 c 15.13443,42.923562 -8.90389,86.810482 -26.72058,124.398062 -12.49099,26.21635 -26.5058,70.72536 -33.12106,87.85189 5.43631,-67.79333 57.52986,-120.44042 60.66027,-188.57755 -0.3672,-7.90758 -1.02209,-15.744242 -0.81863,-23.672402 z"
     fill="#365a40"
     id="path5"
     style="stroke-width:1.09239" />
  <path
     d="m 345.9746,246.46356 c 0.37528,56.45708 -50.46684,94.47775 -68.57681,144.96322 -7.81516,13.57263 -15.63374,48.39043 -23.44237,50.57605 14.12646,-47.08379 36.68703,-91.035 64.66064,-132.13577 13.29216,-19.38912 19.61438,-41.71287 27.35854,-63.4035 z"
     fill="#375d40"
     id="path6"
     style="stroke-width:1.12694" />
  <path
     d="m 136.90505,514.09663 c 37.46941,17.94327 74.78784,36.55569 112.73716,53.00526 14.17535,6.3017 49.25949,28.4003 44.18389,33.10062 -30.0029,-23.24417 -64.80277,-38.42982 -100.50345,-49.96639 -19.37064,-9.99217 -41.72654,-20.87252 -56.4176,-36.13949 z"
     fill="#33543f"
     id="path7"
     style="stroke-width:1.13741" />
  <path
     d="m 80.036165,369.9771 c 27.416415,16.38002 53.037205,36.31174 82.933305,47.10654 23.30112,12.23661 76.98708,25.93223 79.92426,38.94913 C 187.27836,432.06448 125.94899,416.74793 80.016083,372.22913 Z"
     fill="#35583f"
     id="path8"
     style="stroke-width:1.22251" />
  <path
     d="m 248,568 c 15.53863,6.59382 46.31683,24.16743 46.14587,32.93299 -15.53,-12.04878 -38.47251,-25.49899 -52.38901,-31.67082 1.43405,0.0895 14.04773,3.64033 6.24314,-1.26217 z"
     fill="#355b3f"
     id="path11" />
  <path
     d="m 178,310 c 12.3901,4.78097 56.29594,32.59937 22.05685,17.30787 C 191.51005,323.6348 181.78161,319.21533 178,310 Z"
     fill="#32543d"
     id="path12" />
</svg>
