<?xml version="1.0" encoding="UTF-8" standalone="no"?>
<!-- Created with Inkscape (http://www.inkscape.org/) -->

<svg
   version="1.1"
   id="svg1"
   width="477.55731"
   height="380.13593"
   viewBox="0 0 477.55731 380.13592"
   sodipodi:docname="2012.svg"
   inkscape:version="1.4.3 (0d15f75, 2025-12-25)"
   xmlns:inkscape="http://www.inkscape.org/namespaces/inkscape"
   xmlns:sodipodi="http://sodipodi.sourceforge.net/DTD/sodipodi-0.dtd"
   xmlns="http://www.w3.org/2000/svg"
   xmlns:svg="http://www.w3.org/2000/svg">
  <defs
     id="defs1">
    <clipPath
       clipPathUnits="userSpaceOnUse"
       id="clipPath288">
      <path
         d="m 816.184,2502.76 c -0.043,3.25 -0.008,6.49 0.351,9.72 0.442,3.97 2.578,8.47 4,12.68 h 0.031 c -1.003,-2.75 -2.023,-5.68 -2.812,-8.64 -0.777,-2.9 -1.328,-5.83 -1.426,-8.62 -0.062,-1.71 -0.105,-3.42 -0.144,-5.14"
         transform="translate(0,-2.5e-5)"
         id="path288" />
    </clipPath>
    <clipPath
       clipPathUnits="userSpaceOnUse"
       id="clipPath401">
      <path
         d="m 1559.52,2541.99 c 1.04,3.09 2.16,6.15 3.58,9.08 1.75,3.59 5.26,7.11 8.01,10.61 l 0.03,-0.01 c -1.86,-2.26 -3.8,-4.68 -5.53,-7.2 -1.7,-2.48 -3.2,-5.05 -4.23,-7.65 -0.63,-1.6 -1.25,-3.21 -1.86,-4.83"
         transform="translate(0,-2.5e-5)"
         id="path401" />
    </clipPath>
  </defs>
  <sodipodi:namedview
     id="namedview1"
     pagecolor="#ffffff"
     bordercolor="#000000"
     borderopacity="0.25"
     inkscape:showpageshadow="2"
     inkscape:pageopacity="0.0"
     inkscape:pagecheckerboard="0"
     inkscape:deskcolor="#d1d1d1"
     inkscape:zoom="0.98075711"
     inkscape:cx="503.18269"
     inkscape:cy="98.393373"
     inkscape:window-width="2880"
     inkscape:window-height="1766"
     inkscape:window-x="-11"
     inkscape:window-y="-11"
     inkscape:window-maximized="1"
     inkscape:current-layer="g1">
    <inkscape:page
       x="2.1529167e-06"
       y="1.189662e-06"
       inkscape:label="1"
       id="page1"
       width="477.55731"
       height="380.13593"
       margin="0"
       bleed="0" />
  </sodipodi:namedview>
  <g
     id="g1"
     inkscape:groupmode="layer"
     inkscape:label="1"
     transform="translate(-511.07599,-142.9735)">
    <path
       id="path195"
       d="m 603.22132,313.24 c 2.40974,25.4839 19.32893,46.60164 23.72289,71.69604 8.21793,26.86643 14.77586,54.19804 22.35177,81.24516 3.70251,-26.03099 -13.63065,-49.04365 -15.93741,-74.52768 C 625.56516,364.72827 615.8646,338.28628 603.22132,313.24 Z"
       style="fill:#82633a;fill-opacity:1;fill-rule:nonzero;stroke:none;stroke-width:0.133333" />
    <path
       id="path196"
       d="m 569.84368,257.12251 c -5.68689,1.02532 13.44547,55.96356 34.10041,64.72676 11.88002,-20.24252 -2.48725,-38.47085 -10.23474,-53.40105 -3.05184,-8.25799 -13.07231,-21.31644 -23.86567,-11.32571 z"
       style="fill:#6b460c;fill-opacity:1;fill-rule:nonzero;stroke:none;stroke-width:0.133333"
       sodipodi:nodetypes="cccc" />
    <path
       id="path197"
       d="m 601.19198,323.63067 c 23.41587,-16.07064 -5.72884,-48.05108 -13.74748,-65.55828 -1.72477,19.79583 23.62818,39.20883 16.21372,61.30626 l -1.06782,2.15798 -1.39842,2.09437"
       style="fill:#4c2b02;fill-opacity:1;fill-rule:nonzero;stroke:none;stroke-width:0.133333" />
    <path
       id="path199"
       d="m 599.49199,321.49734 c -9.36465,-13.11309 -22.36824,-45.87039 -19.03626,-50.81105 7.49824,16.45299 15.5374,32.93572 19.03626,50.81105 z"
       style="fill:#825c28;fill-opacity:1;fill-rule:nonzero;stroke:none;stroke-width:0.133333" />
    <path
       id="path201"
       d="m 573.35141,244.932 c 9.05495,7.71636 -0.0471,21.48618 0,0 z"
       style="fill:#c6ac91;fill-opacity:1;fill-rule:nonzero;stroke:none;stroke-width:0.133333" />
    <path
       id="path202"
       d="m 640.91332,241.04934 c -6.37135,23.64502 7.557,46.64448 6.88949,70.44734 7.73766,56.88598 11.98334,114.1635 16.37051,171.38235 10.01088,-23.9685 -4.74942,-49.42669 -0.96482,-74.26647 -3.96741,-56.25924 -13.44204,-111.92293 -22.29518,-167.56322 z"
       style="fill:#82633a;fill-opacity:1;fill-rule:nonzero;stroke:none;stroke-width:0.133333" />
    <path
       id="path203"
       d="m 617.84398,180.90267 c -9.47146,0.80096 1.42684,58.04755 20.69955,69.53576 17.09006,-14.63169 5.33031,-38.08816 -0.27133,-54.92684 -1.90157,-8.59622 -6.66484,-23.94085 -20.42822,-14.60892 z"
       style="fill:#6b460c;fill-opacity:1;fill-rule:nonzero;stroke:none;stroke-width:0.133333"
       sodipodi:nodetypes="cccc" />
    <path
       id="path204"
       d="m 638.61617,250.42123 c 21.01586,-6.24066 1.95775,-45.80362 -3.60873,-64.23779 -4.40029,19.37754 13.93717,40.88342 3.58863,61.76826 0.36127,0.56005 0.93819,1.0919 0.0201,2.46953 z"
       style="fill:#4c2b02;fill-opacity:1;fill-rule:nonzero;stroke:none;stroke-width:0.133333"
       sodipodi:nodetypes="cccc" />
    <path
       id="path206"
       d="m 635.31987,247.96791 c -11.46735,-10.69286 -22.92957,-41.99448 -17.4914,-45.05058 4.83303,16.22947 18.1215,27.68127 19.33944,44.66855"
       style="fill:#825c28;fill-opacity:1;fill-rule:nonzero;stroke:none;stroke-width:0.133333"
       sodipodi:nodetypes="ccc" />
    <path
       id="path208"
       d="m 620.70398,170.35467 c 7.92317,8.87297 -2.96297,21.28571 0,0 z"
       style="fill:#c6ac91;fill-opacity:1;fill-rule:nonzero;stroke:none;stroke-width:0.133333" />
    <path
       id="path209"
       d="m 866.96531,142.99467 c 2.66056,10.38892 -14.41671,14.95019 0,0 z"
       style="fill:#c6ac91;fill-opacity:1;fill-rule:nonzero;stroke:none;stroke-width:0.133333" />
    <path
       id="path210"
       d="m 858.53998,149.95601 c -7.61965,-4.24223 -38.38319,68.68005 -23.23982,68.72862 19.4351,12.31457 45.02308,-73.14021 23.23982,-68.72862 z"
       style="fill:#6b460c;fill-opacity:1;fill-rule:nonzero;stroke:none;stroke-width:0.133333"
       sodipodi:nodetypes="ccc" />
    <path
       id="path211"
       d="m 832.07331,218.10667 c 28.08019,4.24722 28.6273,-39.01529 34.72368,-57.28147 -14.77671,13.28432 -9.51213,44.77891 -30.0182,55.859 l -2.2537,0.84733 -2.45178,0.57511"
       style="fill:#4c2b02;fill-opacity:1;fill-rule:nonzero;stroke:none;stroke-width:0.133333" />
    <path
       id="path212"
       d="m 834.66531,209.17867 c 1.66727,-16.15513 16.32823,-50.74 22.2567,-51.029 -8.02888,16.74419 -12.54153,35.08139 -22.2567,51.029 z"
       style="fill:#825c28;fill-opacity:1;fill-rule:nonzero;stroke:none;stroke-width:0.133333" />
    <path
       id="path213"
       d="m 846.15465,219.312 0.004,-0.004 z m 0.016,-0.0187 0.008,-0.009 z m 0.0147,-0.0173 0.0133,-0.016 z m 0.0147,-0.0187 0.19867,-0.24534 z"
       style="fill:#614c35;fill-opacity:1;fill-rule:nonzero;stroke:none;stroke-width:0.133333" />
    <path
       id="path216"
       d="m 808.44665,302.676 c -3.82028,27.3662 -4.26617,55.13607 -2.31284,82.67617 6.29905,-32.68192 1.13754,-66.55452 9.72892,-98.98079 4.76635,-23.91292 12.43726,-47.26599 23.02658,-69.23804 -22.19919,22.60943 -22.73851,56.60939 -30.44266,85.54266 z"
       style="fill:#82633a;fill-opacity:1;fill-rule:nonzero;stroke:none;stroke-width:0.133333" />
    <path
       id="path217"
       d="m 971.61598,264.01467 c 0.67435,10.69888 -16.95937,11.99742 0,0 z"
       style="fill:#c6ac91;fill-opacity:1;fill-rule:nonzero;stroke:none;stroke-width:0.133333" />
    <path
       id="path218"
       d="m 962.03864,269.27734 c -17.29492,15.41803 -40.79024,41.32608 -35.67845,63.17368 22.39578,2.14243 28.84615,-24.04905 37.07714,-39.77094 4.86757,-7.33685 13.03483,-20.5804 -1.39869,-23.40274 z"
       style="fill:#6b460c;fill-opacity:1;fill-rule:nonzero;stroke:none;stroke-width:0.133333" />
    <path
       id="path219"
       d="m 926.45293,332.67557 c 20.43667,8.07276 33.29836,-33.33573 42.70223,-50.13924 -17.0014,10.2856 -18.75183,41.17453 -40.96812,48.2249"
       style="fill:#4c2b02;fill-opacity:1;fill-rule:nonzero;stroke:none;stroke-width:0.133333"
       sodipodi:nodetypes="ccc" />
    <path
       id="path220"
       d="m 927.72131,323.01334 c 4.24436,-15.80397 25.52584,-46.87735 31.3423,-46.13868 -10.98586,15.01426 -19.14102,31.99747 -31.3423,46.13868 z"
       style="fill:#825c28;fill-opacity:1;fill-rule:nonzero;stroke:none;stroke-width:0.133333" />
    <path
       id="path221"
       d="m 931.85198,337.22 h -0.008 z m -0.0347,0 h -0.0133 z m -0.0347,0 -0.02,-0.001 z m -0.0347,-0.001 h -0.0253 z m -0.036,-10e-4 h -0.0293 z m -0.036,0 -0.032,-0.001 z m -0.0373,-0.001 -0.0333,-10e-4 z m -0.036,-0.003 -0.036,-10e-4 z m -0.10933,-0.005 h -10e-4 z"
       style="fill:#614c35;fill-opacity:1;fill-rule:nonzero;stroke:none;stroke-width:0.133333" />
    <path
       id="path224"
       d="m 884.27731,409.9412 c -8.86995,26.1695 -14.49628,53.36725 -17.72767,80.78685 12.30139,-30.9272 13.55876,-65.16908 28.06151,-95.41757 9.1526,-22.60058 21.05431,-44.10804 35.56483,-63.71314 -26.03348,18.06188 -32.92136,51.3607 -45.89867,78.34386 z"
       style="fill:#82633a;fill-opacity:1;fill-rule:nonzero;stroke:none;stroke-width:0.133333" />
    <path
       id="path225"
       d="m 969.84531,168.98667 c -1.30831,11.8224 -17.81655,12.01745 3e-5,0"
       style="fill:#c6ac91;fill-opacity:1;fill-rule:nonzero;stroke:none;stroke-width:0.133333" />
    <path
       id="path226"
       d="m 960.08664,173.90667 c -17.83404,14.79133 -42.23267,39.849 -37.90349,61.86363 22.30518,2.93838 29.68329,-23.00703 38.46789,-38.42607 5.12417,-7.15857 13.75967,-20.10434 -0.5644,-23.43756 z"
       style="fill:#6b460c;fill-opacity:1;fill-rule:nonzero;stroke:none;stroke-width:0.133333" />
    <path
       id="path227"
       d="m 922.00417,235.66226 c 23.28423,6.81002 43.46149,-46.74585 43.72324,-49.3261 -17.35513,9.67592 -19.20501,41.55523 -41.65831,47.81114"
       style="fill:#4c2b02;fill-opacity:1;fill-rule:nonzero;stroke:none;stroke-width:0.133333"
       sodipodi:nodetypes="ccc" />
    <path
       id="path228"
       d="m 923.92531,226.388 c 4.71194,-15.67682 27.14514,-45.9176 32.9117,-44.99193 -11.47983,14.62522 -20.2917,31.2459 -32.9117,44.99193 z"
       style="fill:#825c28;fill-opacity:1;fill-rule:nonzero;stroke:none;stroke-width:0.133333" />
    <path
       id="path229"
       d="m 927.72264,240.736 -0.0839,-8.4e-4 z m 0.0467,0 h 0.02 z m 0.0227,0 0.0187,-10e-4 z m 0.024,-10e-4 h 0.0173 z m 0.0213,0 h 0.0187 z m 0.0213,0 0.02,-0.001 z m 0.0227,-0.001 h 0.0187 z m 0.0227,0 0.02,-0.001 z m 0.0213,-0.001 h 0.0213 z m 0.0227,0 1.20029,-0.169 0.002,-3.3e-4 -1.20029,0.169 z m -0.688,-0.0147 -0.0427,-0.004 z m -0.0773,-0.007 h -0.003 z m 1.96934,-0.14933 0.132,-0.032 z m -2.99734,-0.004 -0.005,-0.001 z m -0.0733,-0.016 h -0.005 z m -0.0387,-0.008 h -10e-4 z m 3.244,-0.005 0.0187,-0.005 z m 0.0267,-0.007 0.012,-0.004 z m 0.024,-0.007 0.009,-0.003 z m 0.0227,-0.007 0.008,-0.001 z m 0.0213,-0.005 0.008,-0.003 z m 0.0227,-0.007 0.004,-0.001 z m 0.0227,-0.007 h 10e-4 z"
       style="fill:#614c35;fill-opacity:1;fill-rule:nonzero;stroke:none;stroke-width:0.133333" />
    <path
       id="path232"
       d="m 877.37198,311.716 c -9.79436,25.83756 -16.38299,52.81806 -20.5885,80.105 13.39118,-30.47093 15.86805,-64.64542 31.43652,-94.35924 9.9502,-22.26103 22.6085,-43.33231 37.80798,-62.40842 -26.66032,17.12424 -34.72591,50.1585 -48.656,76.66266 z"
       style="fill:#82633a;fill-opacity:1;fill-rule:nonzero;stroke:none;stroke-width:0.133333" />
    <path
       id="path233"
       d="m 759.02798,266.02934 c -3.59063,-18.5889 -13.87469,-52.71852 -22.08957,-58.48211 12.8044,34.58435 23.80886,70.10386 26.32335,107.11053 -0.62297,7.18642 7.06156,29.58267 5.08619,9.17641 -1.51074,-19.49996 -6.39113,-38.51067 -9.31997,-57.80483 z"
       style="fill:#82633a;fill-opacity:1;fill-rule:nonzero;stroke:none;stroke-width:0.133333" />
    <path
       id="path234"
       d="m 707.13072,153.82643 c -10.09827,2.239 10.23846,62.74174 30.60627,54.23638 9.11209,-13.31493 -20.72017,-62.54201 -26.66841,-56.51863"
       style="fill:#6b460c;fill-opacity:1;fill-rule:nonzero;stroke:none;stroke-width:0.133333"
       sodipodi:nodetypes="ccc" />
    <path
       id="path235"
       d="m 736.69201,208.22228 c 15.45416,-5.26799 -14.0948,-48.81369 -17.67065,-50.54386 3.91615,18.15485 26.18467,28.16395 16.63424,47.88558"
       style="fill:#4c2b02;fill-opacity:1;fill-rule:nonzero;stroke:none;stroke-width:0.133333"
       sodipodi:nodetypes="ccc" />
    <path
       id="path237"
       d="m 737.16589,208.12154 c -13.90484,8.42753 -33.59701,-33.84563 -30.18448,-37.80291 7.05314,12.84988 18.54281,39.18713 28.69747,35.14439"
       style="fill:#825c28;fill-opacity:1;fill-rule:nonzero;stroke:none;stroke-width:0.133333"
       sodipodi:nodetypes="ccc" />
    <path
       id="path239"
       d="m 708.45598,144.59867 c 10.68711,7.57505 -2.15133,16.78896 0,0 z"
       style="fill:#c6ac91;fill-opacity:1;fill-rule:nonzero;stroke:none;stroke-width:0.133333" />
    <path
       id="path240"
       d="m 804.35731,408.1984 c 7.55246,-59.09813 21.644,-118.85812 53.41133,-169.9849 -9.45099,29.6782 -28.40826,55.67025 -34.23008,86.65952 -8.04765,30.09988 -10.25605,61.37782 -17.80105,91.58645 -3.26626,-0.91403 -0.82462,-5.9367 -1.3802,-8.26107 z"
       style="fill:#82633a;fill-opacity:1;fill-rule:nonzero;stroke:none;stroke-width:0.133333" />
    <path
       id="path241"
       d="m 883.92531,194.88534 c 9.12321,-2.02549 -15.33904,60.29454 -30.7242,45.99647 -12.63939,-1.34507 16.80106,-59.13759 30.7242,-45.99647 z"
       style="fill:#6b460c;fill-opacity:1;fill-rule:nonzero;stroke:none;stroke-width:0.133333"
       sodipodi:nodetypes="ccc" />
    <path
       id="path242"
       d="m 854.26253,241.77115 c -16.0531,-6.10259 14.77031,-42.44897 18.96271,-43.12887 -3.71047,16.80708 -25.43329,23.56943 -16.48434,42.13785"
       style="fill:#4c2b02;fill-opacity:1;fill-rule:nonzero;stroke:none;stroke-width:0.133333"
       sodipodi:nodetypes="ccc" />
    <path
       id="path244"
       d="m 865.22062,238.3527 c 2.7773,-11.65904 15.31207,-35.94781 20.38805,-35.627 -4.57016,15.42402 -10.64711,25.53646 -19.30658,36.34804"
       style="fill:#825c28;fill-opacity:1;fill-rule:nonzero;stroke:none;stroke-width:0.133333"
       sodipodi:nodetypes="ccc" />
    <path
       id="path246"
       d="m 883.45998,186.04267 c -10.4658,6.84633 1.76513,15.86483 0,0 z"
       style="fill:#c6ac91;fill-opacity:1;fill-rule:nonzero;stroke:none;stroke-width:0.133333" />
    <path
       id="path247"
       d="m 737.53865,498.536 c -3.18733,-20.29363 -9.18368,-13.7702 -11.01746,0.0438 -8.24889,-12.08931 1.7228,-48.64966 -6.73671,-48.45439 -6.18437,14.64653 -1.44108,36.07025 -11.42176,47.11755 1.54503,-19.4328 -13.02493,14.84358 -21.94867,15.16633 0.11417,17.0272 32.27011,3.93001 45.28636,8.72426 10.68851,4.14851 49.13282,-1.66081 21.59468,-10.98705 -6.31501,-1.7465 -14.17655,-4.21829 -15.75644,-11.61054 z"
       style="fill:#375416;fill-opacity:1;fill-rule:nonzero;stroke:none;stroke-width:0.133333" />
    <path
       id="path248"
       d="m 703.45865,470.14266 c 13.31488,-0.33048 19.46263,19.56544 2.63041,11.13178 -15.04435,3.54585 -6.97944,44.17871 -24.88726,30.73631 1.791,-16.00943 8.92362,-32.2151 22.25685,-41.86809 z"
       style="fill:#587f03;fill-opacity:1;fill-rule:nonzero;stroke:none;stroke-width:0.133333" />
    <path
       id="path249"
       d="m 893.63198,516.95306 c 4.2359,-39.47738 11.78149,-78.49769 16.80626,-117.86967 10.51064,-19.46848 38.39154,32.2884 26.30725,-1.33269 -2.90942,-25.19013 -40.89442,-26.7445 -37.02142,1.77469 -8.92876,29.96872 -6.03567,62.10136 -15.64276,91.92154 -10.65548,-23.66204 5.40864,-49.00224 6.89897,-73.22393 8.94159,-35.21804 21.77457,-69.2708 34.5797,-103.223 -38.64024,40.24882 -43.9119,98.62928 -50.32335,151.27874 3.45893,12.94986 -12.5035,18.13857 -8.40132,2.19769 -2.67419,-45.88811 15.17631,-89.40946 27.81896,-132.61374 8.34327,-18.68634 23.98983,-34.49404 43.5248,-41.19829 -25.07257,4.02687 -52.90844,16.95839 -56.53733,45.15537 -11.63328,38.44054 -14.70776,79.2975 -30.48234,116.49566 12.36861,-47.60716 23.1634,-97.84134 12.63811,-146.87763 2.6775,-24.21933 -12.66777,-56.62419 -40.78674,-53.89126 -8.52886,-2.36009 -40.01354,-5.14629 -17.11805,3.56323 29.38258,9.34501 47.76655,39.25826 49.25618,69.14187 7.4093,46.00227 -5.01024,93.09551 -26.23014,133.86112 -22.48932,7.45311 -36.60675,43.32569 -13.15941,57.68563 23.44342,4.23433 48.57469,0.68738 72.30584,-0.67738 l 2.81964,-0.97418 2.74715,-1.19374"
       style="fill:#375416;fill-opacity:1;fill-rule:nonzero;stroke:none;stroke-width:0.133333" />
    <path
       id="path250"
       d="m 754.19865,274.464 c 4.29961,-32.6244 -50.36249,-46.64459 -60.94132,-13.88954 -11.46492,17.43295 -20.96566,36.07525 -32.62305,53.38638 23.57645,-18.8608 39.46889,-46.2959 65.92107,-61.73103 23.71544,17.20366 7.16143,50.53768 17.43156,74.29063 8.00305,55.60189 21.21489,110.6059 41.5368,163.03678 15.18037,-16.8087 -8.71085,-39.25143 -6.24009,-59.15997 -10.77688,-51.55726 -18.08784,-103.75428 -25.08497,-155.93321"
       style="fill:#375416;fill-opacity:1;fill-rule:nonzero;stroke:none;stroke-width:0.133333" />
    <path
       id="path251"
       d="m 745.81998,338.73467 c 0.93253,12.98558 5.9686,25.78997 2.76439,5.35532 -2.25264,-23.99437 -6.1553,-48.47172 -1.01639,-72.37128 24.52096,-11.03003 -29.67693,-39.93267 -12.59927,-14.78345 6.18122,26.9157 4.93307,54.77991 10.85127,81.79945"
       style="fill:#7d8214;fill-opacity:1;fill-rule:nonzero;stroke:none;stroke-width:0.133333" />
    <path
       id="path252"
       d="m 859.53065,304.048 c -1.60986,-22.32959 50.07376,-20.8927 21.34664,-0.89966 -33.86807,43.28868 -40.09734,99.65959 -53.12175,151.31045 -6.66571,21.54193 -2.01553,50.33485 -13.17703,67.62034 -27.94992,6.99491 -22.7962,-29.10573 -16.99544,-45.05335 6.36576,-51.67405 15.30408,-103.28278 31.43007,-152.89316 -2.97075,-11.59416 9.10993,-45.62789 22.71629,-29.94617 -18.76245,37.84956 -25.74393,80.31216 -31.02165,121.7352 13.87515,-36.81509 21.74731,-76.09327 38.82284,-111.87365"
       style="fill:#587f03;fill-opacity:1;fill-rule:nonzero;stroke:none;stroke-width:0.133333" />
    <path
       id="path253"
       d="m 865.99065,287.00934 c 25.52201,-16.56978 55.50487,-24.76937 81.928,-39.37219 8.49802,-1.517 36.07365,7.93759 14.19549,-1.74215 -28.7269,-7.1495 -54.90767,12.36413 -82.25564,17.84862 -19.4531,5.87395 -46.28306,12.71831 -48.25368,37.04898 -4.01025,8.59221 -1.81842,26.56551 4.99146,9.54435 7.87597,-9.88154 18.3029,-17.43504 29.39437,-23.32761 z"
       style="fill:#75a000;fill-opacity:1;fill-rule:nonzero;stroke:none;stroke-width:0.133333" />
    <path
       id="path254"
       d="m 918.81064,288.6 c 21.09002,-6.41553 42.76679,-11.11982 63.33374,-19.13482 -37.92058,2.35749 -78.1384,2.4059 -112.79823,19.55963 -8.68918,6.83383 -17.51113,31.29729 -1.94484,12.48766 15.10513,-10.35181 34.25277,-9.09963 51.40933,-12.91247 z"
       style="fill:#a5c62c;fill-opacity:1;fill-rule:nonzero;stroke:none;stroke-width:0.133333" />
    <path
       id="path255"
       d="m 939.18264,272.436 c -17.30367,2.1339 -53.61544,4.15183 -58.39253,14.59014 27.56993,-2.78507 54.4445,-9.86499 81.18453,-16.8488 -7.59742,0.75201 -15.19658,1.48659 -22.792,2.25866 z"
       style="fill:#75a000;fill-opacity:1;fill-rule:nonzero;stroke:none;stroke-width:0.133333" />
    <path
       id="path256"
       d="m 895.64531,266.64667 c -24.84524,12.9677 -58.00367,22.6756 -66.38982,52.9927 11.02001,-15.26134 25.14679,-28.05111 42.67487,-36.29101 20.17012,-11.39162 41.78652,-19.87149 63.30773,-28.30799 -12.91042,-1.72864 -26.6985,8.94201 -39.59271,11.60633"
       style="fill:#a5c62c;fill-opacity:1;fill-rule:nonzero;stroke:none;stroke-width:0.133333" />
    <path
       id="path257"
       d="m 584.97732,298.98267 c 23.93399,-10.92127 51.88632,-32.4044 78.28959,-15.3641 29.62882,16.705 49.7397,45.43339 69.52761,72.19035 19.43076,32.67729 33.18472,68.47064 47.71285,103.39501 4.91533,18.79163 21.20678,37.59871 13.14182,57.53485 -21.29447,22.54682 -48.24175,-9.18043 -45.95559,-32.73908 -11.62703,-61.06905 -47.47597,-113.65498 -81.35628,-164.49036 45.88183,31.8531 63.99613,87.04947 90.54392,133.57836 -10.56902,-47.75208 -35.56578,-90.55039 -57.83091,-133.51484 -16.70862,-24.59556 -49.0407,-32.52373 -76.98781,-26.51835 -12.44261,1.44097 -24.7236,3.95474 -37.0852,5.92816 z"
       style="fill:#375416;fill-opacity:1;fill-rule:nonzero;stroke:none;stroke-width:0.133333" />
    <path
       id="path258"
       d="m 663.42398,293.87734 c 29.25907,8.50244 42.94067,38.49088 63.02151,58.66844 5.00029,8.17277 17.04081,17.16881 6.13466,2.66299 -16.78007,-23.28077 -34.73041,-46.65444 -57.59942,-64.16462 -26.92407,-13.29336 -56.25648,0.46902 -83.26144,6.07291 23.80167,-2.1538 47.86012,-8.79596 71.70469,-3.23972 z"
       style="fill:#587f03;fill-opacity:1;fill-rule:nonzero;stroke:none;stroke-width:0.133333" />
    <path
       id="path259"
       d="m 757.86131,331.38667 c 9.91412,54.44028 17.57052,109.49454 18.37443,164.90486 -12.83451,28.43806 42.35257,36.75056 33.70069,4.11582 -0.78162,-46.1805 2.02586,-92.34751 1.21581,-138.49987 -1.24726,-24.94517 -5.75372,-50.31986 -17.85259,-72.45039 5.55017,45.6378 5.2838,91.77363 2.64724,137.60568 -10.15392,-62.34681 4.66977,-128.82409 -21.66236,-188.20909 -10.57222,-21.55512 -24.00441,-41.59768 -33.96499,-63.46646 10.067,45.05937 35.91002,85.89876 37.85066,132.91024 1.51935,19.35499 2.90163,39.02568 -0.0781,58.29686 -4.67278,-30.72021 -0.58687,-66.7993 -24.3475,-90.782 -28.38486,-22.5681 -72.21031,-24.05104 -100.26065,-0.20912 -8.48402,2.3833 -29.93917,34.47846 -9.72137,18.16867 25.66812,-20.62843 65.23073,-34.7589 94.62902,-13.26718 16.38247,11.48604 15.6189,33.38744 19.46968,50.88198 z"
       style="fill:#587f03;fill-opacity:1;fill-rule:nonzero;stroke:none;stroke-width:0.133333" />
    <path
       id="path260"
       d="m 755.84398,319.68134 c 5.36638,40.91495 18.28427,80.32038 25.36358,120.91107 -2.13524,-48.32151 -1.06909,-97.63647 -13.75273,-144.66947 -15.3757,-35.63467 -63.69651,-46.70388 -96.97156,-30.65644 -14.16347,7.77587 -32.79481,18.41578 -35.58381,34.75585 24.32509,-18.85651 56.09479,-37.34484 88.01046,-27.62514 22.47159,5.42499 30.67675,26.48192 32.93406,47.28413 z"
       style="fill:#75a000;fill-opacity:1;fill-rule:nonzero;stroke:none;stroke-width:0.133333" />
    <path
       id="path261"
       d="m 759.37198,249.736 c 27.12382,26.49675 40.97046,63.01768 50.92552,98.83492 3.06956,-43.85726 -13.42543,-90.67447 -50.50939,-116.38199 -17.2223,-13.0408 -37.13188,-22.14779 -57.67326,-28.58751 15.17642,19.81968 39.25006,29.4704 57.25713,46.13458 z"
       style="fill:#75a000;fill-opacity:1;fill-rule:nonzero;stroke:none;stroke-width:0.133333" />
    <path
       id="path262"
       d="m 772.73465,322.95067 c 0.98797,-27.16155 -17.68669,-55.45326 -45.25004,-60.60175 -20.42158,-8.23488 -46.36376,-5.64363 -63.99998,7.6814 -6.53497,11.31609 20.2262,-4.9831 27.84743,-3.66899 34.12585,-9.15597 70.60873,14.34184 79.12781,48.05841 l 1.23781,4.24373 z"
       style="fill:#a5c62c;fill-opacity:1;fill-rule:nonzero;stroke:none;stroke-width:0.133333" />
    <path
       id="path263"
       d="m 794.22398,487.82133 c 1.22296,-34.57478 2.12205,-69.25442 -1.75308,-103.68961 -1.02991,-17.61263 -0.81559,-51.98986 -2.90657,-59.14425 -9.03458,65.4269 -5.79099,131.70129 -1.64302,197.37398 17.90401,-2.08433 -0.0376,-24.99415 6.30267,-34.54012 z"
       style="fill:#375416;fill-opacity:1;fill-rule:nonzero;stroke:none;stroke-width:0.133333" />
    <path
       id="path264"
       d="m 826.45331,401.69733 c -15.75421,34.12019 -14.77176,72.71038 -23.70325,108.6946 2.7127,-39.72211 7.4173,-79.48319 8.72992,-119.36393 -8.74764,41.81735 -9.76129,84.66663 -13.8046,127.06726 25.09582,7.38085 10.64322,-32.87417 16.73798,-47.10275 2.99208,-23.26575 7.91817,-46.21779 12.03995,-69.29518 z"
       style="fill:#375416;fill-opacity:1;fill-rule:nonzero;stroke:none;stroke-width:0.133333" />
    <path
       id="path265"
       d="m 895.94131,439.87187 c -4.34522,27.30424 -5.48639,54.98102 -9.06936,82.37861 -22.76786,-7.71575 -12.1997,-34.92096 -10.83088,-52.36789 -2.92529,-31.31754 3.16634,-63.04183 11.11148,-93.45499 4.52959,-16.13147 15.77366,-50.78741 20.83415,-53.56233 -2.38037,39.1519 -7.20528,78.09904 -12.04538,117.00656"
       style="fill:#587f03;fill-opacity:1;fill-rule:nonzero;stroke:none;stroke-width:0.133333" />
    <path
       id="path266"
       d="m 846.00931,399.96133 c 23.4436,20.14207 34.69221,51.55912 35.02779,81.92605 15.39299,14.98861 -9.71339,59.38589 -16.79463,25.93159 0.673,-32.52363 1.20611,-67.75842 -19.31944,-95.15617 -6.27799,-12.53353 -26.94559,-29.60926 -29.12086,-35.32375 12.47158,3.6159 21.38934,13.71826 30.20714,22.62228 z"
       style="fill:#91870c;fill-opacity:1;fill-rule:nonzero;stroke:none;stroke-width:0.133333" />
    <path
       id="path267"
       d="m 842.44265,473.10413 c 2.56771,12.74584 -10.08361,50.68404 10.76894,43.42362 7.95107,-31.28873 3.32185,-64.0146 0.92776,-95.71933 -3.16828,-24.54792 -9.32876,-50.28383 -26.57026,-68.99309 16.32472,30.06685 13.29107,65.64169 15.57139,98.65222 -0.0158,7.55011 -0.24402,15.10001 -0.69783,22.63658 z"
       style="fill:#a5c62c;fill-opacity:1;fill-rule:nonzero;stroke:none;stroke-width:0.133333" />
    <path
       id="path268"
       d="m 872.36398,418.75987 c 0.54927,-16.69319 25.34462,-56.87812 34.22792,-24.31806 2.95816,9.73583 13.06833,34.54089 7.70475,35.53477 -4.68848,-21.58502 -31.70372,-31.81437 -33.90948,-3.67109 -10.01118,25.43494 -15.06128,53.06255 -13.25184,80.26666 -4.75244,20.23018 -8.82433,5.34133 -5.85936,-6.41984 1.32106,-27.35385 2.82646,-55.08595 11.08801,-81.39242"
       style="fill:#87aa07;fill-opacity:1;fill-rule:nonzero;stroke:none;stroke-width:0.133333" />
    <path
       id="path269"
       d="m 781.91465,433.8864 c -8.22969,7.82267 -12.10876,37.20733 -18.1368,31.97122 3.89914,-16.44836 5.56986,-50.57288 21.54869,-52.03974 14.96505,31.75243 14.13646,67.73614 18.77505,101.78878 -13.79756,16.41229 -12.98322,-16.98358 -12.35653,-25.88233 -3.21987,-16.72406 1.58966,-43.16839 -9.83008,-55.83787"
       style="fill:#a5c62c;fill-opacity:1;fill-rule:nonzero;stroke:none;stroke-width:0.133333" />
    <path
       id="path270"
       d="m 651.65998,460.08907 c 4.05246,-36.00258 8.53452,-76.48412 -13.48259,-107.95392 20.48007,13.75304 23.81279,40.40369 29.22015,62.48537 9.84643,-20.96764 7.91402,-51.80048 31.93857,-63.04404 10.33366,11.79003 6.51349,42.90345 2.07419,47.08025 4.59152,-10.7621 -8.53951,-41.36788 -12.8443,-16.17347 -12.16154,36.08163 -17.53809,73.97387 -21.7271,111.68293 13.54144,13.55098 -15.83831,45.22047 -17.22305,16.49193 0.3836,-16.86687 1.16048,-33.72191 2.04413,-50.56905 z"
       style="fill:#878003;fill-opacity:1;fill-rule:nonzero;stroke:none;stroke-width:0.133333" />
    <path
       id="path271"
       d="m 738.52798,329.95467 c -14.24106,14.268 -20.27287,35.28077 -38.02772,46.742 -19.71987,16.25975 -26.45445,40.81425 -29.39376,65.04082 -4.60087,25.31051 -7.13899,51.08499 -6.14153,76.82444 29.72157,-3.2929 13.33136,-46.7483 33.1554,-63.41834 16.98646,-30.43623 43.74048,-55.6451 53.40586,-89.93071 -20.314,5.67979 -29.35573,30.88608 -45.38395,43.88952 -11.947,15.7433 -21.54257,33.21898 -28.84697,51.56793 0.38092,-28.78129 12.26496,-56.55091 35.50888,-73.83032 13.39086,-16.31526 20.82448,-36.59375 25.72379,-56.88534 z"
       style="fill:#587f03;fill-opacity:1;fill-rule:nonzero;stroke:none;stroke-width:0.133333" />
    <path
       id="path272"
       d="m 730.84798,400.7828 c -22.67667,27.89877 -47.33726,57.88447 -51.15319,95.03505 -10.98918,15.8048 -7.06277,-21.28719 -6.80545,-28.12472 0.76256,-18.0571 8.12217,-54.27263 6.30693,-60.528 -10.31193,36.12897 -15.34592,73.82011 -14.2313,111.3968 29.10185,-2.36142 13.28545,-44.42908 31.77887,-60.56702 13.87631,-26.05516 34.26266,-47.99565 47.81106,-74.24759 -5.08754,5.25085 -8.84314,11.59575 -13.70692,17.03548 z"
       style="fill:#565e08;fill-opacity:1;fill-rule:nonzero;stroke:none;stroke-width:0.133333" />
    <path
       id="path273"
       d="m 725.84532,366.608 c 4.24991,-9.87023 14.68361,-32.03127 9.35936,-34.93475 -13.51939,15.7674 -11.25513,38.39897 -26.1767,53.16677 -10.97707,13.14985 -6.38234,15.4537 3.01457,2.82004 5.43769,-6.41893 10.06688,-13.51635 13.80277,-21.05206 z"
       style="fill:#75a000;fill-opacity:1;fill-rule:nonzero;stroke:none;stroke-width:0.133333" />
    <path
       id="path274"
       d="m 723.91065,388.75067 c 6.03326,-10.18102 32.9494,-18.62075 25.48438,-27.64323 -9.84733,7.94282 -14.93007,20.44927 -25.48441,27.64323"
       style="fill:#75a000;fill-opacity:1;fill-rule:nonzero;stroke:none;stroke-width:0.133333" />
    <path
       id="path275"
       d="m 511.07599,379.048 c 18.77514,-16.71494 53.58717,-22.74755 69.87863,0.45863 35.02767,29.91781 54.6963,73.56971 66.29372,117.28263 19.20138,15.93373 -17.57485,41.06202 -19.84953,12.345 -5.23677,-26.51463 -15.4367,-51.60863 -30.70596,-73.92373 -6.80753,-13.25258 -28.17823,-38.39472 -28.01859,-42.72928 29.66591,20.93871 43.42169,55.82122 61.50172,85.90261 -9.98993,-33.85829 -27.3774,-65.30363 -47.37317,-94.13886 -19.5179,-18.61197 -48.67129,-10.33465 -71.72682,-5.197 z"
       style="fill:#587f03;fill-opacity:1;fill-rule:nonzero;stroke:none;stroke-width:0.133333" />
    <path
       id="path276"
       d="m 652.45998,423.21453 c 2.3787,-28.63537 18.33971,-53.87977 36.18,-75.5372 -40.95707,18.51473 -53.42867,68.79022 -49.32338,109.98165 3.98329,19.7134 -7.07357,47.35862 10.9602,61.36941 7.48325,-25.52184 -7.25798,-51.67561 0.13463,-77.59474 0.50057,-6.09176 1.19533,-12.16691 2.04855,-18.21912 z"
       style="fill:#587f03;fill-opacity:1;fill-rule:nonzero;stroke:none;stroke-width:0.133333" />
    <path
       id="path277"
       d="m 652.45998,423.21453 c 2.3787,-28.63537 18.33971,-53.87977 36.18,-75.5372 -40.6996,33.74836 -46.81948,91.47889 -41.07693,140.80382 0.30053,10.7757 5.26895,45.74805 4.65362,17.73748 -1.31191,-27.35918 -5.89693,-54.95687 0.12213,-82.10385 z"
       style="fill:#75a000;fill-opacity:1;fill-rule:nonzero;stroke:none;stroke-width:0.133333" />
    <path
       id="path278"
       d="m 574.87999,378.43333 c 2.22178,-10.55017 -28.74491,-22.23152 -40.9919,-12.11526 -9.55296,2.40066 -23.2476,16.06613 -5.03953,9.10994 15.09813,-3.25777 32.12082,-5.35895 46.03143,3.00532 z"
       style="fill:#a5c62c;fill-opacity:1;fill-rule:nonzero;stroke:none;stroke-width:0.133333" />
    <path
       id="path279"
       d="m 637.46265,484.85466 c -0.143,10.33034 -3.82881,45.51127 14.37894,31.85733 0.0429,-41.31604 -5.66326,-86.73733 -35.25165,-118.10467 11.2315,24.85196 18.45775,51.19095 20.15521,78.46257 l 0.37528,3.891 0.34218,3.89377"
       style="fill:#a5c62c;fill-opacity:1;fill-rule:nonzero;stroke:none;stroke-width:0.133333" />
    <path
       id="path280"
       d="m 696.09865,451.0224 c -3.935,17.41443 -15.17716,36.58169 -10.73339,54.09414 2.36117,-8.48155 19.87906,-38.41333 12.99163,-14.52419 3.61536,12.70302 -16.09766,46.49572 -22.42636,22.08568 1.29936,-21.84534 8.82757,-43.04445 20.16812,-61.65565"
       style="fill:#90a517;fill-opacity:1;fill-rule:nonzero;stroke:none;stroke-width:0.133333" />
    <path
       id="path281"
       d="m 755.44931,521.62396 c -29.69367,8.72254 -20.46618,-31.07208 -24.65093,-47.60292 -3.52168,-9.33107 -2.25617,-24.89077 4.34779,-7.54209 5.07522,10.38004 8.69576,52.51931 18.62624,21.89465 10.98488,-17.26642 -0.26355,27.50484 1.6769,33.25018"
       style="fill:#90a517;fill-opacity:1;fill-rule:nonzero;stroke:none;stroke-width:0.133333" />
    <path
       id="path282"
       d="m 912.12931,521.5224 c -29.03985,9.17124 -21.00158,-29.92474 -24.21418,-46.05181 -3.79467,-9.48204 -2.62081,-28.64925 2.78066,-8.68902 -0.46485,12.68221 16.47649,23.90681 16.19428,4.44939 -0.88778,-20.29137 38.2569,-29.57659 39.05768,-6.11716 -20.89759,-16.57709 -40.31299,15.33133 -36.81985,33.72564 8.50404,-14.50755 39.43167,-21.03246 40.94891,-5.00537 -19.19466,-13.56962 -35.09764,11.20255 -37.9475,27.68833 z"
       style="fill:#90a517;fill-opacity:1;fill-rule:nonzero;stroke:none;stroke-width:0.133333" />
    <path
       id="path283"
       d="m 898.60264,489.16826 c 0.60144,-11.66821 -9.58929,-16.67365 -5.23922,-2.20847 -3.95597,8.41638 -2.58937,43.36132 1.52221,18.46049 0.79518,-5.50365 1.87849,-10.99182 3.717,-16.25164"
       style="fill:#7b8408;fill-opacity:1;fill-rule:nonzero;stroke:none;stroke-width:0.133333" />
    <path
       id="path284"
       d="m 906.49464,504.7812 c -1.79854,-8.65299 12.50814,-35.93939 -1.28627,-16.34559 -6.76944,6.71401 -3.92876,40.88397 1.28627,16.34585"
       style="fill:#7b8408;fill-opacity:1;fill-rule:nonzero;stroke:none;stroke-width:0.133333" />
  </g>
</svg>
