<?xml version="1.0" encoding="UTF-8" standalone="no"?>
<svg
   version="1.1"
   width="446"
   height="277"
   id="svg54"
   sodipodi:docname="rocks.svg"
   inkscape:version="1.4.2 (f4327f4, 2025-05-13)"
   xmlns:inkscape="http://www.inkscape.org/namespaces/inkscape"
   xmlns:sodipodi="http://sodipodi.sourceforge.net/DTD/sodipodi-0.dtd"
   xmlns="http://www.w3.org/2000/svg"
   xmlns:svg="http://www.w3.org/2000/svg">
  <defs
     id="defs54" />
  <sodipodi:namedview
     id="namedview54"
     pagecolor="#ffffff"
     bordercolor="#000000"
     borderopacity="0.25"
     inkscape:showpageshadow="2"
     inkscape:pageopacity="0.0"
     inkscape:pagecheckerboard="0"
     inkscape:deskcolor="#d1d1d1"
     inkscape:zoom="3.7908071"
     inkscape:cx="244.53895"
     inkscape:cy="182.94257"
     inkscape:window-width="2880"
     inkscape:window-height="1766"
     inkscape:window-x="-11"
     inkscape:window-y="-11"
     inkscape:window-maximized="1"
     inkscape:current-layer="svg54" />
  <path
     d="m 266.84766,7.3515625 c 29.41392,8.1934315 47.75408,33.4009035 53.84741,62.1505555 17.30905,26.582616 14.38244,79.548682 55.93413,76.510832 29.15167,-1.75026 61.90532,5.48551 63.44931,40.76542 13.32128,30.48265 -9.38329,54.96825 -38.67158,60.75366 -29.14702,22.66831 -66.79644,25.76357 -102.50998,23.71508 -49.68823,1.94572 -100.81382,7.52151 -148.97062,-8.49061 -37.57738,-8.06954 -76.524946,-0.081 -114.090006,-6.89185 -30.5329491,-9.84508 -40.7762227,-55.25262 -14.27365,-75.42696 22.78821,-20.13603 47.040044,-40.92031 73.45524,-55.20335 28.206706,-0.92349 39.805606,-22.83625 51.197416,-43.257397 29.73527,-6.401882 32.81702,-33.864271 46.1066,-55.363498 18.9858,-18.2695127 49.29111,-23.446554 74.52573,-19.2618825 z"
     fill="#767676"
     id="path1" />
  <path
     d="m 172.10547,75.121094 c 13.83952,19.315544 48.74179,30.248936 41.90392,59.252706 -5.39182,32.31373 -23.00966,63.06103 -18.42852,96.63375 -13.72648,23.81744 -48.8375,18.31404 -70.94386,29.49824 -27.54283,-0.27918 -55.429534,-0.34099 -82.724242,-4.0167 -31.077143,-4.24927 -47.6280915,-45.51579 -25.578011,-69.09708 21.600528,-25.09392 50.776121,-44.93922 77.953289,-62.58378 27.485444,1.31599 39.851804,-18.6422 48.302974,-40.865337 6.86352,-8.654638 18.95874,-13.158743 29.51445,-8.821799 z"
     fill="#848587"
     id="path2" />
  <path
     d="m 266.84766,7.3515625 c 29.41392,8.1934315 47.75408,33.4009035 53.84741,62.1505555 17.30865,26.968355 14.65158,80.331762 56.94389,76.600692 15.13732,1.50895 66.37861,1.45191 31.65725,17.39391 -19.26066,6.37959 -21.30419,24.18967 -9.42835,37.76663 -5.21745,24.50698 -9.65333,-24.36232 -24.78882,-2.88779 -10.95114,6.74484 1.61746,39.81497 -9.79085,33.75479 5.6369,-18.01924 14.88832,-54.86406 -14.90522,-54.39343 -26.17705,3.1783 -53.04125,6.54512 -77.74431,16.19439 -12.72068,3.60072 -28.25431,26.34276 -13.80812,4.0416 11.31461,-25.51255 -6.85537,-50.18383 -14.93562,-73.64207 0.19413,-12.1818 -42.4667,-38.556829 -15.67503,-23.96299 27.09931,5.2417 33.29159,-28.89367 6.9519,-35.690632 -12.45718,-14.376224 -51.08456,-45.264689 -13.99843,-54.050053 15.10994,-0.326171 31.48612,-9.91327982 45.6743,-3.2756025 z"
     fill="#7a7a7b"
     id="path3" />
  <path
     d="m 194,25.012125 c 23.1774,13.518114 32.64874,45.470185 58.50456,52.048144 14.17384,20.599277 -14.852,34.949271 -31.26897,23.972191 26.00903,15.2763 31.17781,47.28427 41.42493,72.86535 5.29471,28.32821 -22.09145,44.7447 -36.07325,64.93349 -10.68871,23.62997 -37.27923,40.61726 -63.41043,29.5918 -29.42795,-18.03923 14.02854,-18.8377 25.24994,-29.43983 13.09051,-17.73116 2.49186,-42.92074 14.19907,-62.92428 5.86842,-22.6504 22.00907,-54.46366 -2.56925,-71.23506 C 177.90172,94.59438 163.93613,69.096825 182.25413,48.707443 186.69673,41.088658 191.59477,33.552736 194,25.012125 Z"
     fill="#66676a"
     id="path4"
     style="stroke-width:0.99" />
  <path
     d="m 110,150 c 19.06805,30.4308 62.33343,31.06277 82.55968,58.56024 15.26732,26.70278 -10.59127,42.28874 -34.36003,41.51205 -27.44067,17.10494 -59.026718,8.69858 -89.226198,8.99715 C 51.233551,257.46575 13.64311,260.9786 33.433036,234.48691 38.352043,215.06007 58.063024,214.465 70.743311,221.16493 77.524202,194.15239 118.62708,194.0788 117.9544,164.04852 116.95489,158.63483 113.71538,153.9281 110,150 Z"
     fill="#8e8f91"
     id="path5" />
  <path
     d="m 266.84766,7.3515625 c 28.89471,-4.9886818 29.1819,44.5521055 -1.92789,34.0324115 -17.8554,4.566439 -24.50439,32.703987 0.4682,28.695413 15.93715,16.883908 -29.22722,26.84886 -18.96968,51.119403 6.30898,21.03953 12.76028,49.53087 35.00001,59.0616 29.91609,-7.40497 52.3064,-42.39449 87.29765,-36.52358 12.06262,6.01066 55.49727,-0.42368 43.33973,17.63198 -18.18909,6.13554 -30.84869,25.77754 -13.55812,40.60917 -0.83855,14.96179 -17.61508,-25.36467 -26.00039,0.80614 -3.97562,7.12873 3.34846,32.74222 -7.42524,30.36323 6.68582,-19.28826 14.78473,-58.76533 -18.06125,-55.6187 -23.61609,4.55551 -48.26181,6.94308 -70.98184,14.05906 -10.19468,4.20039 -28.71125,23.62584 -15.63096,2.55205 6.3935,-25.80826 -8.66221,-50.45749 -18.37265,-73.34743 -5.3924,-14.58534 -40.08486,-33.046932 -7.59817,-20.37264 33.6461,-0.1649 17.91195,-35.830975 -4.22157,-40.593513 -18.32671,-11.507076 -40.23634,-48.246204 -3.66534,-50.3801965 13.02801,-3.764421 26.96887,-4.808351 40.30751,-2.094398 z"
     fill="#8e8f90"
     id="path6" />
  <path
     d="m 94,127 c 9.15561,16.48761 36.41798,37.78554 16.06411,56.2776 -21.148185,7.64518 -31.744934,48.4523 -55.333919,32.45387 -20.469665,-9.33766 -10.30613,38.62544 -37.84247,23.86158 -26.998016,-18.4474 -2.370425,-59.47013 19.18463,-73.05241 C 56.554023,155.02302 71.907745,135.62262 94,127 Z"
     fill="#66686b"
     id="path7" />
  <path
     d="m 419.58018,154 c 3.35093,24.4395 24.21456,57.03915 4.28725,77.13777 -18.79828,8.82203 -38.97009,32.20482 -58.19405,28.46407 -3.59337,-20.44074 1.0708,-46.5617 10.35067,-64.25405 10.64781,-7.75584 20.70191,24.73784 10.97639,-2.4391 C 379.58041,171.1145 404.47232,156.65998 419.58018,154 Z"
     fill="#7d7e80"
     id="path8"
     style="stroke-width:0.924146" />
  <path
     d="m 211,33 c 5.87331,23.971796 47.12574,15.877585 52.09237,9.842842 -23.49191,6.3407 -19.93818,32.5107 5.93365,29.957563 4.42117,15.702422 -33.44386,27.920395 -22.41517,52.087105 11.06951,18.26967 14.45267,60.80781 43.75198,54.06928 8.22747,-11.8697 36.04094,-17.2859 11.89289,-3.50185 -17.61051,10.52636 -35.85658,20.57496 -50.67151,34.99714 21.95414,-25.80654 3.58732,-58.7077 -7.5442,-84.90713 -0.56566,-13.89102 -41.90506,-37.642184 -12.70824,-25.22692 24.79321,1.30789 30.93715,-28.264023 5.80607,-34.451945 C 226.27189,56.888491 217.17291,45.695103 211,33 Z"
     fill="#9b9c9d"
     id="path9" />
  <path
     d="m 40.240478,224 c -1.002706,31.90357 39.441799,22.24439 59.75307,25.08583 15.064442,5.27658 46.239482,3.67756 51.544342,3.57785 -20.58321,13.28007 -46.76752,5.03623 -69.733091,6.81158 -18.660694,-1.02839 -72.0042347,2.59381 -44.752832,-27.7081 l 2.213777,-3.96389 z"
     fill="#7f8184"
     id="path10"
     style="stroke-width:0.998921" />
  <path
     d="m 415,160 c -28.49375,-4.62877 -22.33913,46.96514 -20.62795,45.45538 -15.32423,-32.05877 -27.8451,8.43257 -24.05949,25.63981 -10.27213,18.75644 0.16442,-31.10989 2.31932,-42.34795 C 375.99022,166.95675 397.03078,163.72683 415,160 Z"
     fill="#9b9c9d"
     id="path11" />
  <path
     d="m 196,99 c 18.79491,2.26049 18.46335,30.5429 -2.92634,18.22951 -21.1469,-7.64537 7.11647,-3.58624 5.41661,-15.36397 z"
     fill="#9a9b9d"
     id="path12" />
  <path
     d="m 205,85 c 9.06565,1.477102 37.84537,23.27745 16.97094,16.39945 C 216.0773,96.177167 211.95147,89.01775 205,85 Z"
     fill="#97989a"
     id="path14" />
  <path
     d="m 221,46 c 15.92003,-2.4815 -1.54645,15.870315 0,0 z"
     fill="#9b9c9e"
     id="path41" />
</svg>
