<?xml version="1.0" encoding="UTF-8" standalone="no"?>
<!-- Generator: Adobe Illustrator 27.5.0, SVG Export Plug-In . SVG Version: 6.00 Build 0)  -->

<svg
   version="1.1"
   x="0px"
   y="0px"
   viewBox="0 0 86.795448 74.313049"
   xml:space="preserve"
   id="svg1008"
   sodipodi:docname="roots.svg"
   width="86.795448"
   height="74.313049"
   inkscape:version="1.4.3 (0d15f75, 2025-12-25)"
   xmlns:inkscape="http://www.inkscape.org/namespaces/inkscape"
   xmlns:sodipodi="http://sodipodi.sourceforge.net/DTD/sodipodi-0.dtd"
   xmlns:xlink="http://www.w3.org/1999/xlink"
   xmlns="http://www.w3.org/2000/svg"
   xmlns:svg="http://www.w3.org/2000/svg"><defs
   id="defs1008">
	

	
	

		<defs
   id="defs1">
			<path
   id="XMLID_232_"
   d="m 384.149,389.204 c -4.291,-0.978 -8.212,-4.068 -11.15,-7.417 -3.726,-4.247 -7.168,-9.118 -12.34,-11.391 -7.508,-3.3 -17.064,-0.361 -23.83,-4.997 -1.507,-1.033 -2.769,-2.387 -4.254,-3.452 -5.949,-4.269 -14.315,-3.238 -20.764,-6.704 -4.43,-2.381 -7.495,-6.625 -11.253,-9.968 -5.231,-4.653 -11.773,-7.527 -17.566,-11.459 -5.792,-3.932 -11.146,-9.548 -11.854,-16.513 -3.222,-24.059 -1.123,-43.924 -1.123,-43.924 0.743,-7.924 4.105,-13.99 10.691,-17.871 2.508,-1.441 6.375,-2.589 10.66,-3.339 1.363,0.29 2.682,1.299 3.507,2.486 1.28,1.842 1.906,4.096 3.311,5.845 2.625,3.265 7.207,3.987 11.326,4.753 4.119,0.766 8.729,2.236 10.415,6.071 0.641,1.457 0.786,3.144 1.718,4.434 0.895,1.238 2.384,1.911 3.868,2.276 6.281,1.545 13.655,-1.361 18.988,2.298 2.242,1.538 7.49,6.4 6.427,4.919 -1.062,-1.48 -6.431,-8.743 -11.498,-9.206 -2.965,-0.533 -6.021,0.079 -9.02,-0.198 -1.597,-0.147 -3.245,-0.588 -4.403,-1.697 -0.922,-0.883 -1.438,-2.093 -2.045,-3.215 -2.14,-3.96 -5.556,-7.527 -9.867,-8.821 -4.65,-1.395 -10.628,-6.029 -11.204,-8.541 -0.189,-0.824 0.089,-1.611 0.499,-2.371 4.483,0.073 8.49,0.694 10.931,1.996 4.569,2.437 8.479,6.684 13.644,7.07 3.965,0.297 7.938,-1.816 11.818,-0.945 5.506,1.235 8.849,8.033 14.49,8.201 1.453,0.043 2.872,-0.383 4.292,-0.696 3.497,-0.77 7.143,-0.857 10.672,-0.254 4.381,0.749 8.769,2.546 13.108,2.88 0.904,0.07 1.151,-1.224 0.283,-1.488 -6.525,-1.987 -16.831,-5.83 -24.086,-4.226 -1.24,0.274 -2.476,0.712 -3.742,0.621 -2.911,-0.209 -4.824,-2.979 -6.911,-5.018 -4.265,-4.168 -10.837,-5.803 -16.558,-4.121 -1.7,0.5 -3.574,1.259 -5.153,0.454 -0.687,-0.35 -1.202,-0.953 -1.727,-1.517 -1.543,-1.658 -3.297,-3.07 -5.201,-4.251 1.058,-0.946 2.333,-1.651 3.707,-2.005 1.565,-0.404 3.367,-0.447 4.493,-1.606 1.523,-1.569 1.115,-4.544 2.963,-5.713 2.263,-1.432 5.233,1.376 7.787,0.572 1.405,-0.442 2.236,-1.834 3.236,-2.915 1.966,-2.125 5.159,-3.383 8.039,-3.016 0.131,0.017 0.169,-0.051 0.056,-0.103 -2.302,-1.051 -5.086,-1.001 -7.341,0.152 -1.308,0.669 -2.45,1.683 -3.856,2.11 -1.867,0.566 -3.861,0.008 -5.783,-0.326 -1.922,-0.333 -4.139,-0.351 -5.542,1.004 -1.837,1.774 -1.692,5.355 -4.08,6.261 -0.659,0.25 -1.388,0.221 -2.091,0.178 -1.811,-0.111 -3.653,-0.29 -5.42,0.12 -1.156,0.268 -3.715,0.73 -5.51,1.498 -3.294,-0.771 -6.72,-1.079 -10.081,-0.967 -9.008,0.3 -17.355,1.07 -25.749,4.353 0.79,-2.368 1.578,-2.382 5.211,-4.263 3.633,-1.882 7.636,-2.921 11.405,-4.511 6.804,-2.869 11.633,-9.164 16.068,-15.068 3.316,-4.421 6.778,-4.098 8.022,-4.286 2.236,-0.337 4.634,-0.278 6.986,-0.288 1.608,0.398 3.201,0.918 4.793,1.362 3.261,0.911 6.865,1.484 9.943,0.073 2.375,-1.09 4.281,-3.299 6.872,-3.645 1.713,-0.229 3.41,0.414 5.129,0.593 2.836,0.296 4.737,-0.728 6.752,-2.746 1.234,-1.236 2.122,-2.799 3.452,-3.932 2.053,-2.21 5.074,-3.067 4.182,-3.322 -2.068,-0.591 -3.688,0.801 -5.603,2.059 -2.029,1.333 -4.261,3.346 -6.632,3.868 -3.409,0.751 -7.114,-3.313 -10.112,-1.525 -3.153,2.163 -5.252,2.79 -6.754,2.767 2.536,-2.834 4.96,-6.536 4.398,-9.978 -0.518,-3.17 -0.5,-6.406 0.486,-9.463 1.441,-4.468 2.82,-8.607 5.974,-11.56 2.002,0.283 3.927,1.113 5.432,2.466 1.896,1.706 3.389,4.249 5.911,4.628 1.784,0.268 3.511,-0.676 5.3,-0.903 2.005,-0.255 5.429,1.348 5.608,0.695 0.179,-0.652 -2.386,-2.158 -3.97,-2.464 -1.584,-0.306 -3.957,0.124 -5.483,-0.399 -3.947,-0.789 -3.854,-4.669 -4.859,-5.629 -0.826,-0.79 -1.885,-1.322 -3.005,-1.548 0.661,-0.302 1.337,-0.563 2.048,-0.716 2.236,-0.483 4.548,0.02 6.824,0.245 6.128,0.607 12.433,-0.916 17.653,-4.173 0.521,-0.325 0.141,-1.119 -0.438,-0.914 -4.084,1.445 -8.677,2.516 -12.665,2.412 -3.481,-0.09 -6.889,-1.192 -10.371,-1.162 -0.327,0.003 -0.652,0.015 -0.975,0.031 0.058,-0.328 0.117,-0.655 0.188,-0.98 0.161,-0.741 0.371,-1.505 0.879,-2.068 0.583,-0.646 1.459,-0.921 2.258,-1.267 1.3,-0.563 2.512,-1.402 3.323,-2.564 0.809,-1.16 1.177,-2.57 1.889,-3.792 0.712,-1.222 3.724,-1.875 3.557,-2.588 -0.167,-0.713 -3.471,0.597 -4.578,1.91 -0.937,1.112 -1.44,2.609 -2.624,3.453 -1.887,1.346 -4.787,0.528 -6.556,2.026 -1.144,0.968 -2.426,2.582 -2.805,4.031 -0.331,1.263 -0.944,2.637 -2.059,3.208 -0.04,0.017 -0.082,0.032 -0.122,0.049 -0.13,0.058 -0.26,0.114 -0.403,0.15 l 0.085,-10e-4 c -2.778,1.265 -5.042,3.332 -6.35,6.414 0.395,-6.261 1.027,-10.464 2.732,-16.501 1.062,-3.762 1.752,-7.82 1.383,-11.671 0.435,-1.736 0.69,-4.216 0.783,-5.604 0.114,-1.707 0.375,-3.493 1.404,-4.86 0.368,-0.489 0.825,-0.909 1.155,-1.424 0.746,-1.164 0.749,-2.65 0.571,-4.021 -0.178,-1.371 -0.647,-3.215 -0.489,-4.589 0.267,-2.321 4.039,-5.276 3.653,-5.661 -0.561,-0.668 -4.842,3.896 -5.148,6.815 -0.133,1.268 0.17,2.554 0.007,3.819 -0.164,1.275 -0.818,2.481 -1.797,3.314 -0.584,0.497 -1.272,0.86 -1.855,1.358 -0.775,0.661 -1.313,1.567 -1.588,2.546 -1.447,-1.448 -3.392,-2.744 -4.444,-4.256 -3.56,-5.118 -3.59,-11.85 -2.565,-17.986 0.095,-0.567 -0.697,-0.787 -0.913,-0.254 -1.993,4.903 -2.736,10.316 -1.247,15.332 2.069,6.969 7.631,7.64 7.725,14.909 0.109,8.314 -7.182,19.023 -5.526,28.263 -2.501,-1.396 -3.91,-2.749 -5.794,-4.674 -1.164,-1.189 -1.936,-2.717 -2.149,-4.367 -0.216,-1.667 -0.202,-3.05 0.36,-4.683 1.246,-3.619 2.008,-7.565 1.04,-11.268 -0.492,-1.884 -1.527,-3.677 -2.928,-5.026 -0.613,-0.59 -1.565,0.213 -1.103,0.928 1.387,2.146 2.098,4.895 1.904,7.25 -0.343,4.154 -3.427,7.719 -3.694,11.878 -0.315,4.912 3.32,9.141 7.03,12.374 1.652,1.439 3.437,2.902 4.272,4.912 0.13,0.314 0.221,0.649 0.293,0.981 0.674,3.125 1.887,14.554 -2.547,19.011 -4.714,4.738 -15.154,2.414 -16.624,2.362 -0.54,-0.019 -1.421,0.072 -1.982,0.138 -0.352,0.041 -0.676,-0.166 -0.816,-0.492 -0.608,-1.411 -0.368,-2.998 0.313,-4.394 0.352,-0.722 0.894,-1.342 1.219,-2.077 0.621,-1.408 -0.007,-3.167 -0.504,-4.623 -0.497,-1.456 -1.224,-2.839 -1.545,-4.344 -0.496,-2.318 2.049,-6.615 1.584,-6.847 -1.18,-0.537 -2.978,3.793 -2.936,6.486 0.045,2.918 2.061,5.439 1.207,8.23 -0.405,1.325 -2.392,3.243 -3.2,4.368 -1.599,2.227 -3.263,5.664 -4.027,8.13 -0.488,1.574 -1.351,2.999 -2.473,4.206 -0.56,0.602 -1.13,1.193 -1.721,1.764 -6.963,6.721 -14.957,9.683 -24.073,12.934 -0.385,-5.919 2.934,-13.404 8.737,-14.632 5.474,-1.158 9.368,-6.632 9.053,-12.632 -0.231,-3.018 -1.187,-5.335 -1.9,-7.492 -0.55,-1.665 -0.727,-3.446 -0.391,-5.167 1.461,-7.486 7.482,-8.032 9.067,-8.492 2.276,-0.661 4.278,-2.831 4.173,-4.639 -0.109,-1.869 0.025,-3.746 0.203,-5.609 0.337,-3.525 2.397,-7.112 5.144,-9.579 0.454,-0.408 -0.004,-1.153 -0.576,-0.939 -2.991,1.122 -5.524,3.487 -6.345,6.549 -0.628,2.339 -0.269,4.905 -1.204,7.139 -0.509,1.216 -1.402,2.263 -2.508,2.98 0.957,-2.808 0.355,-5.94 -0.189,-9.278 -3.053,-12.842 -13.316,-13.158 -17.976,-20.43 -3.143,-4.552 -2.764,-11.398 0.397,-15.938 2.268,-3.257 6.101,-5.363 9.417,-7.594 0.537,-0.361 0.118,-1.183 -0.49,-0.961 -1.475,0.538 -2.929,1.119 -4.266,1.82 -2.725,1.43 -5.414,3.081 -7.369,5.458 -2.561,3.114 -3.644,7.284 -3.429,11.309 0.215,4.025 1.65,7.915 3.656,11.412 -4.466,-0.129 -7.439,-1.863 -10.151,-5.497 -2.711,-3.634 -6.135,-6.539 -9.645,-9.41 -1.208,-0.988 -2.601,-1.751 -3.697,-2.861 -4.066,-4.115 -2.896,-10.884 -5.289,-16.151 -1.156,-2.543 -3.43,-5.73 -6.242,-7.412 -0.724,-0.433 -1.508,0.473 -0.967,1.121 2.659,3.191 6.221,8.121 6.393,11.808 0.168,3.619 -0.889,7.574 1.002,10.664 1.872,3.059 5.912,3.998 8.411,6.571 2.875,2.959 5.953,7.646 8.689,10.734 2.738,3.09 7.175,3.958 11.293,4.25 6.547,0.465 10.963,0.022 15.196,7.803 0.484,0.889 0.881,1.829 1.206,2.788 0.741,2.186 1.693,5.171 0.604,7.572 -1.35,2.979 -5.185,4.666 -7.454,7.021 -2.392,2.483 -2.754,5.503 -2.335,8.926 0.419,3.423 1.511,6.764 1.583,10.211 0.03,1.423 -0.13,2.895 -0.821,4.139 -1.305,2.353 -3.88,3.156 -6.589,3.88 0.168,-2.998 -0.054,-5.969 -1.308,-8.661 -2.244,-4.815 -7.575,-8.227 -8.065,-13.516 -0.35,-3.782 1.614,-12.741 0.745,-16.846 -0.669,-3.159 -3.056,-5.725 -5.952,-7.734 -0.444,-0.308 -0.956,0.283 -0.581,0.672 2.812,2.918 4.862,6.501 4.541,10.438 -0.308,3.771 -1.705,10.208 -1.771,13.991 -0.116,6.666 5.972,8.502 6.574,15.142 0.601,6.624 -6.314,12.749 -6.407,19.307 -1.11,6.531 -2.611,16.738 -6.378,22.92 1.9,-8.382 6,-21.684 -0.962,-30.397 -0.08,-0.095 -0.159,-0.19 -0.237,-0.283 -0.668,-0.795 -1.035,-1.803 -1,-2.84 0.032,-0.923 0.183,-1.83 0.564,-2.667 0.908,-1.996 3.024,-3.375 3.486,-5.519 0.378,-1.753 -0.46,-3.507 -0.802,-5.267 -0.596,-3.065 0.593,-6.577 2.804,-8.896 0.186,-0.195 -0.053,-0.498 -0.285,-0.361 -2.233,1.32 -4.234,3.016 -4.693,5.48 -0.474,2.54 0.871,5.333 -0.248,7.662 -0.944,1.965 -4.455,2.106 -5.468,4.036 -0.193,0.367 -0.326,0.753 -0.415,1.151 -2.378,-3.144 -2.96,-5.181 -1.585,-8.519 0.787,-1.91 6.316,-13.053 1.474,-18.947 -2.294,-2.503 -3.302,-3.968 -5.94,-5.764 -0.386,-0.263 -0.857,0.221 -0.575,0.594 2.209,2.917 4.543,4.987 5.462,8.222 0.329,1.16 0.526,4.316 -2.355,8.75 -2.934,3.622 -5.723,7.991 -5.036,12.601 1.018,6.833 7.857,11.075 9.812,17.701 1.22,4.135 -0.162,8.576 -1.932,12.507 -1.77,3.931 -2.811,7.354 -3.323,11.634 -0.009,-8.453 -0.746,-15.515 -2.742,-23.73 -1.996,-8.214 -6.191,-16.19 -13.067,-21.107 -4.595,-3.286 -10.455,-5.341 -13.285,-10.23 -2.997,-5.177 -1.533,-11.678 0.012,-17.456 0.757,-2.83 1.513,-5.659 2.27,-8.489 1.06,-3.964 2.436,-8.348 6.031,-10.326 2.975,-1.637 9.774,-2.408 8.965,-4.375 -0.375,-0.955 -4.174,1.835 -5.665,1.808 -8.526,0.553 -11.944,9.751 -13.026,13.263 -0.433,1.404 -1.671,5.324 -3.295,7.601 -0.757,1.062 -2.235,1.208 -3.22,0.354 -6.185,-5.367 -17.801,-7.04 -20.959,-8.428 -7.606,-3.345 -13.762,-9.221 -17.132,-16.816 -1.163,-2.62 -3.643,-2.676 -6.472,-3.14 -6.318,-1.097 -10.569,-6.711 -11.276,-6.716 -1.831,0.067 3.73,5.05 6.669,6.409 2.938,1.358 5.812,1.769 8.158,4 1.416,1.347 2.195,3.766 3.264,5.403 5.76,8.818 17.286,14.339 26.785,17.841 0.572,0.211 0.713,0.978 0.228,1.347 -2.305,1.754 -5.79,2.34 -9.253,2.403 -8.155,0.085 -14.334,-4.641 -16.844,-5.272 -0.437,-0.11 -0.689,0.489 -0.309,0.73 3.248,2.066 6.824,4.101 10.34,5.337 4.169,1.466 9,2.763 17.211,0.316 2.187,-0.428 4.366,-0.013 5.834,1.664 2.435,2.781 2.034,6.941 2.772,10.563 1.437,7.055 7.436,12.293 13.738,15.775 3.682,2.035 8.094,4.39 9.178,8.208 0.177,0.623 -0.411,1.181 -1.016,0.952 -4.599,-1.734 -10.804,-1.359 -14.991,-3.677 -6.115,-3.386 -8.143,-11.696 -14.226,-15.14 -7.476,-4.232 -18.119,0.507 -24.886,-4.785 -3.54,-2.768 -4.819,-7.444 -6.882,-11.437 -3.269,-6.328 -8.975,-11.358 -15.662,-13.81 -2.441,-0.895 -5.007,-1.46 -7.357,-2.573 -4.724,-2.238 -8.269,-6.765 -9.431,-11.848 -0.051,-0.224 -0.376,-0.173 -0.365,0.057 0.204,4.292 1.767,8.005 5.148,11.337 1.096,1.08 3.121,2.528 4.525,3.155 4.011,1.792 9.007,2.63 12.119,5.565 2.624,2.475 8.106,11.638 10.472,19.127 0.23,0.727 -0.292,1.474 -1.054,1.498 -2.287,0.072 -4.446,-1.291 -6.268,-2.912 -1.029,-0.916 -1.939,-1.968 -2.748,-3.084 -3.527,-4.867 -4.64,-7.35 -8.715,-8.794 -2.81,-0.996 -5.684,-0.474 -8.921,-1.026 -2.939,-0.502 -7.921,-3.789 -8.549,-3.618 -0.628,0.171 5.111,4.444 8.913,5.484 2.858,0.781 6.009,0.88 8.452,2.556 3.539,2.428 4.692,8.786 7.99,11.532 3.364,2.801 11.609,5.837 16.642,6.047 5.053,0.211 16.121,0.544 20.071,2.695 2.627,1.43 4.347,4.041 6.283,6.321 5.117,6.027 12.405,10.172 20.201,11.488 1.757,0.297 3.612,0.482 5.093,1.475 1.595,1.069 2.486,2.898 3.206,4.678 2.579,6.373 3.897,13.253 3.856,20.128 -1.709,-3.144 -3.841,-5.721 -5.551,-8.865 -1.694,-3.116 -3.428,-6.284 -5.98,-8.748 -7.643,-7.38 -20.408,-5.433 -30.055,-9.886 -5.171,-2.387 -9.485,-6.314 -14.536,-8.947 -5.934,-3.094 -12.745,-4.711 -19.377,-3.814 -3.262,0.441 -6.467,1.376 -9.757,1.447 -3.683,0.08 -7.473,-0.549 -10.576,-2.535 -2.772,-1.774 -5.062,-4.269 -7.979,-5.792 -2.391,-1.248 -5.075,-2.192 -7.77,-2.087 -4.601,0.178 3.662,0.968 6.872,4.336 8.105,9.393 15.545,11.332 21.546,10.54 0.375,-0.049 0.559,0.419 0.255,0.643 -1.175,0.866 -1.915,1.86 -2.481,3.497 -0.458,1.323 -0.498,2.743 -0.321,4.132 0.484,3.807 -1.018,7.615 -3.502,10.477 -2.157,2.485 -5.016,4.294 -8.058,5.547 -1.772,0.73 -0.174,2.059 3.615,0.796 6.471,-2.535 11.053,-8.368 11.729,-12.023 0.63,-3.403 0.966,-7.279 3.587,-9.608 2.842,-2.526 7.247,-2.919 9.999,-2.432 4.622,0.818 8.264,1.554 12.004,4.192 0.494,0.348 0.666,1.007 0.427,1.562 -0.571,1.327 -1.187,3.012 -1.401,3.716 -0.718,2.373 -3.353,8.272 -5.654,9.195 -2.863,1.147 -6.212,0.652 -9.004,1.963 -1.898,0.891 -3.327,2.644 -3.959,4.638 -0.191,0.602 0.586,1.052 1.026,0.599 0.895,-0.922 2.147,-1.596 3.416,-2.047 2.301,-0.818 4.798,-0.812 7.225,-1.085 2.427,-0.272 4.971,-0.914 6.651,-2.687 1.151,-1.215 1.775,-2.839 2.842,-4.128 1.387,-1.677 3.379,-2.622 5.534,-3.054 1.708,-0.343 3.477,-0.059 5.064,0.661 0.973,0.441 1.975,0.822 3.005,1.134 4.695,1.425 7.686,1.511 12.562,2.221 4.41,0.642 10.875,2.61 12.214,6.605 0.19,0.568 -0.278,1.174 -0.875,1.123 -1.552,-0.132 -3.63,0.482 -4.685,1.228 -1.342,0.948 -2.452,2.222 -3.893,3.012 -1.268,0.696 -7.183,3.348 -12.54,0.983 -1.287,-0.457 -2.476,-1.17 -3.787,-1.551 -3.093,-0.899 -15.093,-0.031 -14.544,0.634 0.943,1.454 7.92,-0.36 12.19,1.509 2.205,0.965 4.211,2.346 6.436,3.263 3.179,1.311 6.761,1.623 10.118,0.881 2.969,-0.656 5.735,-2.104 8.754,-2.522 2.85,-0.394 5.849,1.573 8.086,3.799 5.154,5.128 9.882,9.316 12.585,16.291 0.574,1.482 0.852,3.064 0.9,4.653 0.257,8.592 0.098,17.195 -0.476,25.771 -0.239,3.562 -3.567,16.075 -4.965,18.785 -2.583,5.007 -5.218,10.088 -9.096,14.176 -3.624,3.82 -8.275,6.656 -13.331,8.129 -3.357,0.977 -6.852,1.358 -10.3,1.933 -7.038,1.174 -12.844,-0.464 -20.581,4.43 -11.21,6.474 -16.737,7.895 -23.017,7.943 -14.877,-0.838 -25.358,7.908 -26.803,9.299 -3.632,3.495 -8.637,5.488 -13.668,5.572 -0.643,0.011 -0.752,0.929 -0.132,1.104 5.469,1.548 11.536,0.904 16.047,-2.536 1.701,-1.297 3.174,-2.878 4.912,-4.125 8.657,-6.207 20.89,-2.569 31.041,-5.798 5.383,-1.712 10.03,-5.328 15.472,-6.841 8.487,-2.36 18.01,0.626 26.117,-2.819 -1.921,2.584 -4.949,4.907 -7.706,6.568 -4.035,2.431 -8.161,2.628 -12.864,2.892 -12.003,0.674 -24.08,4.057 -33.753,11.197 -2.597,1.917 -5.055,4.119 -8.047,5.331 -3.016,1.222 -9.148,0.378 -9.611,1.228 -0.621,1.141 9.485,1.931 13.274,-0.438 4.383,-2.74 10.688,-6.655 15.536,-8.448 2.713,-1.003 5.58,-1.482 8.461,-1.812 -0.273,1.441 -0.264,3.06 -1.155,4.102 -2.197,2.571 -7.117,1.895 -8.819,4.816 -0.438,0.752 -0.515,1.658 -0.843,2.464 -0.682,1.677 -2.361,2.73 -4.045,3.397 -1.683,0.667 -3.487,1.073 -5.034,2.013 -1.547,0.941 -3.455,5.001 -2.62,4.418 0.835,-0.583 3.045,-3.531 7.021,-3.954 2.932,-0.316 6.326,-0.503 8.067,-2.882 0.808,-1.104 1.107,-2.526 1.968,-3.589 2.428,-2.996 7.599,-1.55 10.642,-3.92 2.316,-1.804 2.646,-5.199 4.122,-7.704 6.24,-0.499 12.479,-0.999 18.615,-2.203 8.518,-1.671 16.968,-4.815 23.45,-10.588 -3.637,5.999 -9.834,10.88 -16.257,13.706 -6.422,2.825 -13.207,5.27 -18.434,9.951 -2.996,2.683 -5.36,6.006 -8.308,8.742 -2.315,2.149 -4.962,3.911 -7.325,6.007 -4.12,3.656 -7.322,8.333 -9.27,13.483 -0.17,0.45 0.458,0.757 0.713,0.35 3.813,-6.077 7.915,-10.977 14.621,-14.24 2.179,-1.06 4.557,-1.775 6.49,-3.237 2.806,-2.123 4.344,-5.57 7.063,-7.803 0.683,-0.561 1.426,-1.024 2.201,-1.432 -0.054,0.297 -0.08,0.6 -0.074,0.896 0.026,1.277 0.467,2.507 0.669,3.768 0.202,1.262 0.118,2.682 -0.739,3.629 -0.54,0.597 -1.309,0.922 -1.967,1.385 -1.322,0.93 -2.191,2.475 -2.3,4.088 -0.115,1.706 0.572,3.428 0.234,5.105 -0.203,1.009 -0.744,1.868 -1.44,2.631 -0.513,0.562 0.17,1.445 0.841,1.085 1.812,-0.974 3.246,-2.602 3.653,-4.6 0.448,-2.197 -0.009,-4.806 1.561,-6.405 1.384,-1.409 3.893,-1.446 4.947,-3.116 1.137,-1.802 -0.191,-4.139 -0.033,-6.263 0.171,-2.286 2.006,-4.004 3.746,-5.542 6.275,-2.324 12.234,-5.502 17.657,-9.422 -4.796,3.154 -6.113,10.181 -7.395,15.776 -1.282,5.595 -2.248,11.553 -5.851,16.022 -2.354,2.919 -5.655,4.95 -8.059,7.828 -3.113,3.727 -4.627,16.025 -3.718,15.536 0.909,-0.489 3.174,-9.667 7.078,-12.984 3.904,-3.317 8.439,-6.102 11.202,-10.415 4.035,-6.3 3.615,-14.849 8.244,-20.726 2.146,-2.724 5.336,-4.824 6.298,-8.156 0.855,-2.96 -0.261,-6.355 1.137,-9.101 1.166,-2.291 3.695,-3.407 6.184,-4.229 0.511,-0.169 1.055,0.137 1.168,0.663 0.951,4.445 2.038,9.38 0.008,13.351 -1.921,3.758 -5.808,6.026 -8.718,9.083 -4.056,4.262 -6.188,10.278 -5.749,16.143 -0.688,0.906 -1.326,2.022 -1.67,2.538 -0.677,1.017 -0.855,2.272 -1.1,3.469 -0.245,1.197 -0.619,2.452 -1.548,3.246 -0.439,0.375 -0.973,0.619 -1.493,0.872 -1.47,0.716 -2.984,1.65 -3.596,3.166 -0.542,1.342 -0.271,2.895 -0.748,4.261 -0.458,1.311 -3.222,1.905 -2.992,2.632 0.23,0.727 5.632,-1.831 6.32,-4.387 0.245,-0.91 0.378,-1.969 1.147,-2.514 0.751,-0.533 1.769,-0.333 2.689,-0.353 1.679,-0.037 3.265,-0.9 4.444,-2.096 0.117,-0.119 0.215,-0.253 0.325,-0.378 0.202,1.997 0.126,3.963 -0.566,5.868 -1.014,2.79 -3.24,4.995 -4.358,7.745 -1.155,2.839 0.251,11.541 1.075,10.986 1.153,-0.775 1.884,-9.161 4.734,-12.971 2.85,-3.81 5.93,-8.158 5.207,-12.861 -0.456,-2.965 -2.418,-5.703 -2.087,-8.685 0.462,-4.161 5.39,-10.461 8.457,-13.311 5.637,-5.24 7.932,-9.274 8.818,-16.429 0.102,-0.826 1.154,-1.15 1.679,-0.505 1.682,2.065 1.037,5.131 0.13,8.232 -1.109,3.794 -3.587,7.02 -5.272,10.595 -3.564,7.565 -3.331,16.809 0.609,24.185 1.968,3.684 4.867,7.141 5.082,11.312 0.056,1.097 -0.072,2.239 -0.132,3.357 -0.065,1.197 1.648,1.496 2.005,0.351 1.108,-3.559 1.727,-6.869 0.348,-10.65 -1.279,-3.508 -4.066,-6.334 -5.195,-9.893 -1.701,-5.366 0.712,-11.016 4.042,-15.713 1.109,1.136 1.891,2.595 2.133,4.165 0.164,1.067 0.101,2.154 0.106,3.234 0.008,1.742 0.222,3.555 1.163,5.02 0.484,0.753 1.189,1.497 1.988,1.977 0.735,0.442 0.875,0.099 0.39,-0.608 -0.895,-1.301 -0.832,-3.369 -1.033,-4.936 -0.463,-3.606 1.045,-7.406 -0.166,-10.835 -0.286,-0.811 -0.715,-1.553 -1.208,-2.257 3.33,-3.928 6.824,-7.836 8.461,-12.607 0.211,-0.615 0.984,-0.822 1.473,-0.393 3.317,2.914 5.898,7.375 6.517,11.637 0.336,2.311 0.233,4.684 0.298,7.022 -1.052,2.926 -1.878,8.727 -1.577,10.518 0.363,2.161 0.803,4.497 -0.188,6.451 -0.672,1.326 -1.919,2.275 -2.686,3.549 -1.838,3.055 0.478,10.434 0.872,10.247 0.395,-0.186 -0.796,-3.453 -0.755,-4.949 0.041,-1.496 0.542,-3.044 1.662,-4.037 1.07,-0.948 2.559,-1.282 3.701,-2.141 1.453,-1.092 2.202,-3.046 1.851,-4.829 -0.19,-0.965 -0.674,-1.91 -0.52,-2.881 0.108,-0.685 0.515,-1.271 0.987,-1.827 3.98,5.268 10.383,9.312 11.114,15.821 0.39,3.473 0.111,6.191 -0.33,9.658 -0.286,2.245 -0.579,3.526 0.158,6.368 0.276,1.065 1.218,0.614 1.053,-0.474 -1.219,-8.039 4.784,-15.72 2.464,-23.866 -1.105,-3.881 -3.826,-7.127 -6.949,-9.682 -1.384,-1.133 -2.906,-2.208 -3.741,-3.79 -1.185,-2.244 -0.725,-4.951 -0.541,-7.483 0.503,-6.894 -1.382,-13.93 -5.204,-19.684 -0.502,-0.755 0.313,-1.715 1.142,-1.346 3.21,1.429 6.562,3.686 9.425,6.407 -0.824,0.604 -1.386,1.66 -1.48,2.709 -0.143,1.598 0.481,3.151 1.023,4.66 0.543,1.51 1.017,3.154 0.575,4.696 -0.473,1.653 -1.949,2.983 -2.011,4.701 -0.051,1.417 0.876,2.652 1.651,3.839 0.775,1.187 0.327,3.8 0.88,3.976 0.553,0.177 0.63,-3.384 0.113,-4.625 -0.517,-1.241 -1.178,-2.523 -0.99,-3.854 0.288,-2.039 2.487,-3.525 2.441,-5.584 -0.019,-0.858 -0.439,-1.65 -0.653,-2.481 -0.446,-1.728 0.115,-3.643 1.318,-4.946 1.955,2.429 3.44,5.081 4.113,7.773 1.108,4.43 -0.316,8.841 3.127,11.841 2.547,2.22 6.38,2.652 8.661,5.144 1.704,1.861 2.196,4.498 2.618,6.986 0.59,3.474 0.909,9.871 1.769,10.423 0.859,0.552 0.447,-8.892 -0.135,-14.052 -0.25,-2.214 -0.708,-4.618 -2.412,-6.054 -1.986,-1.673 -5.074,-1.504 -7.031,-3.212 -2.789,-2.434 -1.728,-6.888 -2.314,-10.543 -0.494,-7.27 -10.9,-17.255 -13.936,-21.286 -1.682,-2.233 -3.65,-3.824 -3.922,-6.182 -0.113,-0.983 0.689,-1.887 1.678,-1.843 2.681,0.119 4.596,3.564 6.197,5.976 1.913,2.88 3.324,5.625 5.254,8.49 1.936,2.874 4.793,5.01 8.085,6.09 2.517,0.826 4.753,1.872 6.842,3.506 5.438,4.253 2.323,10.97 6.092,16.754 1.357,2.083 4.581,3.824 6.255,5.663 0.747,0.82 1.384,1.84 1.741,2.905 0.435,1.297 1.215,2.742 1.525,1.41 0.475,-2.043 -0.032,-4.344 -1.55,-6.062 -1.607,-1.819 -4.155,-2.776 -5.31,-4.911 -1.906,-3.521 -0.742,-9.132 -1.327,-13.093 -0.576,-3.9 -2.523,-5.111 -5.807,-7.29 -3.325,-2.206 -6.573,-4.601 -9.356,-7.443 0.643,-0.192 1.207,-0.599 1.816,-0.892 0.663,-0.319 1.506,-0.474 2.097,-0.037 0.249,0.184 0.42,0.45 0.618,0.687 0.653,0.78 1.651,1.26 2.668,1.283 1.017,0.023 3.217,-0.785 2.984,-1.198 -0.233,-0.413 -2.451,0.247 -3.431,-0.446 -1.169,-0.827 -1.882,-2.335 -3.26,-2.726 -1.302,-0.369 -2.837,0.398 -3.989,-0.313 -0.52,-0.321 -5.021,-3.92 -5.748,-5.878 -0.778,-2.096 -1.234,-4.294 -1.255,-6.521 -0.004,-0.456 0.514,-0.731 0.906,-0.499 3.824,2.27 7.233,4.461 11.126,6.744 4.498,2.638 9.125,5.39 12.213,9.593 4.522,6.154 4.978,14.262 6.274,21.788 1.162,6.744 3.167,13.439 6.834,19.218 3.147,4.96 7.614,9.212 12.957,11.575 0.226,0.1 0.399,-0.22 0.189,-0.35 -6.445,-3.988 -10.578,-10.778 -12.263,-18.331 -0.203,-0.909 -0.363,-1.97 -0.497,-3.135 0.354,0.485 0.762,0.944 1.165,1.356 0.355,0.362 0.737,0.74 1.231,0.855 0.514,0.12 1.043,-0.068 1.564,-0.16 1.798,-0.315 4.568,2.041 5.282,1.884 0.619,-0.136 -1.429,-3.13 -2.981,-3.748 -1.259,-0.501 -2.787,-0.508 -3.738,-1.474 -1.13,-1.147 -0.866,-3.016 -1.282,-4.57 -0.041,-0.155 -0.091,-0.307 -0.148,-0.456 -1.021,-2.665 -1.887,-5.392 -2.111,-8.238 -0.156,-1.978 -0.349,-3.953 -0.612,-5.856 0.208,0.361 0.392,0.737 0.555,1.108 0.631,1.443 1.193,3.035 2.475,3.949 2.187,1.558 5.463,0.454 7.723,1.903 1.277,0.818 6.08,9.272 7.044,8.647 0.615,-0.323 -1.528,-3.693 -2.292,-5.539 -0.698,-1.687 -1.451,-3.449 -2.879,-4.585 -2.232,-1.776 -5.723,-1.707 -7.478,-3.955 -1.258,-1.611 -1.171,-3.863 -1.807,-5.805 -1.066,-3.255 -4.055,-5.405 -6.937,-7.292 0.016,-0.061 0.016,-0.061 0.031,-0.122 7.467,-0.063 22.47,10.28 24.739,12.423 3.409,3.22 5.901,7.857 8.684,11.632 3.747,5.082 12.988,9.735 19.105,12.579 3.251,1.512 5.474,2.737 5.944,2.638 0.575,-1.046 -13.103,-7.65 -18.417,-12.059 -5.352,-4.44 -7.687,-9.553 -10.351,-15.976 -0.239,-0.576 -0.447,-1.322 0.003,-1.753 0.3,-0.287 0.765,-0.29 1.18,-0.265 6.033,0.367 11.897,3.034 16.138,7.341 1.403,1.424 2.632,3.018 4.107,4.367 2.943,2.693 6.849,4.286 10.827,4.509 0.295,0.025 0.353,-0.399 0.062,-0.466 z" />
		</defs>
		
		
		
		
	
			
			
			
			
			
			
			
			
			
			
			
			
			
			
			
			
			
			
			
			
			
			
			
			
			
			
			
			
			
			
			
			
			
			
			
			
			
			
			
			
			
			
			
			
			
			
			
			
			
			
			
			
			
			
			
			
			
			
			
			
			
			
			
			
			
			
			
			
			
			
			
			
			
			
			
			
			
			
			
			
			
			
			
			
			
			
			
			
			
			
			
		<clipPath
   clipPathUnits="userSpaceOnUse"
   id="clipPath1580"><use
     xlink:href="#XMLID_232_"
     style="overflow:visible"
     id="use1581" /></clipPath><clipPath
   clipPathUnits="userSpaceOnUse"
   id="clipPath1581"><use
     xlink:href="#XMLID_232_"
     style="overflow:visible"
     id="use1582" /></clipPath><clipPath
   clipPathUnits="userSpaceOnUse"
   id="clipPath1582"><use
     xlink:href="#XMLID_232_"
     style="overflow:visible"
     id="use1583" /></clipPath><clipPath
   clipPathUnits="userSpaceOnUse"
   id="clipPath1583"><use
     xlink:href="#XMLID_232_"
     style="overflow:visible"
     id="use1584" /></clipPath><clipPath
   clipPathUnits="userSpaceOnUse"
   id="clipPath1584"><use
     xlink:href="#XMLID_232_"
     style="overflow:visible"
     id="use1585" /></clipPath><clipPath
   clipPathUnits="userSpaceOnUse"
   id="clipPath1585"><use
     xlink:href="#XMLID_232_"
     style="overflow:visible"
     id="use1586" /></clipPath><clipPath
   clipPathUnits="userSpaceOnUse"
   id="clipPath1586"><use
     xlink:href="#XMLID_232_"
     style="overflow:visible"
     id="use1587" /></clipPath><clipPath
   clipPathUnits="userSpaceOnUse"
   id="clipPath1587"><use
     xlink:href="#XMLID_232_"
     style="overflow:visible"
     id="use1588" /></clipPath><clipPath
   clipPathUnits="userSpaceOnUse"
   id="clipPath1588"><use
     xlink:href="#XMLID_232_"
     style="overflow:visible"
     id="use1589" /></clipPath><clipPath
   clipPathUnits="userSpaceOnUse"
   id="clipPath1589"><use
     xlink:href="#XMLID_232_"
     style="overflow:visible"
     id="use1590" /></clipPath><clipPath
   clipPathUnits="userSpaceOnUse"
   id="clipPath1590"><use
     xlink:href="#XMLID_232_"
     style="overflow:visible"
     id="use1591" /></clipPath><clipPath
   clipPathUnits="userSpaceOnUse"
   id="clipPath1591"><use
     xlink:href="#XMLID_232_"
     style="overflow:visible"
     id="use1592" /></clipPath><clipPath
   clipPathUnits="userSpaceOnUse"
   id="clipPath1592"><use
     xlink:href="#XMLID_232_"
     style="overflow:visible"
     id="use1593" /></clipPath><clipPath
   clipPathUnits="userSpaceOnUse"
   id="clipPath1593"><use
     xlink:href="#XMLID_232_"
     style="overflow:visible"
     id="use1594" /></clipPath><clipPath
   clipPathUnits="userSpaceOnUse"
   id="clipPath1594"><use
     xlink:href="#XMLID_232_"
     style="overflow:visible"
     id="use1595" /></clipPath><clipPath
   clipPathUnits="userSpaceOnUse"
   id="clipPath1595"><use
     xlink:href="#XMLID_232_"
     style="overflow:visible"
     id="use1596" /></clipPath><clipPath
   clipPathUnits="userSpaceOnUse"
   id="clipPath1596"><use
     xlink:href="#XMLID_232_"
     style="overflow:visible"
     id="use1597" /></clipPath><clipPath
   clipPathUnits="userSpaceOnUse"
   id="clipPath1597"><use
     xlink:href="#XMLID_232_"
     style="overflow:visible"
     id="use1598" /></clipPath><clipPath
   clipPathUnits="userSpaceOnUse"
   id="clipPath1598"><use
     xlink:href="#XMLID_232_"
     style="overflow:visible"
     id="use1599" /></clipPath><clipPath
   clipPathUnits="userSpaceOnUse"
   id="clipPath1599"><use
     xlink:href="#XMLID_232_"
     style="overflow:visible"
     id="use1600" /></clipPath><clipPath
   clipPathUnits="userSpaceOnUse"
   id="clipPath1600"><use
     xlink:href="#XMLID_232_"
     style="overflow:visible"
     id="use1601" /></clipPath><clipPath
   clipPathUnits="userSpaceOnUse"
   id="clipPath1601"><use
     xlink:href="#XMLID_232_"
     style="overflow:visible"
     id="use1602" /></clipPath><clipPath
   clipPathUnits="userSpaceOnUse"
   id="clipPath1602"><use
     xlink:href="#XMLID_232_"
     style="overflow:visible"
     id="use1603" /></clipPath><clipPath
   clipPathUnits="userSpaceOnUse"
   id="clipPath1603"><use
     xlink:href="#XMLID_232_"
     style="overflow:visible"
     id="use1604" /></clipPath><clipPath
   clipPathUnits="userSpaceOnUse"
   id="clipPath1604"><use
     xlink:href="#XMLID_232_"
     style="overflow:visible"
     id="use1605" /></clipPath><clipPath
   clipPathUnits="userSpaceOnUse"
   id="clipPath1605"><use
     xlink:href="#XMLID_232_"
     style="overflow:visible"
     id="use1606" /></clipPath><clipPath
   clipPathUnits="userSpaceOnUse"
   id="clipPath1606"><use
     xlink:href="#XMLID_232_"
     style="overflow:visible"
     id="use1607" /></clipPath><clipPath
   clipPathUnits="userSpaceOnUse"
   id="clipPath1607"><use
     xlink:href="#XMLID_232_"
     style="overflow:visible"
     id="use1608" /></clipPath><clipPath
   clipPathUnits="userSpaceOnUse"
   id="clipPath1608"><use
     xlink:href="#XMLID_232_"
     style="overflow:visible"
     id="use1609" /></clipPath><clipPath
   clipPathUnits="userSpaceOnUse"
   id="clipPath1609"><use
     xlink:href="#XMLID_232_"
     style="overflow:visible"
     id="use1610" /></clipPath><clipPath
   clipPathUnits="userSpaceOnUse"
   id="clipPath1610"><use
     xlink:href="#XMLID_232_"
     style="overflow:visible"
     id="use1611" /></clipPath><clipPath
   clipPathUnits="userSpaceOnUse"
   id="clipPath1611"><use
     xlink:href="#XMLID_232_"
     style="overflow:visible"
     id="use1612" /></clipPath><clipPath
   clipPathUnits="userSpaceOnUse"
   id="clipPath1612"><use
     xlink:href="#XMLID_232_"
     style="overflow:visible"
     id="use1613" /></clipPath><clipPath
   clipPathUnits="userSpaceOnUse"
   id="clipPath1613"><use
     xlink:href="#XMLID_232_"
     style="overflow:visible"
     id="use1614" /></clipPath><clipPath
   clipPathUnits="userSpaceOnUse"
   id="clipPath1614"><use
     xlink:href="#XMLID_232_"
     style="overflow:visible"
     id="use1615" /></clipPath><clipPath
   clipPathUnits="userSpaceOnUse"
   id="clipPath1615"><use
     xlink:href="#XMLID_232_"
     style="overflow:visible"
     id="use1616" /></clipPath><clipPath
   clipPathUnits="userSpaceOnUse"
   id="clipPath1616"><use
     xlink:href="#XMLID_232_"
     style="overflow:visible"
     id="use1617" /></clipPath><clipPath
   clipPathUnits="userSpaceOnUse"
   id="clipPath1617"><use
     xlink:href="#XMLID_232_"
     style="overflow:visible"
     id="use1618" /></clipPath><clipPath
   clipPathUnits="userSpaceOnUse"
   id="clipPath1618"><use
     xlink:href="#XMLID_232_"
     style="overflow:visible"
     id="use1619" /></clipPath><clipPath
   clipPathUnits="userSpaceOnUse"
   id="clipPath1619"><use
     xlink:href="#XMLID_232_"
     style="overflow:visible"
     id="use1620" /></clipPath><clipPath
   clipPathUnits="userSpaceOnUse"
   id="clipPath1620"><use
     xlink:href="#XMLID_232_"
     style="overflow:visible"
     id="use1621" /></clipPath><clipPath
   clipPathUnits="userSpaceOnUse"
   id="clipPath1621"><use
     xlink:href="#XMLID_232_"
     style="overflow:visible"
     id="use1622" /></clipPath><clipPath
   clipPathUnits="userSpaceOnUse"
   id="clipPath1622"><use
     xlink:href="#XMLID_232_"
     style="overflow:visible"
     id="use1623" /></clipPath><clipPath
   clipPathUnits="userSpaceOnUse"
   id="clipPath1623"><use
     xlink:href="#XMLID_232_"
     style="overflow:visible"
     id="use1624" /></clipPath><clipPath
   clipPathUnits="userSpaceOnUse"
   id="clipPath1624"><use
     xlink:href="#XMLID_232_"
     style="overflow:visible"
     id="use1625" /></clipPath><clipPath
   clipPathUnits="userSpaceOnUse"
   id="clipPath1625"><use
     xlink:href="#XMLID_232_"
     style="overflow:visible"
     id="use1626" /></clipPath><clipPath
   clipPathUnits="userSpaceOnUse"
   id="clipPath1626"><use
     xlink:href="#XMLID_232_"
     style="overflow:visible"
     id="use1627" /></clipPath><clipPath
   clipPathUnits="userSpaceOnUse"
   id="clipPath1627"><use
     xlink:href="#XMLID_232_"
     style="overflow:visible"
     id="use1628" /></clipPath><clipPath
   clipPathUnits="userSpaceOnUse"
   id="clipPath1628"><use
     xlink:href="#XMLID_232_"
     style="overflow:visible"
     id="use1629" /></clipPath><clipPath
   clipPathUnits="userSpaceOnUse"
   id="clipPath1629"><use
     xlink:href="#XMLID_232_"
     style="overflow:visible"
     id="use1630" /></clipPath><clipPath
   clipPathUnits="userSpaceOnUse"
   id="clipPath1630"><use
     xlink:href="#XMLID_232_"
     style="overflow:visible"
     id="use1631" /></clipPath><clipPath
   clipPathUnits="userSpaceOnUse"
   id="clipPath1631"><use
     xlink:href="#XMLID_232_"
     style="overflow:visible"
     id="use1632" /></clipPath><clipPath
   clipPathUnits="userSpaceOnUse"
   id="clipPath1632"><use
     xlink:href="#XMLID_232_"
     style="overflow:visible"
     id="use1633" /></clipPath><clipPath
   clipPathUnits="userSpaceOnUse"
   id="clipPath1633"><use
     xlink:href="#XMLID_232_"
     style="overflow:visible"
     id="use1634" /></clipPath><clipPath
   clipPathUnits="userSpaceOnUse"
   id="clipPath1634"><use
     xlink:href="#XMLID_232_"
     style="overflow:visible"
     id="use1635" /></clipPath><clipPath
   clipPathUnits="userSpaceOnUse"
   id="clipPath1635"><use
     xlink:href="#XMLID_232_"
     style="overflow:visible"
     id="use1636" /></clipPath><clipPath
   clipPathUnits="userSpaceOnUse"
   id="clipPath1636"><use
     xlink:href="#XMLID_232_"
     style="overflow:visible"
     id="use1637" /></clipPath><clipPath
   clipPathUnits="userSpaceOnUse"
   id="clipPath1637"><use
     xlink:href="#XMLID_232_"
     style="overflow:visible"
     id="use1638" /></clipPath><clipPath
   clipPathUnits="userSpaceOnUse"
   id="clipPath1638"><use
     xlink:href="#XMLID_232_"
     style="overflow:visible"
     id="use1639" /></clipPath><clipPath
   clipPathUnits="userSpaceOnUse"
   id="clipPath1639"><use
     xlink:href="#XMLID_232_"
     style="overflow:visible"
     id="use1640" /></clipPath><clipPath
   clipPathUnits="userSpaceOnUse"
   id="clipPath1640"><use
     xlink:href="#XMLID_232_"
     style="overflow:visible"
     id="use1641" /></clipPath><clipPath
   clipPathUnits="userSpaceOnUse"
   id="clipPath1641"><use
     xlink:href="#XMLID_232_"
     style="overflow:visible"
     id="use1642" /></clipPath><clipPath
   clipPathUnits="userSpaceOnUse"
   id="clipPath1642"><use
     xlink:href="#XMLID_232_"
     style="overflow:visible"
     id="use1643" /></clipPath><clipPath
   clipPathUnits="userSpaceOnUse"
   id="clipPath1643"><use
     xlink:href="#XMLID_232_"
     style="overflow:visible"
     id="use1644" /></clipPath><clipPath
   clipPathUnits="userSpaceOnUse"
   id="clipPath1644"><use
     xlink:href="#XMLID_232_"
     style="overflow:visible"
     id="use1645" /></clipPath><clipPath
   clipPathUnits="userSpaceOnUse"
   id="clipPath1645"><use
     xlink:href="#XMLID_232_"
     style="overflow:visible"
     id="use1646" /></clipPath><clipPath
   clipPathUnits="userSpaceOnUse"
   id="clipPath1646"><use
     xlink:href="#XMLID_232_"
     style="overflow:visible"
     id="use1647" /></clipPath><clipPath
   clipPathUnits="userSpaceOnUse"
   id="clipPath1647"><use
     xlink:href="#XMLID_232_"
     style="overflow:visible"
     id="use1648" /></clipPath><clipPath
   clipPathUnits="userSpaceOnUse"
   id="clipPath1648"><use
     xlink:href="#XMLID_232_"
     style="overflow:visible"
     id="use1649" /></clipPath><clipPath
   clipPathUnits="userSpaceOnUse"
   id="clipPath1649"><use
     xlink:href="#XMLID_232_"
     style="overflow:visible"
     id="use1650" /></clipPath><clipPath
   clipPathUnits="userSpaceOnUse"
   id="clipPath1650"><use
     xlink:href="#XMLID_232_"
     style="overflow:visible"
     id="use1651" /></clipPath><clipPath
   clipPathUnits="userSpaceOnUse"
   id="clipPath1651"><use
     xlink:href="#XMLID_232_"
     style="overflow:visible"
     id="use1652" /></clipPath><clipPath
   clipPathUnits="userSpaceOnUse"
   id="clipPath1652"><use
     xlink:href="#XMLID_232_"
     style="overflow:visible"
     id="use1653" /></clipPath><clipPath
   clipPathUnits="userSpaceOnUse"
   id="clipPath1653"><use
     xlink:href="#XMLID_232_"
     style="overflow:visible"
     id="use1654" /></clipPath><clipPath
   clipPathUnits="userSpaceOnUse"
   id="clipPath1654"><use
     xlink:href="#XMLID_232_"
     style="overflow:visible"
     id="use1655" /></clipPath><clipPath
   clipPathUnits="userSpaceOnUse"
   id="clipPath1655"><use
     xlink:href="#XMLID_232_"
     style="overflow:visible"
     id="use1656" /></clipPath><clipPath
   clipPathUnits="userSpaceOnUse"
   id="clipPath1656"><use
     xlink:href="#XMLID_232_"
     style="overflow:visible"
     id="use1657" /></clipPath><clipPath
   clipPathUnits="userSpaceOnUse"
   id="clipPath1657"><use
     xlink:href="#XMLID_232_"
     style="overflow:visible"
     id="use1658" /></clipPath><clipPath
   clipPathUnits="userSpaceOnUse"
   id="clipPath1658"><use
     xlink:href="#XMLID_232_"
     style="overflow:visible"
     id="use1659" /></clipPath><clipPath
   clipPathUnits="userSpaceOnUse"
   id="clipPath1659"><use
     xlink:href="#XMLID_232_"
     style="overflow:visible"
     id="use1660" /></clipPath><clipPath
   clipPathUnits="userSpaceOnUse"
   id="clipPath1660"><use
     xlink:href="#XMLID_232_"
     style="overflow:visible"
     id="use1661" /></clipPath><clipPath
   clipPathUnits="userSpaceOnUse"
   id="clipPath1661"><use
     xlink:href="#XMLID_232_"
     style="overflow:visible"
     id="use1662" /></clipPath><clipPath
   clipPathUnits="userSpaceOnUse"
   id="clipPath1662"><use
     xlink:href="#XMLID_232_"
     style="overflow:visible"
     id="use1663" /></clipPath><clipPath
   clipPathUnits="userSpaceOnUse"
   id="clipPath1663"><use
     xlink:href="#XMLID_232_"
     style="overflow:visible"
     id="use1664" /></clipPath><clipPath
   clipPathUnits="userSpaceOnUse"
   id="clipPath1664"><use
     xlink:href="#XMLID_232_"
     style="overflow:visible"
     id="use1665" /></clipPath><clipPath
   clipPathUnits="userSpaceOnUse"
   id="clipPath1665"><use
     xlink:href="#XMLID_232_"
     style="overflow:visible"
     id="use1666" /></clipPath><clipPath
   clipPathUnits="userSpaceOnUse"
   id="clipPath1666"><use
     xlink:href="#XMLID_232_"
     style="overflow:visible"
     id="use1667" /></clipPath><clipPath
   clipPathUnits="userSpaceOnUse"
   id="clipPath1667"><use
     xlink:href="#XMLID_232_"
     style="overflow:visible"
     id="use1668" /></clipPath><clipPath
   clipPathUnits="userSpaceOnUse"
   id="clipPath1668"><use
     xlink:href="#XMLID_232_"
     style="overflow:visible"
     id="use1669" /></clipPath>
			
			
			
			
			
			
			
			
			
			
			
			
			
			
			
			
			
			
			
			
			
			
			
			
			
			
			
			
			
			
			
			
			
			
			
			
			
			
			
			
			
			
			
			
			
			
			
			
			
			
			
			
			
			
			
			
			
			
			
			
			
			
			
			
			
			
			
			
			
			
			
			
			
			
			
			
			
			
			
			
			
			
			
			
			
			
			
			
			
			
			
		<clipPath
   clipPathUnits="userSpaceOnUse"
   id="clipPath1669"><use
     xlink:href="#XMLID_232_"
     style="overflow:visible"
     id="use1670" /></clipPath><clipPath
   clipPathUnits="userSpaceOnUse"
   id="clipPath1670"><use
     xlink:href="#XMLID_232_"
     style="overflow:visible"
     id="use1671" /></clipPath><clipPath
   clipPathUnits="userSpaceOnUse"
   id="clipPath1671"><use
     xlink:href="#XMLID_232_"
     style="overflow:visible"
     id="use1672" /></clipPath><clipPath
   clipPathUnits="userSpaceOnUse"
   id="clipPath1672"><use
     xlink:href="#XMLID_232_"
     style="overflow:visible"
     id="use1673" /></clipPath><clipPath
   clipPathUnits="userSpaceOnUse"
   id="clipPath1673"><use
     xlink:href="#XMLID_232_"
     style="overflow:visible"
     id="use1674" /></clipPath><clipPath
   clipPathUnits="userSpaceOnUse"
   id="clipPath1674"><use
     xlink:href="#XMLID_232_"
     style="overflow:visible"
     id="use1675" /></clipPath><clipPath
   clipPathUnits="userSpaceOnUse"
   id="clipPath1675"><use
     xlink:href="#XMLID_232_"
     style="overflow:visible"
     id="use1676" /></clipPath><clipPath
   clipPathUnits="userSpaceOnUse"
   id="clipPath1676"><use
     xlink:href="#XMLID_232_"
     style="overflow:visible"
     id="use1677" /></clipPath><clipPath
   clipPathUnits="userSpaceOnUse"
   id="clipPath1677"><use
     xlink:href="#XMLID_232_"
     style="overflow:visible"
     id="use1678" /></clipPath><clipPath
   clipPathUnits="userSpaceOnUse"
   id="clipPath1678"><use
     xlink:href="#XMLID_232_"
     style="overflow:visible"
     id="use1679" /></clipPath><clipPath
   clipPathUnits="userSpaceOnUse"
   id="clipPath1679"><use
     xlink:href="#XMLID_232_"
     style="overflow:visible"
     id="use1680" /></clipPath><clipPath
   clipPathUnits="userSpaceOnUse"
   id="clipPath1680"><use
     xlink:href="#XMLID_232_"
     style="overflow:visible"
     id="use1681" /></clipPath><clipPath
   clipPathUnits="userSpaceOnUse"
   id="clipPath1681"><use
     xlink:href="#XMLID_232_"
     style="overflow:visible"
     id="use1682" /></clipPath><clipPath
   clipPathUnits="userSpaceOnUse"
   id="clipPath1682"><use
     xlink:href="#XMLID_232_"
     style="overflow:visible"
     id="use1683" /></clipPath><clipPath
   clipPathUnits="userSpaceOnUse"
   id="clipPath1683"><use
     xlink:href="#XMLID_232_"
     style="overflow:visible"
     id="use1684" /></clipPath><clipPath
   clipPathUnits="userSpaceOnUse"
   id="clipPath1684"><use
     xlink:href="#XMLID_232_"
     style="overflow:visible"
     id="use1685" /></clipPath><clipPath
   clipPathUnits="userSpaceOnUse"
   id="clipPath1685"><use
     xlink:href="#XMLID_232_"
     style="overflow:visible"
     id="use1686" /></clipPath><clipPath
   clipPathUnits="userSpaceOnUse"
   id="clipPath1686"><use
     xlink:href="#XMLID_232_"
     style="overflow:visible"
     id="use1687" /></clipPath><clipPath
   clipPathUnits="userSpaceOnUse"
   id="clipPath1687"><use
     xlink:href="#XMLID_232_"
     style="overflow:visible"
     id="use1688" /></clipPath><clipPath
   clipPathUnits="userSpaceOnUse"
   id="clipPath1688"><use
     xlink:href="#XMLID_232_"
     style="overflow:visible"
     id="use1689" /></clipPath><clipPath
   clipPathUnits="userSpaceOnUse"
   id="clipPath1689"><use
     xlink:href="#XMLID_232_"
     style="overflow:visible"
     id="use1690" /></clipPath><clipPath
   clipPathUnits="userSpaceOnUse"
   id="clipPath1690"><use
     xlink:href="#XMLID_232_"
     style="overflow:visible"
     id="use1691" /></clipPath><clipPath
   clipPathUnits="userSpaceOnUse"
   id="clipPath1691"><use
     xlink:href="#XMLID_232_"
     style="overflow:visible"
     id="use1692" /></clipPath><clipPath
   clipPathUnits="userSpaceOnUse"
   id="clipPath1692"><use
     xlink:href="#XMLID_232_"
     style="overflow:visible"
     id="use1693" /></clipPath><clipPath
   clipPathUnits="userSpaceOnUse"
   id="clipPath1693"><use
     xlink:href="#XMLID_232_"
     style="overflow:visible"
     id="use1694" /></clipPath><clipPath
   clipPathUnits="userSpaceOnUse"
   id="clipPath1694"><use
     xlink:href="#XMLID_232_"
     style="overflow:visible"
     id="use1695" /></clipPath><clipPath
   clipPathUnits="userSpaceOnUse"
   id="clipPath1695"><use
     xlink:href="#XMLID_232_"
     style="overflow:visible"
     id="use1696" /></clipPath><clipPath
   clipPathUnits="userSpaceOnUse"
   id="clipPath1696"><use
     xlink:href="#XMLID_232_"
     style="overflow:visible"
     id="use1697" /></clipPath><clipPath
   clipPathUnits="userSpaceOnUse"
   id="clipPath1697"><use
     xlink:href="#XMLID_232_"
     style="overflow:visible"
     id="use1698" /></clipPath><clipPath
   clipPathUnits="userSpaceOnUse"
   id="clipPath1698"><use
     xlink:href="#XMLID_232_"
     style="overflow:visible"
     id="use1699" /></clipPath><clipPath
   clipPathUnits="userSpaceOnUse"
   id="clipPath1699"><use
     xlink:href="#XMLID_232_"
     style="overflow:visible"
     id="use1700" /></clipPath><clipPath
   clipPathUnits="userSpaceOnUse"
   id="clipPath1700"><use
     xlink:href="#XMLID_232_"
     style="overflow:visible"
     id="use1701" /></clipPath><clipPath
   clipPathUnits="userSpaceOnUse"
   id="clipPath1701"><use
     xlink:href="#XMLID_232_"
     style="overflow:visible"
     id="use1702" /></clipPath><clipPath
   clipPathUnits="userSpaceOnUse"
   id="clipPath1702"><use
     xlink:href="#XMLID_232_"
     style="overflow:visible"
     id="use1703" /></clipPath><clipPath
   clipPathUnits="userSpaceOnUse"
   id="clipPath1703"><use
     xlink:href="#XMLID_232_"
     style="overflow:visible"
     id="use1704" /></clipPath><clipPath
   clipPathUnits="userSpaceOnUse"
   id="clipPath1704"><use
     xlink:href="#XMLID_232_"
     style="overflow:visible"
     id="use1705" /></clipPath><clipPath
   clipPathUnits="userSpaceOnUse"
   id="clipPath1705"><use
     xlink:href="#XMLID_232_"
     style="overflow:visible"
     id="use1706" /></clipPath><clipPath
   clipPathUnits="userSpaceOnUse"
   id="clipPath1706"><use
     xlink:href="#XMLID_232_"
     style="overflow:visible"
     id="use1707" /></clipPath><clipPath
   clipPathUnits="userSpaceOnUse"
   id="clipPath1707"><use
     xlink:href="#XMLID_232_"
     style="overflow:visible"
     id="use1708" /></clipPath><clipPath
   clipPathUnits="userSpaceOnUse"
   id="clipPath1708"><use
     xlink:href="#XMLID_232_"
     style="overflow:visible"
     id="use1709" /></clipPath><clipPath
   clipPathUnits="userSpaceOnUse"
   id="clipPath1709"><use
     xlink:href="#XMLID_232_"
     style="overflow:visible"
     id="use1710" /></clipPath><clipPath
   clipPathUnits="userSpaceOnUse"
   id="clipPath1710"><use
     xlink:href="#XMLID_232_"
     style="overflow:visible"
     id="use1711" /></clipPath><clipPath
   clipPathUnits="userSpaceOnUse"
   id="clipPath1711"><use
     xlink:href="#XMLID_232_"
     style="overflow:visible"
     id="use1712" /></clipPath><clipPath
   clipPathUnits="userSpaceOnUse"
   id="clipPath1712"><use
     xlink:href="#XMLID_232_"
     style="overflow:visible"
     id="use1713" /></clipPath><clipPath
   clipPathUnits="userSpaceOnUse"
   id="clipPath1713"><use
     xlink:href="#XMLID_232_"
     style="overflow:visible"
     id="use1714" /></clipPath><clipPath
   clipPathUnits="userSpaceOnUse"
   id="clipPath1714"><use
     xlink:href="#XMLID_232_"
     style="overflow:visible"
     id="use1715" /></clipPath><clipPath
   clipPathUnits="userSpaceOnUse"
   id="clipPath1715"><use
     xlink:href="#XMLID_232_"
     style="overflow:visible"
     id="use1716" /></clipPath><clipPath
   clipPathUnits="userSpaceOnUse"
   id="clipPath1716"><use
     xlink:href="#XMLID_232_"
     style="overflow:visible"
     id="use1717" /></clipPath><clipPath
   clipPathUnits="userSpaceOnUse"
   id="clipPath1717"><use
     xlink:href="#XMLID_232_"
     style="overflow:visible"
     id="use1718" /></clipPath><clipPath
   clipPathUnits="userSpaceOnUse"
   id="clipPath1718"><use
     xlink:href="#XMLID_232_"
     style="overflow:visible"
     id="use1719" /></clipPath><clipPath
   clipPathUnits="userSpaceOnUse"
   id="clipPath1719"><use
     xlink:href="#XMLID_232_"
     style="overflow:visible"
     id="use1720" /></clipPath><clipPath
   clipPathUnits="userSpaceOnUse"
   id="clipPath1720"><use
     xlink:href="#XMLID_232_"
     style="overflow:visible"
     id="use1721" /></clipPath><clipPath
   clipPathUnits="userSpaceOnUse"
   id="clipPath1721"><use
     xlink:href="#XMLID_232_"
     style="overflow:visible"
     id="use1722" /></clipPath><clipPath
   clipPathUnits="userSpaceOnUse"
   id="clipPath1722"><use
     xlink:href="#XMLID_232_"
     style="overflow:visible"
     id="use1723" /></clipPath><clipPath
   clipPathUnits="userSpaceOnUse"
   id="clipPath1723"><use
     xlink:href="#XMLID_232_"
     style="overflow:visible"
     id="use1724" /></clipPath><clipPath
   clipPathUnits="userSpaceOnUse"
   id="clipPath1724"><use
     xlink:href="#XMLID_232_"
     style="overflow:visible"
     id="use1725" /></clipPath><clipPath
   clipPathUnits="userSpaceOnUse"
   id="clipPath1725"><use
     xlink:href="#XMLID_232_"
     style="overflow:visible"
     id="use1726" /></clipPath><clipPath
   clipPathUnits="userSpaceOnUse"
   id="clipPath1726"><use
     xlink:href="#XMLID_232_"
     style="overflow:visible"
     id="use1727" /></clipPath><clipPath
   clipPathUnits="userSpaceOnUse"
   id="clipPath1727"><use
     xlink:href="#XMLID_232_"
     style="overflow:visible"
     id="use1728" /></clipPath><clipPath
   clipPathUnits="userSpaceOnUse"
   id="clipPath1728"><use
     xlink:href="#XMLID_232_"
     style="overflow:visible"
     id="use1729" /></clipPath><clipPath
   clipPathUnits="userSpaceOnUse"
   id="clipPath1729"><use
     xlink:href="#XMLID_232_"
     style="overflow:visible"
     id="use1730" /></clipPath><clipPath
   clipPathUnits="userSpaceOnUse"
   id="clipPath1730"><use
     xlink:href="#XMLID_232_"
     style="overflow:visible"
     id="use1731" /></clipPath><clipPath
   clipPathUnits="userSpaceOnUse"
   id="clipPath1731"><use
     xlink:href="#XMLID_232_"
     style="overflow:visible"
     id="use1732" /></clipPath><clipPath
   clipPathUnits="userSpaceOnUse"
   id="clipPath1732"><use
     xlink:href="#XMLID_232_"
     style="overflow:visible"
     id="use1733" /></clipPath><clipPath
   clipPathUnits="userSpaceOnUse"
   id="clipPath1733"><use
     xlink:href="#XMLID_232_"
     style="overflow:visible"
     id="use1734" /></clipPath><clipPath
   clipPathUnits="userSpaceOnUse"
   id="clipPath1734"><use
     xlink:href="#XMLID_232_"
     style="overflow:visible"
     id="use1735" /></clipPath><clipPath
   clipPathUnits="userSpaceOnUse"
   id="clipPath1735"><use
     xlink:href="#XMLID_232_"
     style="overflow:visible"
     id="use1736" /></clipPath><clipPath
   clipPathUnits="userSpaceOnUse"
   id="clipPath1736"><use
     xlink:href="#XMLID_232_"
     style="overflow:visible"
     id="use1737" /></clipPath><clipPath
   clipPathUnits="userSpaceOnUse"
   id="clipPath1737"><use
     xlink:href="#XMLID_232_"
     style="overflow:visible"
     id="use1738" /></clipPath><clipPath
   clipPathUnits="userSpaceOnUse"
   id="clipPath1738"><use
     xlink:href="#XMLID_232_"
     style="overflow:visible"
     id="use1739" /></clipPath><clipPath
   clipPathUnits="userSpaceOnUse"
   id="clipPath1739"><use
     xlink:href="#XMLID_232_"
     style="overflow:visible"
     id="use1740" /></clipPath><clipPath
   clipPathUnits="userSpaceOnUse"
   id="clipPath1740"><use
     xlink:href="#XMLID_232_"
     style="overflow:visible"
     id="use1741" /></clipPath><clipPath
   clipPathUnits="userSpaceOnUse"
   id="clipPath1741"><use
     xlink:href="#XMLID_232_"
     style="overflow:visible"
     id="use1742" /></clipPath><clipPath
   clipPathUnits="userSpaceOnUse"
   id="clipPath1742"><use
     xlink:href="#XMLID_232_"
     style="overflow:visible"
     id="use1743" /></clipPath><clipPath
   clipPathUnits="userSpaceOnUse"
   id="clipPath1743"><use
     xlink:href="#XMLID_232_"
     style="overflow:visible"
     id="use1744" /></clipPath><clipPath
   clipPathUnits="userSpaceOnUse"
   id="clipPath1744"><use
     xlink:href="#XMLID_232_"
     style="overflow:visible"
     id="use1745" /></clipPath><clipPath
   clipPathUnits="userSpaceOnUse"
   id="clipPath1745"><use
     xlink:href="#XMLID_232_"
     style="overflow:visible"
     id="use1746" /></clipPath><clipPath
   clipPathUnits="userSpaceOnUse"
   id="clipPath1746"><use
     xlink:href="#XMLID_232_"
     style="overflow:visible"
     id="use1747" /></clipPath><clipPath
   clipPathUnits="userSpaceOnUse"
   id="clipPath1747"><use
     xlink:href="#XMLID_232_"
     style="overflow:visible"
     id="use1748" /></clipPath><clipPath
   clipPathUnits="userSpaceOnUse"
   id="clipPath1748"><use
     xlink:href="#XMLID_232_"
     style="overflow:visible"
     id="use1749" /></clipPath><clipPath
   clipPathUnits="userSpaceOnUse"
   id="clipPath1749"><use
     xlink:href="#XMLID_232_"
     style="overflow:visible"
     id="use1750" /></clipPath><clipPath
   clipPathUnits="userSpaceOnUse"
   id="clipPath1750"><use
     xlink:href="#XMLID_232_"
     style="overflow:visible"
     id="use1751" /></clipPath><clipPath
   clipPathUnits="userSpaceOnUse"
   id="clipPath1751"><use
     xlink:href="#XMLID_232_"
     style="overflow:visible"
     id="use1752" /></clipPath><clipPath
   clipPathUnits="userSpaceOnUse"
   id="clipPath1752"><use
     xlink:href="#XMLID_232_"
     style="overflow:visible"
     id="use1753" /></clipPath><clipPath
   clipPathUnits="userSpaceOnUse"
   id="clipPath1753"><use
     xlink:href="#XMLID_232_"
     style="overflow:visible"
     id="use1754" /></clipPath><clipPath
   clipPathUnits="userSpaceOnUse"
   id="clipPath1754"><use
     xlink:href="#XMLID_232_"
     style="overflow:visible"
     id="use1755" /></clipPath><clipPath
   clipPathUnits="userSpaceOnUse"
   id="clipPath1755"><use
     xlink:href="#XMLID_232_"
     style="overflow:visible"
     id="use1756" /></clipPath><clipPath
   clipPathUnits="userSpaceOnUse"
   id="clipPath1756"><use
     xlink:href="#XMLID_232_"
     style="overflow:visible"
     id="use1757" /></clipPath><clipPath
   clipPathUnits="userSpaceOnUse"
   id="clipPath1757"><use
     xlink:href="#XMLID_232_"
     style="overflow:visible"
     id="use1758" /></clipPath><clipPath
   clipPathUnits="userSpaceOnUse"
   id="clipPath1758"><use
     xlink:href="#XMLID_232_"
     style="overflow:visible"
     id="use1759" /></clipPath><clipPath
   clipPathUnits="userSpaceOnUse"
   id="clipPath1759"><use
     xlink:href="#XMLID_232_"
     style="overflow:visible"
     id="use1760" /></clipPath></defs><sodipodi:namedview
   id="namedview1008"
   pagecolor="#ffffff"
   bordercolor="#000000"
   borderopacity="0.25"
   inkscape:showpageshadow="2"
   inkscape:pageopacity="0.0"
   inkscape:pagecheckerboard="0"
   inkscape:deskcolor="#d1d1d1"
   inkscape:zoom="4"
   inkscape:cx="123.375"
   inkscape:cy="78.625"
   inkscape:window-width="2880"
   inkscape:window-height="1766"
   inkscape:window-x="-11"
   inkscape:window-y="-11"
   inkscape:window-maximized="1"
   inkscape:current-layer="svg1008" />


			
		<g
   id="g1760"
   transform="translate(-277.34257,-315.90787)"><path
     id="use1"
     d="m 363.94698,361.25787 c -4.291,-0.978 -8.212,-4.068 -11.15,-7.417 -3.726,-4.247 -7.168,-9.118 -12.34,-11.391 -7.508,-3.3 -17.064,-0.361 -23.83,-4.997 -1.507,-1.033 -2.769,-2.387 -4.254,-3.452 -5.949,-4.269 -14.315,-3.238 -20.764,-6.704 -4.43,-2.381 -7.495,-6.625 -11.253,-9.968 -5.231,-4.653 -2.835,8.416 1.058,10.699 4.498,2.638 9.125,5.39 12.213,9.593 4.522,6.154 4.978,14.262 6.274,21.788 1.162,6.744 3.167,13.439 6.834,19.218 3.147,4.96 7.614,9.212 12.957,11.575 0.226,0.1 0.399,-0.22 0.189,-0.35 -6.445,-3.988 -10.578,-10.778 -12.263,-18.331 -0.203,-0.909 -0.363,-1.97 -0.497,-3.135 0.354,0.485 0.762,0.944 1.165,1.356 0.355,0.362 0.737,0.74 1.231,0.855 0.514,0.12 1.043,-0.068 1.564,-0.16 1.798,-0.315 4.568,2.041 5.282,1.884 0.619,-0.136 -1.429,-3.13 -2.981,-3.748 -1.259,-0.501 -2.787,-0.508 -3.738,-1.474 -1.13,-1.147 -0.866,-3.016 -1.282,-4.57 -0.041,-0.155 -0.091,-0.307 -0.148,-0.456 -1.021,-2.665 -1.887,-5.392 -2.111,-8.238 -0.156,-1.978 -0.349,-3.953 -0.612,-5.856 0.208,0.361 0.392,0.737 0.555,1.108 0.631,1.443 1.193,3.035 2.475,3.949 2.187,1.558 5.463,0.454 7.723,1.903 1.277,0.818 6.08,9.272 7.044,8.647 0.615,-0.323 -1.528,-3.693 -2.292,-5.539 -0.698,-1.687 -1.451,-3.449 -2.879,-4.585 -2.232,-1.776 -5.723,-1.707 -7.478,-3.955 -1.258,-1.611 -1.171,-3.863 -1.807,-5.805 -1.066,-3.255 -4.055,-5.405 -6.937,-7.292 0.016,-0.061 0.016,-0.061 0.031,-0.122 7.467,-0.063 22.47,10.28 24.739,12.423 3.409,3.22 5.901,7.857 8.684,11.632 3.747,5.082 12.988,9.735 19.105,12.579 3.251,1.512 5.474,2.737 5.944,2.638 0.575,-1.046 -13.103,-7.65 -18.417,-12.059 -5.352,-4.44 -7.687,-9.553 -10.351,-15.976 -0.239,-0.576 -0.447,-1.322 0.003,-1.753 0.3,-0.287 0.765,-0.29 1.18,-0.265 6.033,0.367 11.897,3.034 16.138,7.341 1.403,1.424 2.632,3.018 4.107,4.367 2.943,2.693 6.849,4.286 10.827,4.509 0.295,0.025 0.353,-0.399 0.062,-0.466 z"
     style="fill:#944929"
     sodipodi:nodetypes="cccccccccccsccccccccccccccccccccscccccccscccccc" /><g
     style="opacity:0.3"
     id="g75"
     transform="translate(-20.20202,-27.946128)"
     clip-path="url(#clipPath1723)">
				<g
   id="g74">
					<path
   style="fill:#ffffff"
   d="m 299.192,358.669 c -0.559,2.451 0.504,4.905 2.242,6.623 0.863,0.853 1.877,1.55 2.934,2.139 1.098,0.612 2.31,1.233 3.605,1.107 0.635,-0.062 0.641,-1.062 0,-1 -1.149,0.112 -2.197,-0.461 -3.168,-1.008 -0.917,-0.516 -1.794,-1.11 -2.556,-1.84 -1.534,-1.469 -2.585,-3.601 -2.094,-5.756 0.144,-0.625 -0.82,-0.893 -0.963,-0.265 z"
   id="path73" />
				</g>
			</g><g
     style="opacity:0.3"
     id="g79"
     transform="translate(-20.20202,-27.946128)"
     clip-path="url(#clipPath1721)">
				<g
   id="g78">
					<path
   style="fill:#ffffff"
   d="m 298.972,349.474 c 2.343,1.48 4.127,3.674 6.423,5.22 1.173,0.79 2.456,1.349 3.851,1.6 1.708,0.307 3.516,0.243 5.148,0.898 0.632,0.253 1.241,0.614 1.712,1.111 0.601,0.635 0.792,1.384 0.862,2.236 0.064,0.784 0.132,1.541 0.373,2.294 0.253,0.79 0.617,1.539 0.975,2.285 0.759,1.58 1.384,3.162 1.094,4.944 -0.268,1.643 -1.152,3.179 -2.495,4.174 -0.511,0.379 -0.013,1.247 0.505,0.863 2.577,-1.91 3.714,-5.332 2.669,-8.387 -0.584,-1.707 -1.688,-3.235 -2.009,-5.031 -0.167,-0.931 -0.072,-1.895 -0.43,-2.79 -0.283,-0.707 -0.761,-1.293 -1.358,-1.759 -1.356,-1.059 -3.042,-1.355 -4.708,-1.542 -1.915,-0.214 -3.668,-0.487 -5.325,-1.527 -2.613,-1.639 -4.532,-4.182 -7.221,-5.719 -1.80196,-1.77853 -1.53279,0.24611 -0.066,1.13 z"
   id="path77"
   sodipodi:nodetypes="scccccccccccccccccs" />
				</g>
			</g><g
     style="opacity:0.3"
     id="g81"
     transform="translate(-20.20202,-27.946128)"
     clip-path="url(#clipPath1720)">
				<g
   id="g80">
					<path
   style="fill:#ffffff"
   d="m 298.573,356.528 c -0.271,-1.153 0.988,-1.914 1.987,-1.894 1.123,0.022 2.165,0.645 3.096,1.212 1.726,1.05 3.337,2.306 5.211,3.092 0.932,0.391 1.867,0.587 2.866,0.707 1.052,0.126 1.885,0.434 2.342,1.464 0.853,1.926 0.112,4.413 -1.12,5.995 -0.391,0.502 0.312,1.214 0.707,0.707 1.194,-1.531 1.899,-3.475 1.728,-5.435 -0.159,-1.821 -1.13,-3.353 -3.023,-3.651 -0.997,-0.157 -1.95,-0.249 -2.901,-0.617 -0.945,-0.366 -1.826,-0.889 -2.68,-1.432 -1.692,-1.074 -3.443,-2.562 -5.457,-2.954 -0.99,-0.193 -1.991,-0.06 -2.792,0.581 -0.761,0.608 -1.155,1.53 -0.929,2.491 0.148,0.626 1.112,0.361 0.965,-0.266 z"
   id="path79" />
				</g>
			</g><g
     style="opacity:0.3"
     id="g83"
     transform="translate(-20.20202,-27.946128)"
     clip-path="url(#clipPath1719)">
				<g
   id="g82">
					<path
   style="fill:#ffffff"
   d="m 299.564,346.218 c 2.81164,3.09089 5.22568,0.20469 3.372,0.386 -1.675,-0.032 -3.197,-1.126 -3.681,-2.75 -0.32933,0.72052 -2.52901,-0.41492 0.309,2.364 z"
   id="path81"
   sodipodi:nodetypes="cccc" />
				</g>
			</g><g
     style="opacity:0.3"
     id="g85"
     transform="translate(-20.20202,-27.946128)"
     clip-path="url(#clipPath1718)">
				<g
   id="g84">
					<path
   style="fill:#ffffff"
   d="m 318.967,391.906 c -0.278,-1.174 -0.477,-2.361 -0.573,-3.564 -0.08,-1.006 -0.294,-2.357 0.096,-3.316 0.35,-0.86 1.305,-1.289 2.026,-1.789 0.688,-0.478 1.273,-1.061 1.736,-1.761 0.963,-1.455 1.323,-3.307 0.956,-5.014 -0.208,-0.968 -0.827,-1.87 -0.805,-2.881 0.021,-0.94 0.58,-1.764 1.265,-2.368 1.908,-1.682 4.716,-1.438 7.075,-1.732 0.63,-0.079 0.638,-1.079 0,-1 -2.261,0.282 -4.755,0.123 -6.792,1.307 -1.598,0.928 -2.855,2.658 -2.472,4.577 0.214,1.073 0.802,2.002 0.865,3.116 0.055,0.985 -0.15,1.989 -0.595,2.87 -0.456,0.902 -1.119,1.614 -1.957,2.171 -0.762,0.506 -1.612,0.987 -2.076,1.81 -0.596,1.057 -0.421,2.5 -0.346,3.66 0.091,1.409 0.308,2.807 0.633,4.18 0.148,0.625 1.112,0.36 0.964,-0.266 z"
   id="path83" />
				</g>
			</g><g
     style="opacity:0.3"
     id="g87"
     transform="translate(-20.20202,-27.946128)"
     clip-path="url(#clipPath1717)">
				<g
   id="g86">
					<path
   style="fill:#ffffff"
   d="m 328.637,357.749 c -0.742,0.914 -0.76,2.047 -0.285,3.098 0.553,1.222 1.649,1.945 2.841,2.467 1.353,0.592 2.698,1.061 3.872,1.99 1.139,0.901 2.112,1.99 3.167,2.984 1.935,1.824 4.748,3.618 7.508,2.621 1.348,-0.487 2.37,-1.577 3.74,-2.014 1.508,-0.482 3.117,-0.399 4.679,-0.441 3.796,-0.102 7.57,-0.728 11.202,-1.834 0.614,-0.187 0.352,-1.152 -0.266,-0.964 -3.014,0.917 -6.118,1.507 -9.262,1.719 -2.695,0.182 -5.648,-0.228 -8.07,1.217 -1.158,0.691 -2.173,1.578 -3.595,1.592 -1.364,0.014 -2.656,-0.606 -3.753,-1.37 -2.15,-1.497 -3.645,-3.768 -5.921,-5.114 -1.288,-0.761 -2.799,-1.075 -4.047,-1.906 -0.973,-0.648 -2.004,-2.228 -1.103,-3.336 0.403,-0.497 -0.301,-1.209 -0.707,-0.709 z"
   id="path85" />
				</g>
			</g><g
     style="opacity:0.3"
     id="g89"
     transform="translate(-20.20202,-27.946128)"
     clip-path="url(#clipPath1716)">
				<g
   id="g88">
					<path
   style="fill:#ffffff"
   d="m 369.164,371.661 c -1.545,-0.239 -3.204,-0.085 -4.525,0.821 -1.169,0.802 -1.956,2.182 -1.909,3.619 0.022,0.68 0.237,1.327 0.619,1.889 0.426,0.628 1.015,1.136 1.411,1.784 0.946,1.546 -0.669,2.739 -1.851,3.475 -0.545,0.34 -0.044,1.205 0.505,0.863 1.087,-0.677 2.334,-1.563 2.602,-2.904 0.288,-1.442 -0.776,-2.412 -1.587,-3.434 -0.929,-1.17 -0.896,-2.682 0.07,-3.839 1.049,-1.256 2.86,-1.549 4.399,-1.311 0.63,0.098 0.901,-0.865 0.266,-0.963 z"
   id="path87" />
				</g>
			</g><g
     style="opacity:0.3"
     id="g91"
     transform="translate(-20.20202,-27.946128)"
     clip-path="url(#clipPath1715)">
				<g
   id="g90">
					<path
   style="fill:#ffffff"
   d="m 346.631,379.837 c 0.041,-0.765 0.775,-1.207 1.464,-1.333 0.875,-0.16 1.687,0.238 2.396,0.715 0.785,0.528 1.539,1.15 2.273,1.749 0.831,0.679 0.896,1.628 1.13,2.607 0.416,1.747 1.243,3.458 2.565,4.698 0.76,0.713 1.698,1.205 2.443,1.935 0.625,0.613 1.094,1.373 1.411,2.187 0.735,1.883 0.804,3.955 0.842,5.951 0.012,0.643 1.012,0.645 1,0 -0.039,-2.021 -0.114,-4.128 -0.814,-6.047 -0.329,-0.901 -0.786,-1.743 -1.42,-2.466 -0.773,-0.883 -1.823,-1.418 -2.683,-2.199 -0.836,-0.759 -1.458,-1.729 -1.886,-2.769 -0.426,-1.038 -0.513,-2.154 -0.889,-3.199 -0.365,-1.014 -1.161,-1.515 -1.967,-2.156 -0.827,-0.658 -1.637,-1.364 -2.629,-1.762 -1.67,-0.67 -4.125,0.013 -4.237,2.089 -0.034,0.643 0.966,0.641 1.001,0 z"
   id="path89" />
				</g>
			</g><g
     style="opacity:0.3"
     id="g93"
     transform="translate(-20.20202,-27.946128)"
     clip-path="url(#clipPath1714)">
				<g
   id="g92">
					<path
   style="fill:#ffffff"
   d="m 324.657,411.058 c -0.707,-2.238 -1.066,-4.562 -1.039,-6.911 0.014,-1.224 0.128,-2.447 0.351,-3.652 0.091,-0.489 0.18,-0.991 0.334,-1.465 0.202,-0.624 0.605,-0.877 1.17,-1.149 1.461,-0.703 2.476,-2.056 2.766,-3.655 0.14,-0.769 0.127,-1.569 -0.09,-2.323 -0.262,-0.909 -0.943,-1.592 -1.245,-2.473 -0.255,-0.743 0.245,-0.967 0.895,-1.119 0.636,-0.148 1.285,-0.225 1.937,-0.237 1.324,-0.026 2.613,0.226 3.844,0.707 0.6,0.234 0.86,-0.732 0.266,-0.964 -2.096,-0.818 -4.825,-1.131 -6.967,-0.276 -2.421,0.967 0.04,3.413 0.365,4.859 0.41,1.824 -0.523,3.756 -2.186,4.575 -1.005,0.495 -1.543,1.042 -1.818,2.148 -0.296,1.19 -0.474,2.418 -0.564,3.641 -0.212,2.886 0.145,5.802 1.016,8.56 0.194,0.611 1.16,0.35 0.965,-0.266 z"
   id="path91" />
				</g>
			</g><g
     style="opacity:0.3"
     id="g95"
     transform="translate(-20.20202,-27.946128)"
     clip-path="url(#clipPath1713)">
				<g
   id="g94">
					<path
   style="fill:#ffffff"
   d="m 329.617,413.613 c -0.562,-1.603 -1.177,-3.407 -0.759,-5.118 0.35,-1.435 1.311,-2.507 2.782,-2.76 1.333,-0.229 1.63,-1.361 1.388,-2.557 -0.348,-1.719 -0.957,-3.421 -1.438,-5.108 -0.176,-0.618 -1.141,-0.355 -0.964,0.266 0.473,1.664 1.057,3.335 1.421,5.027 0.065,0.305 0.147,0.704 0.023,1.005 -0.141,0.342 -0.464,0.359 -0.788,0.418 -0.649,0.119 -1.216,0.355 -1.736,0.767 -2.603,2.063 -1.839,5.631 -0.894,8.326 0.213,0.604 1.179,0.344 0.965,-0.266 z"
   id="path93" />
				</g>
			</g><g
     style="opacity:0.3"
     id="g97"
     transform="translate(-20.20202,-27.946128)"
     clip-path="url(#clipPath1712)">
				<g
   id="g96">
					<path
   style="fill:#ffffff"
   d="m 321.064,391.88 c 2.18,0.209 3.18,-2.134 3.282,-3.933 0.102,-1.812 -0.252,-5.448 2.62,-5.114 0.907,0.106 1.899,1.028 2.814,0.543 0.736,-0.39 0.917,-1.307 0.891,-2.066 -0.019,-0.54 -0.169,-1.267 0.365,-1.615 0.453,-0.295 1.123,-0.232 1.633,-0.204 1.174,0.065 2.322,0.353 3.442,0.696 2.461,0.754 4.84,1.79 7.44,1.951 0.643,0.04 0.64,-0.96 0,-1 -2.356,-0.147 -4.549,-1.076 -6.772,-1.789 -1.04,-0.333 -2.094,-0.62 -3.178,-0.766 -0.952,-0.129 -2.11,-0.269 -2.994,0.209 -0.974,0.527 -0.97,1.545 -0.935,2.518 0.012,0.339 0.022,1.073 -0.407,1.201 -0.367,0.109 -1.131,-0.431 -1.497,-0.534 -2.098,-0.591 -3.783,0.632 -4.236,2.689 -0.271,1.231 -0.073,2.49 -0.22,3.731 -0.139,1.177 -0.859,2.615 -2.246,2.482 -0.642,-0.06 -0.638,0.94 -0.002,1.001 z"
   id="path95" />
				</g>
			</g><g
     id="g262"
     transform="matrix(0.79231338,0,0,0.95723459,46.14871,-11.900763)"
     clip-path="url(#clipPath1630)">
				<g
   id="g261">
					<path
   style="fill:#7a361e"
   d="m 292.11333,347.56823 c 1.12728,-0.0369 4.10038,2.18477 5.17538,2.86377 2.343,1.48 4.81029,2.716 7.10629,4.262 1.173,0.79 2.456,1.349 3.851,1.6 1.708,0.307 3.516,0.243 5.148,0.898 0.632,0.253 1.241,0.614 1.712,1.111 0.602,0.635 0.792,1.384 0.862,2.236 0.064,0.784 0.132,1.541 0.373,2.294 0.253,0.79 0.617,1.539 0.975,2.285 0.759,1.58 1.384,3.162 1.094,4.944 -0.268,1.643 -1.152,3.179 -2.495,4.174 -0.511,0.379 -0.013,1.247 0.505,0.863 2.577,-1.91 3.714,-5.332 2.669,-8.387 -0.584,-1.707 -1.688,-3.235 -2.009,-5.031 -0.167,-0.931 -0.072,-1.895 -0.43,-2.79 -0.283,-0.707 -0.761,-1.293 -1.358,-1.759 -1.356,-1.059 -3.042,-1.355 -4.708,-1.542 -1.915,-0.214 -3.668,-0.487 -5.325,-1.527 -2.613,-1.639 -4.46228,-2.64689 -7.15228,-4.18389 -1.428,-0.816 -4.73396,-3.53206 -6.14335,-3.38512 -0.104,0.12693 0.0387,0.60438 0.14996,1.07424 z"
   id="path260"
   sodipodi:nodetypes="csccccccccccscccccscc" />
				</g>
			</g><g
     id="g264"
     transform="matrix(0.96336326,0,0,1,-8.6828638,-27.946128)"
     clip-path="url(#clipPath1629)">
				<g
   id="g263">
					<path
   style="fill:#7a361e"
   d="m 299.74535,354.52984 c 1.123,0.022 1.97965,0.74916 2.91065,1.31616 1.726,1.05 3.337,2.306 5.211,3.092 0.932,0.391 1.867,0.587 2.866,0.707 1.052,0.126 1.885,0.434 2.342,1.464 0.853,1.926 0.112,4.413 -1.12,5.995 -0.391,0.502 0.312,1.214 0.707,0.707 1.194,-1.531 1.899,-3.475 1.728,-5.435 -0.159,-1.821 -1.131,-3.353 -3.023,-3.651 -0.997,-0.157 -1.95,-0.249 -2.901,-0.617 -0.945,-0.366 -1.826,-0.889 -2.68,-1.432 -1.692,-1.074 -3.443,-2.562 -5.457,-2.954 -0.76708,-0.34778 -2.33339,-0.78763 -0.58365,0.80784 z"
   id="path262"
   sodipodi:nodetypes="cccccsccscccc" />
				</g>
			</g><g
     id="g268"
     transform="translate(-20.20202,-27.946128)"
     clip-path="url(#clipPath1627)">
				<g
   id="g267">
					<path
   style="fill:#7a361e"
   d="m 317.967,391.906 c -0.278,-1.174 -0.477,-2.361 -0.573,-3.564 -0.08,-1.006 -0.294,-2.357 0.096,-3.316 0.35,-0.86 1.305,-1.289 2.026,-1.789 0.688,-0.478 1.273,-1.061 1.736,-1.761 0.963,-1.455 1.323,-3.307 0.956,-5.014 -0.208,-0.968 -0.827,-1.87 -0.805,-2.881 0.021,-0.94 0.58,-1.764 1.265,-2.368 1.908,-1.682 4.716,-1.438 7.075,-1.732 0.63,-0.079 0.638,-1.079 0,-1 -2.261,0.282 -4.755,0.123 -6.792,1.307 -1.598,0.928 -2.854,2.658 -2.472,4.577 0.214,1.073 0.802,2.002 0.865,3.116 0.055,0.985 -0.15,1.989 -0.595,2.87 -0.456,0.902 -1.119,1.614 -1.957,2.171 -0.762,0.506 -1.612,0.987 -2.076,1.81 -0.596,1.057 -0.421,2.5 -0.346,3.66 0.091,1.409 0.308,2.807 0.633,4.18 0.148,0.625 1.112,0.36 0.964,-0.266 z"
   id="path266" />
				</g>
			</g><g
     id="g270"
     transform="translate(-20.20202,-27.946128)"
     clip-path="url(#clipPath1626)">
				<g
   id="g269">
					<path
   style="fill:#7a361e"
   d="m 327.637,357.749 c -0.742,0.914 -0.76,2.047 -0.285,3.098 0.553,1.222 1.649,1.945 2.841,2.467 1.353,0.592 2.698,1.061 3.872,1.99 1.139,0.901 2.112,1.99 3.167,2.984 1.935,1.824 4.748,3.618 7.508,2.621 1.348,-0.487 2.37,-1.577 3.74,-2.014 1.508,-0.482 3.117,-0.399 4.679,-0.441 3.796,-0.102 7.57,-0.728 11.202,-1.834 0.614,-0.187 0.352,-1.152 -0.266,-0.964 -3.014,0.917 -6.118,1.507 -9.262,1.719 -2.695,0.182 -5.648,-0.228 -8.07,1.217 -1.158,0.691 -2.174,1.578 -3.595,1.592 -1.364,0.014 -2.656,-0.606 -3.753,-1.37 -2.15,-1.497 -3.645,-3.768 -5.921,-5.114 -1.288,-0.761 -2.799,-1.075 -4.047,-1.906 -0.973,-0.648 -2.004,-2.228 -1.103,-3.336 0.403,-0.497 -0.301,-1.209 -0.707,-0.709 z"
   id="path268" />
				</g>
			</g><g
     id="g272"
     transform="translate(-20.20202,-27.946128)"
     clip-path="url(#clipPath1625)">
				<g
   id="g271">
					<path
   style="fill:#7a361e"
   d="m 368.164,371.661 c -1.545,-0.239 -3.204,-0.085 -4.525,0.821 -1.169,0.802 -1.956,2.182 -1.909,3.619 0.022,0.68 0.237,1.327 0.619,1.889 0.426,0.628 1.015,1.136 1.411,1.784 0.946,1.546 -0.669,2.739 -1.851,3.475 -0.545,0.34 -0.044,1.205 0.505,0.863 1.087,-0.677 2.334,-1.563 2.603,-2.904 0.288,-1.442 -0.776,-2.412 -1.587,-3.434 -0.929,-1.17 -0.896,-2.682 0.07,-3.839 1.049,-1.256 2.86,-1.549 4.399,-1.311 0.629,0.098 0.9,-0.865 0.265,-0.963 z"
   id="path270" />
				</g>
			</g><g
     id="g274"
     transform="translate(-20.20202,-27.946128)"
     clip-path="url(#clipPath1624)">
				<g
   id="g273">
					<path
   style="fill:#7a361e"
   d="m 345.631,379.837 c 0.041,-0.765 0.775,-1.207 1.464,-1.333 0.875,-0.16 1.687,0.238 2.396,0.715 0.785,0.528 1.539,1.15 2.273,1.749 0.831,0.679 0.896,1.628 1.13,2.607 0.416,1.747 1.243,3.458 2.565,4.698 0.76,0.713 1.698,1.205 2.443,1.935 0.625,0.613 1.094,1.373 1.411,2.187 0.735,1.883 0.804,3.955 0.842,5.951 0.012,0.643 1.012,0.645 1,0 -0.039,-2.021 -0.114,-4.128 -0.814,-6.047 -0.329,-0.901 -0.786,-1.743 -1.42,-2.466 -0.773,-0.883 -1.823,-1.418 -2.683,-2.199 -0.836,-0.759 -1.458,-1.729 -1.886,-2.769 -0.426,-1.038 -0.513,-2.154 -0.889,-3.199 -0.365,-1.014 -1.161,-1.515 -1.967,-2.156 -0.827,-0.658 -1.637,-1.364 -2.629,-1.762 -1.67,-0.67 -4.125,0.013 -4.237,2.089 -0.034,0.643 0.966,0.641 1.001,0 z"
   id="path272" />
				</g>
			</g><g
     id="g276"
     transform="translate(-20.20202,-27.946128)"
     clip-path="url(#clipPath1623)">
				<g
   id="g275">
					<path
   style="fill:#7a361e"
   d="m 323.657,411.058 c -0.707,-2.238 -1.066,-4.562 -1.039,-6.911 0.014,-1.224 0.128,-2.447 0.351,-3.652 0.091,-0.489 0.18,-0.991 0.334,-1.465 0.202,-0.624 0.605,-0.877 1.17,-1.149 1.461,-0.703 2.476,-2.056 2.766,-3.655 0.14,-0.769 0.127,-1.569 -0.09,-2.323 -0.262,-0.909 -0.943,-1.592 -1.245,-2.473 -0.255,-0.743 0.245,-0.967 0.895,-1.119 0.636,-0.148 1.285,-0.225 1.937,-0.237 1.324,-0.026 2.613,0.226 3.844,0.707 0.6,0.234 0.86,-0.732 0.266,-0.964 -2.096,-0.818 -4.825,-1.131 -6.967,-0.276 -2.421,0.967 0.04,3.413 0.365,4.859 0.41,1.824 -0.523,3.756 -2.186,4.575 -1.005,0.495 -1.543,1.042 -1.818,2.148 -0.296,1.19 -0.474,2.418 -0.564,3.641 -0.212,2.886 0.145,5.802 1.016,8.56 0.194,0.611 1.16,0.35 0.965,-0.266 z"
   id="path274" />
				</g>
			</g><g
     id="g278"
     transform="translate(-20.20202,-27.946128)"
     clip-path="url(#clipPath1622)">
				<g
   id="g277">
					<path
   style="fill:#7a361e"
   d="m 328.617,413.613 c -0.562,-1.603 -1.177,-3.407 -0.759,-5.118 0.35,-1.435 1.311,-2.507 2.782,-2.76 1.333,-0.229 1.63,-1.361 1.388,-2.557 -0.348,-1.719 -0.957,-3.421 -1.438,-5.108 -0.176,-0.618 -1.141,-0.355 -0.964,0.266 0.473,1.664 1.057,3.335 1.421,5.027 0.066,0.305 0.147,0.704 0.023,1.005 -0.141,0.342 -0.464,0.359 -0.788,0.418 -0.649,0.119 -1.216,0.355 -1.736,0.767 -2.603,2.063 -1.839,5.631 -0.894,8.326 0.213,0.604 1.179,0.344 0.965,-0.266 z"
   id="path276" />
				</g>
			</g><g
     id="g280"
     transform="translate(-20.20202,-27.946128)"
     clip-path="url(#clipPath1621)">
				<g
   id="g279">
					<path
   style="fill:#7a361e"
   d="m 320.064,391.88 c 2.18,0.209 3.18,-2.134 3.282,-3.933 0.102,-1.812 -0.252,-5.448 2.62,-5.114 0.907,0.106 1.899,1.028 2.814,0.543 0.736,-0.39 0.917,-1.307 0.891,-2.066 -0.019,-0.54 -0.169,-1.267 0.365,-1.615 0.453,-0.295 1.123,-0.232 1.633,-0.204 1.174,0.065 2.322,0.353 3.442,0.696 2.461,0.754 4.84,1.79 7.44,1.951 0.643,0.04 0.64,-0.96 0,-1 -2.356,-0.147 -4.549,-1.076 -6.772,-1.789 -1.04,-0.333 -2.094,-0.62 -3.178,-0.766 -0.952,-0.129 -2.11,-0.269 -2.994,0.209 -0.974,0.527 -0.97,1.545 -0.935,2.518 0.012,0.339 0.022,1.073 -0.407,1.201 -0.367,0.109 -1.131,-0.431 -1.497,-0.534 -2.098,-0.591 -3.783,0.632 -4.236,2.689 -0.271,1.231 -0.073,2.49 -0.22,3.731 -0.139,1.177 -0.859,2.615 -2.246,2.482 -0.642,-0.06 -0.638,0.94 -0.002,1.001 z"
   id="path278" />
				</g>
			</g><g
     id="g344"
     transform="translate(-20.20202,-27.946128)">
				<g
   id="g343">
					
				</g>
			</g><g
     id="g364"
     transform="translate(-20.20202,-27.946128)">
				<g
   id="g363">
					
				</g>
			</g></g>
			
		
</svg>
