<?xml version="1.0" encoding="UTF-8" standalone="no"?>
<!-- Created with Inkscape (http://www.inkscape.org/) -->

<svg
   id="svg1901"
   style="enable-background:new"
   sodipodi:docname="russula.svg"
   inkscape:export-filename="/media/photo_mnt/Vektorikuvat/Bittikarttakuvat/Talouspaperi/Sienipolku.png"
   viewBox="0 0 31.168858 26.728277"
   sodipodi:version="0.32"
   inkscape:export-xdpi="90"
   version="1.1"
   inkscape:export-ydpi="90"
   inkscape:version="1.4.3 (0d15f75, 2025-12-25)"
   width="31.168858"
   height="26.728277"
   xmlns:inkscape="http://www.inkscape.org/namespaces/inkscape"
   xmlns:sodipodi="http://sodipodi.sourceforge.net/DTD/sodipodi-0.dtd"
   xmlns="http://www.w3.org/2000/svg"
   xmlns:svg="http://www.w3.org/2000/svg"
   xmlns:rdf="http://www.w3.org/1999/02/22-rdf-syntax-ns#"
   xmlns:cc="http://creativecommons.org/ns#"
   xmlns:dc="http://purl.org/dc/elements/1.1/">
  <defs
     id="defs1" />
  <title
     id="title4392">Mushrooms 1</title>
  <sodipodi:namedview
     id="base"
     fit-margin-left="0"
     inkscape:zoom="43.540441"
     borderopacity="1.0"
     inkscape:current-layer="g7140"
     inkscape:cx="15.962172"
     inkscape:cy="16.938276"
     inkscape:snap-grids="false"
     inkscape:window-maximized="1"
     showgrid="false"
     fit-margin-right="0"
     inkscape:guide-bbox="true"
     showguides="true"
     bordercolor="#666666"
     inkscape:window-x="-11"
     inkscape:window-y="-11"
     fit-margin-bottom="0"
     inkscape:window-width="2880"
     inkscape:pageopacity="0.0"
     inkscape:pageshadow="2"
     pagecolor="#ffffff"
     inkscape:snap-to-guides="false"
     inkscape:document-units="px"
     inkscape:window-height="1766"
     fit-margin-top="0"
     inkscape:showpageshadow="2"
     inkscape:pagecheckerboard="0"
     inkscape:deskcolor="#d1d1d1" />
  <g
     id="layer1"
     inkscape:label="Taso 1"
     inkscape:groupmode="layer"
     transform="translate(-123.72309,-928.52995)">
    <g
       id="g7140"
       transform="matrix(0.091134,0,0,0.13989,105.439,900.889)">
      <path
         id="path7142"
         sodipodi:nodetypes="cccccccccccccccccccccccccc"
         style="color:#000000;fill:#ff4a40;enable-background:accumulate;fill-opacity:1"
         inkscape:connector-curvature="0"
         d="m 484,200.28 c -0.82058,2.1194 5.1178,3.6979 6.0776,5.4657 2.0722,2.0852 3.277,5.1595 2.0982,8.0079 -3.0024,9.7807 -12.817,15.804 -22.143,18.456 -13.586,3.2589 -26.792,7.9505 -40.376,11.145 -7.6198,1.7875 -15.58,0.68742 -23.246,2.3864 -10.36,1.6158 -20.189,5.793 -30.667,6.7281 -24.298,2.8857 -48.843,1.5055 -73.22,0.56057 -18.298,-0.96405 -36.757,-1.2442 -54.652,-5.5404 -5.0518,-1.5109 -11.252,-1.0667 -15.031,-5.3443 -3.4791,-3.5527 0.11509,-10.694 1.6392,-15.417 -0.81509,-2.3287 -8.1666,1.869 -9.5248,2.4247 -10.191,5.8035 -20.106,15.938 -24.039,27.283 1.8417,4.8813 4.8275,8.0431 9.9299,10.217 9.5271,5.2838 20.417,6.9015 30.601,10.389 14.74,2.7148 29.836,2.8044 44.785,3.2681 14.908,-0.0137 29.819,1.1713 44.721,0.50532 11.642,-1.1273 23.304,-1.9875 34.998,-2.3738 10.472,-0.17369 20.775,-2.0282 30.907,-4.5605 9.8841,-2.3527 19.998,-3.9179 30.212,-3.6137 12.346,-0.34127 23.482,-6.427 35.336,-9.1948 23.246,-6.2826 46.794,-12.301 69.037,-21.707 4.8952,-2.6752 10.125,-3.845 10.971,-9.8431 0.38411,-4.74 -5.5696,-11.64 -8.6887,-14.525 -12.95,-10.146 -29.748,-12.984 -45.686,-14.735 -0.38921,-0.16883 -3.6658,-0.0355 -4.0379,0.0182 z" />
      <path
         id="path7144"
         style="color:#000000;fill:#ef6960;enable-background:accumulate;fill-opacity:1"
         inkscape:connector-curvature="0"
         d="m 406.83,197.63 c -20.464,0.21326 -40.952,-0.0771 -61.396,0.89095 -26.83,2.8036 -53.391,7.904 -79.836,13.219 -8.9199,1.4917 -16.681,6.304 -24.979,9.645 -4.0376,2.1969 -9.4446,3.4478 -11.755,7.8011 -2.0395,6.3317 1.8266,13.852 7.8324,16.41 15.933,4.1271 32.278,6.6674 48.75,7.2739 29.434,1.4599 59.017,3.2502 88.431,0.54521 13.58,-1.1627 26.194,-7.0082 39.774,-7.9388 6.3929,-0.32721 12.851,-0.35676 19.058,-2.1453 12.176,-3.1155 24.108,-7.1472 36.311,-10.169 10.086,-2.581 20.373,-8.8378 23.781,-19.175 1.6524,-4.3996 -1.527,-8.4099 -4.4794,-11.308 -1.4327,-2.5839 -4.1784,-2.7817 -6.8238,-2.8939 -24.822,-2.1583 -49.769,-2.2984 -74.668,-2.1542 z m -26.742,7.9122 c 16.953,0.16037 34.152,1.4486 50.293,6.8218 3.4802,1.7648 6.8185,4.5732 8.3511,8.2181 1.3283,1.9817 0.11814,4.4416 -1.9548,5.2793 -8.2459,3.1473 -17.241,3.9622 -25.904,5.7713 -13.416,2.3451 -26.839,4.7156 -40.49,4.9117 -10.73,0.5283 -21.328,2.6359 -32.103,2.5183 -11.604,0.64767 -23.291,-0.53714 -34.522,-3.321 -3.5009,-0.49336 -5.2387,-4.1891 -4.7074,-7.4335 0.3842,-5.6046 6.0136,-8.8447 10.239,-11.569 12.88,-7.1306 27.959,-8.242 42.274,-10.213 9.4726,-0.94755 19.013,-0.96743 28.524,-0.98404 z" />
      <path
         id="path7146"
         sodipodi:nodetypes="ccccccccccccccc"
         style="color:#000000;fill:#bf5245;enable-background:accumulate;fill-opacity:1"
         inkscape:connector-curvature="0"
         d="m 393.02,210.11 c -5.7204,-0.15181 -11.219,1.2913 -16.696,2.5469 -7.9964,1.6803 -16.117,0.41283 -24.034,-0.7487 -9.4752,-0.79142 -18.842,1.6223 -27.914,4.0262 -4.6184,2.0259 -9.5583,3.9628 -13.271,7.4468 -1.9936,2.3746 0.86474,4.9216 2.9787,5.758 6.5718,3.9705 16.917,4.8087 24.36,4.1136 3.8094,-0.26492 6.1502,-2.0486 8.9907,1.2188 2.5482,1.491 5.1333,-1.2134 7.5075,-1.9604 4.6401,-2.6213 9.7085,-4.4531 15.112,-4.2364 9.9867,-0.56943 19.737,1.8328 29.628,2.4734 5.909,-0.068 12.134,-2.2213 16.21,-6.609 2.4368,-2.5435 1.5729,-6.5145 -0.97074,-8.617 -2.4804,-3.0615 -6.0982,-5.0078 -10.066,-5.0133 -3.9312,-0.37591 -7.8874,-0.51936 -11.835,-0.39894 z" />
      <path
         id="path7148"
         style="color:#000000;fill:#bbb4a4;enable-background:accumulate"
         inkscape:connector-curvature="0"
         d="m 403.73,288.62 c -13.683,0.94534 -27.488,-0.23518 -41.098,1.6497 -5.4444,0.87885 -10.732,2.6695 -16.295,2.8184 -1.9453,1.5999 -0.46734,5.0277 -0.97492,7.3666 -0.3808,15.1 0.19031,30.303 -1.2059,45.333 -0.54345,7.1328 -5.6228,13.723 -3.8963,21.037 2.3618,6.6044 9.5059,9.4086 14.694,13.358 4.3798,3.5013 10.109,4.417 15.107,6.7227 3.6253,1.5769 7.9514,1.5222 11.662,0.33133 5.8944,-3.004 11.758,-6.3942 16.822,-10.718 5.0002,-11.446 10.745,-22.749 12.841,-35.164 2.749,-11.7 0.69348,-23.832 0.0613,-35.679 -0.64124,-5.4607 -0.67561,-11.1 -2.1172,-16.404 -1.3794,-1.3042 -3.8903,-0.42946 -5.5984,-0.6516 z" />
      <path
         id="path7150"
         sodipodi:nodetypes="cccaacccccccccccc"
         style="color:#000000;fill:#aaa294;enable-background:accumulate"
         inkscape:connector-curvature="0"
         d="m 394.55,287.65 c -16.376,0.24772 -32.829,0.94999 -48.835,4.7159 -1.3389,4.546 -0.65184,10.934 0.36738,15.52 11.228,2.1488 25.275,-7.4819 34.491,-0.60518 8.064,6.0173 7.7796,19.025 8.0843,29.082 0.52763,17.416 -5.7925,34.403 -10.925,51.117 1.9383,2.9652 6.3069,-0.42174 8.4091,-1.9602 1.7501,0.11684 3.371,-0.64045 4.4602,-1.9034 2.1087,-3.1423 6.8675,-5.1214 9.238,-7.6053 -0.45955,-2.0628 1.4705,-1.4764 1.5575,-3.0197 2.9716,-6.1994 1.3562,-14.514 1.9705,-21.534 0.73249,-7.59 0.39668,-15.049 -1.7707,-22.406 -1.1376,-7.1299 -4.7402,-14.696 -0.65436,-21.572 0.63882,-3.584 3.2522,-6.0842 7.0027,-5.7292 2.7016,0.12562 4.2228,-2.613 2.5718,-5.35 -0.46181,-3.5119 1.1038,-8.4673 -3.8926,-8.523 -4.0046,-0.47261 -8.0517,-0.25787 -12.074,-0.22727 z" />
      <path
         id="path7152"
         sodipodi:nodetypes="ccccccccccccccccccccccccccccc"
         style="color:#000000;fill:#e96060;enable-background:accumulate;fill-opacity:1"
         inkscape:connector-curvature="0"
         d="m 375.64,204.76 c -10.567,0.11037 -21.182,0.15203 -31.635,1.8734 -13.075,1.7616 -26.735,3.7092 -37.964,11.152 -4.0213,2.5703 -7.9896,6.4882 -7.8869,11.607 -0.30234,3.3353 2.1269,6.6702 5.4777,7.211 9.0459,2.1697 18.341,3.6249 27.672,3.3871 9.9192,0.12454 19.818,-0.56682 29.666,-1.7133 10.597,-1.0735 21.29,-1.0684 31.819,-2.7924 12.478,-1.8814 24.921,-3.9938 37.256,-6.6478 2.9748,-0.91057 6.3267,-1.3302 8.8225,-3.305 1.9248,-1.7875 1.3417,-4.6329 0,-6.5564 -2.6954,-5.2814 -8.4392,-7.9047 -13.95,-9.1645 -16.013,-4.3175 -32.757,-5.2697 -49.276,-5.0511 z m 18.627,6.2412 c 4.8634,0.11137 9.8533,-0.0331 14.566,1.243 3.1026,1.3205 6.1672,3.7058 7.3267,6.9765 0.69997,2.1049 -0.51867,4.1249 -2.1526,5.3857 -4.8488,4.2076 -17.986,5.811 -24.303,4.8472 -10.994,-3.805 -20.19,-4.4041 -25.671,-1.4531 -5.299,1.0169 -9.7761,4.4039 -14.89,5.8648 -1.8794,0.0113 -6.5258,-2.9544 -8.4471,-3.0521 -5.9753,-0.80012 -8.4384,1.4374 -14.442,0.91926 -5.0132,-0.28474 -10.009,-1.9803 -14.042,-5.0101 -0.78492,-0.76051 -1.3598,-2.295 -0.0733,-2.9116 4.1496,-3.5827 9.4267,-5.8514 14.587,-7.5313 8.6198,-2.2022 17.398,-4.3174 26.374,-3.3088 8.6608,1.1369 17.61,2.3247 26.185,-0.0486 4.9526,-1.1084 9.8849,-2.0121 14.983,-1.9209 z" />
      <path
         id="path7154"
         sodipodi:nodetypes="ccccccccccccccccccccccc"
         style="color:#000000;fill:#c8c8c8;enable-background:accumulate;fill-opacity:1"
         inkscape:connector-curvature="0"
         d="m 540.45,228.57 c -1.302,1.5689 -0.81972,2.8796 -2.4174,4.3685 -4.6742,6.3692 -12.878,8.0779 -19.806,10.858 -20.351,7.4027 -41.409,12.571 -62.251,18.454 -9.645,2.5911 -18.786,7.3424 -28.954,7.1968 -11.428,0.0717 -22.74,1.8211 -33.814,4.5471 -11.057,2.9596 -22.499,3.7136 -33.923,4.0766 -9.9492,0.12931 -19.803,1.6454 -29.724,2.115 -16.673,0.54735 -33.336,-0.86737 -49.999,-0.5854 -12.414,-0.65915 -25.027,-0.80965 -37.21,-3.1945 -9.6146,-2.6468 -19.56,-4.9175 -28.61,-9.1041 -3.8334,-1.6938 -7.8899,-3.7574 -9.5336,-7.8869 -0.49887,-1.5875 -3.054,-5.5807 -3.5794,-2.1303 0.33654,11.44 9.4296,20.512 19.425,24.834 14.854,6.5366 31.383,7.0504 47.284,9.1075 17.686,1.8429 35.427,3.5971 53.234,3.1354 11.607,-0.3843 23.411,0.52628 34.84,-1.8757 17.242,-4.4446 35.399,-2.076 53.029,-3.6241 10.41,-0.9475 19.841,-5.7715 29.879,-8.318 24.109,-7.1281 48.931,-12.492 72.418,-21.718 9.7034,-4.1691 19.361,-8.7362 27.931,-14.956 3.4871,-2.8521 3.6775,-7.9228 3.9713,-12.088 -0.15922,-1.3338 0.31643,-4.0161 -2.1922,-3.2117 z" />
    </g>
  </g>
  <metadata
     id="metadata1">
    <rdf:RDF>
      <cc:Work>
        <dc:format>image/svg+xml</dc:format>
        <dc:type
           rdf:resource="http://purl.org/dc/dcmitype/StillImage" />
        <cc:license
           rdf:resource="http://creativecommons.org/licenses/publicdomain/" />
        <dc:publisher>
          <cc:Agent
             rdf:about="http://openclipart.org/">
            <dc:title>Openclipart</dc:title>
          </cc:Agent>
        </dc:publisher>
        <dc:title>Mushrooms 1</dc:title>
        <dc:date>2012-11-30T11:09:36</dc:date>
        <dc:description>Mushrooms part 1</dc:description>
        <dc:source>https://openclipart.org/detail/173450/mushrooms-1-by-opk-173450</dc:source>
        <dc:creator>
          <cc:Agent>
            <dc:title>opk</dc:title>
          </cc:Agent>
        </dc:creator>
        <dc:subject>
          <rdf:Bag>
            <rdf:li>fungus</rdf:li>
            <rdf:li>mushroom</rdf:li>
            <rdf:li>mushrooms</rdf:li>
          </rdf:Bag>
        </dc:subject>
      </cc:Work>
      <cc:License
         rdf:about="http://creativecommons.org/licenses/publicdomain/">
        <cc:permits
           rdf:resource="http://creativecommons.org/ns#Reproduction" />
        <cc:permits
           rdf:resource="http://creativecommons.org/ns#Distribution" />
        <cc:permits
           rdf:resource="http://creativecommons.org/ns#DerivativeWorks" />
      </cc:License>
    </rdf:RDF>
  </metadata>
</svg>
