<?xml version="1.0" encoding="UTF-8" standalone="no"?>
<svg
   version="1.1"
   width="345"
   height="471"
   id="svg125"
   sodipodi:docname="salt.svg"
   inkscape:version="1.4.2 (f4327f4, 2025-05-13)"
   xmlns:inkscape="http://www.inkscape.org/namespaces/inkscape"
   xmlns:sodipodi="http://sodipodi.sourceforge.net/DTD/sodipodi-0.dtd"
   xmlns="http://www.w3.org/2000/svg"
   xmlns:svg="http://www.w3.org/2000/svg">
  <defs
     id="defs125" />
  <sodipodi:namedview
     id="namedview125"
     pagecolor="#ffffff"
     bordercolor="#000000"
     borderopacity="0.25"
     inkscape:showpageshadow="2"
     inkscape:pageopacity="0.0"
     inkscape:pagecheckerboard="0"
     inkscape:deskcolor="#d1d1d1"
     inkscape:zoom="2.2294131"
     inkscape:cx="166.41151"
     inkscape:cy="189.96031"
     inkscape:window-width="2880"
     inkscape:window-height="1766"
     inkscape:window-x="-11"
     inkscape:window-y="-11"
     inkscape:window-maximized="1"
     inkscape:current-layer="svg125" />
  <path
     d="m 190,9 c 26.03232,9.132495 52.39157,19.110351 74.39361,36.189307 21.25142,45.159737 65.59843,79.219733 72.09791,131.010743 2.2077,56.34707 7.66711,112.68024 7.35124,169.0555 -4.62685,25.67313 -16.35638,49.58649 -27.32187,72.89396 -16.15647,19.42052 -32.97573,41.91632 -58.01564,49.60076 -28.72131,1.9524 -57.63209,1.94524 -86.36117,1.90138 C 131.34009,465.71799 91.478402,454.31346 52.625809,442.03756 30.108448,426.58231 32.075522,396.37159 22.140795,373.6013 12.70714,339.92713 -3.1971989,306.62511 0.75251392,270.78286 3.1912114,229.76494 14.032285,189.72459 23.987891,150.12587 35.504669,128.5751 62.200344,113.40291 59.919351,86.0137 62.494352,57.692278 88.978098,41.362111 108.06308,23.756022 130.84084,5.8395456 162.42709,-3.5636769 190,9 Z"
     fill="#fefefe"
     id="path1" />
  <path
     d="m 190,9 c 26.03232,9.132495 52.39157,19.110351 74.39361,36.189307 21.25142,45.159737 65.59843,79.219733 72.09791,131.010743 2.2077,56.34707 7.66711,112.68024 7.35124,169.0555 -4.62685,25.67313 -16.35638,49.58649 -27.32187,72.89396 -16.15647,19.42052 -32.97573,41.91632 -58.01564,49.60076 -28.72131,1.9524 -57.63209,1.94524 -86.36117,1.90138 C 131.34009,465.71799 91.478402,454.31346 52.625809,442.03756 30.108448,426.58231 32.075522,396.37159 22.140795,373.6013 12.70714,339.92713 -3.1971989,306.62511 0.75251392,270.78286 3.1912114,229.76494 14.032285,189.72459 23.987891,150.12587 35.504669,128.5751 62.200344,113.40291 59.919351,86.0137 62.494352,57.692278 88.978098,41.362111 108.06308,23.756022 130.84084,5.8395456 162.42709,-3.5636769 190,9 Z m -47.12109,3.183594 C 118.52256,27.785065 96.183436,46.284149 74.604989,65.482239 61.912876,87.188856 70.508707,120.46635 44.772016,134.17681 24.193417,152.59989 28.089549,182.81853 21.028531,207.19656 15.719477,234.77666 7.9643585,262.1022 7.006595,290.32798 c 6.983122,22.62652 10.934146,52.86663 22.295386,70.09521 15.000075,-10.13034 15.681482,-34.94254 20.511873,-50.47563 -14.386691,-6.92143 -13.535499,-41.59606 5.723645,-38.73594 3.093304,-19.32302 27.496649,-38.02816 16.96162,-57.34688 -9.776276,-5.60847 -32.058597,-25.80407 -10.134761,-28.939 22.303099,4.10983 53.933752,25.55739 37.006134,51.01388 -17.198223,19.88269 -32.785473,48.73076 -10.070148,71.26623 16.099166,18.82906 3.075301,43.22758 -15.631457,53.72188 -14.743973,8.73738 -36.707019,24.97215 -23.608799,43.88686 15.346525,22.41196 45.544355,20.18432 67.272932,32.45774 27.5251,11.69484 57.66255,16.73598 87.43414,13.46678 23.41974,-5.57167 59.695,12.12479 72.05953,-13.94144 15.20031,-25.09428 29.01703,-51.40944 40.06051,-78.47011 4.92028,-32.15562 -2.18273,-64.59222 0.19979,-96.89161 -0.0778,-28.16158 0.66433,-56.39658 -2.01702,-84.47266 C 298.22072,142.59352 280.51642,108.64867 262.33124,74.968615 243.87739,54.804251 215.65612,48.75284 192.66997,35.419592 176.83702,28.538787 160.82536,7.8949174 142.87891,12.183594 Z"
     fill="#fdf2c1"
     id="path2" />
  <path
     d="m 190,9 c 26.03232,9.132495 52.39157,19.110351 74.39361,36.189307 21.25142,45.159737 65.59843,79.219733 72.09791,131.010743 2.2077,56.34707 7.66711,112.68024 7.35124,169.0555 -4.62685,25.67313 -16.35638,49.58649 -27.32187,72.89396 -16.15647,19.42052 -32.97573,41.91632 -58.01564,49.60076 -28.72131,1.9524 -57.63209,1.94524 -86.36117,1.90138 C 131.34009,465.71799 91.478402,454.31346 52.625809,442.03756 30.108448,426.58231 32.075522,396.37159 22.140795,373.6013 12.70714,339.92713 -3.1971989,306.62511 0.75251392,270.78286 3.1912114,229.76494 14.032285,189.72459 23.987891,150.12587 35.504669,128.5751 62.200344,113.40291 59.919351,86.0137 62.494352,57.692278 88.978098,41.362111 108.06308,23.756022 130.84084,5.8395456 162.42709,-3.5636769 190,9 Z M 148,8.75 C 121.43504,25.925697 96.306704,45.366686 73.30545,67.096734 62.943147,88.44828 69.486314,119.36185 46.130746,133.13887 22.713832,154.10877 27.110165,188.3165 19.23617,216.15022 14.557678,240.6868 7.4718274,265.38499 7.0661956,290.32719 18.567068,337.99925 33.895218,384.68204 51.460684,430.44508 c 22.828689,14.51779 52.121486,8.18741 76.169196,20.33525 24.96265,10.12489 51.73596,10.52763 78.1696,9.38149 23.8082,1.15544 49.58293,3.9118 70.40829,-10.43705 22.18158,-12.87701 35.9381,-35.86956 43.22052,-59.80276 11.84279,-25.54095 19.62788,-54.14553 14.30176,-82.35653 -3.69702,-44.53266 -4.38219,-89.33582 -3.46319,-133.92576 C 324.60034,144.19222 299.31775,124.81299 285.3516,99.551291 266.92636,80.886573 264.2758,47.394156 239.63372,36.49755 217.69521,31.588998 196.71922,24.07968 176.89306,13.40731 167.94402,9.3359923 157.83736,6.3777139 148,8.75 Z"
     fill="#040303"
     id="path3" />
  <path
     d="m 54,182 c 19.943197,6.11366 51.85585,13.36655 50.9911,39.58241 -3.40432,23.22549 -30.866553,37.60057 -26.857962,62.75014 11.048818,20.18678 32.803582,50.76986 5.632016,68.33492 -15.93495,9.42491 -30.468095,33.20616 -47.514759,33.10586 -12.94751,-19.69369 5.013513,-42.14559 11.119275,-61.27311 4.338664,-18.35193 -16.897659,-33.63032 -2.887547,-51.7334 16.985971,-8.79642 23.219852,-28.9285 31.344339,-47.20898 C 77.68036,207.03686 40.798142,202.14219 54,182 Z"
     fill="#fdf2c0"
     id="path4" />
  <path
     d="m 244,71 c 11.37113,9.430974 -20.20675,21.036332 -1.85441,31.54775 6.94141,21.41197 19.28197,43.54707 12.85358,66.66148 -24.53598,11.49002 -51.95319,1.60628 -77.7328,4.70295 -24.22983,0.0418 -53.39465,1.25669 -70.17305,-19.68812 -17.206135,-3.89856 -26.525327,-46.37012 0.0117,-29.10643 19.99175,15.47339 42.59239,31.66878 69.27119,26.96081 18.63768,-1.37942 45.47618,3.3889 58.9978,-0.39542 C 228.88313,127.70884 221.7033,102.66738 226.31782,77.668034 229.34815,71.17471 237.62339,69.640249 244,71 Z"
     fill="#fdf2c2"
     id="path5" />
  <path
     d="m 156,301 c 21.57883,1.70922 33.60008,38.36645 6.97143,40.52574 -7.64691,22.25039 12.28983,44.28872 16.53106,65.96684 6.3277,12.23839 34.52931,38.10766 4.29148,33.43656 -19.11175,-3.69196 -62.68411,-3.52816 -51.17431,-33.79576 9.47968,-15.7434 16.30662,-35.20453 -1.0146,-48.23189 C 123.34878,336.54411 143.2864,316.8158 156,301 Z"
     fill="#fef3c0"
     id="path6" />
  <path
     d="m 280,207 c 12.79977,26.79009 -20.21153,44.51026 -23.9107,68.33466 3.83954,26.02536 22.22602,47.23164 27.74498,73.10895 8.79704,17.07336 13.03289,52.43327 -9.5911,58.08541 -8.56551,-14.68577 5.99984,-32.35418 -4.8812,-47.63131 -7.77936,-16.64668 -18.13134,-32.11785 -24.81427,-49.19869 -15.70396,-21.51791 -20.84003,-54.58709 3.28468,-72.21123 C 257.11872,226.0327 265.9231,212.98173 280,207 Z"
     fill="#fcf1c1"
     id="path7" />
  <path
     d="m 251,73 c -26.65201,16.079019 -0.72505,41.73744 3.07226,63.25338 7.71313,18.38599 3.6727,43.23008 -20.66172,38.29668 -24.55208,-0.24565 -49.07034,-1.15802 -73.62565,-0.82958 -19.49701,0.43192 -40.47959,-4.18175 -53.46972,-19.65394 -10.709969,-3.90618 -26.88038,-39.73158 -5.9193,-21.33962 11.8016,20.52416 33.25387,39.04071 58.22339,31.11019 26.6974,-1.20585 53.42722,-0.6235 80.14033,-0.62088 17.74602,-11.20555 -5.19758,-35.03494 -1.24747,-51.99003 C 230.91181,95.886743 222.73938,68.522547 251,73 Z"
     fill="#030302"
     id="path8" />
  <path
     d="m 156,301 c 21.26933,-0.51179 33.39966,41.07549 8.39861,38.4035 -7.13214,10.43644 -16.07059,29.7192 -13.54484,45.95333 0.0134,10.7522 -13.1941,37.75123 -20.85358,28.93741 7.33837,-18.79598 23.97006,-41.55804 1.10117,-56.90382 C 122.76175,336.08775 145.07901,316.84788 156,301 Z"
     fill="#fcf1c1"
     id="path9" />
  <path
     d="m 54,182 c 19.943197,6.11366 51.85585,13.36655 50.9911,39.58241 -3.40432,23.22549 -30.866553,37.60057 -26.857962,62.75014 10.553078,19.69045 32.510412,49.66371 6.549675,67.07712 -10.636535,7.49391 -28.339264,32.51972 -38.565497,24.58542 8.579361,-18.23032 33.67741,-24.03885 38.843055,-44.24666 C 86.91318,308.14403 63.495116,289.09729 71.541382,264.64644 76.04347,244.43889 109.47012,226.61342 86.656041,205.31187 74.946336,198.4518 61.884927,194.46534 54,182 Z"
     fill="#040403"
     id="path10" />
  <path
     d="m 280,207 c -4.60431,27.21973 -36.1577,39.04903 -41.29769,66.02628 12.95497,32.1826 35.64831,60.0989 45.03891,93.66543 7.24051,10.38293 -10.62982,42.09251 -9.601,17.28435 1.51374,-23.62484 -14.86359,-41.33344 -23.56427,-61.64993 -8.6777,-21.17113 -28.74703,-42.30697 -16.40642,-66.44688 8.93099,-16.94388 22.91222,-31.1267 37.12212,-43.86115 2.72826,-1.95301 5.63898,-3.65844 8.70835,-5.0181 z"
     fill="#040302"
     id="path11" />
  <path
     d="m 127,344 c 25.81373,8.86418 30.34197,44.19218 16.0198,64.68908 -3.98984,15.58273 -23.3755,8.18294 -9.36014,-3.52162 17.02654,-17.57201 7.44746,-42.10676 -6.64648,-56.53412 -0.004,-1.54445 -0.009,-3.08889 -0.0132,-4.63334 z"
     fill="#040403"
     id="path13" />
  <path
     d="m 153.9375,426.125 c 12.14405,5.3343 38.86069,-0.28797 41.07158,15.55982 -19.02857,-0.44515 -52.84827,-4.92644 -59.0059,-17.89588 6.07177,-0.40082 12.06091,0.98578 17.93432,2.33606 z"
     fill="#060504"
     id="path14" />
  <path
     d="M 178,43 C 166.61886,50.868616 153.1262,77.31808 138.16616,66.800471 147.83901,54.275608 162.32383,45.434656 178,43 Z"
     fill="#050504"
     id="path16" />
  <path
     d="m 48,264 c 9.183111,9.63333 2.703215,41.09192 -7.100909,38.21825 C 38.692245,289.23535 40.057276,274.91391 48,264 Z"
     fill="#040303"
     id="path17" />
  <path
     d="m 177,311 c 8.00536,10.8731 -10.30663,45.93983 -10.65588,16.80024 C 166.3303,320.93265 169.00846,312.02493 177,311 Z"
     fill="#030302"
     id="path20" />
  <path
     d="m 156,301 c -0.98722,10.4839 -13.70066,39.07755 -21.24642,30.4495 C 140.12101,320.22765 147.59106,310.12123 156,301 Z"
     fill="#080706"
     id="path21" />
  <path
     d="m 45.6875,225.625 c 15.175264,11.24896 -20.44541,34.29101 -8.378585,9.98576 1.186445,-4.14349 3.145917,-9.78275 8.378585,-9.98576 z"
     fill="#040403"
     id="path22" />
  <path
     d="m 278,434 c -0.49917,27.63448 -34.88584,14.72355 -52.23053,16.85721 -17.0127,0.93211 -54.04947,2.94476 -58.61608,-0.37692 C 201.3607,448.4756 235.72236,449.94028 270,449 c 0.1999,-6.03715 4.8081,-10.36475 8,-15 z"
     fill="#fefad7"
     id="path23" />
  <path
     d="m 189,44 c 24.8686,9.671205 -21.36551,16.794554 -6.8889,-0.992099 C 184.36068,42.102187 187.12548,42.392734 189,44 Z"
     fill="#040404"
     id="path24" />
  <path
     d="m 171,78 c 6.51125,16.185202 -31.36033,14.104267 -10.58547,2.730797 C 163.58464,78.843624 167.29737,77.791545 171,78 Z"
     fill="#060605"
     id="path25" />
  <path
     d="m 271,450 c 1.30632,17.70336 -45.38179,6.71438 -15.92147,4.50772 C 260.39151,453.03266 265.48014,450.66021 271,450 Z"
     fill="#fbf1c0"
     id="path28" />
  <path
     d="m 235,421 c 16.02704,-7.56195 9.00666,26.86262 1.41899,6.9768 l -0.86062,-3.45722 z"
     fill="#090808"
     id="path30" />
  <path
     d="m 171,422 c 17.16849,2.8413 11.25526,18.17971 -3.01465,8.27731 C 159.21651,427.22364 164.20443,421.57446 171,422 Z"
     fill="#fdf0bd"
     id="path32" />
  <path
     d="m 180,359 c 15.45391,-2.57569 7.18894,23.23123 -0.34206,6.63438 C 178.42343,363.77598 177.91507,360.53556 180,359 Z"
     fill="#080707"
     id="path33" />
  <path
     d="m 147.97266,231.89453 c 17.88098,8.88351 -24.98166,1.44556 -2.60395,-0.86934 0.86798,0.28978 1.73597,0.57956 2.60395,0.86934 z"
     fill="#070605"
     id="path34" />
  <path
     d="m 197,357 c 20.33417,5.08354 -4.54597,19.59656 0,0 z"
     fill="#070706"
     id="path36" />
  <path
     d="m 152,6 c 24.87989,0.3897339 -7.30998,14.448592 0,0 z"
     fill="#f3e8c0"
     id="path40" />
  <path
     d="m 307,380 c 7.40293,10.74994 -15.74978,22.96468 -3.82259,5.74651 C 303.92328,383.47184 305.46735,381.77706 307,380 Z"
     fill="#fff6cd"
     id="path41" />
  <path
     d="m 161,217 c 19.2488,0.3034 -1.12076,18.631 0,0 z"
     fill="#090808"
     id="path44" />
  <path
     d="m 167,426 c 9.68493,-2.83183 22.22012,11.24131 5.82222,4.72869 C 170.40276,431.08639 162.82364,429.55221 167,426 Z"
     fill="#efe5c2"
     id="path46" />
  <path
     d="m 186,456 c 0.24474,13.01912 -29.01932,-3.02042 -7.59677,0.62261 l 3.7872,-0.4607 z"
     fill="#ede4bf"
     id="path48" />
  <path
     d="m 178,27 c 9.28096,-2.768754 20.51725,11.423837 5.43589,4.123135 C 181.28543,30.471521 178.8535,29.265652 178,27 Z"
     fill="#fff8d2"
     id="path49" />
  <path
     d="m 238,455 c 24.70614,-3.08547 1.48049,14.97189 0,0 z"
     fill="#f8e5b9"
     id="path51" />
  <path
     d="m 191,430 c 20.21726,-2.62001 4.19446,17.9904 0,0 z"
     fill="#f5eac8"
     id="path52" />
  <path
     d="m 161,303 c 14.65574,-0.0728 -4.28144,11.00465 0,0 z"
     fill="#fef8d7"
     id="path88" />
  <path
     d="m 167,426 c 13.00392,-3.93404 -0.98785,9.90134 0,0 z"
     fill="#e8ddb6"
     id="path107" />
  <path
     d="m 166,326 c 3.99732,9.54691 -4.5785,13.44246 0,0 z"
     fill="#fffdeb"
     id="path112" />
</svg>
