<?xml version="1.0" encoding="UTF-8" standalone="no"?>
<!-- Created with Inkscape (http://www.inkscape.org/) -->

<svg
   id="svg2"
   version="1.1"
   inkscape:version="1.4.2 (f4327f4, 2025-05-13)"
   width="400.48318"
   height="385.80643"
   sodipodi:docname="scallop.svg"
   xmlns:inkscape="http://www.inkscape.org/namespaces/inkscape"
   xmlns:sodipodi="http://sodipodi.sourceforge.net/DTD/sodipodi-0.dtd"
   xmlns="http://www.w3.org/2000/svg"
   xmlns:svg="http://www.w3.org/2000/svg"
   xmlns:rdf="http://www.w3.org/1999/02/22-rdf-syntax-ns#"
   xmlns:cc="http://creativecommons.org/ns#"
   xmlns:dc="http://purl.org/dc/elements/1.1/">
  <metadata
     id="metadata8">
    <rdf:RDF>
      <cc:Work
         rdf:about="">
        <dc:format>image/svg+xml</dc:format>
        <dc:type
           rdf:resource="http://purl.org/dc/dcmitype/StillImage" />
      </cc:Work>
    </rdf:RDF>
  </metadata>
  <defs
     id="defs6" />
  <sodipodi:namedview
     pagecolor="#ffffff"
     bordercolor="#666666"
     borderopacity="1"
     objecttolerance="10"
     gridtolerance="10"
     guidetolerance="10"
     inkscape:pageopacity="0"
     inkscape:pageshadow="2"
     inkscape:window-width="2880"
     inkscape:window-height="1766"
     id="namedview4"
     showgrid="false"
     borderlayer="true"
     inkscape:showpageshadow="false"
     inkscape:zoom="2.68"
     inkscape:cx="113.80597"
     inkscape:cy="190.48507"
     inkscape:window-x="-11"
     inkscape:window-y="-11"
     inkscape:window-maximized="1"
     inkscape:current-layer="g3805"
     inkscape:pagecheckerboard="0"
     inkscape:deskcolor="#d1d1d1" />
  <g
     id="g2987"
     transform="matrix(1.7995965,0,0,1.7995965,-526.876,-461.9952)">
    <g
       id="g3805"
       transform="matrix(0.83645283,0,0,0.81926888,65.765366,64.311925)">
      <g
         id="g3778"
         transform="matrix(0.7841117,0,0,-0.7841117,91.985831,643.34852)">
        <path
           style="fill:#373737;fill-opacity:1;stroke:#0d0073;stroke-width:0;stroke-miterlimit:4;stroke-opacity:1"
           d="m 397.125,187.25 c -23.9944,-2.51049 -38.76772,20.04414 -57.68854,30.39607 -16.54832,-6.40867 -42.62463,-0.89298 -44.33288,19.92526 -1.31458,13.3319 -19.22244,16.06674 -29.18251,22.08831 -13.11936,4.80638 -19.65527,17.4141 -23.03026,30.0994 -9.93072,27.79118 -16.22905,57.8365 -10.46461,87.25206 2.06018,18.47104 10.26294,35.22498 16.33389,52.47989 8.93767,17.55429 22.80975,32.1191 36.13576,46.36424 15.78188,10.97029 30.1637,24.89827 48.97243,30.48048 22.16749,7.98119 44.59612,12.7955 68.19922,12.88152 21.67868,3.9408 40.96197,-7.31563 61.56762,-11.72388 19.45137,-4.00729 31.36201,-21.95787 49.31361,-29.26251 15.98785,-20.96765 36.40586,-39.94236 42.45996,-66.71109 3.01312,-21.01782 13.15859,-41.17142 11.66417,-62.56167 -4.4756,-30.46083 -7.22159,-65.4839 -31.3146,-87.67761 -15.78306,-9.41536 -40.66159,-14.20463 -40.51538,-37.17991 -12.57323,-17.53776 -38.49148,1.6703 -52.47811,-14.11165 C 430.80894,197.68497 415.58835,184.72322 397.125,187.25 Z m 31.5625,99.09375 0.0357,0.80385 z m -34,2.90625 -0.27472,1.05307 z m 7.625,0.53125 c 1.85942,1.86571 -2.31414,1.65463 0,0 z m -9.5625,0.3125 0.18095,0.96504 z"
           id="path3776"
           inkscape:connector-curvature="0" />
        <path
           inkscape:connector-curvature="0"
           d="m 484.58918,256.15496 c 3.4427,-20.68117 -20.1458,-24.76691 -34.83958,-21.21134 -1.60451,13.54403 23.38219,20.17195 34.83958,21.21134 z m -157.59266,-3.20568 c 12.27812,0.19808 29.58691,-21.73788 6.94173,-18.40485 -18.09976,-7.01751 -34.24774,31.18993 -6.94173,18.40485 z m 101.08677,247.08281 c 16.46849,-11.12986 8.78827,-32.57286 4.38572,-48.09742 -12.28625,-53.58607 -24.53849,-107.45071 -29.07738,-162.35919 7.93565,21.01591 5.53938,44.14508 11.80171,65.60633 8.02787,43.05737 18.69423,85.57389 30.32513,127.78491 15.74448,20.66834 44.05023,-13.83519 24.17552,-28.04697 C 445.31088,404.97937 417.79187,354.555 411.11635,298.5382 c -0.53371,-17.88305 3.6159,12.64443 5.56249,18.43445 11.81263,52.74495 39.47029,100.008 65.42304,146.80833 18.80334,16.72787 38.87467,-23.10111 17.08622,-31.96826 -35.49332,-34.52607 -60.9783,-78.86262 -76.24969,-125.78867 -2.41053,-6.63746 -8.0154,-26.18794 -0.53873,-10.55086 16.20745,48.43381 41.18582,95.40484 78.97632,130.51641 9.67034,17.55149 35.72208,8.51542 27.93939,-12.1501 -4.92125,-15.07176 -23.46532,-16.48755 -32.83223,-28.73936 -29.84751,-26.12381 -56.09556,-57.8395 -70.50813,-95.12774 0.60491,-10.95167 9.18381,17.72367 13.79246,23.31731 21.40456,36.53354 53.25047,65.97783 88.42907,89.06375 21.21584,0.45625 13.15483,-27.538 0.0876,-33.90549 -14.0932,-3.10882 -25.59233,-12.74762 -37.15713,-21.34272 -25.69851,-20.02762 -47.83477,-45.08373 -62.5378,-74.28499 14.70638,18.81401 26.65061,40.28526 46.1635,54.78168 18.99544,17.3942 40.62614,32.83737 65.51707,40.39477 21.84716,-13.25754 -5.10425,-40.55429 -23.51315,-36.57693 -32.10589,-9.2613 -61.86955,-30.0168 -77.7614,-59.90681 7.96397,3.69064 17.92008,24.99421 30.3981,31.54695 20.23887,15.85306 45.18918,24.61419 70.35533,28.71064 14.75938,-18.86404 -14.90694,-32.80472 -30.89716,-32.73714 -24.56453,-5.29221 -48.58319,-17.8507 -64.46837,-37.62139 0.071,-6.7762 14.35229,13.82102 20.82374,15.45566 18.57949,10.29121 39.03346,19.93251 60.51647,21.04127 19.0248,-5.95112 -2.44548,-26.75464 -14.17337,-28.674 -23.16215,-8.31559 -52.26817,-6.9244 -68.62697,-28.34959 -10.65531,-17.56165 -26.14454,-37.1628 -49.21879,-34.93313 -23.15262,1.72847 -32.54403,25.09277 -45.71142,40.43138 -21.36243,22.85556 -58.83361,13.2495 -80.93112,35.18205 -13.56067,15.45864 11.94331,22.82268 22.02082,12.83535 22.92862,-6.70733 46.88356,-16.42024 61.38227,-36.42145 4.17732,9.80737 -17.79577,21.33944 -26.7224,27.75679 -19.19475,11.35 -41.10262,16.57535 -62.46507,22.17796 -20.67494,9.70348 2.88322,36.56668 17.00346,19.65272 31.30486,-9.76623 61.18296,-29.03573 77.26148,-58.34874 5.01804,4.97591 -12.28737,24.26367 -19.34975,31.0297 -20.12742,20.06036 -47.20911,31.70493 -74.91081,36.17524 -20.82558,8.31586 -11.30461,41.78638 10.09412,26.69478 19.00129,-9.04069 34.8298,-23.43663 51.15139,-36.42832 15.36535,-14.16469 28.73501,-30.54189 39.20654,-48.64198 5.43364,7.30268 -11.46641,20.83698 -15.83492,29.47507 -23.11284,29.32114 -52.81562,53.41547 -86.2809,69.97027 -20.02279,17.6677 19.8347,37.06123 25.86234,13.08033 36.16909,-27.77003 69.22697,-62.98693 83.38983,-107.24114 5.27644,15.08687 -11.0713,27.78629 -15.28804,41.6214 -20.63904,34.55897 -52.12101,60.62121 -83.32656,85.24642 -16.51079,17.27389 20.02959,36.66357 27.31056,15.12486 9.47447,-12.65152 21.64725,-24.04131 30.40988,-37.62442 22.78747,-32.28449 39.05523,-68.84626 50.12774,-106.68905 2.34187,23.98394 -14.01049,43.91621 -20.76849,65.80861 -16.09303,34.50889 -39.41313,65.21843 -66.12069,92.15416 -12.82685,20.56435 25.80506,39.42472 30.76215,13.36151 24.91723,-48.39723 53.48926,-97.10157 59.73648,-152.20832 -2.73905,-9.79859 8.38186,-17.90121 4.40247,-3.46746 -8.02704,61.05829 -38.49173,115.5772 -63.87697,170.65989 -6.0136,24.48069 36.63692,26.03713 33.18408,0.81461 14.03022,-57.24403 28.76033,-114.64231 34.0282,-173.51253 4.216,-10.22523 3.12769,14.81873 1.32833,19.17051 -6.93592,57.10295 -20.51657,113.03648 -31.54717,169.41177 -0.59235,22.53571 40.46001,20.64765 36.40215,-2.08962 -0.0989,-46.21093 0.75821,-92.68178 0.92605,-138.99405 0.22528,-19.24789 0.59024,-38.49518 1.25852,-57.73318 4.85368,30.38228 1.02243,61.2596 2.8148,91.84903 0.17203,38.3617 -0.7625,76.78896 2.17344,115.07706 3.65638,9.60493 16.48852,13.52825 25.27629,8.71864 z"
           style="fill:#f9ffab;fill-opacity:1;stroke:#000000;stroke-width:0;stroke-linecap:round;stroke-linejoin:round;stroke-miterlimit:4;stroke-dasharray:none;stroke-opacity:1"
           id="path2989" />
      </g>
    </g>
  </g>
</svg>
