<?xml version="1.0" encoding="UTF-8" standalone="no"?>
<!-- Created with Inkscape (http://www.inkscape.org/) -->

<svg
   version="1.1"
   id="svg1"
   width="944.8421"
   height="577.87878"
   viewBox="0 0 944.8421 577.87878"
   sodipodi:docname="termitemound.svg"
   inkscape:version="1.4.3 (0d15f75, 2025-12-25)"
   xmlns:inkscape="http://www.inkscape.org/namespaces/inkscape"
   xmlns:sodipodi="http://sodipodi.sourceforge.net/DTD/sodipodi-0.dtd"
   xmlns="http://www.w3.org/2000/svg"
   xmlns:svg="http://www.w3.org/2000/svg">
  <defs
     id="defs1" />
  <sodipodi:namedview
     id="namedview1"
     pagecolor="#ffffff"
     bordercolor="#000000"
     borderopacity="0.25"
     inkscape:showpageshadow="2"
     inkscape:pageopacity="0.0"
     inkscape:pagecheckerboard="0"
     inkscape:deskcolor="#d1d1d1"
     inkscape:zoom="0.32814174"
     inkscape:cx="-415.97878"
     inkscape:cy="-71.615394"
     inkscape:window-width="2880"
     inkscape:window-height="1766"
     inkscape:window-x="-11"
     inkscape:window-y="-11"
     inkscape:window-maximized="1"
     inkscape:current-layer="g1">
    <inkscape:page
       x="1.1496854e-06"
       y="1.7410264e-05"
       inkscape:label="1"
       id="page1"
       width="944.8421"
       height="577.87878"
       margin="0"
       bleed="0" />
  </sodipodi:namedview>
  <g
     id="g1"
     inkscape:groupmode="layer"
     inkscape:label="1"
     transform="translate(-1629.2395,-2407.1231)">
    <path
       id="path38"
       d="m 2552.7066,2984.9867 h -834.0133 c 0,0 -20.5333,-28.84 -9.12,-73.5467 0,0 -3.04,-44.1067 30.4133,-62.36 33.4667,-18.2533 47.16,-28.9067 69.9734,-42.5867 22.8133,-13.6933 53.2266,-51.72 56.2666,-68.44 3.0534,-16.7333 22.0534,-55.52 31.1867,-79.48 9.12,-23.9466 17.1067,-55.8933 25.0933,-85.5466 7.9867,-29.6667 17.1067,-85.56 17.1067,-94.68 0,-9.1333 18.2533,-50.2 34.2267,-59.32 8.4133,-4.8133 22.5333,-7.72 35.8399,-9.24 11.9467,-1.3467 23.2534,-1.5733 29.1867,-1.0267 5.1733,0.4667 12.3067,-0.1333 19.68,-0.7333 10.5067,-0.84 21.5333,-1.7067 28.2267,0.4533 5.3466,1.7334 14.96,2.6534 24.72,3.1334 11.0533,0.56 22.3066,0.56 27.76,0.56 2.5333,0 7.2666,0.64 13.1333,1.64 17.7467,3.04 45.8667,9.48 55.3067,12.0533 12.5466,3.4267 61.6,26.24 70.72,35.36 9.1333,9.1333 13.6933,42.2133 17.1066,53.6133 3.4267,11.4134 21.68,87.84 28.52,102.6667 6.8534,14.8266 12.5467,47.92 15.9734,57.04 3.4266,9.12 -1.1334,31.9466 11.4133,50.1866 12.5467,18.2534 20.5333,51.3334 36.4933,55.9067 15.9734,4.56 26.24,3.4133 37.6534,22.8133 11.4,19.3867 20.5333,36.4934 26.2266,46.76 5.7067,10.2667 12.56,21.68 10.2667,34.2267 -2.28,12.5467 -4.56,13.6933 6.8533,18.2533 11.4,4.56 50.1867,14.8267 74.1467,29.6534 23.9467,14.84 9.64,52.64 9.64,52.64"
       style="fill:#edcd77;fill-opacity:1;fill-rule:nonzero;stroke:none;stroke-width:0.133333" />
    <path
       id="path39"
       d="m 2045.6266,2760.1067 c -3.72,12.16 -31.8533,24.3333 -40.2267,40.2933 -8.3599,15.9733 -14.4533,47.16 -31.9333,57.8 -17.4933,10.6533 -24.3466,14.4533 -47.92,24.3333 -23.5733,9.8934 -31.9333,39.5467 -76.8,41.8267 -44.88,2.2933 -96.2,60.6267 -96.2,60.6267 h -33.8533 c 0,0 -20.5333,-28.84 -9.12,-73.5467 0,0 -3.04,-44.1067 30.4133,-62.36 33.4667,-18.2533 47.16,-28.9067 69.9734,-42.5867 22.8133,-13.6933 53.2266,-51.72 56.2666,-68.44 3.0534,-16.7333 22.0534,-55.52 31.1867,-79.48 9.12,-23.9466 17.1067,-55.8933 25.0933,-85.5466 7.9867,-29.6667 17.1067,-85.56 17.1067,-94.68 0,-9.1333 18.2533,-50.2 34.2267,-59.32 8.4133,-4.8133 22.5333,-7.72 35.8399,-9.24 11.9467,-1.3467 23.2534,-1.5733 29.1867,-1.0267 5.1733,0.4667 12.3067,-0.1333 19.68,-0.7333 -9.12,31.5333 -9.6533,97.4933 -12.92,143.4266 -4.1067,58.0267 3.7333,196.48 0,208.6534"
       style="fill:#dba651;fill-opacity:1;fill-rule:nonzero;stroke:none;stroke-width:0.133333" />
    <path
       id="path40"
       d="m 2443.8266,2906.12 c -7.3333,9.1467 -55.9067,34.2133 -59.32,34.2133 -3.4267,0 -103.8133,1.1467 -138.0267,0 -34.2266,-1.1333 -184.7333,2.28 -195.6,-9.12 -10.88,-11.4133 -8.4133,-54.76 12.0267,-76.4266 20.44,-21.68 38.4667,-49.0534 38.5867,-59.32 0.1066,-10.2667 -2.24,-71.2267 -2.7734,-99.4934 -0.5333,-28.2666 -4.2,-69.9866 2.7734,-82.7866 6.9466,-12.7867 -5.6534,144.64 13.2133,152.6133 18.84,7.9867 19.8267,4.5733 13.6267,-82.1333 -6.2,-86.6934 -9.8667,-151.7467 -13.52,-188.9867 -2.0934,-21.36 -2.96,-56.7733 -3.32,-83.0666 11.0533,0.56 22.3066,0.56 27.76,0.56 2.5333,0 7.2666,0.64 13.1333,1.64 11.48,40.12 36.3333,93.9066 42.76,148.9466 7.9867,68.44 24.6133,129.96 23.1467,152.2533 -1.48,22.2667 0.8,65.6267 8.7866,70.1867 7.9867,4.56 15.1467,26.5067 39.1867,18.2533 24.04,-8.2666 65.76,22.8134 70.32,35.36 4.5733,12.5467 44.4933,31.9334 69.5867,37.64 25.1066,5.7067 44.9733,20.52 37.6533,29.6667"
       style="fill:#dba651;fill-opacity:1;fill-rule:nonzero;stroke:none;stroke-width:0.133333" />
    <path
       id="path41"
       d="m 1988.92,2424.72 c -6.08,5.5867 -11.1467,19.2667 -10.1334,23.84 1.0134,4.56 -7.6133,37 -7.6133,56.7734 0,19.7733 -12.16,35.7466 -9.88,44.1066 2.28,8.3733 -0.5733,60.08 -0.28,77.5733 0.28,17.4934 -16.4533,68.44 -21.0133,78.3334 -4.56,9.88 0,15.2133 5.32,8.36 5.32,-6.84 13.6933,-47.1467 19.0133,-73.76 5.32,-26.6134 11.4133,-69.9734 14.4533,-92.0267 3.04,-22.0533 3.8,-44.1066 4.56,-59.3066 0.76,-15.2134 6.08,-54.76 17.4933,-62.36 11.4,-7.6134 3.8,6.08 2.28,26.6133 -1.52,20.5333 -5.3199,80.6133 -6.0799,100.3866 -0.76,19.7734 -15.2134,136.88 -19.0134,139.16 -3.8,2.28 -13.6933,13.6934 -16.7333,20.5334 -3.04,6.8533 -6.84,22.8133 4.56,22.8133 11.4133,0 13.8133,9.76 8.0533,14.3867 -5.7733,4.6266 -11.0933,35.8133 -25.5466,41.1333 -14.44,5.32 -29.6534,23.5733 -26.6134,41.8267 3.04,18.2533 9.8934,33.4666 11.4134,45.6266 1.52,12.1734 8.7466,54.76 7.6,70.7334 -0.5467,7.6933 -2.4267,22.4666 -4.2267,35.52 h -217.84 c 0,0 -20.5333,-28.84 -9.12,-73.5467 0,0 -3.04,-44.1067 30.4133,-62.36 33.4667,-18.2533 47.16,-28.9067 69.9734,-42.5867 22.8133,-13.6933 53.2266,-51.72 56.2666,-68.44 3.0534,-16.7333 22.0534,-55.52 31.1867,-79.48 9.12,-23.9466 17.1067,-55.8933 25.0933,-85.5466 7.9867,-29.6667 17.1067,-85.56 17.1067,-94.68 0,-9.1333 18.2533,-50.2 34.2267,-59.32 8.4133,-4.8133 22.5333,-7.72 35.8399,-9.24 v 0.013 c 0,0 -14.6666,9.3467 -20.7599,14.92"
       style="fill:#c78242;fill-opacity:1;fill-rule:nonzero;stroke:none;stroke-width:0.133333" />
    <path
       id="path42"
       d="m 2067.5066,2415.6 c 4.56,-4.0533 10.6533,-6.5866 11.6667,0 1.0133,6.5867 0,41.5734 3.04,49.1734 3.04,7.6133 2.5333,28.9066 3.04,41.0666 0.5066,12.1734 0.5066,31.9467 -3.04,36.5067 -3.5467,4.56 -6.36,-15.2133 -5.7067,-22.8133 0.64,-7.6 5.2,-35.8134 3.68,-42.24 -1.52,-6.4267 -3.5467,-0.3467 -6.0933,-7.9467 -2.5334,-7.6133 -1.0134,-29.4133 -1.0134,-37.52 0,-8.12 -7.6,-3.5467 -5.5733,11.6533 2.0267,15.2134 -0.1733,97.8533 -0.3467,103.4267 -0.16,5.5866 -4.2133,12.68 -4.2133,-23.8267 0,-36.5066 0.5067,-79.6 0,-88.2133 -0.5067,-8.6133 4.56,-19.2667 4.56,-19.2667"
       style="fill:#c78242;fill-opacity:1;fill-rule:nonzero;stroke:none;stroke-width:0.133333" />
    <path
       id="path43"
       d="m 2050.7733,2427.7734 c 0.5066,15.7066 -1.0134,48.6666 -2.0267,85.1733 -1.0133,36.4933 -3.04,82.64 -2.5333,95.3066 0.5066,12.68 0.3466,59.32 -0.08,73.52 -0.4267,14.2 2.1066,21.8 -2.4534,31.4267 -4.56,9.64 -3.04,-21.2933 -3.04,-47.1467 0,-25.8533 2.5334,-127.76 2.5334,-138.9199 0,-11.1467 2.8933,-85.1734 2.4666,-90.24 -0.44,-5.0667 5.1334,-9.12 5.1334,-9.12"
       style="fill:#c78242;fill-opacity:1;fill-rule:nonzero;stroke:none;stroke-width:0.133333" />
    <path
       id="path44"
       d="m 2040.3866,2417.6267 c 0.6667,7.6133 2.2933,28.4 0,36.5067 -2.28,8.1066 -5.8267,25.3466 -6.3333,48.6666 -0.52,23.32 3.4933,47.1467 3.7733,54.2533 0.28,7.0934 -0.32,66.4134 -0.027,82.1334 0.3067,15.72 0.2134,78.08 -3.8,83.1466 -4.0133,5.0667 -10.6,0 -12.6266,-14.2 -2.0267,-14.2 5.0666,-48.6666 5.0666,-63.88 0,-15.2133 1.52,-63.9866 1.0134,-73.32 -0.5067,-9.32 6.08,-8.3066 6.08,-15.9066 0,-7.6134 -1.4267,-14.2 -2.2267,-23.8267 -0.8133,-9.64 -2.84,-6.6 -2.84,-41.0666 0,-34.48 2.6267,-65.4134 2.84,-72.5067 0.2,-7.0933 8.6133,-5.56 9.08,0"
       style="fill:#c78242;fill-opacity:1;fill-rule:nonzero;stroke:none;stroke-width:0.133333" />
    <path
       id="path45"
       d="m 2025.4266,2425.24 c 0.1467,5.0667 2.0267,45.6267 0,63.3734 -2.0267,17.7333 -0.2267,81.8933 -4.4267,82.7733 -4.1866,0.88 -4.1866,-16.8667 -4.1866,-34.6134 0,-17.7466 5.3466,-52.2266 4.1866,-73.0133 -1.1466,-20.7866 3.6934,-33.96 0,-40.56 -3.68,-6.5866 4.12,-8.08 4.4267,2.04"
       style="fill:#c78242;fill-opacity:1;fill-rule:nonzero;stroke:none;stroke-width:0.133333" />
    <path
       id="path46"
       d="m 2088.2933,2417.96 c 4.28,2.8534 3.5466,21.4667 3.5466,42.76 0,21.2934 2.0267,52.7334 3.5467,46.1334 1.52,-6.5867 4.0667,-10.6534 3.0533,-25.3467 -1.0133,-14.6933 0.4534,-41.0667 0.2267,-50.1867 -0.2267,-9.1333 1.5467,-14.0666 -5.1733,-18.4533 -6.72,-4.3867 -9.2534,2.3733 -5.2,5.0933"
       style="fill:#c78242;fill-opacity:1;fill-rule:nonzero;stroke:none;stroke-width:0.133333" />
    <path
       id="path47"
       d="m 2109.5866,2427.7734 c 0.36,9.12 3.5467,45.6266 0,48.16 -3.5467,2.5333 -2.0267,14.1866 -3.5467,18.7466 -1.52,4.5734 -2.5333,-17.2266 -3.04,-39.5333 -0.5066,-22.3067 -11.4266,-24.64 -10.4666,-33.4667 0.96,-8.8133 11.48,-7.4533 13.5066,-3.72 2.0267,3.72 3.2667,2.72 3.5467,9.8134"
       style="fill:#c78242;fill-opacity:1;fill-rule:nonzero;stroke:none;stroke-width:0.133333" />
    <path
       id="path48"
       d="m 2116.1733,2424.72 c 0.24,4.44 -0.4934,20.32 -1.0134,37.1334 -0.6,19.68 -0.8933,40.64 1.0134,45.8933 3.56,9.76 4.5733,19.8933 7.1066,25.9866 2.5334,6.08 5.0667,91.76 8.6134,102.92 3.5466,11.1467 9.1333,38.0267 10.1466,59.32 1.0134,21.2934 -2.0666,59.3067 4.8,65.4 6.8534,6.08 16.7467,32.1867 23.5867,48.92 6.84,16.7334 5.32,-28.1333 0,-44.8666 -5.32,-16.7334 -9.12,-19.0134 -12.9333,-36.5067 -3.8,-17.4933 -12.8534,-73.5067 -12.64,-92.2667 0.2266,-18.76 -7.3867,-98.36 -10.9334,-105.9599 -3.5466,-7.6134 -11.1466,-15.2134 -11.1466,-25.8667 0,-10.64 -3.5467,-30.92 -3.5467,-42.5867 0,-11.6533 4.56,-41.0666 5.5733,-30.92 1.0134,10.1334 1.4934,41.5734 3.5334,57.8 2.04,16.2134 6.0933,31.4267 10.16,33.96 4.0533,2.5334 6.5466,14.16 8.3466,28.3733 1.7867,14.2134 2.8,86.2134 6.3467,89.2534 3.5467,3.04 7.6133,10.64 9.64,27.88 2.0267,17.24 -4.0667,16.7466 -4.0667,27.3866 0,10.64 -4.56,20.56 1.0134,28.28 5.5866,7.7067 7.6133,10.24 10.1466,21.4 2.5334,11.1467 11.6667,40.0534 10.64,32.44 -1.0133,-7.6 -2.5333,-44.6133 -7.0933,-58.8 -4.56,-14.2 -9.6267,-33.9733 -5.5733,-32.96 4.0533,1.0134 9.12,1.52 9.12,1.52 0,0 -9.12,-47.1466 -9.6267,-85.1733 -0.5067,-38.0267 -7.6133,-77.5733 -12.1733,-83.1466 -4.56,-5.5734 -11.6534,-18.7734 -11.6534,-24.8534 0,-6.0666 0,-46.12 -1.52,-49.68 -1.52,-3.5466 -9.64,-5.0666 -9.64,-14.6933 0,-9.64 2.5334,-12.28 -1.0133,-15.24 -3.5467,-2.9467 -17.1333,-4.08 -16.68,0 0.4533,4.08 1.4667,9.6533 1.4667,9.6533"
       style="fill:#c78242;fill-opacity:1;fill-rule:nonzero;stroke:none;stroke-width:0.133333" />
    <path
       id="path49"
       d="m 2150.6533,2427.7734 c 1,9.5733 2.5333,16.9866 5.5733,31.8133 3.0533,14.8267 6.6,33.28 8.6267,35.7067 2.0266,2.44 1.52,-35.5867 0,-47.7467 -1.52,-12.1733 -3.2267,-23.84 -6.4267,-26.88 -3.2133,-3.04 -9.0133,-4.84 -7.7733,7.1067"
       style="fill:#c78242;fill-opacity:1;fill-rule:nonzero;stroke:none;stroke-width:0.133333" />
    <path
       id="path50"
       d="m 2171.4399,2468.3334 c 0.053,7.6666 0,20.0266 0,28.8933 0,17.7467 2.4667,48.4933 6.0267,51.0266 3.5467,2.5334 7.16,-23.6533 5.64,-37.3333 -1.52,-13.6933 -11.6667,-66.4133 -11.6667,-66.4133 0,0 -0.16,2.5733 0,23.8267"
       style="fill:#c78242;fill-opacity:1;fill-rule:nonzero;stroke:none;stroke-width:0.133333" />
    <path
       id="path51"
       d="m 2190.1999,2427.7734 c -6.88,5.5866 -2.0266,15.7066 0,23.32 2.0267,7.6 8.6134,30.4 8.6134,43.5866 0,13.2 -1.0134,65.1867 3.56,76.7067 4.56,11.52 9.6266,59.68 10.1333,67.2933 0.5067,7.6 2.0267,16.7333 5.0667,18.76 3.04,2.0267 -4.56,-56.28 -5.5734,-64.3867 -1.0133,-8.12 -6.5866,-31.9466 -6.5866,-39.5466 0,-7.6134 0.1866,-53.76 -2.4534,-72 -2.6266,-18.2533 -4.6533,-60.3333 -12.76,-53.7333"
       style="fill:#c78242;fill-opacity:1;fill-rule:nonzero;stroke:none;stroke-width:0.133333" />
    <path
       id="path52"
       d="m 2269.2933,2462.7467 c -2.3067,-3.0667 -6.7867,-11.1467 -6.56,-5.84 0.2533,5.7867 5.44,25.6133 8.08,37.7733 5.0666,23.3334 10.64,39.56 8.6133,41.08 -2.0267,1.52 -5.2267,12.6667 0.4267,21.8 5.6533,9.12 15.8,49.1733 18.84,57.8 3.04,8.6133 11.6666,53.7333 12.68,67.4267 1.0133,13.6933 1.0133,33.4533 6.5866,48.6666 5.5734,15.2134 22.3067,35.4934 28.3867,46.1334 6.0933,10.6533 18.0267,70.3333 22.6,73.8933 2.4133,1.88 15.68,12.6 14.6667,-1.0667 -0.9067,-12.12 -15.7067,-48.2 -19.52,-55.5866 -8.1067,-15.72 -25.3467,-52.2134 -29.9067,-63.3734 -4.56,-11.1466 -6.08,-15.2 -11.6667,-35.48 -5.5733,-20.28 -7.0933,-44.12 -11.1466,-64.9066 -4.0534,-20.7867 -18.76,-63.92 -20.7867,-79.6134 -2.0267,-15.6933 -18.2533,-84.6399 -21.2933,-88.7066"
       style="fill:#c78242;fill-opacity:1;fill-rule:nonzero;stroke:none;stroke-width:0.133333" />
    <path
       id="path53"
       d="m 2278.4133,2657.4933 c -3.7734,-1.56 -7.0934,17.1734 -5.5734,28.84 1.52,11.6667 10.64,46.1334 11.6667,61.3467 1,15.2133 6.5867,44.6133 6.5867,60.3333 0,15.72 16.7333,22.8134 15.2133,10.1334 -1.5333,-12.6667 -10.6533,-78.0667 -10.6533,-81.6267 0,-3.5467 -8.6134,-36.4933 -12.1734,-46.64 -3.5466,-10.1333 0,-30.32 -5.0666,-32.3867"
       style="fill:#c78242;fill-opacity:1;fill-rule:nonzero;stroke:none;stroke-width:0.133333" />
    <path
       id="path54"
       d="m 2237.8533,2538.2933 c 1.9466,4.68 14.2,66.92 16.7333,91.76 2.5333,24.8534 10.1867,46.8 11.6933,67.2534 1.0534,14.5866 9.4134,60.48 11.1334,104.84 0.7066,17.84 -6.1734,28.7733 -11.3734,-28.0134 -5.2,-56.7866 -12.4666,-108.08 -13.9866,-126.84 -1.52,-18.76 -12.68,-78.5866 -14.2,-86.1866 -1.52,-7.6 -2.3334,-28.4533 0,-22.8134"
       style="fill:#c78242;fill-opacity:1;fill-rule:nonzero;stroke:none;stroke-width:0.133333" />
    <path
       id="path55"
       d="m 2558.5866,2925.5067 c -7.6533,-8.3334 -13.96,-7.7334 -26.6933,-10.4 -29.2534,-11.7467 -34.9467,13.0266 -67.7734,10.8933 -13.0266,1.2 -30.96,-18.56 -41.4933,-10.3867 -3.9333,2.7467 -11.68,10.9067 -17.4133,12.3867 -11.4,3.6933 -24.2934,-18.1467 -44.7067,-18.7067 -11.7467,-0.12 -12.4667,16.0667 -19.2667,20.4534 -22.9333,3.4666 -17.8933,-49.1467 -58.7066,-31.5067 -7.32,1.9333 -12.4267,1.6533 -19.0134,-1.4533 -59.72,-36.08 -31.52,-12.0667 -79.32,-17.9334 -9.6133,-0.9333 -11.4533,-10.2133 -17.3866,-13 -8.72,-2.8933 -22,8.6667 -24.44,23.4667 -0.84,5.0533 0.5733,7.6 -3.2267,11.12 0.013,0 0.04,0 0.053,-0.013 -1.6533,1.36 -3.9333,2.0133 -6.64,2.1333 0.013,0 0.013,-0.013 0.027,-0.013 -14.7733,-0.2534 -29.1867,-7.76 -43.6267,-14.68 -28.2266,-11.9867 -58.4,17.6266 -78.7333,18.4533 -10.7333,-1.9867 -15.6133,-13.88 -26.9466,-21.32 -42.2934,-30.6667 -49.4267,-7.3333 -76.36,20.1067 -5.6534,-3.0534 -28.4667,3.64 -45.9734,8.7866 -29.5866,11.6134 -19.4666,-25.0266 -37.2933,-23.4533 -5.8267,0.72 -12.5733,4.4533 -18.5067,4.7867 -8.6266,-1.1067 -21.6133,-6.32 -28.3733,-11.4267 -9.48,-13.6533 -24.44,0.6133 -31.3467,16.3467 -3.08,4.16 -7.04,6.7066 -12.0133,8.7333 -35.3333,11.5733 -58.24,-12.3867 -66.44,-9.0667 -10.0667,1.92 -22,12.5067 -29.8933,23.7867 -17.3467,19.76 -0.7334,57.0667 0.8933,61.3867 h 923.6666 c 25.1734,-4.3467 5.8134,-49.5867 -3.0533,-59.48"
       style="fill:#5a7a26;fill-opacity:1;fill-rule:nonzero;stroke:none;stroke-width:0.133333" />
    <path
       id="path56"
       d="m 2558.5866,2984.9867 c -0.9867,0.04 -10.2133,-0.013 -11.9333,0 -1.64,-5.2267 -2.2,-31.8 -10.3867,-44.1467 -8.3733,-12.6267 -24.5867,-15.64 -34.0133,-13.88 -19.28,3.6 -22.72,27.8267 -45.3867,32.3867 -22.6533,4.5733 0.2533,-13.5867 -14.4267,-20.8667 -14.68,-7.28 -44.0266,-6.76 -57.2533,2.36 -13.1867,9.12 -7.5067,-28.3733 -18.9333,-30.8133 43.4666,17.84 24.9733,28.8666 60.3333,3.6533 5.8667,-1.96 17.2,5.7467 22.52,8.0933 22.12,11.9867 47.2933,-3.28 61.2267,-9.7066 4.96,-1.92 13.3333,1.1066 23.0533,3.3466 11.2667,2.32 16.5733,1.88 23.6533,8.5067 10.8267,9.9333 31.1334,59.84 1.5467,61.0667"
       style="fill:#49631f;fill-opacity:1;fill-rule:nonzero;stroke:none;stroke-width:0.133333" />
    <path
       id="path57"
       d="m 2366.1999,2910.0133 c -11.48,-2.2666 -39.6266,41.36 -46.24,51.6134 -6.6133,10.2666 -16.0533,-1.1334 -28.3333,-21.6667 -12.2667,-20.5333 -37.1867,-44.7733 -51.7867,-47.0533 -14.6133,-2.28 -33.1866,15.12 -44.52,18.5333 -11.32,3.4267 -23.4933,-18.48 -35.6,-26.8133 -12.6533,-8.72 -17.04,15.4 -20.52,15.8 1.36,-1.16 2.84,-3.2667 2.84,-7 0.053,-13.4134 10.4534,-25.6934 19.3467,-27.68 13.6,-2.52 8.3333,16.1733 34.9333,14.2533 11.5734,0.1733 20.92,-3.6267 26.64,-3.84 30.8,8.2533 38.0934,32.0933 69.7734,19.4533 6.3066,-1.3866 12.2,-1.5066 17.7466,2.8134 3.72,2.6533 6.8134,9.2533 11.1867,15.76 29.5067,43.12 17.9333,-12.0667 44.5333,-4.1734"
       style="fill:#49631f;fill-opacity:1;fill-rule:nonzero;stroke:none;stroke-width:0.133333" />
    <path
       id="path58"
       d="m 2140.7733,2898.6133 c -0.28,0.4 -0.4934,0.84 -1.6267,1.8267 0.64,-0.5067 1.1733,-1.1067 1.6267,-1.8267"
       style="fill:#335412;fill-opacity:1;fill-rule:nonzero;stroke:none;stroke-width:0.133333" />
    <path
       id="path59"
       d="m 2132.5599,2902.56 c -7.5333,4.28 -14.72,14.4267 -14.8133,25.8533 -0.1333,20.4134 -24.7733,-33.7333 -38.3333,-40.5733 -13.5867,-6.8533 -45.56,35.0133 -60.32,40.5733 -14.76,5.5867 -31.7333,-17.7066 -42.12,-27.9733 -10.3867,-10.2667 -18.44,-23.1867 -37.6933,-15.36 -21.2667,8.64 -53.6534,59.44 -58.3734,54.88 -4.7333,-4.56 -48.16,11.4133 -55.72,11.4133 -7.5466,0 7.1734,-54.52 -4.1866,-57.2933 -25.92,-6.3067 -31.2534,27.56 -40.6934,24.1467 -9.44,-3.4267 -4.9733,-21.0667 -9.84,-28.08 -4.88,-7.0134 -41.0133,26.1733 -46.2933,39.5466 -10.4,26.2267 -38.7067,-10.8666 -52.8667,-21.1333 -5.9333,-4.2933 -17.2266,-8.4667 -1.6533,-9.0533 6.0667,-0.2667 8.5867,4.0133 14.3867,6.0533 15.0266,6.44 40.9066,10.0533 55.64,0.067 6.3466,-3.6534 7.24,-9.4534 12.5466,-17.56 14.52,-16.1067 19.0534,-9.2134 28.0134,-1.7734 26.8533,13.6134 25.6933,7.9867 44.3466,4.0534 5.1734,-0.24 6.8,1.5866 10.1334,8.9466 9.84,21.52 12.8133,18.08 29.1466,13.7867 16.8267,-4.6267 37.6934,-11.5333 42.1734,-7.76 0.9066,-0.1067 1.36,-0.3733 2.6666,-1.4933 29.3467,-37.1067 43.32,-45.2267 80.9067,-13.52 8.5733,6.5466 12.2266,15.8133 22.0933,16.0533 23.8667,-4.8533 52.2133,-29.0533 75.92,-19.1067 13.88,6.2267 28.3333,14.92 44.9333,15.3067"
       style="fill:#49631f;fill-opacity:1;fill-rule:nonzero;stroke:none;stroke-width:0.133333" />
    <path
       id="path60"
       d="m 2098.9599,2892.7067 c 1.76,0.8 3.6267,1.6266 5.5334,2.44 -1.92,-0.8134 -3.7734,-1.64 -5.5334,-2.44"
       style="fill:#335412;fill-opacity:1;fill-rule:nonzero;stroke:none;stroke-width:0.133333" />
    <path
       id="path61"
       d="m 2132.5866,2902.5467 c -0.9333,0.067 -2.3733,0.027 -4.72,-0.2134 1.68,0.2134 3.2533,0.2934 4.72,0.2134"
       style="fill:#335412;fill-opacity:1;fill-rule:nonzero;stroke:none;stroke-width:0.133333" />
  </g>
</svg>
