<?xml version="1.0" encoding="UTF-8" standalone="no"?>
<!-- Created with Inkscape (http://www.inkscape.org/) -->

<svg
   version="1.1"
   id="svg1"
   width="2391.6157"
   height="3576.3198"
   viewBox="0 0 2391.6157 3576.3198"
   sodipodi:docname="tigernut.svg"
   inkscape:version="1.4.2 (f4327f4, 2025-05-13)"
   xmlns:inkscape="http://www.inkscape.org/namespaces/inkscape"
   xmlns:sodipodi="http://sodipodi.sourceforge.net/DTD/sodipodi-0.dtd"
   xmlns="http://www.w3.org/2000/svg"
   xmlns:svg="http://www.w3.org/2000/svg">
  <defs
     id="defs1" />
  <sodipodi:namedview
     id="namedview1"
     pagecolor="#ffffff"
     bordercolor="#000000"
     borderopacity="0.25"
     inkscape:showpageshadow="2"
     inkscape:pageopacity="0.0"
     inkscape:pagecheckerboard="0"
     inkscape:deskcolor="#d1d1d1"
     inkscape:zoom="0.22275001"
     inkscape:cx="-215.48821"
     inkscape:cy="1905.7239"
     inkscape:window-width="2880"
     inkscape:window-height="1766"
     inkscape:window-x="-11"
     inkscape:window-y="-11"
     inkscape:window-maximized="1"
     inkscape:current-layer="g1">
    <inkscape:page
       x="3.151577e-05"
       y="8.8254146e-06"
       inkscape:label="1"
       id="page1"
       width="2391.6157"
       height="3576.3198"
       margin="0"
       bleed="0" />
  </sodipodi:namedview>
  <g
     id="g1"
     inkscape:groupmode="layer"
     inkscape:label="1"
     transform="translate(-3546.1736,-1426.6667)">
    <g
       id="g2">
      <path
         id="path3"
         d="m 4282.7866,4281.4934 c 39.6666,-166.0533 64.5333,-333.7733 73.1333,-504.3466 8.64,-171.6 3.2,-343.68 -6.4267,-515.2 -9.1066,-162.2533 -14.9466,-327.0267 -39.1866,-487.9867 -11.12,-73.8133 -27.9467,-146.8666 -56.1067,-216.3733 -27.7867,-68.5733 -77.1733,-129.3067 -95.8267,-201.1333 -14.36,-55.28 -4.2,-122 42.3734,-159.9467 25.2933,-20.6267 56.6533,-26.3467 88.7466,-25.68 32.9867,0.68 67.5067,7.7467 97.9867,-8.3867 59.1467,-31.32 73.68,-105.3333 65.4933,-165.4266 -10.96,-80.5867 -49.6,-158.6133 -78.5066,-234.24 -35.16,-91.96 -70.32,-183.9333 -105.48,-275.8933 -46.1467,17.2266 -90.9067,38.8533 -132.72,66.0133 -75.08,244.9733 -148.3467,490.6933 -207.2,740.0933 -106.4534,451.2133 -167.3867,922.7067 -80.8267,1383.28 42.4,225.5466 130.8267,437.4 195.4,656.9733 50.44,171.4933 83.04,349.0533 55.6933,524.2266 25.2,13.2 51.0934,25.0934 77.4934,35.9067 -0.76,-38.1333 0.5866,-75.92 3.8933,-112.72 15.2267,-169.6933 62.6267,-334.04 102.0667,-499.16"
         style="fill:#c48037;fill-opacity:1;fill-rule:nonzero;stroke:none;stroke-width:0.133333" />
      <path
         id="path4"
         d="m 4996.3865,2389.1601 c 2.8534,147.32 -20.9333,292.92 -42.7066,438.0534 -44.6534,297.8533 -44.6934,596.8266 -46.9734,897.3999 -2.2933,302.4267 -0.8933,605.1867 -11.1733,907.4534 -4.2133,123.7199 -11.1733,247.4933 -22.6267,370.7733 123.5334,-2.1734 247.1067,-16.92 363.72,-50.8934 130.0667,-220.5866 221.3867,-462.4799 276.24,-712.2533 117.8534,-536.7333 76.24,-1103.2133 -66.12,-1632.4133 -115.68,-430.04 -302.3733,-882.8933 -662.0533,-1167.5599 -43.6933,-7.1067 -87.84,-11.44 -132.1333,-12.92 112.2533,187.1333 215.7333,380.2666 280.08,588.3199 37.52,121.3334 61.2933,247.1467 63.7466,374.04"
         style="fill:#c48037;fill-opacity:1;fill-rule:nonzero;stroke:none;stroke-width:0.133333" />
      <path
         id="path5"
         d="m 5260.1065,1952.3868 c 121.72,234.2 204.04,487.32 265.8934,742.5467 66.08,272.6266 104.7066,552.0933 109.7066,832.2533 8.6534,484.8933 -86.4266,973.48 -320.96,1398.6266 120.8934,-46 232.04,-115.68 324.88,-217.24 243.3734,-266.2533 289.7467,-673.16 296.8267,-1044.6133 8.1867,-428.9733 -18.4667,-865.28 -158.0667,-1260.9866 -139.6,-395.72 -404.96,-749.4 -766.7333,-898.9733 -36.9467,-15.28 -74.7067,-28.3067 -113.0533,-39.0934 149.3333,138 267.88,307.3467 361.5066,487.48"
         style="fill:#c48037;fill-opacity:1;fill-rule:nonzero;stroke:none;stroke-width:0.133333" />
      <path
         id="path6"
         d="m 3949.4532,4218.9468 c -72.32,-217.6667 -145.8933,-431.76 -176.1866,-659.8267 -30.2134,-227.3333 -27.1867,-458.0933 -3.12,-685.6133 45.5466,-430.4 164.5333,-848.52 290.4266,-1261.68 -96.6666,89.6134 -162.1066,213.64 -217.68,338.3467 -302.5733,678.9866 -377.6,1470.6799 -207.2933,2187.5999 50.9467,214.4667 127.4,429.64 273.7333,579.8133 42.44,43.5467 89.28,80.08 139.28,110.96 26.96,-205.0933 -34.48,-414.8799 -99.16,-609.5999"
         style="fill:#c48037;fill-opacity:1;fill-rule:nonzero;stroke:none;stroke-width:0.133333" />
      <path
         id="path7"
         d="m 4510.5599,2046.4935 c -3.2667,62.6133 -34.7067,127.76 -90.44,160.56 -29.96,17.64 -61.9867,21.6933 -96.4,20.1866 -30,-1.3066 -66.04,-8.3333 -90.2533,13.7867 -54.0934,49.4133 -13.68,132.3067 14.7866,182.8133 36.52,64.7867 67.3467,129.6267 87.3067,201.3734 19.7733,71.04 31.6267,143.8533 39.5067,217 17.1066,158.5866 25.3333,318.7866 33.1066,478.0133 8.2667,169.2933 11.0667,339.1066 0.2534,508.2933 -10.92,170.7067 -40.0667,337.36 -80.76,503.3333 -39.5334,161.2934 -83.7467,322.9334 -94.4667,489.3733 -1.9467,30.4 -2.3867,61.5467 -1.1733,93.0134 119.7866,41.36 248.1866,62.7066 373.7733,75.9333 69.2133,7.28 140.1333,11.9733 211.4133,12.8133 15.1733,-159.8666 22.5467,-320.6266 26.28,-481.1066 6.8933,-296.1867 6.4,-592.6267 8.6533,-888.8933 1.12,-148.7734 1.3734,-297.6534 8.7867,-446.2667 7.4133,-148.56 26.9067,-294.8133 48.8933,-441.76 21.0134,-140.4933 39.1867,-282.0533 27.4667,-424.3866 -10.24,-124.32 -40.1333,-246.0267 -82.5867,-363.4533 -67.44,-186.52 -163.8666,-360.6134 -266.7333,-530.4534 -73.72,2.1067 -147.4533,12 -219.84,29.84 -15.5466,3.84 -31.0666,8.1067 -46.5066,12.7467 41.36,108.1733 82.72,216.36 124.08,324.5333 30.8666,80.7467 69.4533,164.64 64.8533,252.7067"
         style="fill:#c48037;fill-opacity:1;fill-rule:nonzero;stroke:none;stroke-width:0.133333" />
    </g>
  </g>
</svg>
