<?xml version="1.0" encoding="UTF-8" standalone="no"?>
<svg
   version="1.0"
   width="386.16299pt"
   height="191.85576pt"
   viewBox="0 0 386.16299 191.85576"
   preserveAspectRatio="xMidYMid"
   id="svg2"
   sodipodi:docname="turtleshell.svg"
   inkscape:version="1.4.3 (0d15f75, 2025-12-25)"
   xmlns:inkscape="http://www.inkscape.org/namespaces/inkscape"
   xmlns:sodipodi="http://sodipodi.sourceforge.net/DTD/sodipodi-0.dtd"
   xmlns="http://www.w3.org/2000/svg"
   xmlns:svg="http://www.w3.org/2000/svg">
  <defs
     id="defs2" />
  <sodipodi:namedview
     id="namedview2"
     pagecolor="#ffffff"
     bordercolor="#000000"
     borderopacity="0.25"
     inkscape:showpageshadow="2"
     inkscape:pageopacity="0.0"
     inkscape:pagecheckerboard="0"
     inkscape:deskcolor="#d1d1d1"
     inkscape:document-units="pt"
     inkscape:zoom="1.7500893"
     inkscape:cx="342.83965"
     inkscape:cy="337.41136"
     inkscape:window-width="2880"
     inkscape:window-height="1766"
     inkscape:window-x="-11"
     inkscape:window-y="-11"
     inkscape:window-maximized="1"
     inkscape:current-layer="svg2" />
  <path
     id="path3"
     style="fill:#92715e;fill-opacity:1;stroke-width:0.977196"
     d="m 301.63158,3.1717772 c -0.94259,3.053434 -2.03654,3.482598 -3.19443,6.454678 -0.34643,0.8477798 -1.05226,1.6387838 -1.29695,2.5053938 -1.12076,2.4837 -2.4895,4.846354 -3.83443,7.213284 -0.5578,-1.31545 -2.23489,-1.33424 -3.40821,-0.9707 -2.03048,0.61519 -3.94708,1.64026 -6.11678,1.7631 -4.00249,0.32082 -7.95555,-0.68781 -11.82853,-1.56542 -6.87782,-1.71771 -13.84859,-2.22787 -20.76775,-3.77954 -10.92634,-2.54761 -21.38283,-4.28889 -32.53644,-5.4691498 -1.5613,-0.1769 -3.65292,-0.846024 -5.21416,-1.023504 0.0178,5.2874898 5.00016,5.7659778 0.10628,14.9163138 -1.0049,-0.99608 -2.1079,-0.0809 -3.30407,0.3024 -4.11292,0.8688 -8.93025,1.78829 -13.08531,2.11089 -9.7311,0.62181 -19.79451,1.38297 -29.54326,1.1018 -3.35827,-0.11426 -7.07188,-0.64849 -10.42007,-1.30981 -7.17013,-0.96877 -12.08866,-1.33862 -19.31496,-1.63621 -1.59354,0.0336 -5.10525,-1.68487 -6.27764,-0.36595 -0.8087,0.94594 -0.33102,2.28976 -0.96289,3.31641 -1.27701,2.66692 -2.97132,5.10433 -4.5957,7.56641 -0.23155,-1.20321 -1.70369,0.18846 -2.75077,0.63145 -2.28361,0.83697 -4.17836,1.43371 -6.47037,2.26276 -2.09051,0.85608 -3.08107,1.0983 -5.26401,1.67319 -0.42151,0.0967 -4.57002,1.78873 -5.04461,1.8938 -9.326986,2.12546 -17.128616,1.55135 -26.674786,1.27642 -3.88891,-0.12711 -6.22188,0.38188 -10.17351,0.4094 -1.44717,0.0611 -2.91117,-0.53731 -3.79784,0.83622 -0.66251,1.29782 -0.60378,1.08041 0.32356,2.12951 0.42792,0.48078 -0.14682,1.57258 0.47929,1.61381 0.77111,1.31607 1.80993,2.45253 2.75977,3.64062 -1.30702,-0.12454 -1.14558,1.66575 -1.59184,2.68086 -0.85533,2.32049 -3.56757,3.64133 -5.35127,5.27163 -0.84861,0.65459 -1.67245,1.5199 -2.74605,1.75067 -0.96626,0.0668 -1.75973,0.93893 -1.75616,1.90426 -4.93577,0.92367 -9.71701,2.52608 -14.668083,3.3847 -1.70635,0.32045 -3.61887,0.64662 -5.419812,0.88288 -0.34574,0.0287 -1.08374,0.12357 -1.5898,0.16651 -4.63445,0.46386 -9.29451,0.73421 -13.89885,1.45284 -1.47212,0.24318 -3.31134,0.74196 -3.74572,2.38261 -0.58126,3.09769 1.487321,3.70007 3.199591,6.19229 0.91861,1.31951 1.375259,4.98489 2.567989,6.06357 -1.23682,0.015 -1.109373,1.21138 -1.094463,2.39062 -2.1897,0.36683 -3.396302,2.00344 -5.131462,3.31804 -0.75436,0.59951 -3.162765,1.02028 -3.676425,1.80891 -2.37775,0.73545 -4.018152,2.9165 -5.9758319,4.40325 -1.61311,1.36477 -3.830648,2.06367 -4.699948,4.05769 -0.56944,1.317507 -0.323774,0.83036 1.017936,1.295577 1.8012,0.6987 8.1992989,1.09032 10.0964689,1.04125 -1.75059,1.4306 -7.4256449,4.59982 -8.4151849,6.67098 -0.23979,0.36126 -0.92505,0.31034 -1.24927,0.71027 -0.3721,0.37916 -0.67034,0.85973 -0.7019,1.40301 -2.01854,0.41248 -2.216346,2.80416 -3.149336,4.49328 -1.01264005,1.99388 -2.17524005,2.88466 -0.84737005,4.91608 1.54739005,2.3832 4.17579105,1.2439 6.85666105,1.21556 1.61592,-0.0181 4.8367609,1.13529 6.3559109,0.58443 -1.56518,2.63512 -4.4938259,7.14003 -5.3319759,10.0816 -0.30697,1.17693 -0.34819,2.39481 -0.65586,3.57254 -0.31494,1.31472 0.23691,2.94856 1.64501,3.33573 0.50363,0.15852 1.0857699,8e-5 1.4127499,0.52147 4.25421,3.62734 8.39514,7.3926 12.76499,10.88088 0.89212,0.74496 1.99514,1.16482 3.15283,1.22034 2.06044,0.49832 4.02626,1.58983 5.82229,2.49786 2.31981,1.19007 4.55552,2.5597 6.833472,3.80719 0.52087,0.24345 1.21416,0.0917 1.66602,-0.01 0.17731,0.77074 0.50211,1.60701 1.02871,2.15881 4.048443,0.96582 7.863733,2.68552 11.838243,3.89635 3.41566,1.06738 6.8849,2.04165 10.42249,2.58319 4.00728,0.002 8.01997,0.48375 11.87853,1.5804 3.74775,0.6139 7.57499,0.21511 11.31457,-0.26661 1.14233,-0.21991 2.35905,-0.30919 3.3866,-0.8955 0.60263,3.14847 1.17784,6.34511 2.40687,9.32047 0.36261,0.91128 1.13491,1.74111 2.18493,1.67758 6.871306,0.0663 13.683106,-1.15465 20.552726,-1.1582 2.40984,0.0139 4.84192,0.29519 7.13418,0.71794 3.40287,0.61468 6.71166,1.65041 10.0709,2.45979 -1.01267,2.0623 -1.50302,4.75094 -0.0352,6.72656 0.92909,1.28934 2.46275,1.92686 3.99898,2.11441 5.79608,0.92733 11.66328,1.31108 17.51255,1.74401 7.70925,0.48956 15.43412,0.94667 23.1623,0.81151 2.17064,-0.051 4.59676,-0.20623 6.20917,-1.85757 0.40488,-0.37851 0.7325,-0.835 1.00763,-1.31431 1.32772,2.03193 3.51223,3.32947 5.72851,4.19141 2.83163,0.90369 5.76491,-0.15967 8.5032,-0.90617 1.12242,-0.33944 2.59086,-0.53663 3.87582,-0.65991 3.36649,-0.35443 6.79709,-0.53907 10.03512,-1.59419 6.00582,-0.50294 12.00074,-1.38365 17.83322,-2.92244 1.97087,-0.61291 4.17378,-1.09664 5.61592,-2.68878 -0.008,1.20676 0.70388,2.66673 2.07813,2.63672 2.15594,-0.35412 4.19195,-1.22623 6.27067,-1.877 4.09507,-1.50886 8.26356,-2.86389 12.57458,-3.60444 3.72107,-0.74996 7.43095,-0.8362 11.20162,-1.38184 3.96463,-0.62124 8.15608,-1.53966 11.23633,-4.28711 0.51657,-0.47772 0.99105,-0.99994 1.40625,-1.56836 -0.48593,0.98084 -0.3309,2.39732 0.7832,2.85742 1.65816,0.33174 3.24443,-0.5707 4.71043,-1.22918 4.85525,-2.4809 9.24408,-5.79622 13.25523,-9.47016 4.59173,-3.85238 9.56324,-7.22752 14.67138,-10.35273 5.20816,-3.44193 10.17861,-7.28787 14.60739,-11.69643 1.17249,-1.30099 2.61678,-2.58068 3.00971,-4.35639 0.16748,-1.02314 1.56356,-4.0948 0.39583,-4.34389 -0.87615,-1.08722 -1.42049,-0.12693 -0.32473,-1.19654 0.8334,-0.9023 1.97362,-1.93042 1.80758,-3.26679 0.48207,0.54934 1.03727,0.43412 1.61571,0.10428 6.34654,-2.55238 12.84655,-4.81146 18.8193,-8.19216 2.19962,-1.16329 4.22479,-2.64736 5.90208,-4.49308 2.80527,-3.02898 5.40182,-6.3123 7.30353,-9.9913 0.59991,-1.18892 1.09259,-2.71276 0.21289,-3.89844 -0.13503,-0.30967 -0.93404,-1.02632 -0.14062,-0.60742 1.50893,0.48626 2.96912,-0.57293 3.70897,-1.82595 1.29119,-2.069137 2.29869,-4.312207 3.20118,-6.574437 2.00515,-5.81369 1.78428,-12.14147 0.76246,-18.12771 -0.72513,-3.96331 -1.79213,-7.88502 -3.35919,-11.60076 -0.78922,-1.64407 -1.90768,-3.12617 -3.25678,-4.35161 1.2848,0.27655 2.64237,0.81958 3.956,0.46771 1.12945,-0.35833 1.17359,-1.72156 1.19971,-2.72126 0.17654,-4.60114 -0.75524,-9.18165 -0.39003,-13.77947 0.15665,-2.53671 1.19425,-5.02138 3.05915,-6.77575 1.5401,-1.43304 3.16787,-2.86972 5.10876,-3.72834 2.16664,-0.86603 0.99147,-0.88395 3.11322,-1.92371 1.13445,-0.57863 1.12191,-0.99459 0.24143,-1.81327 -1.60232,-1.56323 -1.4357,-0.99705 -3.43351,-1.94669 -3.39698,-1.51844 -5.84222,-2.8075 -9.50122,-3.08195 1.23756,-0.16627 2.63714,-0.0545 3.71172,-0.76599 0.91984,-0.69314 -1.83113,-2.80597 -2.13824,-3.76603 -0.90095,-2.52855 -0.48899,-3.92598 -2.21973,-5.981542 -0.70492,-0.87103 -1.09703,-1.645912 -2.20531,-1.263792 -0.5675,0.16069 -0.58468,0.645894 -0.95407,1.113224 -0.90953,-0.21525 -2.75054,0.94507 -3.11731,1.79492 -2.54868,0.21485 -4.43424,1.72486 -6.90062,2.29081 -3.41384,1.02276 -6.94003,0.65764 -10.41254,1.42561 -1.19191,0.3109 -2.8441,0.60647 -3.14582,2.02173 0.11414,0.87243 -0.10022,0.72887 -0.74386,0.2882 -3.20986,-1.93141 -6.61988,-3.57123 -9.58711,-5.87785 0.0527,-1.498254 -2.16412,-1.092881 -3.31662,-1.653191 -1.43628,-0.65945 -2.36534,-2.267873 -3.93338,-2.339003 -1.32929,-1.65636 -3.37013,-0.878667 -5.16314,-1.952277 -2.26546,-1.2186198 -3.65157,-2.7841298 -6.18634,-3.3278798 -0.68748,0.0704 -2.76562,-1.529602 -3.3131,-1.824712 -3.21066,-2.15547 -5.873,-3.318518 -9.40644,-4.81242802 -0.86537,-0.34278 0.14396,0.26217 -0.72163,-0.08003 -0.11784,0.58658 -0.1581,-0.251324 -0.33458,0.320366 z m -18.193,165.2612528 c -0.10151,0.64474 -0.27676,1.28529 -0.59766,1.85742 0.27196,-0.68459 0.47607,-1.39489 0.62891,-2.11524 -0.0104,0.0859 -0.0208,0.17188 -0.0312,0.25782 z"
     sodipodi:nodetypes="sccccccccccccccccccccccccccccccccccccccccccccccccccccccccccccccccccccccccccccccccccccccccccccccccccccccccccccccccccccccccccccccccccccccccccsssccss" />
  <g
     transform="matrix(0.1,0,0,-0.1,-54.455576,365.10164)"
     fill="#000000"
     stroke="none"
     id="g2">
    <path
       d="m 3556,3644 c -3,-9 -5.8217,-25.5841 -12.6961,-31.3929 -11.5173,-9.7322 -20.8749,-29.3224 -43.8749,-63.3224 -36,-54 -41.429,-84.2847 -79.429,-96.2847 -56,-17 -97,-12 -236,27 -121,34 -331,74 -441,85 l -71,7 13,-39 c 39,-108 -1,-128 -284,-139 -116,-5 -188,-3 -281,9 -69,9 -158,17 -199,18 l -73,2 -13,-36 c -7,-21 -18,-43 -24,-51 -18,-21 -75,-46 -171,-74 -77,-23 -103,-26 -270,-26 -205,-1 -196,3 -160,-67 18,-37 18,-37 -6,-72 -42,-63 -174,-112 -328,-122 -133,-10 -146,-13 -146,-38 0,-12 11,-39 25,-59 32,-48 32,-72 -2,-87 -31,-14 -164,-110 -175,-125 -12,-18 3,-26 48,-26 50,0 56,-10 19,-34 -41,-27 -91,-81 -105,-115 -18,-45 -3,-56 70,-55 43,1 60,-3 60,-12 0,-7 -5,-16 -10,-19 -16,-10 -50,-82 -50,-105 0,-15 5,-20 17,-18 13,2 19,14 21,41 18.97746,47.3905 19.98317,59.6328 49,114 35,38 135,97 189,113 35,11 50,10 95,-5 71,-24 219,-114 219,-135 0,-3 -15,-11 -33,-18 -50,-18 -109,-73 -157,-147 l -43,-65 -32.07137,-81.8519 c -119.35457,46 -226.99618,102.6416 -297.74599,208.7437 -56,6 -22.46661,-14.7491 -20.46661,-25.7491 C 618.72733,2273.1126 926.48725,1952.2914 1375,1985 h 64 l 10,-40 c 20,-78 22,-79 148,-65 110,12 165,8 235,-19 21,-8 27,-16 26,-41 -1,-45 14,-54 98,-58 41,-3 433.4697,-20.1212 431.4697,-26.1212 121.5163,-24.6001 454.0325,83.4974 547.5303,44.1212 13,21 180,70 257,76 46,3 101,11 123,17 22,6 45,11 52,13 41,8 128,59 172,101 27,27 92,75 143,107 140,89 192,144 212,228 4,20 17,30 53,43 104,38 194,89 226,128 32,39 76,112 119,197 31,60 31,186 0,279 -17,52 -19,68 -9,85 7,12 5.2497,59.4873 12,106 l 15.9091,109.6212 c 0,0 27.0789,39.9539 95.8636,64.394 C 4432.092,3343.0114 4375,3380 4366,3380 c -9,0 -16,7 -16,15 0,8 -6,15 -13,15 -19,0 -41,28 -57,70 -19,51 -24,53 -61,31 -100,-57 -218,-69 -295,-28 -90,47 -353,177 -357,177 -3,0 -8,-7 -11,-16 z m 508,-265 c 6,-5 2,-16 -8,-28 -21,-23 -56,-131 -56,-173 v -30 l -67,7 c -85,8 -573,85 -581,91 -2,1 30,54 71,116 42,62 120.1341,220.2341 154.2678,266.3377 C 3608.4625,3610.1265 4045.88,3395.61 4064,3379 Z m -1194,136 c 14,-2 45,-8 70,-13 25,-5 52,-10 60,-10 15,0 21,-2 100,-22 93,-24 116,-29 165,-40 28,-6 65,-15 83,-20 20,-5 32,-4 32,2 0,5 6,8 12,6 7,-3 21,4 32,14 39,36 27,7 -35,-86 -60,-88 -66,-94 -97,-93 -38,1 -72,-34 -92,-94 -12,-36 -13,-36 -79,-43 -113,-10 -300,-7 -431,9 -69,8 -131,15 -137,15 -7,0 8,30 33,68 67,97 137,249 134,291 l -2,34 64,-8 c 34,-4 74,-9 88,-10 z m 1394,-64 28,-29 -66,-1 c -40,0 -78,-7 -97,-16 -25,-14 -36,-14 -60,-5 -15,7 -33,18 -39,25 -9,11 -1,14 42,13 31,0 73,8 103,20 28,11 53,21 56,21 3,1 18,-12 33,-28 z m 21,-51 c 22,-5 44,-15 50,-23 5,-8 21,-17 33,-21 22,-7 21,-9 -18,-28 -62,-31 -84,-82 -77,-178 8,-97 1,-108 -47,-79 -30,18 -47,20 -104,17 -37,-3 -75,-9 -86,-13 -18,-8 -18,-3 -14,86 3,79 8,102 32,145 45,84 129,118 231,94 z m -2268,-15 c 51,-3 104,-10 118,-15 58,-22 471,-4 502,22 41,34 10,-55 -53,-152 -58,-91 -62,-93 -132,-85 -55,6 -61,5 -78,-17 -11,-14 -30,-54 -44,-91 -21,-55 -29,-67 -50,-69 -14,-2 -157,-2 -317,0 l -293,3 v 28 c 0,76 52,185 136,285 18,21 40,54 49,73 14,29 20,33 43,29 15,-3 69,-8 119,-11 z m -278,-139 c -44,-67 -76,-145 -84,-209 -7,-54 -9,-57 -35,-57 -32,0 -45,-13 -76,-80 l -23,-49 -93,97 c -107,112 -145,154 -176,199 -40,57 -36,59 103,55 148,-5 269,15 355,58 30,15 56,28 57,29 1,1 -11,-19 -28,-43 z m 2066,-94 c 44,-7 106,-13 137,-14 l 56,-3 4,-40 c 3,-30 0,-43 -14,-53 -38,-28 -50,-69 -47,-170 2,-77 0,-97 -11,-100 -38,-12 -238,-113 -262,-132 -29,-22 -39,-72 -18,-85 15,-9 3,-24 -18,-23 -30,2 -203,-23 -301,-43 -51,-10 -95,-19 -97,-19 -10,0 -48,91 -65,157 -23,93 -25,217 -4,337 17,99 60,218 91,251 l 20,22 225,-37 c 123,-20 260,-42 304,-48 z m -1225,-34 c 123,-16 220,-22 383,-22 189,-1 216,-3 211,-16 -4,-8 -15,-55 -25,-105 -34,-166 -19,-346 38,-458 13,-27 23,-50 21,-52 -2,-1 -13,-8 -25,-14 -24,-12 -32,-54 -13,-66 32,-20 -9,-24 -212,-22 l -223,2 -2,-25 c 0,-14 -1,-28 -2,-31 -1,-3 -27,-2 -58,3 -216,32 -358,46 -375,37 -10,-5 -18,-21 -18,-35 0,-21 -4,-25 -22,-22 -23,3 -23,5 -22,148 2,125 7,169 38,320 20,96 39,186 42,200 12,60 75,180 93,180 4,0 80,-10 171,-22 z m -1291,-50 c 23,-29 81,-92 128,-141 l 86,-87 -244,1 c -234,1 -298,-5 -405,-36 -27,-8 -68,43 -57,71 4,11 3,15 -4,11 -6,-4 -13,2 -16,13 -7,27 19,40 70,33 25,-3 43,-1 47,6 4,6 27,11 50,11 24,0 73,11 110,25 36,14 66,22 66,19 0,-3 7,2 16,10 8,9 21,16 29,16 7,0 16,7 19,16 3,8 10,13 14,10 5,-3 15,13 22,34 7,22 16,40 20,40 3,0 26,-24 49,-52 z m 2918,-7 c 39,-18 43,-25 63,-88 41,-132 38,-228 -12,-311 l -20,-32 -41,36 c -23,19 -85,56 -137,82 l -95,47 -8,49 c -17,102 23,192 95,214 82,26 103,26 155,3 z M 2297,2956 c 2,-2 -2,-18 -7,-37 -39,-130 -72,-334 -77,-477 l -6,-154 -31,6 c -17,3 -100,8 -184,12 -142,6 -154,5 -167,-12 -8,-11 -15,-29 -15,-41 0,-27 3,-27 -85,-8 -39,8 -96,15 -127,15 -45,0 -62,5 -85,24 -38,32 -128,84 -158,92 -14,3 -25,10 -25,14 0,4 18,48 40,97 23,48 55,120 73,158 17,39 59,124 92,190 60,120 60,120 100,126 34,4 656,0 662,-5 z m -797,-136 c 0,-3 -35,-82 -79,-175 -43,-94 -84,-187 -92,-208 -13,-38 -14,-39 -54,-32 -22,3 -51,17 -65,30 -40,38 -167,112 -217,127 -38,11 -49,19 -60,48 -8,19 -28,63 -44,98 -16,35 -29,67 -29,72 0,10 75,28 160,39 71,8 480,9 480,1 z m -685,-26 c 15,-6 55,-73 55,-92 0,-5 -30,-16 -67,-25 -125,-29 -138,-30 -154,-11 -9,11 -9,15 -1,10 7,-4 12,-1 12,9 0,9 9,19 20,22 11,3 17,10 13,16 -4,6 0,8 8,5 8,-3 31,11 54,33 22,22 40,39 41,39 1,0 10,-3 19,-6 z m 3248,-68 c 48,-25 105,-62 127,-83 l 40,-38 -50,-67 c -43,-58 -60,-73 -127,-107 -43,-21 -97,-44 -120,-51 -42,-13 -43,-13 -100,31 -97,73 -173,152 -173,182 0,23 14,33 151,101 83,42 154,76 158,76 3,0 45,-20 94,-44 z M 902,2634 c 21,-48 16,-63 -20,-64 -20,0 -112,-49 -165,-88 -47,-34 -49,-34 -90,-22 -23,8 -45,15 -49,17 -10,5 13,53 25,53 13,0 54,45 62,69 6,21 39,37 97,47 20,3 54,12 75,20 21,7 39,13 41,14 2,0 12,-21 24,-46 z m 2758,-122 c 0,-29 -131,-155 -200,-193 -42,-23 -55,-26 -94,-18 -126,23 -228,107 -168,137 19,10 133,33 282,56 52,9 106,17 120,19 45,7 60,7 60,-1 z m 92,-60 c 26,-25 64,-56 85,-70 21,-14 40,-27 43,-29 11,-10 -163,-151 -210,-171 -19,-8 -79,-18 -133,-23 -54,-4 -113,-11 -132,-15 l -35,-6 v 39 c 0,52 19,76 98,122 70,41 158,123 192,179 23,38 25,37 92,-26 z m -2392,-97 c 49,-25 160,-94 160,-100 0,-2 -16,-26 -35,-55 -38,-57 -55,-106 -55,-162 v -38 h -48 c -27,0 -105.284,-4.2494 -132.284,3.7506 -114.7687,9.12 -179.8189,27.6691 -285.96619,87.0345 2,90 117.25019,243.2149 210.25019,285.2149 44,20 122,11 186,-21 z m 1674,-10 c 150,-5 184,-9 217,-26 21,-10 61,-25 89,-32 49,-13 49,-13 34,-35 -8,-12 -22,-22 -30,-22 -25,0 -217,-80 -277,-115 l -58,-34 -57,21 c -69,26 -146,100 -181,175 -32,68 -25,82 36,77 26,-1 128,-6 227,-9 z m -494,-36 c 74,-10 149,-19 165,-19 26,0 36,-9 75,-67 46,-69 118,-128 169,-139 54,-12 58,-14 40,-28 -13,-8 -43,-9 -115,-4 -104,9 -273,3 -337,-12 -36,-8 -42,-6 -80,28 -102,91 -183,233 -151,265 7,7 37,4 234,-24 z m 1330,-13 c 0,-15 -32,-59 -68,-94 -13,-12 -75,-56 -138,-97 -63,-41 -129,-90 -147,-109 -31,-34 -100,-77 -145,-90 l -22,-7 21,36 c 19,32 21,46 16,110 l -7,73 33,7 c 17,3 76,10 130,15 119,10 182,37 259,114 57,57 68,64 68,42 z m -1662,-23 72,-6 32,-56 c 17,-31 61,-86 98,-122 57,-58 64,-68 49,-77 -13,-8 -30,-6 -69,9 -60,23 -189,49 -240,49 -47,0 -137,-43 -182,-87 l -36,-35 -18,33 c -66,122 -97,242 -77,295 6,15 20,16 152,10 80,-4 179,-9 219,-13 z M 1281,1993 C 0,4500 0,4500 1281,1993 Z m 445,230 82,-17 22,-75 c 23,-79 52,-144 77,-173 13,-15 12,-20 -11,-51 l -26,-34 -78,19 c -69,17 -88,18 -184,8 -59,-7 -112,-9 -117,-6 -18,11 -43,120 -39,167 5,51 37,123 68,157 26,28 90,29 206,5 z m 1630,-55 c 0,-24 4,-75 8,-114 7,-58 5,-77 -8,-107 -24,-48 -63,-64 -183,-76 -69,-6 -120,-17 -164,-36 -90,-37 -99,-40 -99,-24 1,38 31,133 56,179 38,70 122,126 289,191 97,38 100,37 101,-13 z M 2327,2020 c 115,-31 109,-27 86,-53 -35,-38 -46,-69 -44,-129 1,-55 0,-58 -26,-64 -16,-3 -34,-7 -41,-10 -18,-5 -396,14 -416,22 -21,8 -20,31 2,72 33,62 154,170 207,185 36,10 153,-1 232,-23 z m 628,8 c 2,-2 -7,-26 -20,-53 -13,-28 -27,-69 -31,-93 -5,-35 -12,-45 -33,-53 -58,-23 -141,-40 -231,-49 -52,-5 -114,-16 -138,-24 -39,-14 -45,-14 -74,2 -50,28 -58,89 -23,167 41,90 136,116 398,111 81,-2 150,-6 152,-8 z"
       id="path1"
       sodipodi:nodetypes="sscccccccccccccccccscccscccscscccccsccccccccccccccccscccccscccscsssscccssccscccccccsscccsccccsccsccccccccccccccccccccccccccccccccccccsccccccscccccssccccscccccccsccccccccccccsccccsccsccccscccccccccccscscscccsccccccccccccccccccscsccsccsccsccccccsscscscccsssscsccccccccscscccccsscccccscccccscscccccsccccscscsccccccccscccccccsccccccscscsccccccccssccccccsccccccssccccccccccccccccccccccccccccccsccccccccs" />
  </g>
</svg>
