<?xml version="1.0" encoding="UTF-8" standalone="no"?>
<svg
   version="1.1"
   width="311.49069"
   height="279.21704"
   id="svg276"
   sodipodi:docname="yarrow-flower-vector-illustration-svg_11022804.svg"
   inkscape:version="1.4.2 (f4327f4, 2025-05-13)"
   xmlns:inkscape="http://www.inkscape.org/namespaces/inkscape"
   xmlns:sodipodi="http://sodipodi.sourceforge.net/DTD/sodipodi-0.dtd"
   xmlns="http://www.w3.org/2000/svg"
   xmlns:svg="http://www.w3.org/2000/svg">
  <defs
     id="defs276">
    <clipPath
       clipPathUnits="userSpaceOnUse"
       id="clipPath493">
      <rect
         style="fill:#ffffff;stroke:#000000;stroke-width:10"
         id="rect493"
         width="312.45792"
         height="283.90573"
         x="0.53872055"
         y="-0.53872055" />
    </clipPath>
  </defs>
  <sodipodi:namedview
     id="namedview276"
     pagecolor="#ffff00"
     bordercolor="#000000"
     borderopacity="0"
     inkscape:showpageshadow="2"
     inkscape:pageopacity="0.0"
     inkscape:pagecheckerboard="0"
     inkscape:deskcolor="#d1d1d1"
     inkscape:zoom="2.6251339"
     inkscape:cx="-14.475452"
     inkscape:cy="121.70808"
     inkscape:window-width="2880"
     inkscape:window-height="1766"
     inkscape:window-x="-11"
     inkscape:window-y="-11"
     inkscape:window-maximized="1"
     inkscape:current-layer="svg276" />
  <path
     id="path2"
     clip-path="url(#clipPath493)"
     d="m 158.04688,-3.9003906 c -4.65965,0.1849943 -8.21594,3.28523035 -13.48829,3.11718748 -3.27098,-0.21776288 -4.8045,-0.46178468 -7.48828,1.49609374 -1.8443,1.69833158 -1.8443,1.69833148 -4.23828,1.72656248 -2.25843,-0.1548422 -4.44836,-0.3231183 -6.71094,-0.2226562 -1.77593,2.0889089 -1.77593,2.0889089 -3.83984,2.5625 -2.07609,0.4330008 -4.12014,0.855793 -6.16016,1.4375 -4.63461,3.089745 -6.59223,7.1310751 -7.75,12.4375001 l -0.25,2.5625 c -0.63351,-0.01196 -1.24839,-0.02356 -1.86328,-0.03516 -1.23685,-0.0138 -1.23685,-0.0138 -2.44922,-0.02734 -3.834302,-0.05557 -6.497583,0.07091 -9.562496,2.625 -4.872881,5.589481 -7.613297,10.250234 -8.082032,17.75 l -0.04297,1.6875 h -7 v 2 l 1.933594,0.734375 2.503906,1.015625 2.496094,0.984375 c 2.251394,1.084941 2.251394,1.084941 2.851562,3.40625 0.07305,0.632187 0.143944,1.245781 0.214844,1.859375 1.830959,0.0809 3.661847,0.163952 5.492187,0.257812 0.767656,0.03985 1.512735,0.07852 2.257813,0.117188 5.515468,0.233872 9.724158,0.44449 14.029298,4.162109 0.61003,0.614258 1.20284,1.21045 1.79492,1.806641 0.68324,0.683901 1.34469,1.347932 2.00781,2.011719 1.0624,1.083111 1.06411,1.082867 2.10547,2.144531 1.44406,1.468728 2.88678,2.938773 4.32813,4.410156 1.32633,1.365029 2.65426,2.728503 3.98437,4.089844 2.40981,2.365054 4.74751,4.722073 6.98047,7.253906 7.69627,10.465139 17.97087,27.427357 17.01953,40.746097 -1.03955,3.05768 -2.0078,6.03333 -2.71484,9.1875 -0.22197,1.17564 -0.4369,2.31597 -0.65234,3.45703 -1.51915,8.03461 -2.92493,16.09039 -4.26758,24.15625 -0.12435,0.74811 -0.24455,1.47312 -0.36524,2.19922 -3.92832,23.2799 -4.44987,46.09294 -4.26953,69.66406 0.0129,1.33481 0.0158,1.52023 0.0254,2.51562 3.13085,-0.6152 6.77016,16.62084 10.2979,15.64799 0.002,-1.57839 -0.18547,-21.06175 -0.18047,-22.64017 0.002,-0.95011 0.007,-1.90001 0.01,-2.87891 0.0177,-5.62808 0.051,-11.25489 0.0977,-16.88281 0.017,-2.10308 0.0291,-4.20743 0.041,-6.31055 0.19882,-22.68579 3.94026,-45.12856 8.54101,-67.30273 0.18531,-0.91927 0.36963,-1.83804 0.56055,-2.78516 1.90181,-8.61381 6.25758,-13.64238 12.50195,-19.58984 7.31704,-7.12681 13.62036,-14.751004 19.25782,-23.289066 2.11721,-2.148435 2.1172,-2.148439 5.13281,-2.636718 1.60099,0.08701 1.60102,0.08701 3.23437,0.175781 1.07765,0.04512 2.15532,0.09024 3.26563,0.136719 0.81985,0.05801 1.63968,0.116016 2.48437,0.175781 2.24626,6.404911 4.0905,12.842025 5.6875,19.437503 0.22494,0.8772 0.44988,1.75441 0.68164,2.6582 2.13511,8.80652 3.20139,16.30083 -1.41601,24.41992 l -1.32813,2.17188 c -0.67894,1.16426 -0.6804,1.16377 -1.37304,2.35156 -3.25839,5.51567 -6.76063,10.85917 -10.36328,16.1543 -12.43084,18.32204 -24.5273,38.22843 -31.94336,59.1582 -0.90585,2.53787 -1.94319,4.95215 -3.07032,7.39844 -1.36368,3.01136 -2.50295,6.0415 -3.47656,9.10937 6.96317,-3.22764 13.48112,-8.45309 17.67188,-17.64062 0.64666,-1.40467 1.28991,-2.81092 1.92968,-4.21875 2.70092,-6.2761 5.66861,-12.33981 8.87305,-18.37696 0.63816,-1.18917 1.25756,-2.34385 1.87695,-3.49804 5.06169,-9.44487 10.27296,-18.78874 15.72266,-28.01563 0.34875,-0.58951 0.68884,-1.16221 1.02734,-1.73437 7.33931,-12.44164 12.89195,-23.66478 26.80079,-29.3086 9.72774,-3.67856 20.64767,-8.31445 27.82421,-16.0664 0.50602,-0.57242 0.99716,-1.12802 1.48829,-1.6836 2.25206,-2.13788 4.37085,-2.3865 7.38671,-2.3164 2,2 2,2 4.34375,2.4375 3.29477,-0.54267 3.29477,-0.54267 7.15625,-5.4375 2.11406,-2.812856 2.11406,-2.812833 4.5,-5.000003 2.58014,-0.542233 2.58014,-0.542233 5,0 3.92288,2.24165 6.9494,3.32305 11.4375,3.5625 4.96679,-0.14928 7.87278,-1.2433 11.38672,-4.765625 1.92819,-2.946742 1.70553,-5.419717 1.17578,-8.796875 l -1,-1 c 0.0265,-0.741094 0.0523,-1.460391 0.0781,-2.179688 0.17059,-2.674697 0.24261,-5.157691 -0.0781,-7.820312 -0.78625,-0.595 -1.54938,-1.1725 -2.3125,-1.75 -2.96782,-1.055446 -2.96782,-1.055446 -4.3125,-4.25 -1.375,-3 -1.375,-3 -2.5625,-4.875 -2.08124,-1.2918 -2.08124,-1.2918 -6,-1.3125 -1.92531,0.09469 -1.92531,0.09469 -3.8125,0.1875 0.56698,-4.391865 0.85134,-8.300176 -1.17187,-12.339844 -4.08035,-5.217019 -8.28317,-6.910231 -14.66797,-8.285156 l -2.16016,-0.375 c 0,-2.586207 0,-2.586207 -3,-6 -4.40866,-3.463944 -4.40866,-3.463944 -13.5625,-2.9375 -4.17169,0.260063 -7.3921,0.855355 -10.71093,-2.058594 -1.72656,-2.003906 -1.72657,-2.003906 -3.76172,-2.324219 -1.98197,0.190942 -3.9747,0.257133 -5.96485,0.320313 -3.22214,-2.148092 -4.27775,-2.293862 -8,-2 -1.03406,1.25949 -1.03406,1.259486 -3.28515,1.097656 -1.40256,-0.01776 -1.40256,-0.01776 -2.77735,-0.03516 -1.64588,-0.01616 -3.29175,-0.03562 -4.9375,-0.0625 0.065,-2.990667 0.3544,-5.291207 -1,-8 -3.58085,-3.580856 -6.36007,-5.300486 -11.25,-6.6875 -1.59475,-0.393855 -3.1815,-0.824462 -4.75,-1.3125 l -2,-2.0000001 c -1.68756,-0.964321 -3.34973,-1.973166 -5,-3 -0.99565,-1.0665754 -1.99604,-2.1287373 -3,-3.1875 -3.48491,-3.14416318 -6.25918,-3.17550102 -10.875,-3.12500002 -2.04088,0.11854779 -4.08248,0.22665499 -6.125,0.3125 l -1,-1 c -3.98923,0.13079439 -6.85679,0.78391591641 -10.1875,-1.49999998 -0.61625,-0.51 -1.21437,-1.005 -1.8125,-1.5 -0.71884,-0.1105915 -1.40855,-0.1436153 -2.07421,-0.1171875 z M 139.57055,240.35271 c -5.40998,6.03154 -6.39192,-8.22666 -8.01,-7.83513 2.75578,7.82939 5.19977,15.77701 7.56054,23.69922 -0.14296,-1.39613 -0.28951,-2.79189 -0.4375,-4.1875 -0.0812,-0.7773 -0.56672,-3.10344 -0.65039,-3.9043 -0.28102,-2.45309 0.12223,-0.90359 -0.42187,-3.27148 -0.46318,-2.48524 -0.63603,-4.74641 -0.66797,-7.26954 -0.0126,-0.89539 -0.0261,-1.79232 -0.0391,-2.71484 -0.008,-0.96312 4.43074,0.83528 4.42294,-0.15703 -3.63836,-7.68626 -1.75665,5.6406 -1.75665,5.6406 z m -8.01,-7.83513 c -2.69374,-7.65314 -5.68538,-15.19329 -9.18946,-22.48828 -1.99037,-4.10206 -3.81147,-8.13209 -5.3125,-12.4375 -1.42831,-4.11942 -3.10167,-8.0445 -4.9375,-12 -1.32465,-2.80049 -2.66034,-5.59273 -3.89648,-8.4336 -2.48508,-5.72892 -5.31183,-11.2055 -8.291016,-16.6914 l -1.365235,-2.4961 -1.302734,-2.42578 c -2.103764,-3.8609 -3.607973,-7.24895 -2.625,-11.67578 2.500023,-7.33202 -9.789108,4.24662 -5.628906,12.98633 0.771841,1.64341 1.5586,3.27869 2.359375,4.9082 5.047891,10.22602 9.980376,20.41649 13.824216,31.16211 0.97607,2.73301 1.98293,5.42139 3.14844,8.08008 3.70276,7.88176 6.85973,15.92823 9.95898,24.0625 0.27766,0.73064 1.31074,1.72499 1.58023,2.43414 0.53568,2.49346 1.71552,5.54483 2.80642,5.73092 l 1.00703,1.52077 c 0.39836,-3.23236 18.24111,39.77146 23.00623,38.61845 z M 129.12109,63.216797 h 8 v 11 c -5.80205,-5.645244 -5.80205,-5.645244 -8,-9 z m 48,1 c 0.0735,0.995801 0.0735,0.995801 0.14844,2.011719 0.0748,0.883008 0.14953,1.766016 0.22656,2.675781 0.0696,0.870117 0.13922,1.740235 0.21094,2.636719 0.26225,2.736668 0.26225,2.736667 1.76953,5.074218 0.31904,1.287773 0.31904,1.287774 0.64453,2.601563 -1.5903,2.609808 -3.08549,4.655963 -5.0625,6.9375 -0.49178,0.594902 -0.98355,1.189805 -1.49023,1.802734 -0.98291,1.184924 -1.97602,2.36313 -2.97656,3.533203 -1.45203,1.703431 -2.86518,3.433039 -4.2793,5.167969 -1.08475,1.266504 -1.08475,1.266504 -2.19141,2.558594 h -1 c 0.30261,-2.673056 0.64091,-5.334283 1,-8 0.0993,-0.844336 0.19852,-1.688672 0.30079,-2.558594 0.81029,-5.639268 4.99356,-24.441406 12.69921,-24.441406 z m -35,1 h 2 c 0.57363,0.656133 1.14728,1.312266 1.73829,1.988281 2.96734,2.63934 4.5493,2.403478 8.44921,2.199219 1.93657,-0.08664 3.87426,-0.155245 5.8125,-0.1875 l 1,1 c -0.45586,5.804158 -1.74081,10.989022 -3.5625,16.5 -0.23396,0.727031 -0.46793,1.454062 -0.70898,2.203125 -0.56985,1.767678 -1.14827,3.532585 -1.72852,5.296875 h -2 c -0.38672,-0.906211 -0.77343,-1.812422 -1.17187,-2.746094 -0.25048,-0.585879 -0.50169,-1.171759 -0.75977,-1.775391 -0.54871,-1.283555 -1.09721,-2.567411 -1.64453,-3.851562 -1.5258,-3.56935 -3.09992,-7.106562 -4.73633,-10.626953 -1.48852,-3.304397 -2.31498,-6.367924 -2.6875,-10 z m 70,24 h 4 c 0.12086,6.432554 -0.17648,12.617733 -1,19.000003 l -2,-1 z m 40,5 1,4 c -0.74765,0.542695 -1.49531,1.085391 -2.26562,1.644531 l -2.98438,2.167972 c -0.97453,0.70769 -1.94906,1.41539 -2.95312,2.14453 -1.6979,1.24022 -3.38013,2.50285 -5.03125,3.80469 -1.76563,1.23829 -1.76563,1.23828 -3.76563,1.23828 0.48996,-4.24634 2.87516,-7.26051 6,-10.000003 3.23765,-1.896053 6.56594,-3.493012 10,-5 z m -27,2 h 6 c -1.26941,3.914023 -2.51167,5.790723 -6,8.000003 z"
     sodipodi:nodetypes="cccccccccccccccccccccccccccccccccccccccccccccccccccccccccccccccccccccccccccccccccccccccccccccccccccccccccccsccccccccccccccccccccccccccccccccccccccccccccccccccccccccccccccccccccccccccccccccccc" />
  <path
     d="m 154.1203,2.2170452 c 7.33659,-1.59246626 9.81473,11.8524738 17.80005,3.6899394 12.65991,-6.12682043 19.09169,8.8139444 31.07596,9.2271084 11.88219,1.726737 15.35415,20.039821 0.97073,20.58635 5.40935,1.352906 14.56901,11.449362 10.66032,-0.0093 6.64852,-6.139412 21.90395,-6.031727 28.34476,-0.604535 2.53324,10.324039 10.83945,-5.484652 17.73904,2.188501 7.14454,-0.266001 6.32864,2.795088 9.03256,7.683468 10.79213,-4.081358 24.07825,12.500755 11.42294,18.945953 -11.47356,6.127411 -14.46646,-20.152566 -20.89259,-7.530879 -5.64543,0.439836 -12.50636,1.004675 -2.71115,0.888929 12.41728,-2.870684 19.09698,16.644435 4.73154,18.948961 -10.16989,5.85992 -15.25884,-7.410955 -21.29997,-9.696794 -3.2366,13.365917 -23.11036,1.436069 -24.98235,-0.171888 13.46189,7.052425 0.62632,26.339805 -10.0695,15.218579 -4.47277,-5.164448 -5.84239,-8.676101 -12.52968,-4.418866 -12.45637,3.602848 -20.94377,-17.554448 -8.93356,-21.639376 5.25544,-1.035259 9.62433,-1.746844 2.18314,-3.940636 1.76605,-5.038509 9.63633,-13.451916 0.0748,-6.981476 -5.94919,4.762659 -23.90821,-4.426631 -15.17983,6.414262 4.0349,12.213796 -8.88001,18.12354 -17.43744,14.243799 -14.17785,1.594216 -10.35,-20.172924 0.0532,-22.167926 -3.64059,-6.052363 -10.37377,7.798202 -16.58904,-0.315437 -10.30669,-4.676586 -6.45526,-16.312802 3.34273,-18.388963 -1.48504,-8.48948 -1.2895,-18.2278388 10.45867,-18.8667208 1.35463,-0.4976483 2.77292,-1.7307736 2.73464,-3.303088 z"
     fill="#151510"
     id="path5" />
  <path
     d="m 77.057802,41.342045 c 3.704743,6.346359 16.695904,5.768634 11.450805,16.562236 -2.273096,14.258604 11.533443,8.884537 20.137293,11.069216 9.14802,5.834228 25.9126,10.399945 26.72514,22.1692 -9.09106,6.199552 -21.76811,-3.199535 -28.75638,3.253169 -2.58423,-4.882631 -3.34417,-9.901181 -9.314383,-4.827604 C 88.09845,94.093899 86.44423,70.500849 84.596143,82.071448 91.326835,87.462952 101.66389,102.28863 86.88528,104.22914 77.560279,106.16045 67.007761,102.7896 62.995418,92.936971 54.702325,101.72367 42.700376,91.646599 37.951526,87.82583 c -4.759495,7.692003 -16.219561,5.419439 -13.103288,16.65083 1.604892,11.03725 -12.31228,21.0804 -19.3614364,9.83989 -3.5795383,-6.43354 -6.543428,5.32774 -6.00675025,-4.16786 C 2.9770735,102.34415 14.237251,97.314915 7.4994928,87.634718 10.664695,77.668764 18.615559,61.227536 31.45902,65.352289 35.153839,54.458684 46.564353,45.222316 60.04597,46.686253 c 7.986064,3.408181 9.97275,-6.91849 17.011832,-5.344208 z"
     fill="#1b1b17"
     id="path7" />
  <path
     id="path12"
     d="M 87.121094 76.216797 L 81.121094 82.216797 L 86.121094 82.216797 L 86.121094 86.216797 C 88.121094 89.216797 88.121094 89.216797 91.246094 91.404297 L 94.121094 93.216797 L 93.121094 103.2168 C 90.933594 102.6543 90.933594 102.6543 88.121094 102.2168 C 85.376764 102.79553 82.965641 103.21783 80.148438 103.23633 C 79.097891 103.16594 78.078243 103.0976 77.058594 103.0293 C 73.980517 102.94948 73.980517 102.94948 71.121094 102.2168 C 67.958034 99.711125 67.173373 98.373635 65.871094 94.466797 L 65.121094 91.216797 C 59.776055 95.182471 54.356305 95.490967 47.894531 94.943359 C 43.193955 94.457093 38.600298 93.595458 34.058594 95.216797 C 29.761599 98.14241 27.734038 101.16942 26.707031 106.27539 C 26.435729 110.0522 27.028866 112.07845 29.121094 115.2168 C 33.164572 117.91245 33.164572 117.91245 40.121094 117.2168 L 41.121094 116.2168 C 42.916836 116.3601 44.708482 116.55643 46.496094 116.7793 C 49.457032 117.1582 49.457032 117.1582 52.121094 117.2168 L 55.121094 115.2168 C 55.363857 116.76939 55.592802 117.84851 56.175781 118.88281 L 57.121094 113.2168 C 64.961641 116.1708 71.002388 120.00765 75.34375 127.28711 C 76.121054 129.2167 76.121094 129.21742 76.121094 133.2168 L 76.121094 127.2168 C 78.364337 128.13338 78.364337 128.13339 79.8125 130.72852 L 81.683594 133.9043 C 83.656859 137.19854 85.027258 139.69666 85.710938 143.48633 C 85.918065 144.86521 85.918067 144.86521 86.121094 146.2168 L 88.121094 148.2168 C 89.414617 149.91454 90.746267 151.58419 92.121094 153.2168 L 94.121094 153.2168 C 93.901153 149.91768 93.858949 147.14863 94.757812 143.94922 C 97.118747 136.58397 97.735753 129.36994 98.091797 121.69141 C 98.509362 112.39921 98.89087 103.28444 101.12109 94.216797 L 102.24609 96.654297 C 104.12109 99.216797 104.12109 99.216786 107.12109 100.1543 C 110.12109 100.2168 110.12109 100.2168 113.12109 98.216797 L 114.12109 95.216797 C 114.75461 95.252657 115.36948 95.287456 115.98438 95.322266 L 118.43359 95.404297 C 119.25836 95.440156 120.05888 95.474966 120.85938 95.509766 C 123.12108 95.216797 123.12109 95.216797 126.12109 92.216797 L 115.12109 92.216797 L 115.12109 90.216797 L 112.12109 90.216797 C 111.54734 90.896797 110.99047 91.556797 110.43359 92.216797 C 109.98734 92.896797 109.55422 93.556797 109.12109 94.216797 L 106.12109 93.216797 C 105.5214 91.417735 105.5214 91.417735 104.93359 89.654297 C 104.52328 87.91836 104.52328 87.91836 104.12109 86.216797 C 103.54734 86.556797 102.99047 86.886797 102.43359 87.216797 C 97.632042 89.293148 93.865161 87.982031 89.121094 86.216797 L 88.121094 76.216797 L 87.121094 76.216797 z M 58.121094 99.216797 C 60.496094 99.466797 60.496094 99.466792 63.121094 100.2168 C 64.496094 102.0293 64.496094 102.0293 65.121094 104.2168 L 64.121094 108.2168 L 57.121094 103.2168 L 58.121094 99.216797 z M 88.423828 106.17578 C 89.596055 106.1507 90.816146 106.1718 92.121094 106.2168 C 91.701081 114.38532 90.8733 122.46058 88.121094 130.2168 L 86.121094 131.2168 C 83.49224 127.2234 81.894896 123.11256 80.433594 118.5918 C 80.208653 117.92406 79.983711 117.25633 79.751953 116.56836 C 78.796533 113.66435 78.121094 111.29414 78.121094 108.2168 C 81.816621 106.73858 84.907147 106.25103 88.423828 106.17578 z M 56.666016 119.63281 C 56.932644 119.98923 57.252537 120.3528 57.638672 120.74023 C 58.297671 121.2235 58.938509 121.69305 59.578125 122.16211 C 60.299961 122.69734 61.000567 123.21683 61.701172 123.73633 C 62.460196 124.28219 63.196895 124.81199 63.933594 125.3418 C 66.139652 126.97722 68.289928 128.58241 70.535156 130.04883 C 69.763817 129.52947 69.000576 128.98028 68.230469 128.39648 L 66.082031 126.77539 C 65.352421 126.2198 64.622813 125.66422 63.871094 125.0918 L 61.613281 123.38477 C 59.962982 122.13646 58.312798 120.88573 56.666016 119.63281 z " />
  <path
     d="m 186.1203,0.21704517 c 7.69932,8.55033933 18.96817,12.04823983 28.46264,17.34164883 1.21907,9.74869 7.92545,12.20348 16.36307,8.801559 11.51119,2.867279 22.73231,6.433142 34.4206,6.212255 7.74949,9.19868 21.88619,8.871659 25.60512,21.855689 -0.18295,10.539184 12.99043,6.910463 15.62694,17.565143 7.43346,6.77767 6.67977,25.679709 -5.5866,26.800632 -10.00378,-2.229741 -23.29625,-6.626732 -27.72663,6.486178 -7.9895,2.66967 -13.00421,-9.732336 -2.2327,-6.522898 14.32482,-4.845875 9.67885,-23.32974 -5.32385,-19.447818 -12.2959,-2.829382 14.14652,-9.319866 1.40943,-17.750305 -2.29117,-5.038819 -19.42561,-0.991056 -15.29792,-5.414111 6.74341,1.897918 12.14708,-1.054268 13.55681,-7.044171 -1.38529,10.063799 10.88016,18.614643 18.72794,11.006925 5.97026,-10.271033 -8.22752,-14.485039 -15.7131,-16.494299 -0.2386,-9.416902 -17.14547,-8.635898 -24.29175,-4.396426 -4.7115,-10.589898 -22.47974,-7.223239 -29.67198,-4.484602 3.24087,4.347525 2.18437,12.964223 -3.41955,5.614438 -3.08446,-5.631472 -15.33109,-1.00267 -5.11913,-7.170683 13.47737,-0.163912 3.91658,-20.542291 -6.96111,-17.717015 -6.57622,-5.010618 -19.93076,-7.6640091 -22.17224,-14.2625813 2.65643,-2.5722379 6.18522,-1.33067938 9.34401,-0.97955853 z"
     fill="#151410"
     id="path13" />
  <path
     d="m 39.120302,84.217045 h 1 l 0.75,2.8125 c 1.849251,4.71559 4.805635,6.124045 9.25,8.1875 -3.159914,0.861795 -5.108373,0.979931 -8.375,0.375 -4.526387,-0.468247 -6.733466,0.305047 -10.625,2.625 -3.329433,4.618245 -3.620346,8.505515 -3,14.000005 1.333333,2.66666 1.333333,2.66666 4,4 3.419751,0.48353 6.672567,0.37334 10,-0.5625 2.247294,-0.4916 3.737043,-0.23275 6,0.125 3.292933,0.49148 5.180963,0.43431 8,-1.5625 0.0039,1.04607 0.0039,1.04607 0.0078,2.11328 1.552958,4.51825 5.055917,6.39307 8.867188,9.07422 0.733477,0.53302 1.466953,1.06605 2.222656,1.61523 2.932917,2.12355 5.889278,4.18855 8.902356,6.19727 l -1,-6 h 3 c 1.753906,2.23046 1.753906,2.23046 3.5625,5.1875 0.599414,0.96293 1.198828,1.92585 1.816406,2.91796 1.807002,3.22648 3.332022,6.30464 3.996094,9.95704 0.501262,2.09614 0.501262,2.09614 2.425781,3.60156 2.729987,2.8997 4.313341,6.09352 6.011719,9.64844 0.345469,0.70858 0.690937,1.41716 1.046875,2.14721 1.056292,2.1757 2.099586,4.35725 3.140623,6.54029 0.30342,0.62906 0.60683,1.25812 0.91944,1.90625 6.58759,13.66862 12.50454,27.66426 17.85864,41.86035 1.16098,3.07214 2.33701,6.13796 3.5188,9.20215 2.7757,7.211 5.52426,14.43213 8.26562,21.65625 0.70286,1.84852 0.70286,1.84852 1.41992,3.73437 0.91476,2.41036 1.82587,4.82209 2.73291,7.23536 0.83759,2.22019 1.68699,4.43597 2.54981,6.64648 0.37528,0.98001 0.75056,1.96002 1.13721,2.96973 0.33378,0.85642 0.66757,1.71284 1.01147,2.59521 0.58618,2.19385 3.82411,4.38421 2.82411,7.38421 l -13.23793,-23.19036 -2.90477,-6.66633 c -0.22687,-1.03125 -1.97748,-5.87183 -2.21123,-6.93433 -3.8665,-15.35861 -8.9346,-20.29162 -15.66134,-34.61028 -1.16551,-2.65869 -2.17066,-5.34658 -3.14673,-8.07959 -3.84384,-10.74562 -8.776328,-20.93633 -13.824219,-31.16236 -0.800775,-1.6295 -1.588999,-3.26528 -2.36084,-4.90869 -4.160202,-8.73971 -11.651179,-12.13796 -19.738525,-16.88452 -5.324942,-3.16333 -10.41116,-6.61277 -15.464844,-10.1914 -0.73533,-0.5203 -1.470659,-1.0406 -2.228271,-1.57666 -5.170565,-3.69718 -5.170565,-3.69718 -7.459229,-5.98584 -2.692069,-0.35217 -2.692069,-0.35217 -5.75,-0.4375 -4.863598,-0.30252 -7.923174,-1.29092 -12.25,-3.5625 -2.541551,0.74751 -3.88117,1.89701 -5.875,3.625 -2.852433,1.84569 -4.793014,1.73717 -8.125,1.375 l -2,-2 -3.4999999,-1 c -3.5,-1 -3.5,-1 -5.5,-3 -0.12499998,-3.625 -0.12499998,-3.625 0,-7 l 2,-1 v 4 h 2 l 2,3 c 3.6719059,1.55036 7.0175109,2.6458 10.9999999,2 2.943707,-3.14148 3.944273,-6.47645 5.125,-10.5625 0.332578,-1.13567 0.665156,-2.27133 1.007812,-3.44141 0.429258,-1.48307 0.429258,-1.48307 0.867188,-2.99609 l 1,-3.000005 -3,-1 c 2.897631,-3.326909 4.676163,-4.351424 9,-5 3.396453,-1.098852 3.945134,-1.902025 5.75,-5.125 z"
     fill="#161d14"
     id="path15"
     sodipodi:nodetypes="ccccccccccccccccccccccccccccccccccccccccccccccccccsccccccccccccccc" />
  <path
     d="m 236.1203,32.217045 c 7.0841,-3.535579 7.99874,13.185675 14.24207,3.978309 8.35387,-0.345725 18.00181,0.247523 19.38138,8.783259 10.79213,-4.081364 24.07825,12.500755 11.42294,18.945952 -11.48975,6.267456 -14.2266,-20.249431 -21.20752,-7.557051 -11.79201,5.140584 -17.49439,-9.266105 -28.66541,-8.379406 -9.21296,2.197853 -24.90381,-10.426285 -11.16475,-16.037026 5.21358,-1.926627 10.68762,-0.207194 15.99129,0.265963 z"
     fill="#f9f8f5"
     id="path17" />
  <path
     d="m 154.1203,2.2170452 c 10.03307,-0.6803017 20.29211,18.8415338 7.32237,23.4594278 -4.17683,1.610857 -13.58516,-2.354993 -4.35172,2.601742 11.69818,6.352285 -0.46999,14.514026 -8.41368,14.397878 -10.06472,10.401351 -27.13252,-15.654201 -8.82265,-17.382129 1.35463,-9.538413 0.69241,-22.0983204 14.32665,-20.8178844 z"
     fill="#f9f9f7"
     id="path19" />
  <path
     d="m 39.120302,84.217045 c 0.33,0 0.66,0 1,0 0.2475,0.928125 0.495,1.85625 0.75,2.8125 1.849251,4.71559 4.805635,6.124045 9.25,8.1875 -3.159914,0.861795 -5.108373,0.979931 -8.375,0.375 -4.526387,-0.468247 -6.733466,0.305047 -10.625,2.625 -3.329433,4.618245 -3.620346,8.505515 -3,14.000005 1.333333,2.66666 1.333333,2.66666 4,4 3.419751,0.48353 6.672567,0.37334 10,-0.5625 2.247294,-0.4916 3.737043,-0.23275 6,0.125 3.292933,0.49148 5.180963,0.43431 8,-1.5625 0.0039,1.04607 0.0039,1.04607 0.0078,2.11328 1.552958,4.51825 5.055917,6.39307 8.867188,9.07422 0.733477,0.53302 1.466953,1.06605 2.222656,1.61523 2.932917,2.12355 5.889278,4.18855 8.902356,6.19727 -0.495,-2.97 -0.495,-2.97 -1,-6 2.797291,2.06756 3.026923,3.1444 3.6875,6.6875 0.103125,1.09312 0.20625,2.18625 0.3125,3.3125 -5.544592,-0.44498 -9.283709,-1.96888 -13.9375,-5.0625 -0.588457,-0.37706 -1.176914,-0.75411 -1.783203,-1.14258 -1.433512,-0.92071 -2.857454,-1.85629 -4.279297,-2.79492 0,0.66 0,1.32 0,2 0.99,0.33 1.98,0.66 3,1 0,0.66 0,1.32 0,2 -4.691606,-0.48654 -7.655234,-2.65415 -11.25,-5.5 -0.541406,-0.41637 -1.082812,-0.83274 -1.640625,-1.26172 -3.828983,-2.95789 -3.828983,-2.95789 -5.109375,-4.23828 -1.893285,-0.15901 -3.79008,-0.27698 -5.6875,-0.375 -4.867478,-0.34067 -7.982215,-1.3516 -12.3125,-3.625 -2.541551,0.74751 -3.88117,1.89701 -5.875,3.625 -2.852433,1.84569 -4.793014,1.73717 -8.125,1.375 -0.66,-0.66 -1.32,-1.32 -2,-2 -1.1549999,-0.33 -2.3099999,-0.66 -3.4999999,-1 -3.5,-1 -3.5,-1 -5.5,-3 -0.12499998,-3.625 -0.12499998,-3.625 0,-7 0.66,-0.33 1.32,-0.66 2,-1 0,1.32 0,2.64 0,4 0.66,0 1.32,0 2,0 0.66,0.99 1.32,1.98 2,3 3.6719059,1.55036 7.0175109,2.6458 10.9999999,2 2.943707,-3.14148 3.944273,-6.47645 5.125,-10.5625 0.332578,-1.13567 0.665156,-2.27133 1.007812,-3.44141 0.429258,-1.48307 0.429258,-1.48307 0.867188,-2.99609 0.33,-0.99 0.66,-1.980005 1,-3.000005 -0.99,-0.33 -1.98,-0.66 -3,-1 2.897631,-3.326909 4.676163,-4.351424 9,-5 3.396453,-1.098852 3.945134,-1.902025 5.75,-5.125 0.61875,-1.423125 0.61875,-1.423125 1.25,-2.875 z"
     fill="#191813"
     id="path21" />
  <path
     d="m 155.1203,110.21705 c 1.31572,3.94715 0.40651,5.93154 -0.6875,9.9375 -3.73322,14.16918 -6.46443,28.52765 -8.3125,43.0625 -0.17402,1.25941 -0.34804,2.51882 -0.52734,3.8164 -1.3217,9.70446 -2.18663,19.39166 -2.47266,29.1836 -0.034,1.14694 -0.068,2.29388 -0.10302,3.47558 -0.51752,20.76888 0.82929,40.95676 3.39298,61.56519 0.73668,5.97494 1.27602,11.9554 1.71004,17.95923 -2,-1 -2,-1 -2.65429,-2.69214 -0.63272,-2.49502 -1.25536,-4.98989 -1.84571,-7.49536 -0.22067,-0.92514 -0.44134,-1.85029 -0.6687,-2.80347 -2.30776,-10.23581 -4.9944,-6.6502 -5.64073,-17.10498 l -0.90477,-4.14229 0.7142,-2.76176 c -0.44911,-27.96675 -0.66563,-55.35063 4,-83 0.12069,-0.72611 0.24138,-1.45221 0.36573,-2.20032 1.34265,-8.06586 2.74793,-16.12054 4.26708,-24.15515 0.32316,-1.7116 0.32316,-1.7116 0.65284,-3.45777 1.13175,-5.04881 2.07569,-8.54811 5.71435,-12.18676 1.13601,-2.29268 2.05598,-4.61746 3,-7 z"
     fill="#2a3a25"
     id="path22"
     sodipodi:nodetypes="cccccccccccccccccccc" />
  <path
     d="m 113.15155,26.486576 c 10.81531,0.58445 12.62532,16.899321 0.86331,16.134726 -6.82765,10.731081 -28.712314,7.873968 -23.100114,-7.95271 2.659006,-9.032838 14.320034,-12.312593 22.236804,-8.182016 z"
     fill="#f8f7f5"
     id="path23" />
  <path
     d="m 108.4953,72.967045 c 1.96437,8.630256 25.81375,8.344433 14.92635,19.009899 -6.5337,-0.973767 -12.39745,0.633056 -16.80699,2.418922 -2.53654,-5.618934 -3.67649,-9.419662 -9.949188,-4.724287 -14.934728,0.01771 -7.733257,-23.284061 5.294978,-18.71106 2.27921,0.247459 4.50765,0.937311 6.53485,2.006526 z"
     fill="#f7efa6"
     id="path24" />
  <path
     d="M 39.975772,71.385015 C 48.499708,83.904941 31.676632,97.749748 19.276444,95.017948 12.332781,93.298708 10.288345,84.916924 17.208791,82.019784 12.760818,70.433307 32.662261,66.862514 39.975772,71.385015 Z"
     fill="#f8f8f7"
     id="path25" />
  <path
     d="m 97.995302,52.217045 c 14.723368,0.964595 22.727328,15.471049 32.527888,24.553566 5.2769,1.941203 9.55421,18.766543 2.94138,9.349792 C 123.6452,76.679049 109.35879,65.910751 95.105339,69.133724 83.734945,67.967152 84.996872,47.81565 97.995302,52.217045 Z"
     fill="#f2ebb9"
     id="path26" />
  <path
     d="m 299.1203,69.217045 c -3.39641,7.852472 10.54526,5.49997 6.54407,14.859639 3.62583,14.913153 -27.53711,9.750684 -18.78308,-2.682291 -0.10305,1.219631 -16.27255,-2.825922 -10.20812,-11.519922 5.42287,-5.363299 16.28783,-4.396521 22.44713,-0.657426 z"
     fill="#f8f0b1"
     id="path27" />
  <path
     d="m 45.120302,95.217045 c 10.489264,2.233599 16.192744,20.703445 2.119334,21.537685 -10.698785,3.25724 -27.162696,-2.66922 -18.463325,-16.08673 3.307651,-5.323256 10.45209,-8.403572 16.343991,-5.450955 z"
     fill="#f5f5f2"
     id="path28" />
  <path
     d="m 235.94061,49.861576 c 17.00655,3.9127 2.90477,31.00775 -11.18451,22.383179 -15.75803,-5.885693 -7.59515,-31.433388 8.9566,-22.859389 z"
     fill="#fafafa"
     id="path29" />
  <path
     d="m 165.1203,44.217045 c 14.95487,6.31771 3.69656,28.992079 -10.22397,21.518914 -13.68668,1.030361 -13.3005,-20.39014 -0.28273,-21.238224 3.42609,-0.877409 7.03527,-0.873772 10.5067,-0.28069 z"
     fill="#f8f8f5"
     id="path30" />
  <path
     d="m 80.370302,83.092045 c 11.012731,-0.926416 21.832558,21.280265 5.178938,21.115485 -12.372325,3.93819 -28.579318,-9.417635 -14.551964,-19.434141 2.69602,-1.858004 6.194938,-2.570436 9.373026,-1.681344 z"
     fill="#f5f5f3"
     id="path31" />
  <path
     d="m 181.1203,26.217045 c 14.2709,-1.887491 14.39535,21.296771 0.21559,19.753883 -9.88088,3.028534 -24.20834,-6.495001 -15.66678,-16.809481 3.94569,-3.989504 10.31077,-4.377699 15.45119,-2.944402 z"
     fill="#fbfbf8"
     id="path32" />
  <path
     d="M 128.1203,6.2170452 C 141.11765,5.9120364 144.88532,27.269586 130.49355,28.820188 118.69293,32.192785 103.35601,17.203209 119.60986,10.768084 122.40495,9.1730607 125.355,7.8654615 128.1203,6.2170452 Z"
     fill="#fafaf9"
     id="path33" />
  <path
     d="m 244.1203,76.217045 c 12.32001,4.920986 2.67875,25.344385 -8.12704,17.987235 -10.82032,4.008878 -19.34042,-12.268427 -8.04342,-17.196509 5.1482,-2.050455 10.80971,-0.936114 16.17046,-0.790726 z"
     fill="#f4f3f1"
     id="path34" />
  <path
     d="m 267.4953,78.717045 c 16.68275,-5.157258 16.83059,22.027195 1.36786,21.337745 -11.11351,2.38235 -20.02904,-18.409275 -6.49935,-21.513172 1.71105,-0.200068 3.43656,-0.08426 5.13149,0.175427 z"
     fill="#fae556"
     id="path35" />
  <path
     d="m 211.1203,38.217045 c 8.15895,5.096657 3.42925,16.419341 -0.86479,21.222219 -6.10605,0.422251 -5.4355,-5.472753 -11.9181,-4.067532 -4.40332,-3.50067 -17.89561,-2.246153 -7.94268,-8.897459 0.99828,-9.835542 13.22584,-9.909468 20.72557,-8.257228 z"
     fill="#f6f6f2"
     id="path36" />
  <path
     d="M 61.120302,54.217045 C 69.785513,64.140433 56.631419,81.284284 44.850538,74.978728 26.132958,64.266522 49.440643,51.091522 61.120302,54.217045 Z"
     fill="#fafaf7"
     id="path37" />
  <path
     d="m 255.9953,57.592045 c 12.82996,-4.563849 22.09025,17.43786 5.7917,19.007133 -13.44849,6.180811 -26.41283,-18.166392 -8.73391,-18.965595 l 1.49664,-0.04106 z"
     fill="#f3f3f1"
     id="path38" />
  <path
     d="m 187.1203,55.842045 c 15.11402,-5.005014 22.49754,19.455687 5.66673,21.236475 -12.04368,2.970854 -19.20308,-16.549668 -8.91232,-21.335492 l 1.55332,-0.0783 z"
     fill="#fbfbf8"
     id="path39" />
  <path
     d="m 185.1203,5.2170452 c 12.90688,6.8230178 3.99925,28.6390938 -9.74162,19.1703878 -13.80553,-4.253255 -5.50173,-26.3367454 7.78967,-19.5163778 0.65065,0.11533 1.3013,0.23066 1.95195,0.34599 z"
     fill="#f9f9f8"
     id="path40" />
  <path
     d="m 192.1203,14.217045 c 12.08193,-4.9018641 31.66726,13.664679 14.95761,20.576617 -12.39777,2.607802 -20.1825,-9.830858 -14.95761,-20.576617 z"
     fill="#f8f8f5"
     id="path41" />
  <path
     d="M 80.120302,63.217045 C 95.199307,65.84811 83.924162,87.06409 72.054748,80.237309 56.91564,80.389366 61.350667,57.038088 75.913811,62.697494 l 2.109067,0.220167 z"
     fill="#f8f8f6"
     id="path42" />
  <path
     d="m 88.120302,147.21705 c 3.707836,3.24743 5.719497,6.93158 7.8125,11.3125 l 1.046875,2.14721 c 1.056292,2.1757 2.099586,4.35725 3.140623,6.54029 l 0.91944,1.90625 c 6.58759,13.66862 12.50454,27.66426 17.85864,41.86035 1.16098,3.07214 2.33701,6.13796 3.5188,9.20215 2.7757,7.211 5.52426,14.43213 8.26562,21.65625 0.46858,1.23234 0.93715,2.46468 1.41992,3.73437 0.91476,2.41036 1.82587,4.82209 2.73291,7.23536 0.83759,2.22019 1.88901,3.62789 2.75183,5.8384 0.98134,0.64331 1.69332,2.56608 2.07997,3.57579 1.8826,2.20322 8.277,14.23809 8.6209,15.12046 0.58618,2.19385 -0.49126,2.19385 -2.77072,1.55749 -8.91365,-15.48317 -21.29336,-41.50559 -27.26938,-58.713 -1.764,-5.047 -3.74271,-9.96803 -5.84668,-14.88403 -1.5196,-3.66466 -2.90399,-7.3699 -4.28125,-11.08984 -4.41763,-11.83793 -9.448902,-23.11726 -15.254637,-34.34815 -0.467688,-0.91507 -0.935375,-1.83015 -1.417236,-2.77295 l -1.28418,-2.48218 c -1.074176,-2.46613 -1.616183,-4.74796 -2.043945,-7.39672 z"
     fill="#1a6e00"
     id="path43"
     sodipodi:nodetypes="ccccccccccccccccccccc" />
  <path
     d="M 59.120302,77.217045 C 73.03662,85.552354 56.115148,104.48024 44.750724,93.949733 33.269806,85.258935 49.63271,72.921095 59.120302,77.217045 Z"
     fill="#f7f6f5"
     id="path44" />
  <path
     d="m 193.1203,155.21705 1,2 c -1.13259,2.46495 -2.32622,4.80187 -3.6289,7.17578 -0.38672,0.721 -0.77343,1.442 -1.17186,2.18486 -1.24641,2.32142 -2.50335,4.63691 -3.76174,6.95186 -1.63131,3.01424 -3.25764,6.03111 -4.8789,9.05078 -0.59249,1.10319 -0.59249,1.10319 -1.19695,2.22866 -3.38688,6.35556 -6.44942,12.8201 -9.36165,19.40806 -0.51562,1.155 -1.03125,2.31 -1.5625,3.5 -1.32745,3.23205 -2.57398,6.48306 -3.8125,9.75 -1.97326,5.17683 -4.15386,10.20423 -6.48828,15.22656 -1.55513,3.45228 -9.25659,42.78498 -10.53403,46.34836 l -3.13468,-32.9192 c 1.98979,-12.5896 12.36542,-28.28093 17.53199,-39.90572 l 2,1 c 0.51216,-1.04789 0.51216,-1.04789 1.03467,-2.11695 8.41973,-17.1737 16.96126,-34.18212 27.96533,-49.88305 z"
     fill="#293625"
     id="path45"
     sodipodi:nodetypes="ccccccccccccccccc" />
  <path
     d="m 56.120302,114.21705 c 0.0039,1.04607 0.0039,1.04607 0.0078,2.11328 1.552957,4.51825 5.055916,6.39307 8.867187,9.07422 0.733477,0.53302 1.466953,1.06605 2.222656,1.61523 2.932905,2.12355 5.889266,4.18855 8.902344,6.19727 -0.495,-2.97 -0.495,-2.97 -1,-6 2.797291,2.06756 3.026923,3.1444 3.6875,6.6875 0.154688,1.63968 0.154688,1.63968 0.3125,3.3125 -5.544592,-0.44498 -9.283709,-1.96888 -13.9375,-5.0625 -0.588457,-0.37706 -1.176914,-0.75411 -1.783203,-1.14258 -1.433511,-0.92071 -2.857454,-1.85629 -4.279297,-2.79492 0,0.66 0,1.32 0,2 0.99,0.33 1.98,0.66 3,1 0,0.66 0,1.32 0,2 -4.691606,-0.48654 -7.655234,-2.65415 -11.25,-5.5 -0.541406,-0.41637 -1.082812,-0.83274 -1.640625,-1.26172 -3.828984,-2.95789 -3.828984,-2.95789 -5.109375,-4.23828 -1.845997,-0.39455 -3.702258,-0.74177 -5.5625,-1.0625 -1.517871,-0.26491 -1.517871,-0.26491 -3.066406,-0.53516 -0.782461,-0.13277 -1.564922,-0.26555 -2.371094,-0.40234 0,-0.66 0,-1.32 0,-2 2.331634,-0.67259 4.665204,-1.33848 7,-2 0.639375,-0.22688 1.27875,-0.45375 1.9375,-0.6875 2.234641,-0.33859 3.897218,-0.0902 6.125,0.25 4.503207,0.50035 4.242308,-1.5625 7.9375,-1.5625 z"
     fill="#090b08"
     id="path46" />
  <path
     d="M 19.807802,98.092045 C 31.26556,96.652754 22.56685,120.68879 13.955972,119.38642 -3.9566702,116.79846 5.9517844,96.16756 19.807802,98.092045 Z"
     fill="#f9f9f4"
     id="path47" />
  <path
     d="m 279.1203,45.217045 c 12.93743,4.486955 5.77528,25.977145 -7.18946,16.399441 -12.24135,-5.803015 -5.2821,-20.710095 7.18946,-16.399441 z"
     fill="#f8f8f5"
     id="path48" />
  <path
     d="m 133.1203,41.217045 c 13.07905,6.420359 0.10815,23.976483 -10.97328,15.779666 -12.21655,-7.437197 0.82594,-19.199218 10.97328,-15.779666 z"
     fill="#f2f2f0"
     id="path50" />
  <path
     d="m 211.4328,63.779545 c 13.62756,3.159205 13.9956,24.228659 -2.1966,20.26671 -10.18976,-3.153822 -7.83302,-18.551444 2.1966,-20.26671 z"
     fill="#eeeeec"
     id="path51" />
  <path
     d="M 82.120302,45.217045 C 96.86961,49.187429 81.824403,68.412646 70.999581,60.622896 60.206523,54.077919 72.861937,41.127108 82.120302,45.217045 Z"
     fill="#f4f4f2"
     id="path52" />
  <path
     d="M 108.5578,72.904545 C 119.54128,86.249125 95.014196,80.59961 90.908885,86.96334 79.618295,76.519385 99.381421,66.117803 108.5578,72.904545 Z"
     fill="#f6f5f4"
     id="path54" />
  <path
     d="m 203.1203,134.21705 c 0.495,0.99 0.495,0.99 1,2 0.66,0 1.32,0 2,0 -1.63941,4.57262 -3.96017,8.59576 -6.4375,12.75 -0.59264,1.02673 -0.59264,1.02673 -1.19726,2.07421 -3.00924,5.05712 -3.00924,5.05712 -6.36524,6.17579 -1.4948,2.33225 -2.82559,4.62438 -4.125,7.0625 -0.80565,1.47414 -1.61165,2.94809 -2.41797,4.42187 -0.40911,0.75475 -0.81823,1.50949 -1.23974,2.28711 -1.4873,2.72283 -3.02009,5.41794 -4.55689,8.11304 -5.45567,9.58049 -10.57333,19.33549 -15.6604,29.11548 -0.88156,-2.44755 -1.09345,-3.6998 -0.31006,-6.21631 0.38334,-0.80261 0.76667,-1.60521 1.16163,-2.43213 0.43231,-0.91161 0.86463,-1.82322 1.31005,-2.76245 0.48292,-0.97816 0.96583,-1.95632 1.46338,-2.96411 0.4971,-1.02006 0.99419,-2.04011 1.50635,-3.09107 8.1945,-16.53028 18.03534,-32.06287 28.18896,-47.44409 1.9708,-2.98731 3.87548,-5.99779 5.67969,-9.08984 z"
     fill="#1a2019"
     id="path56" />
  <path
     d="m 109.1203,69.217045 c 8.46826,5.691998 27.76069,11.220855 25.64754,22.390132 -6.07272,2.715235 -13.95536,3.244401 -9.13321,-5.22467 -7.71281,-8.366392 -23.71339,-13.659786 -30.564992,-17.347654 3.881764,-3.021488 9.994502,-1.956958 14.050662,0.182192 z"
     fill="#161511"
     id="path57" />
  <path
     d="m 290.1203,76.217045 c -1.07446,9.535321 12.54572,9.041415 12.33554,0 7.09416,5.197659 3.92924,21.02617 -7.8345,16.511998 -9.50559,1.613461 -10.01276,-10.744412 -8.2776,-11.909539 -6.20099,1.40166 -12.33874,-4.85855 -2.79431,-4.356974 2.18242,-0.215408 4.37819,-0.309029 6.57087,-0.245485 z"
     fill="#f3de50"
     id="path58" />
  <path
     d="m 50.120302,100.21705 c 10.086624,-0.652361 6.023348,19.12705 -2.652152,16.53479 -5.115949,-0.5116 -10.231899,-1.02319 -15.347848,-1.53479 -2.991676,-11.24863 16.661742,-3.21535 18,-15 z"
     fill="#f9e25d"
     id="path59" />
  <path
     d="m 120.1203,31.217045 c 8.88511,5.724604 -4.43559,11.742498 -7.33087,11.689523 -0.34532,7.687595 -22.545113,7.403455 -18.254736,1.503715 9.197336,-0.48452 9.553076,-9.79812 19.956106,-8.968291 2.30091,-0.606893 4.64243,-1.925301 5.6295,-4.224947 z"
     fill="#eadf63"
     id="path61" />
  <path
     d="m 170.1203,49.217045 c 7.44107,10.77065 -6.57115,22.066226 -15.37525,16.093638 -11.99091,3.350471 -11.15676,-16.19077 1.35473,-8.544428 2.78412,11.714787 7.16998,-7.802331 13.0058,1.009698 0.78367,-2.773907 0.59585,-5.715869 1.01472,-8.558908 z"
     fill="#e8d34b"
     id="path62" />
  <path
     d="m 267.7453,78.904545 c 16.17073,-5.482759 7.13247,21.060323 -2.63974,9.476985 -1.77947,-3.230169 -15.79889,-1.63728 -7.2894,-8.245469 3.07005,-1.518163 6.60326,-1.387497 9.92914,-1.231516 z"
     fill="#f6f5ed"
     id="path63" />
  <path
     d="m 212.1203,40.217045 c 6.90213,4.95194 1.08689,12.772971 -0.19954,18.491653 -6.84631,2.20852 -8.52246,-4.27967 -15.27138,-4.101635 -8.18717,-1.783953 -2.03596,-10.064128 3.93512,-6.027242 5.76834,0.320029 13.53363,-0.367112 11.5358,-8.362776 z"
     fill="#f3e779"
     id="path64" />
  <path
     d="M 96.120302,52.217045 C 83.295555,56.472313 92.373925,64.607 100.4131,62.881876 c 6.35757,-4.854034 24.76434,8.671532 16.96788,10.917155 C 108.97339,65.56075 93.358045,72.88744 88.336641,63.325588 84.917288,57.399195 88.890425,50.408787 96.120302,52.217045 Z"
     fill="#f7e563"
     id="path65" />
  <path
     d="m 161.1203,31.217045 c 3.96134,11.130233 -11.1945,8.906231 -15.65594,14.004441 -11.67284,-0.20476 -13.94891,-10.817017 -0.83642,-9.865127 5.48997,-1.409249 10.98021,-2.818773 16.49236,-4.139314 z"
     fill="#f6ef9c"
     id="path66" />
  <path
     d="M 86.120302,67.217045 C 92.466389,78.087494 77.078617,84.089201 68.917339,79.218311 53.951773,69.148639 82.105217,74.459886 86.120302,67.217045 Z"
     fill="#f5dc46"
     id="path67" />
  <path
     d="m 204.1203,15.217045 c 12.65487,3.043976 12.12967,23.714303 -2.77004,19.480103 -10.59853,-0.336967 -5.27567,-16.420022 2.57204,-7.653544 8.67604,1.160648 7.71466,-7.089953 0.1298,-6.087519 -1.20758,-1.705807 -0.8524,-4.012006 0.0682,-5.73904 z"
     fill="#edde67"
     id="path68" />
  <path
     d="m 60.120302,73.217045 c 4.867865,7.339757 24.859806,4.754666 24.08415,9.75445 -8.620739,-0.927736 -18.64468,4.94286 -19.08415,14.24555 C 61.190684,89.843539 63.81044,81.720393 58.890211,74.7601 Z"
     fill="#191811"
     id="path69" />
  <path
     d="m 155.1203,110.21705 c 1.31572,3.94715 0.40651,5.93154 -0.6875,9.9375 -4.10843,15.59328 -7.01669,31.41551 -8.80469,47.4414 -0.0849,0.73767 -0.16983,1.47533 -0.25732,2.23535 -0.16406,1.43978 -0.31966,2.88056 -0.46582,4.32227 -0.19256,1.69708 -0.48025,3.38285 -0.78467,5.06348 -0.99,0.495 -0.99,0.495 -2,1 -0.87681,-15.39286 1.9604,-31.13812 5.72949,-46.01416 0.87128,-3.54879 1.35956,-6.7312 1.30176,-10.396 -0.0312,-3.58984 -0.0312,-3.58984 1.28125,-5.15234 0.55688,-0.47438 1.11375,-0.94875 1.6875,-1.4375 1.14882,-2.28728 2.05564,-4.61661 3,-7 z"
     fill="#196900"
     id="path70" />
  <path
     d="M 42.120302,76.217045 C 43.800823,88.930444 27.818343,98.924482 16.71185,94.039744 12.513582,85.950714 35.554919,93.615135 28.422773,85.605151 29.966989,78.581156 40.060957,82.458068 42.120302,76.217045 Z"
     fill="#f1d94f"
     id="path72" />
  <path
     d="m 141.1203,11.217045 c 0.90263,6.155682 1.42404,9.298066 8.33241,7.426302 1.62129,12.276066 11.54345,-11.6784544 17.66759,0.573698 -1.78636,10.582575 -19.28932,6.918902 -25.58908,3.520843 -1.39371,-3.662612 -0.70959,-7.720779 -0.41092,-11.520843 z"
     fill="#fcf387"
     id="path73" />
  <path
     d="m 193.1203,155.21705 c 0.33,0.66 0.66,1.32 1,2 -1.10896,2.43039 -2.27872,4.73104 -3.55859,7.07031 -0.57296,1.07083 -0.57296,1.07083 -1.15749,2.1633 -1.23298,2.30124 -2.47668,4.59648 -3.72142,6.89139 -1.60629,2.97993 -3.2081,5.96225 -4.80859,8.94531 -0.59257,1.10206 -0.59257,1.10206 -1.19711,2.22638 -4.01071,7.48915 -7.80451,15.0821 -11.5568,22.70331 -0.66,0 -1.32,0 -2,0 0.5317,-5.77407 2.83216,-10.23619 5.4375,-15.3125 0.44376,-0.87504 0.88752,-1.75007 1.34473,-2.65162 6.02612,-11.74116 12.63855,-23.22162 20.21777,-34.03588 z"
     fill="#1b7400"
     id="path74" />
  <path
     d="M 186.1203,0.21704517 C 190.68648,6.2669378 203.73189,11.318931 205.3652,14.421356 193.4088,18.126137 186.93014,5.935253 177.17276,4.1079685 c -4.99717,-5.07874999 6.78613,-4.05728742 8.94754,-3.89092333 z"
     fill="#181818"
     id="path75" />
  <path
     d="m 292.1203,70.217045 c 2.54973,7.230253 -0.0451,10.0872 -5.8104,6.344111 -6.38536,3.592434 -17.69017,-3.060786 -7.35757,-7.762816 4.2835,-1.630384 9.31169,-1.017489 13.16797,1.418705 z"
     fill="#f7f7f6"
     id="path77" />
  <path
     d="m 180.1203,57.217045 c 2.73035,5.137746 -2.45034,16.523305 7.97908,10.355015 3.88842,1.633552 2.21189,10.579243 6.10881,1.150073 2.3324,-4.388307 10.01644,0.0074 8.29857,-7.408175 4.26033,11.52716 -11.6744,20.841031 -20.38879,12.89478 -4.20758,-4.71132 -1.43122,-11.425097 -1.99767,-16.991693 z"
     fill="#e7de70"
     id="path78" />
  <path
     d="m 190.1203,12.217045 c 5.66946,0.390688 10.30448,1.182509 2.52896,3.712096 -8.09892,11.336003 12.12323,21.203193 14.00125,22.314663 -7.03821,-1.997911 -19.32631,9.519139 -14.74911,-3.587119 0.0106,-7.103209 -17.95177,-6.2455 -4.81489,-9.49561 6.07043,-1.867655 2.16669,-8.527364 3.03379,-12.94403 z"
     fill="#2d2d28"
     id="path80" />
  <path
     d="m 137.1203,46.217045 c 7.40724,11.425606 -12.1014,15.70511 -18.51176,8.519702 4.40882,-6.765673 11.70249,-4.274254 18.49946,-6.061188 z"
     fill="#e8d867"
     id="path81" />
  <path
     d="m 23.120302,98.217045 c 5.601714,3.286325 -0.98321,15.304025 -3.247107,20.009535 -4.557127,2.17694 -15.2213426,0.72957 -9.013907,-4.12049 -0.701277,-8.85267 8.400375,0.20821 8.818974,-6.87659 5.59451,-1.48003 1.424167,-5.83515 3.44204,-9.012455 z"
     fill="#f0e56a"
     id="path82" />
  <path
     d="m 76.120302,126.21705 c 5.472286,4.50658 8.313293,10.51866 11,17 0,0.99 0,1.98 0,3 -3.47414,-1.30618 -6.583866,-2.82976 -9.757812,-4.75 -0.872696,-0.52594 -1.745391,-1.05188 -2.644532,-1.59375 -0.898476,-0.54657 -1.796953,-1.09313 -2.722656,-1.65625 -0.906211,-0.54657 -1.812422,-1.09313 -2.746094,-1.65625 -3.415603,-2.06455 -6.807678,-4.1296 -10.128906,-6.34375 0,-0.66 0,-1.32 0,-2 4.569402,1.68904 8.410201,4.04651 12.5,6.66015 2.785491,1.64858 2.785491,1.64858 7.5,2.33985 -0.99,-3.63 -1.98,-7.26 -3,-11 z"
     fill="#1a6f00"
     id="path83" />
  <path
     d="m 170.1203,16.217045 c 5.58562,0.443351 22.5607,1.319485 18.71819,8.689161 -5.82546,1.355857 -21.16535,0.3372 -18.71819,-8.689161 z"
     fill="#eee8a4"
     id="path84" />
  <path
     d="m 181.1203,89.217045 c -3.10068,8.008374 -15.41568,22.168805 -20.08223,20.590245 3.68749,-8.84511 9.92728,-18.710622 20.08223,-20.590245 z"
     fill="#1d7a00"
     id="path85" />
  <path
     d="m 248.1203,81.217045 c 7.66009,9.340248 -8.91959,19.742475 -13.55289,9.758197 -3.30701,-14.612917 12.95573,5.163775 13.55289,-9.758197 z"
     fill="#eede65"
     id="path87" />
  <path
     d="m 269.1203,64.217045 c 8.07662,10.235482 -15.64425,17.851513 -17.9638,9.263951 2.5029,-8.751508 17.14735,1.594679 17.9638,-9.263951 z"
     fill="#ebda4f"
     id="path88" />
  <path
     d="m 95.682802,53.404545 c 15.674878,0.845471 -3.091411,17.895154 -7.340844,5.737227 -1.06684,-4.407157 3.900679,-6.265793 7.340844,-5.737227 z"
     fill="#fcfcfa"
     id="path89" />
  <path
     d="m 256.1203,86.217045 c 10.16572,-4.677435 16.92951,11.66606 5.56376,12.810751 -4.32268,-2.559846 -4.50195,-8.460679 -5.56376,-12.810751 z"
     fill="#ede071"
     id="path90" />
  <path
     d="m 217.1203,61.217045 c 3.78904,2.402692 14.62305,0.392052 10,8 5.34028,0.211822 8.36838,-5.746137 9.72545,2.582501 -7.88551,3.600337 -19.87938,-0.923172 -19.72545,-10.582501 z"
     fill="#f3e166"
     id="path91" />
  <path
     d="M 61.120302,80.217045 C 74.239989,89.045509 48.548309,104.73058 47.825778,92.075756 52.660614,88.549288 64.971562,90.789095 61.120302,80.217045 Z"
     fill="#efe175"
     id="path92" />
  <path
     d="m 219.1203,71.217045 c 14.13049,7.187958 -14.8233,20.896435 -11.90132,7.28771 2.14791,-6.190336 16.63373,2.605307 11.90132,-7.28771 z"
     fill="#ece26d"
     id="path94" />
  <path
     d="m 138.1203,14.217045 c 8.19862,10.168533 -9.24751,18.117512 -16.49643,13.669191 0.82009,-9.291464 19.15723,-4.339445 16.49643,-13.669191 z"
     fill="#ece06a"
     id="path95" />
  <path
     d="m 149.1203,122.21705 c 0.33,0 0.66,0 1,0 -0.42183,6.43288 -1.48635,12.53388 -2.875,18.8125 -2.27561,10.32153 -3.74926,20.71314 -5.125,31.1875 -0.33,0 -0.66,0 -1,0 -0.43254,-9.60267 0.65456,-18.47755 2.45362,-27.86011 0.42638,-2.22854 0.83328,-4.46003 1.23779,-6.69263 2.19486,-11.82316 2.19486,-11.82316 4.30859,-15.44726 z"
     fill="#161b15"
     id="path96" />
  <path
     d="m 104.1203,41.217045 c 10.04377,-3.147071 9.85331,9.521524 0.39434,6.658488 -5.464394,4.058359 -16.876378,-3.160007 -6.512185,-4.760362 1.767506,-0.290727 6.535425,1.533405 6.117845,-1.898126 z"
     fill="#efdb4f"
     id="path97" />
  <path
     d="m 225.1203,78.217045 c 6.68218,4.772559 12.62143,23.615275 -0.82287,13.6549 -2.51951,-3.556903 -1.9654,-10.228624 0.82287,-13.6549 z"
     fill="#eee366"
     id="path99" />
  <path
     d="m 101.1203,82.217045 c 1.42186,3.005746 13.94178,1.973869 5.19825,7.693207 -4.05487,3.047364 -1.09772,-7.050725 -8.289646,-1.338231 -14.514349,3.744347 -3.834894,-8.696766 3.091396,-6.354976 z"
     fill="#eedf6e"
     id="path100" />
  <path
     d="m 50.120302,100.21705 c 14.255347,-1.496214 -1.50163,26.92428 -0.856504,11.886 3.108326,-3.95111 1.843152,-8.57879 -1.844768,-6.48345 0.900422,-1.80085 1.800862,-3.60171 2.701272,-5.40255 z"
     fill="#eee486"
     id="path102" />
  <path
     d="m 81.120302,96.217045 c -3.581691,4.657925 3.872085,10.799915 -5.526464,7.916825 -14.577746,-3.56696 -3.922971,-11.640288 5.526464,-7.916825 z"
     fill="#fdea67"
     id="path103" />
  <path
     d="m 239.4328,48.904545 c 6.59285,-4.014819 3.84533,9.485283 10.6875,8.3125 -3.57827,5.508526 -10.27808,11.184441 -7.64237,0.43073 1.03774,-10.432685 -20.84808,-5.687795 -18.19663,-9.753237 5.04541,-0.648388 10.26827,-0.527318 15.1515,1.010007 z"
     fill="#252523"
     id="path104" />
  <path
     d="m 145.1203,37.217045 c 3.97713,4.080942 9.53263,0.231794 3.61105,7.263353 -6.82813,4.04011 -21.18982,-7.923567 -7.62434,-6.928912 1.33776,-0.11148 2.67553,-0.222961 4.01329,-0.334441 z"
     fill="#ece165"
     id="path107" />
  <path
     d="m 203.1203,134.21705 c 0.33,0.66 0.66,1.32 1,2 0.66,0 1.32,0 2,0 -1.63952,4.63931 -4.06871,8.63855 -6.625,12.8125 -0.42023,0.69287 -0.84047,1.38574 -1.27344,2.0996 -1.0305,1.698 -2.06557,3.39323 -3.10156,5.0879 -0.66,-0.66 -1.32,-1.32 -2,-2 0.33,-0.66 0.66,-1.32 1,-2 0.10184,-0.72575 0.20367,-1.45149 0.3086,-2.19922 0.90034,-3.64715 2.74092,-6.49472 4.7539,-9.61328 0.37705,-0.59749 0.7541,-1.19497 1.14258,-1.81055 0.92482,-1.46332 1.85894,-2.92075 2.79492,-4.37695 z"
     fill="#164009"
     id="path108" />
  <path
     d="m 170.1203,49.217045 c 5.48539,6.681084 -1.79013,21.779973 -9.32374,13.031424 -5.43401,0.270535 5.35886,-12.285721 8.45663,-4.360332 0.28904,-2.890364 0.57807,-5.780728 0.86711,-8.671092 z"
     fill="#fcec76"
     id="path109" />
  <path
     d="m 124.1203,72.217045 c 6.5702,1.808224 16.31611,14.56236 11.718,16.645086 -1.38066,-6.428432 -17.89383,-9.27509 -11.718,-16.645086 z"
     fill="#e3e3e2"
     id="path110" />
  <path
     d="m 88.120302,53.217045 c 0.212386,10.019865 -16.264985,10.049838 -17.668896,5.028124 9.103128,3.753713 8.773733,-8.780282 17.668896,-5.028124 z"
     fill="#ede27c"
     id="path111" />
  <path
     d="m 124.1203,84.217045 c 10.23317,8.170342 -16.38722,11.628649 -12.05054,3.239016 2.65978,-3.075991 11.70325,2.10558 12.05054,-3.239016 z"
     fill="#f9ed79"
     id="path113" />
  <path
     d="M 56.120302,65.217045 C 68.628606,69.027835 49.303994,81.610153 44.081893,74.1024 48.095716,71.872659 56.7698,71.69113 56.120302,65.217045 Z"
     fill="#e3d25f"
     id="path114" />
  <path
     d="m 86.120302,95.217045 c 8.228706,-3.167093 12.269973,7.801585 3.132234,8.105895 -8.97021,0.67739 -5.324414,-3.25946 -3.132234,-8.105895 z"
     fill="#f2e786"
     id="path116" />
  <path
     d="m 180.1203,57.217045 c 2.64494,5.151941 -2.1757,16.219712 7.9554,10.356698 8.77364,5.398511 -4.1258,12.600189 -7.77909,3.882013 -3.27875,-4.381543 0.92146,-9.299443 -0.17631,-14.238711 z"
     fill="#e8d654"
     id="path117" />
  <path
     d="m 228.1203,63.217045 c 4.66667,0.333333 9.33333,0.666667 14,1 -0.0592,8.058877 -7.42677,6.131995 -8.8631,2.497999 -5.32446,5.711333 -9.37109,4.27676 -5.1369,-3.497999 z"
     fill="#faf5d2"
     id="path118" />
  <path
     d="m 253.1203,101.21705 c 2.54695,6.61364 -13.74157,10.47472 -18.10431,15.66188 -4.01166,2.85587 -13.17505,3.57305 -4.47878,-1.45234 7.23543,-5.20178 15.90922,-8.1931 22.58309,-14.20954 z"
     fill="#1a6f00"
     id="path119" />
  <path
     d="m 86.120302,67.217045 c 9.122656,6.372296 -11.755349,19.910878 -5.200073,8.485786 2.622091,-4.964918 -5.237134,-6.014453 2.782051,-6.174793 1.347705,-0.07035 1.931641,-1.284632 2.418022,-2.310993 z"
     fill="#e2d87f"
     id="path120" />
  <path
     d="m 196.1203,24.217045 c 3.66391,1.344909 19.92293,4.402712 7.32232,4 -5.08956,-0.553523 4.43604,9.985521 -4.26529,6.013147 -6.33983,-1.309203 -2.86516,-5.828625 -3.05703,-10.013147 z"
     fill="#eee594"
     id="path121" />
  <path
     d="m 299.1203,69.217045 c -0.96607,10.961692 -13.61159,-2.892626 -18.93085,-1.034555 5.71597,-4.005541 13.31726,-2.134581 18.93085,1.034555 z"
     fill="#d4c959"
     id="path122" />
  <path
     d="m 265.1203,50.217045 c 1.1683,5.22807 21.66084,7.383951 8.91226,11.455986 -5.05158,-0.944407 -11.32531,-5.60391 -8.91226,-11.455986 z"
     fill="#e8e07f"
     id="path123" />
  <path
     d="m 141.1203,11.217045 c 0.90263,6.155682 1.42404,9.298066 8.33241,7.426302 -1.1417,6.668351 13.32244,4.321577 1.67099,5.973472 -12.23457,3.48236 -10.56681,-5.194113 -10.0034,-13.399774 z"
     fill="#dbd69e"
     id="path124" />
  <path
     d="m 52.120302,105.21705 c 3.511969,7.52574 -13.138161,15.44844 -10.49323,6.33095 5.525341,2.60938 6.235788,3.60109 1.114984,-1.5815 -2.956534,-4.76494 6.929549,-4.26475 9.378246,-4.74945 z"
     fill="#fae048"
     id="path125" />
  <path
     d="m 225.1203,116.21705 c -1.44099,3.52582 -3.15641,5.08238 -6.25,7.25 -4.52134,3.36726 -7.65103,7.07116 -10.75,11.75 -1,-3 -1,-3 -0.0664,-5.01563 9.41256,-13.98437 9.41256,-13.98437 17.0664,-13.98437 z"
     fill="#1a6e00"
     id="path126" />
  <path
     d="m 64.120302,55.217045 c 4.318084,5.123288 24.044662,6.35063 8.633027,7.674063 -7.12798,3.633004 -12.774294,-0.716487 -8.633027,-7.674063 z"
     fill="#17160e"
     id="path128" />
  <path
     d="m 163.1203,34.217045 c 1.4162,6.469462 10.0722,13.76541 -1.98637,11.134127 -15.16479,-4.357674 2.08001,-4.49318 1.98637,-11.134127 z"
     fill="#31312b"
     id="path129" />
  <path
     d="m 112.1203,59.217045 c 3.94864,3.780994 16.19435,10.9292 8.68341,16.412049 -2.52502,-5.569086 -8.225,-10.071045 -8.68341,-16.412049 z"
     fill="#eee7b2"
     id="path130" />
  <path
     d="m 243.1203,37.217045 c 3.96986,6.984949 2.16018,18.410476 -7.07375,11.910639 -6.09736,-10.139757 12.61689,1.117475 7.07375,-11.910639 z"
     fill="#d0ca77"
     id="path131" />
  <path
     d="m 94.120302,151.21705 c 2.99802,3.53361 5.239126,7.04589 7.312498,11.1875 0.53238,1.04543 1.06477,2.09085 1.61328,3.16796 0.3545,0.8727 0.70899,1.74539 1.07422,2.64454 -0.33,0.66 -0.66,1.32 -1,2 -3.6208,-1.20694 -4.125348,-2.57738 -5.800779,-5.86915 -0.469863,-0.96196 -0.469863,-0.96196 -0.949219,-1.94335 -0.328711,-0.62971 -0.657422,-1.25942 -0.996094,-1.90821 -2.326778,-4.6781 -2.326778,-4.6781 -1.957031,-7.72851 0.232031,-0.51176 0.464063,-1.02352 0.703125,-1.55078 z"
     fill="#272a26"
     id="path133" />
  <path
     d="m 114.1203,79.217045 c 8.237,-2.650133 13.79298,10.542649 2.58563,7.273526 -4.29062,0.334583 -2.07085,-4.843713 -2.58563,-7.273526 z"
     fill="#f9f9f7"
     id="path134" />
  <path
     d="m 171.3078,37.217045 c 3.17585,1.40667 4.69285,9.925542 5.41238,8.268129 -6.30747,1.495548 -19.42788,-6.480128 -5.41238,-8.268129 z"
     fill="#f2eca2"
     id="path135" />
  <path
     d="m 278.1203,82.217045 c 11.0893,3.650772 -7.19748,20.971845 -3.25858,6.575126 -1.23737,-3.363401 3.42337,-3.781479 3.25858,-6.575126 z"
     fill="#e6d147"
     id="path136" />
  <path
     d="m 60.120302,51.217045 c 5.111049,0.658705 1.610992,10.379901 0,3 -4.455208,-1.149017 -21.17364,9.171805 -17.098368,0.722292 5.227954,-2.89194 11.468228,-2.256282 17.098368,-3.722292 z"
     fill="#baa431"
     id="path139" />
  <path
     d="m 63.120302,63.217045 c 7.200647,10.16635 -13.678537,20.586972 -14.662977,11.897039 8.49993,0.194488 12.504649,-3.597008 14.662977,-11.897039 z"
     fill="#28271f"
     id="path142" />
  <path
     d="M 9.1203021,99.217045 C 8.2648739,107.203 -2.9866207,121.67128 1.3442599,106.56321 2.1986775,102.66322 4.7337856,98.884711 9.1203021,99.217045 Z"
     fill="#1e1e1e"
     id="path143" />
  <path
     d="m 61.120302,80.217045 c 9.535022,3.426024 -2.003115,20.560445 -7.232422,13.829102 5.629123,-0.443621 5.511948,-6.878727 8.050055,-9.137526 L 61.336831,82.33086 Z"
     fill="#ede7a7"
     id="path144" />
  <path
     d="m 252.1203,70.217045 c 11.13108,-4.287754 10.94407,8.242172 0.55492,6.508159 -2.21735,-1.398352 -1.0473,-4.533229 -0.55492,-6.508159 z"
     fill="#fae85b"
     id="path145" />
  <path
     d="m 161.1203,31.217045 c 5.44144,7.88439 -11.8289,15.250166 -5.65677,3.451306 0.93066,-2.2273 3.50909,-3.021632 5.65677,-3.451306 z"
     fill="#ece178"
     id="path146" />
  <path
     d="m 116.1203,36.217045 c -3.34332,6.639955 -21.061672,7.664633 -9.32497,0.07127 3.04587,0.900377 6.18707,-0.702888 9.32497,-0.07127 z"
     fill="#fcef82"
     id="path149" />
  <path
     d="m 22.120302,89.217045 c 14.293855,0.352204 -4.55913,11.002215 -8,3 2.264352,-2.044005 6.058722,-0.488256 8,-3 z"
     fill="#ead963"
     id="path150" />
  <path
     d="m 111.1203,66.217045 c 6.63295,-1.327152 14.26638,13.27065 3.26172,6.949219 -4.02453,-1.391775 -5.35521,-2.924453 -3.26172,-6.949219 z"
     fill="#e3d155"
     id="path151" />
  <path
     d="m 249.1203,100.21705 c 4.98807,8.34362 -21.37231,16.53899 -9.81684,6.1267 3.34163,-1.86439 7.33851,-3.03487 9.81684,-6.1267 z"
     fill="#191e18"
     id="path156" />
  <path
     d="M 96.120302,52.217045 C 87.082036,53.776892 88.279268,63.411981 95.769098,64.098348 92.145551,78.570076 79.298772,50.168841 94.585156,52.012326 Z"
     fill="#d8cc81"
     id="path157" />
  <path
     d="m 265.1203,48.217045 c 6.40481,9.893366 -15.22136,13.774493 -14.10591,7.812385 7.03317,1.325331 13.07363,0.767953 14.10591,-7.812385 z"
     fill="#22211c"
     id="path158" />
  <path
     d="m 232.1203,100.21705 c -0.44122,4.18612 -8.34418,23.14691 -9.30758,12.6732 2.19825,-4.7921 5.77242,-8.82563 9.30758,-12.6732 z"
     fill="#063a00"
     id="path159" />
  <path
     d="m 232.1203,66.217045 c 13.6727,3.730751 -7.74231,11.785678 -4.35176,3.604188 2.07368,-1.133364 5.97341,0.677673 4.35176,-3.604188 z"
     fill="#dcc746"
     id="path161" />
  <path
     d="m 192.1203,40.217045 c -4.29127,3.852388 -15.41313,10.074567 -10.92903,3.064544 -9.92035,-6.870568 8.84144,-3.050473 10.92903,-3.064544 z"
     fill="#eedb59"
     id="path162" />
  <path
     d="m 103.1203,44.217045 c 0.74027,10.623608 -18.229574,-0.539667 -4.641697,-0.770844 l 2.334377,0.299259 z"
     fill="#e3d264"
     id="path164" />
  <path
     d="m 140.1203,13.217045 c 7.28907,8.601854 -4.40212,20.143443 -11.20444,15.862226 7.71937,-2.546987 11.24882,-7.417316 11.20444,-15.862226 z"
     fill="#363521"
     id="path165" />
  <path
     d="m 70.120302,97.217045 c 3.414343,3.725225 18.337855,8.243575 5.447139,6.631445 -3.209409,-0.28162 -12.389562,-3.60974 -5.447139,-6.631445 z"
     fill="#e1dba0"
     id="path167" />
  <path
     d="m 150.1203,40.217045 c 12.88133,-0.01242 1.72043,10.688791 -4.89002,4.881379 -6.4264,-2.104091 7.87349,1.203718 4.89002,-4.881379 z"
     fill="#17170e"
     id="path168" />
  <path
     d="m 204.1203,15.217045 c 6.25746,0.379498 11.8767,13.284365 7.91801,12.326496 1.47074,-10.092691 -12.78207,-1.792974 -7.91801,-12.326496 z"
     fill="#d4be3e"
     id="path169" />
  <path
     d="m 290.1203,76.217045 c 1.58906,9.860341 -21.68669,0.500193 -6.57103,0.245507 2.18247,-0.215382 4.3783,-0.30909 6.57103,-0.245507 z"
     fill="#f4eb8f"
     id="path170" />
  <path
     d="m 155.1203,110.21705 c 1.3595,4.07848 0.14486,7.1768 -0.9375,11.1875 -0.19529,0.74959 -0.39058,1.49918 -0.59179,2.27148 -0.48285,1.84895 -0.97581,3.69525 -1.47071,5.54102 -2.82328,-2.82329 -2.79397,-5.08542 -3,-9 1.25,-1.5 1.25,-1.5 3,-3 1.15101,-2.28654 2.05549,-4.61623 3,-7 z"
     fill="#175703"
     id="path173" />
  <path
     d="m 33.120302,108.21705 c 6.478847,-5.09622 20.57814,10.96292 8.507314,3.32471 -2.56812,-2.2566 -9.952653,2.68372 -8.507314,-3.32471 z"
     fill="#fcee87"
     id="path175" />
  <path
     d="m 262.1203,38.217045 c 9.87804,-4.680346 6.60411,17.222133 2.95719,8.412062 3.82428,-5.153193 -5.193,-3.692935 -2.95719,-8.412062 z"
     fill="#dcd684"
     id="path176" />
  <path
     d="m 245.1203,68.217045 c 7.74487,-2.054171 13.96201,4.321388 3.62671,5.250174 -1.83993,-1.210397 -2.74741,-3.326257 -3.62671,-5.250174 z"
     fill="#f2eaae"
     id="path177" />
  <path
     d="m 231.1203,65.217045 c 4.50521,-1.433588 14.4412,0.661786 6.92668,5.274375 -3.06179,-2.670519 -5.81871,-3.186479 -6.92668,-5.274375 z"
     fill="#f9ed8b"
     id="path178" />
  <path
     d="m 56.120302,65.217045 c 12.596319,0.186393 -8.603274,13.661421 -1.786771,2.945164 l 0.679978,-1.630468 z"
     fill="#f8ed8b"
     id="path179" />
  <path
     d="m 146.1203,57.217045 c 8.56771,-1.548628 4.44289,14.563142 -0.0232,4.500112 l -0.006,-2.250149 z"
     fill="#eade69"
     id="path180" />
  <path
     d="m 196.1203,24.217045 c 5.3928,1.515543 20.06097,4.424847 5.8276,5.227821 -4.70928,1.702329 -7.5022,-0.161674 -5.8276,-5.227821 z"
     fill="#faef93"
     id="path181" />
  <path
     d="m 180.1203,171.21705 c 0.33,0 0.66,0 1,0 -0.41106,5.24099 -1.24039,8.24039 -5,12 -0.66,0 -1.32,0 -2,0 1.56642,-4.30765 3.68336,-8.06172 6,-12 z"
     fill="#212620"
     id="path183" />
  <path
     d="m 188.1203,160.21705 c 0.33,0.99 0.66,1.98 1,3 -1.39844,2.69921 -1.39844,2.69921 -3.375,5.6875 -0.64711,0.99386 -1.29422,1.98773 -1.96094,3.01171 -0.82371,1.13889 -0.82371,1.13889 -1.66406,2.30079 -0.33,0 -0.66,0 -1,0 0.26328,-6.45028 2.50664,-9.47916 7,-14 z"
     fill="#121a0f"
     id="path184" />
  <path
     d="m 73.120302,139.21705 c 3.791012,1.4495 7.387464,3.15172 11,5 -0.33,0.66 -0.66,1.32 -1,2 -3.936197,-0.56232 -6.791924,-1.61686 -10,-4 0,-0.99 0,-1.98 0,-3 z"
     fill="#0f150d"
     id="path185" />
  <path
     d="m 82.120302,57.217045 c 1.397023,9.905608 -23.041517,-0.871154 -6.044386,0.236317 2.00829,-0.123985 4.053956,0.159549 6.044386,-0.236317 z"
     fill="#e7d45a"
     id="path186" />
  <path
     d="m 256.1203,86.217045 c 4.91936,-1.937777 13.927,2.228142 4.38288,4.252469 -2.47613,0.2564 -5.0978,-1.465251 -4.38288,-4.252469 z"
     fill="#f9ee69"
     id="path188" />
  <path
     d="m 194.1203,52.217045 c 8.42378,3.036995 1.13565,8.202853 -4.48652,4.876143 -12.7545,-2.326583 1.03987,-0.53828 4.48648,-4.876143 z"
     fill="#403f38"
     id="path189" />
  <path
     d="m 248.1203,50.217045 c 10.40081,1.602075 -0.10706,11.689237 -4.25024,3.176434 3.04833,1.034528 7.97716,1.208647 4.25024,-3.176434 z"
     fill="#e1cf66"
     id="path190" />
  <path
     d="m 167.1203,9.2170452 c 7.9837,3.4613198 -1.78646,21.6675778 -1.09596,6.6255018 -0.15865,-2.224079 -0.36701,-4.74445 1.09596,-6.6255018 z"
     fill="#4c4b43"
     id="path191" />
  <path
     d="m 83.120302,95.217045 c 8.927387,4.763987 -8.500986,13.333985 -2.565996,2.581543 0.587548,-0.989096 1.188355,-2.49431 2.565996,-2.581543 z"
     fill="#fdf8c7"
     id="path193" />
  <path
     d="m 180.1203,57.217045 c 1.02538,6.192314 0.80862,14.473252 6.44958,16.249911 -10.15334,1.804718 -5.64605,-10.826178 -6.44958,-16.249911 z"
     fill="#d8d391"
     id="path194" />
  <path
     d="m 241.1203,50.217045 c -3.89416,3.511755 -20.05928,-2.207054 -16.6,-2.371294 5.57404,-0.775915 11.6844,-0.753101 16.6,2.371294 z"
     fill="#65645b"
     id="path195" />
  <path
     d="m 212.1203,40.217045 c 8.84069,3.173498 -2.75269,19.850868 -0.74386,6.516004 0.0743,-2.188199 0.39297,-4.358083 0.74386,-6.516004 z"
     fill="#cec98c"
     id="path196" />
  <path
     d="m 224.1203,33.217045 c -8.94172,-2.105492 -6.2004,15.478196 -9.50553,3.831823 -1.18676,-5.804699 6.07799,-5.316104 9.50553,-3.831823 z"
     fill="#c4b750"
     id="path197" />
  <path
     d="m 159.1203,18.217045 c 9.42865,0.08902 -1.4794,14.826878 -0.46797,3.097917 l 0.29587,-1.49798 z"
     fill="#edebdc"
     id="path198" />
  <path
     d="m 209.1203,123.21705 c 0.66,0.33 1.32,0.66 2,1 -0.5011,4.38462 -1.98295,6.80009 -5,10 -0.66,0 -1.32,0 -2,0 1.44951,-3.79102 3.15173,-7.38747 5,-11 z"
     fill="#20261e"
     id="path199" />
  <path
     d="m 253.1203,101.21705 c 7.55402,2.80901 -18.09276,14.46421 -8.11989,5.09609 2.94732,-1.10543 5.80074,-2.95485 8.11989,-5.09609 z"
     fill="#176100"
     id="path200" />
  <path
     d="m 103.1203,84.217045 c 9.11249,-4.022501 5.37867,10.101887 0.59117,5.078492 -0.11636,-1.701723 -0.39707,-3.385252 -0.59117,-5.078492 z"
     fill="#e5da75"
     id="path201" />
  <path
     d="m 269.1203,64.217045 c 5.93014,5.024472 -2.36585,12.042347 -6.49956,6.168576 2.74036,-0.747721 8.45578,-2.053595 6.49956,-6.168576 z"
     fill="#ddd25e"
     id="path202" />
  <path
     d="m 154.1203,2.2170452 c 14.61769,-0.7886424 -4.60898,8.1203628 -2.86528,3.0041127 2.50726,-0.4946448 3.29041,-0.2886042 2.86528,-3.0041127 z"
     fill="#cab955"
     id="path203" />
  <path
     d="m 108.1203,63.217045 c 12.63379,2.521838 -2.80742,10.673376 -1.46828,0.798897 l 1.26009,-0.694802 z"
     fill="#f3e681"
     id="path205" />
  <path
     d="m 170.1203,49.217045 c 5.10542,3.247135 -1.23843,21.640869 -3.9042,11.027499 5.63866,-1.988386 2.95036,-6.665291 3.9042,-11.027499 z"
     fill="#d6d091"
     id="path206" />
  <path
     d="m 108.1203,59.217045 c 14.30707,-0.692764 0.0452,14.67373 0,0 z"
     fill="#fcfbf4"
     id="path207" />
  <path
     d="m 274.1203,56.217045 c 13.42123,0.48579 -6.53147,12.69894 0,0 z"
     fill="#efd958"
     id="path208" />
  <path
     d="m 200.1203,48.217045 c 7.94149,-3.234506 9.2528,7.315499 0.25509,3.601131 -0.91522,-0.969799 -0.3945,-2.491731 -0.25509,-3.601131 z"
     fill="#f9e155"
     id="path209" />
  <path
     d="m 175.1203,40.217045 c 10.29328,-0.03652 5.71245,8.690778 -0.9445,2.918832 l 0.19137,-1.192257 z"
     fill="#fdf8d1"
     id="path210" />
  <path
     d="m 94.120302,151.21705 c 2.9755,3.06848 3.964745,4.46236 4.25,8.8125 -0.0825,1.05187 -0.165,2.10375 -0.25,3.1875 -2.641412,-3.12167 -3.967812,-6.04329 -5,-10 0.33,-0.66 0.66,-1.32 1,-2 z"
     fill="#1a2018"
     id="path213" />
  <path
     d="m 105.1203,89.217045 c 12.521,-0.931639 0.0964,13.317425 0,0 z"
     fill="#efe89e"
     id="path214" />
  <path
     d="m 73.120302,73.217045 c -6.671818,-1.135977 0.640394,10.72785 -7.807439,3.900106 -6.500935,-3.734589 6.101289,-4.228841 7.807439,-3.900106 z"
     fill="#f5e15e"
     id="path215" />
  <path
     d="m 104.1203,62.217045 c 11.79765,2.815672 -13.040901,9.645889 -3.48476,4.16996 1.62799,-0.771926 3.62736,-2.053351 3.48476,-4.16996 z"
     fill="#e4d04f"
     id="path216" />
  <path
     d="m 162.1203,17.217045 c 10.79228,1.439621 -1.13254,16.967943 0,0 z"
     fill="#efd852"
     id="path217" />
  <path
     d="m 194.1203,67.217045 c 9.31765,2.656969 -8.96947,15.432984 -0.49613,2.835743 l 0.51333,-1.663866 z"
     fill="#fae766"
     id="path219" />
  <path
     d="m 171.3703,37.342045 c 8.27198,3.966417 -12.40495,7.964844 -4.93257,0.418171 1.48548,-0.986516 3.3147,-0.809986 4.93257,-0.418171 z"
     fill="#f2e97f"
     id="path220" />
  <path
     d="m 175.3078,26.092045 c 13.21738,-0.296729 -14.76789,5.167111 -10.60981,5.222945 1.6243,-4.142221 6.45543,-5.93088 10.60981,-5.222945 z"
     fill="#cccccc"
     id="path221" />
  <path
     d="m 233.1203,85.217045 c 7.3846,5.039964 -4.59674,12.120424 -2.08793,2.02542 -0.0922,-1.169575 1.17199,-1.786753 2.08793,-2.02542 z"
     fill="#fbf5a6"
     id="path223" />
  <path
     d="m 301.1203,76.217045 c 10.77391,-0.962043 -5.57166,15.178539 -0.66956,2.319147 0.29872,-0.751838 0.47256,-1.538746 0.66956,-2.319147 z"
     fill="#f3e971"
     id="path224" />
  <path
     d="m 87.120302,76.217045 c 6.113546,5.491932 -5.558102,10.537811 -3.957217,3.708603 1.243336,-1.320599 2.738065,-2.363037 3.957217,-3.708603 z"
     fill="#070706"
     id="path225" />
  <path
     d="m 46.745302,54.092045 c 10.740119,2.834813 -13.991463,6.784712 -2.253132,0.08906 z"
     fill="#ac9620"
     id="path226" />
  <path
     d="m 211.1203,26.217045 c 8.06951,8.320223 -16.03432,4.858876 -4.57278,1.5625 1.44642,-0.175433 4.10562,0.439754 4.57278,-1.5625 z"
     fill="#fae867"
     id="path227" />
  <path
     d="m 111.1203,87.217045 c 2.68281,3.123496 7.94273,0.447006 9.18985,3.908854 7.5072,1.440053 -14.01446,1.97661 -9.18985,-3.908854 z"
     fill="#d6cc64"
     id="path229" />
  <path
     d="m 84.120302,74.217045 c 3.169995,11.828149 -13.633164,3.902508 0,0 z"
     fill="#f8f0b5"
     id="path230" />
  <path
     d="m 182.1203,18.217045 c 9.64121,-0.247456 7.90012,10.309086 -0.0347,3.433984 l 0.0274,-1.462025 z"
     fill="#efdd5e"
     id="path231" />
  <path
     d="m 128.1203,6.2170452 c 13.82766,1.1080298 -13.8205,8.7519048 -0.82527,0.7836214 l 0.48438,-0.4599401 z"
     fill="#d3c166"
     id="path232" />
  <path
     d="m 145.1203,3.2170452 c -1.05876,9.3327898 -12.51923,0.5912521 -1.69147,0.022404 0.56382,-0.00747 1.12765,-0.014936 1.69147,-0.022404 z"
     fill="#d4cb55"
     id="path233" />
  <path
     d="m 101.1203,169.21705 c 1.32,0.33 2.64,0.66 4,1 0.33,2.31 0.66,4.62 1,7 -0.66,0 -1.32,0 -2,0 -3,-5.75 -3,-5.75 -3,-8 z"
     fill="#0e120d"
     id="path237" />
  <path
     d="m 76.120302,126.21705 c 4.875,4.625 4.875,4.625 6,8 -0.66,0 -1.32,0 -2,0 0,1.32 0,2.64 0,4 -0.99,-0.33 -1.98,-0.66 -3,-1 0.66,0 1.32,0 2,0 -0.99,-3.63 -1.98,-7.26 -3,-11 z"
     fill="#165e00"
     id="path238" />
  <path
     d="m 255.1203,50.217045 c 5.30135,-2.670219 2.62175,7.42805 5.50948,6.277188 -2.92093,-0.162731 -8.53754,-2.713571 -5.50948,-6.277188 z"
     fill="#ebdc77"
     id="path239" />
  <path
     d="m 203.1203,134.21705 c 0.66,0.99 1.32,1.98 2,3 -1.98,2.97 -1.98,2.97 -4,6 -0.99,-0.33 -1.98,-0.66 -3,-1 1.65,-2.64 3.3,-5.28 5,-8 z"
     fill="#222920"
     id="path241" />
  <path
     d="m 21.120302,110.21705 c 4.747287,5.77841 -10.924293,14.54078 0,0 z"
     fill="#d7c137"
     id="path242" />
  <path
     d="m 267.1203,91.217045 c 6.53566,-0.04255 -2.68372,10.698075 4.33223,9.000005 -6.37053,2.18881 -5.30075,-5.415934 -4.33223,-9.000005 z"
     fill="#e5ce43"
     id="path243" />
  <path
     d="m 124.1203,53.217045 c 11.66803,-0.787927 -2.97115,12.481919 0,0 z"
     fill="#f4e99a"
     id="path244" />
  <path
     d="m 230.1203,44.217045 c 3.37076,6.384006 -17.69989,0.806852 -4.59063,0.200344 1.49407,-0.137184 3.0975,-0.730835 4.59063,-0.200344 z"
     fill="#dfd773"
     id="path245" />
  <path
     d="m 1.1203021,106.21705 c 6.2401403,-0.64339 3.2931629,7.473 0.4294874,6.12288 -1.787082,8.79433 -2.01728439,-5.43129 -0.4294874,-6.12288 z"
     fill="#656565"
     id="path251" />
  <path
     d="m 217.1203,61.217045 c 9.35362,1.617687 3.98367,11.019709 -0.066,2.776609 l 0.094,-1.411518 z"
     fill="#f3edad"
     id="path252" />
  <path
     d="m 93.120302,164.21705 c 0.99,0 1.98,0 3,0 1.857768,3.13498 2.201405,5.37471 2,9 -2.324722,-2.85307 -3.750826,-5.54075 -5,-9 z"
     fill="#242b22"
     id="path256" />
  <path
     d="m 91.120302,156.21705 c 2.502984,2.93828 3.46931,5.17902 4,9 -2.756611,-2.48985 -4.607464,-4.2055 -5,-8 0.33,-0.33 0.66,-0.66 1,-1 z"
     fill="#192516"
     id="path257" />
  <path
     d="m 179.1203,92.217045 c 7.8622,3.428661 -8.88621,10.677335 -1.58285,1.97856 z"
     fill="#0d180a"
     id="path258" />
  <path
     d="m 116.1203,36.217045 c 6.69731,4.362388 -14.42252,8.634507 -3.88432,3.85843 0.0228,-2.181193 1.79056,-3.728751 3.88432,-3.85843 z"
     fill="#f5e35b"
     id="path259" />
  <path
     d="m 186.2453,25.092045 c 12.2126,7.00798 -15.1771,1.840488 0,0 z"
     fill="#444338"
     id="path260" />
  <path
     d="m 41.120302,111.21705 c 11.069972,3.36517 1.152852,8.63168 -1.368691,1.24838 z"
     fill="#ebd244"
     id="path264" />
  <path
     d="m 238.1203,92.217045 c 12.62359,-1.001666 3.59719,8.304255 0,0 z"
     fill="#ede6ae"
     id="path265" />
  <path
     d="m 87.120302,83.217045 c 2.514368,3.32311 11.329398,7.047629 2.071857,6.988024 -1.996319,-1.607071 -3.992527,-4.469814 -2.071857,-6.988024 z"
     fill="#535142"
     id="path266" />
  <path
     d="m 12.120302,78.217045 c 2.854538,6.546807 -9.8742972,13.765171 -3.5078342,3.5107 0.8931825,-1.416012 2.1776622,-2.52395 3.5078342,-3.5107 z"
     fill="#484848"
     id="path267" />
  <path
     d="m 253.1203,72.217045 c 10.20918,5.496493 -7.87661,6.045788 0,0 z"
     fill="#efe37a"
     id="path268" />
  <path
     d="m 43.120302,92.217045 c 11.333433,0.2065 0.321109,7.136159 -2.509068,1.598153 l 1.388534,-0.825418 z"
     fill="#383731"
     id="path270" />
  <path
     d="m 247.1203,87.217045 c 5.55717,6.838675 -8.91527,9.679944 0,0 z"
     fill="#f8ec66"
     id="path271" />
  <path
     d="m 294.1203,75.217045 c -2.61632,9.252872 -9.62267,-4.956418 0,0 z"
     fill="#faf7da"
     id="path272" />
  <path
     d="m 227.1203,66.217045 c 12.0681,-0.07736 -4.89207,8.734881 0,0 z"
     fill="#fdf9e0"
     id="path273" />
  <path
     d="m 109.1203,36.217045 c 13.28688,-4.708831 -1.67274,12.355467 0,0 z"
     fill="#faf196"
     id="path274" />
  <path
     d="m 115.1203,13.217045 c 5.59558,1.230485 -5.17434,16.072393 -2.22414,4.52966 -0.11406,-1.753395 0.65942,-3.646614 2.22414,-4.52966 z"
     fill="#dbdbdb"
     id="path275" />
  <path
     d="m 177.1203,6.2170452 c -4.35808,4.5675538 -13.33552,4.0479358 -4.52083,-0.6941351 1.54088,-0.2401063 3.09067,0.1539077 4.52083,0.6941351 z"
     fill="#c5c5c5"
     id="path276" />
</svg>
