<?xml version="1.0" encoding="UTF-8" standalone="no"?>
<svg
   version="1.1"
   width="219"
   height="219"
   id="svg261"
   sodipodi:docname="favicon.svg"
   inkscape:version="1.4.3 (0d15f75, 2025-12-25)"
   xmlns:inkscape="http://www.inkscape.org/namespaces/inkscape"
   xmlns:sodipodi="http://sodipodi.sourceforge.net/DTD/sodipodi-0.dtd"
   xmlns="http://www.w3.org/2000/svg"
   xmlns:svg="http://www.w3.org/2000/svg">
  <defs
     id="defs261" />
  <sodipodi:namedview
     id="namedview261"
     pagecolor="#ffffff"
     bordercolor="#000000"
     borderopacity="0.25"
     inkscape:showpageshadow="2"
     inkscape:pageopacity="0.0"
     inkscape:pagecheckerboard="0"
     inkscape:deskcolor="#d1d1d1"
     inkscape:zoom="13.561644"
     inkscape:cx="100.46717"
     inkscape:cy="151.78838"
     inkscape:window-width="2880"
     inkscape:window-height="1766"
     inkscape:window-x="-11"
     inkscape:window-y="-11"
     inkscape:window-maximized="1"
     inkscape:current-layer="svg261" />
  <path
     d="m 77.655518,9.2075781 c 20.169693,0.2439337 40.368952,-0.6652396 60.512842,0.7338426 8.00278,-3.4707315 14.66203,4.8381663 14.7526,12.2461703 0.62571,6.728103 0.0384,16.416418 -8.06244,18.091053 -6.81035,2.157469 -15.55046,6.445747 -13.87187,15.044653 -3.16495,8.28098 -17.99536,-2.498882 -21.41156,7.889417 -4.21692,8.211838 -16.728318,1.351348 -10.020787,-5.982517 3.212087,-2.334585 6.831737,-0.71644 1.194237,-1.271019 C 91.105448,54.058552 90.558957,39.67551 80.388125,38.944226 71.255589,43.604248 67.517126,31.575968 67.847796,24.495355 67.738321,18.526732 69.582717,8.1865781 77.655518,9.2075781 Z"
     fill="#9a2b1d"
     id="path3" />
  <path
     d="m 116,142.33697 c 6.44496,3.75834 8.08588,12.64907 13.85699,16.53788 1.11551,-3.19507 -0.0999,-12.35293 1.97429,-4.09365 0.74378,12.78281 -0.50939,25.60828 0.5643,38.39446 0.75839,6.31972 -1.81561,15.1381 -9.66262,14.64501 -8.9922,0.0236 -19.35644,3.72621 -27.269192,-2.92545 -8.155608,-5.30499 -6.656305,-15.54849 -6.612274,-23.60881 -1.432065,-7.06419 2.665801,-17.3878 11.136721,-16.637 4.874765,1.63936 13.758395,6.55386 12.485855,11.8425 -4.72199,3.41148 -14.059061,-2.3458 -15.602132,-0.90385 -1.510533,5.29344 -7.864282,13.01518 2.224362,14.09314 6.04081,-0.9258 19.96355,6.97728 17.38085,-4.0363 0.59269,-9.07385 3.82539,-20.31334 -3.90059,-27.36601 -4.32528,-1.19645 -9.2587,-9.77618 -1.1223,-6.87905 7.03174,1.55905 8.74763,8.4733 8.6075,14.57482 2.34442,8.59672 15.02638,2.90714 7.28602,-3.5699 C 121.51455,157.13669 117.7756,149.93821 116,142.33697 Z"
     fill="#6a2b1e"
     id="path4" />
  <path
     d="m 100,126.33697 c 7.41743,6.61447 2.32565,17.59332 6.20804,25.59624 8.92895,7.07212 16.19491,20.14591 10.67294,31.34409 -6.04152,2.56102 5.65091,10.91964 -2.1934,10.28177 -6.46693,-2.96024 -14.21518,-2.84232 -20.1563,-5.53412 -3.907814,-4.26127 3.319827,-14.13053 3.228049,-15.10055 2.355461,4.30619 19.027651,6.11363 11.565081,-1.0156 -5.11491,-4.96404 -14.267749,-6.5586 -19.418214,-7.5057 -3.162196,-11.42086 5.37581,-21.71089 4.828275,-33.00726 1.451957,-1.98498 3.598783,-3.28141 5.265529,-5.05887 z"
     fill="#6e281b"
     id="path5" />
  <path
     d="m 119,56.336973 c 8.89394,-1.357628 13.97047,7.856819 13.5531,15.587074 0.0607,9.530014 -0.92014,19.022673 -0.4555,28.562763 0.21106,2.98813 -0.45727,14.19071 -1.33975,5.75666 -0.11072,-10.4459 -18.45846,6.44944 -17.92988,-2.34754 10.42344,0.12762 3.67046,-14.567036 -3.59807,-7.82859 -6.71595,0.716301 0.73966,-6.341707 -2.19571,-9.204295 3.4552,-7.969163 13.81154,-2.889295 18.12628,-3.602872 0.57932,-8.754893 -11.92363,-7.244819 -17.60623,-9.999577 -9.520059,-3.731004 2.094,-10.844676 4.92033,-15.398846 1.73358,-1.614924 4.255,-2.156105 6.52543,-1.524777 z"
     fill="#722217"
     id="path6" />
  <path
     d="m 109.73991,69.336973 c 3.06811,6.530841 11.77939,7.002146 16.36463,11.967981 -2.79353,6.505233 -10.67174,-4.203706 -14.54003,3.392153 -3.06004,2.761684 -9.27744,14.751558 -0.20705,9.753476 4.38105,-3.416123 6.35702,-2.761373 8.18261,2.373729 4.18093,6.068958 -14.20955,7.370548 -3.01854,10.067268 5.56657,4.60398 -14.64706,2.46371 -5.34102,8.56014 6.59383,3.57459 8.92687,13.04268 0.28241,15.89933 -7.52756,2.10829 -1.57005,-18.7738 -9.92338,-8.71892 -10.490058,7.29046 -7.932942,-10.00413 -6.774743,-15.68146 2.728425,-6.32411 -3.559418,-14.596043 2.987314,-19.198002 2.990649,-3.381516 17.537079,-5.713503 9.849439,-10.741624 -4.72763,9.89816 -12.844826,-5.003772 -3.75319,-6.297923 2.42008,-0.33353 5.00501,2.017651 5.89155,-1.376148 z"
     fill="#832a1d"
     id="path7"
     style="stroke-width:1.00804" />
  <path
     d="m 113,9.3369726 c 11.48698,2.1181224 24.30768,-3.788276 34.89639,2.6764424 5.26387,5.154082 6.30413,14.346279 3.97746,21.125573 -4.07004,7.340052 -12.95959,9.208382 -19.62146,13.362855 0.54125,6.518534 -3.75627,9.158999 -9.3588,5.669933 -8.75786,3.96654 -12.9467,-10.967905 -2.02319,-5.79196 6.79938,-1.853032 14.62915,-4.465219 18.33871,-10.917234 C 141.124,25.480771 127.12346,28.2405 123.52155,21.986579 120.6621,17.408998 120.70469,8.0310689 113,9.3369726 Z"
     fill="#782115"
     id="path8" />
  <path
     d="m 90,65.336973 c 8.964529,-1.831421 9.107674,10.629842 15.69058,13.073268 3.36418,-1.868378 6.55528,-3.352139 5.04049,2.267245 -4.17188,5.710191 -14.832361,5.456392 -15.778437,13.766909 1.198739,9.025655 -2.094518,18.524635 0.922777,27.409415 4.18181,7.29938 12.30813,-11.44319 12.2209,1.24558 -1.02708,5.78631 3.16416,13.93615 8.37242,6.46332 12.21862,-2.97627 2.06358,13.91247 -5.36625,8.21031 -3.40176,-5.31557 -15.076383,-12.50416 -15.907394,-1.69277 1.772593,8.75327 -8.165817,-0.41213 -5.742103,-5.43745 0.203035,-8.04269 1.633267,-16.0631 0.89593,-24.09171 C 90.870297,92.820486 88.749585,79.023578 90,65.336973 Z"
     fill="#652015"
     id="path9" />
  <path
     d="m 100,9.3369726 c 6.72646,0.8445944 18.68058,4.3188284 12.84914,13.2661474 -2.64425,2.831194 -0.11659,7.752859 1.79201,2.060634 4.30331,-4.094043 16.59325,2.115464 13.3049,8.866251 -2.83978,3.234602 -6.6034,2.850936 -4.6894,7.953566 -6.43278,-0.476918 -10.8381,-9.522117 -18.11045,-8.362668 C 98.648197,31.752174 88.083472,27.681545 89.714859,19.534434 93.146318,16.201746 100.31756,15.066375 100,9.3369726 Z"
     fill="#832317"
     id="path10" />
  <path
     d="m 94,160.33697 c 4.734447,6.48556 13.92439,7.93143 18.6503,14.33391 -2.83688,8.56857 -17.02267,-5.84214 -16.255578,3.40489 0.725842,3.17208 -7.662431,7.13699 -0.567937,9.69226 5.465475,2.91145 18.801375,4.70451 14.482575,13.59139 -2.07323,5.34488 -8.52052,-1.67967 -11.346371,4.74901 -8.329432,3.20142 -11.443356,-10.91547 -10.150796,-17.36182 1.993471,-8.85653 1.00445,-18.57957 4.658587,-26.78306 z"
     fill="#601f15"
     id="path11" />
  <path
     d="m 107,36.336973 c -1.10182,8.635095 7.85518,12.713243 14.74533,14.533882 5.66252,-0.456469 14.17403,10.571332 4.00473,8.476375 -7.23348,-5.065253 -13.60452,-0.186374 -16.58244,6.611414 -5.6675,6.186866 -18.835486,-5.963306 -8.13231,-8.604476 9.59807,-1.678488 -10.411388,-2.740484 -8.865212,-8.28963 2.423133,-6.805657 10.241122,2.682899 10.702152,-5.353521 0.65232,-2.735893 1.4241,-5.935894 4.12775,-7.374044 z"
     fill="#952d1e"
     id="path12" />
  <path
     d="m 78.320312,9.2393164 c 6.549173,-2.1281213 15.06216,-0.7182121 19.836833,4.4101226 -0.261696,5.875531 -17.256136,7.43257 -4.493143,12.026593 6.132257,0.300913 10.068608,11.236247 1.727408,9.38618 -6.467549,-1.93248 -13.899085,-5.031698 -16.76098,-11.612944 -2.418773,-5.480736 9.945577,-9.12529 0.579443,-11.053278 -4.63661,1.582052 -5.331204,19.00734 -9.263152,8.819592 -2.437464,-5.289103 1.375434,-14.9229089 8.373591,-11.9762656 z"
     fill="#bb3a28"
     id="path13" />
  <path
     d="m 90,65.336973 c 9.005449,-1.982137 9.015432,10.682519 15.61811,13.046338 3.40379,-1.997303 6.53775,-3.570285 5.79377,2.204948 -3.7842,5.629713 -13.839307,4.175192 -15.90644,11.565696 1.46447,4.273401 -5.493271,12.461465 -5.350766,4.032545 C 89.842172,87.926872 90.237692,79.640091 89.576622,71.414256 89.619979,69.383389 89.746406,67.352949 90,65.336973 Z"
     fill="#8d2d20"
     id="path14" />
  <path
     d="m 77,12.336973 c 7.056828,-3.373771 10.387233,7.402768 2.332458,7.745639 0.07717,8.205543 11.037629,10.113408 12.981312,17.368762 -3.892798,6.462706 -13.941119,5.357011 -19.284853,1.077575 -6.626543,-1.820476 -7.616601,-17.382871 0.0075,-12.712407 C 76.275751,22.457509 73.722147,15.925608 77,12.336973 Z"
     fill="#842519"
     id="path15" />
  <path
     d="m 119,56.336973 c 8.58597,-3.264094 13.154,7.359097 13.61424,14.206477 1.5307,3.261369 -1.79007,12.123051 -1.87523,3.880786 1.28032,-8.286606 -18.41719,-11.335357 -9.0688,-2.145289 5.66779,4.381732 2.09031,7.358968 -3.59659,4.951624 -5.57632,-1.080062 -16.80564,-3.897548 -14.40144,-11.232752 7.08875,-1.69323 7.02871,-11.990174 15.32782,-9.660846 z"
     fill="#5b170f"
     id="path16" />
  <path
     d="m 113,9.3369726 c 3.47082,0.9966714 15.57018,-2.952706 11.00688,4.1582434 5.01163,6.299021 17.44589,-2.444245 19.82477,5.831792 -1.94504,3.009517 -2.87407,13.401847 -7.02273,11.551738 C 132.8207,26.81585 124.54662,25.340604 122.33213,18.037372 120.08913,14.472085 117.795,9.6650343 113,9.3369726 Z"
     fill="#0f0302"
     id="path17" />
  <path
     d="m 115,87.336973 c 2.83004,5.294088 10.1341,14.242407 -0.17476,16.306007 -1.13082,0.58997 3.38462,6.72568 -1.95442,7.74869 -5.37019,1.6092 -14.867397,1.4764 -10.59183,-6.69796 1.27841,-6.346354 7.93148,-9.918757 11.65651,-12.091303 0.39117,-1.747871 0.56394,-3.541618 1.0645,-5.265434 z"
     fill="#b7412f"
     id="path18" />
  <path
     d="m 113,189.33697 c -1.29401,7.42174 8.295,10.11678 9.80323,16.09414 -5.32055,4.73585 -13.23956,2.20256 -19.69483,1.90497 -7.781296,0.30651 -4.511445,-6.02257 0.76801,-6.90069 3.36358,5.6184 8.18351,3.81271 5.66784,-2.62685 -0.23384,-2.95449 -1.21724,-8.88911 3.45575,-8.47157 z"
     fill="#491f14"
     id="path19" />
  <path
     d="m 134.95312,10.145566 c 5.01569,-6.6965994 14.0216,1.027939 13.52147,7.46424 -3.71112,3.181182 -8.33627,-4.478194 -13.28804,-0.776122 -6.52633,3.631912 -16.60254,-2.485933 -8.25497,-7.7795671 2.73218,-0.1972101 5.32259,0.9140258 8.02154,1.0914491 z"
     fill="#af3928"
     id="path20" />
  <path
     d="m 126,98.336973 c 7.97411,3.111977 5.50022,12.537567 2.54151,18.368357 -3.7385,3.76492 1.07075,10.83991 -0.58946,11.8645 -11.00678,3.02671 -5.58354,-10.30633 -3.77638,-15.78881 0.77307,-4.19625 -0.17246,-6.50047 -1.20412,-1.28811 -6.20281,5.53708 -7.23437,-4.73534 -1.70096,-6.91608 2.43303,-2.00902 10.56635,-2.0355 4.72941,-6.239857 z"
     fill="#8f2f21"
     id="path21" />
  <path
     d="m 100,126.33697 c 6.94541,5.83829 3.06534,15.961 5.36232,23.53212 -4.76877,0.436 -16.930535,-7.1652 -10.516893,-15.10986 -0.53964,-3.57347 1.779974,-7.22261 5.154573,-8.42226 z"
     fill="#903123"
     id="path22" />
  <path
     d="m 116,142.33697 c 6.44496,3.75834 8.08588,12.64907 13.85699,16.53788 1.11551,-3.19507 -0.0999,-12.35293 1.97429,-4.09365 0.73272,11.82123 -0.38406,23.67852 0.36686,35.5086 -0.37329,2.78985 0.72544,14.63458 -2.06492,11.82861 -2.095,-6.995 2.85699,-14.01828 1.10908,-21.41128 -1.23683,-6.83558 2.0444,-15.25947 -4.37973,-20.22239 -4.75218,-4.11207 -10.20399,-8.92958 -9.91583,-15.79742 -0.31561,-0.7834 -0.63095,-1.56721 -0.94674,-2.35035 z"
     fill="#36100a"
     id="path23" />
  <path
     d="m 103,32.336973 c 7.17895,4.969038 1.02746,14.649104 -6.058981,15.281766 C 87.422946,49.916138 88.196255,33.540833 96.752618,33.848828 98.779885,33.284099 101.32596,33.815783 103,32.336973 Z"
     fill="#b33626"
     id="path24" />
  <path
     d="m 138,35.336973 c 4.55805,1.892865 7.47442,7.651288 -0.0569,6.469067 -6.36481,0.970111 -5.82693,16.704805 -16.22326,11.59991 -7.81602,2.31855 -10.37474,-12.26143 -1.32457,-7.502101 6.25698,2.907073 14.00783,-5.849758 17.6047,-10.566876 z"
     fill="#812317"
     id="path26" />
  <path
     d="m 77,12.336973 c 7.890427,-3.2947224 9.539167,7.499327 1.700185,7.953799 3.534633,5.088018 2.1805,13.934968 -5.705215,11.171174 -3.203479,12.224373 -10.420503,-8.27664 -0.372675,-6.61324 C 75.296249,23.166668 74.549698,15.754464 77,12.336973 Z"
     fill="#772015"
     id="path27" />
  <path
     d="m 93,189.33697 c 8.72056,-0.17064 9.82634,12.60971 3.592504,16.65844 C 88.519007,207.52069 87.072645,192.69982 93,189.33697 Z"
     fill="#65291c"
     id="path28" />
  <path
     d="m 131,86.336973 c 1.32182,7.307717 1.82552,14.929507 0.79693,22.295177 -2.59028,-0.89546 -0.32067,-9.747996 -5.11337,-4.78739 -3.17731,1.33847 -17.07811,4.86382 -12.9602,-1.58594 7.87188,-1.80691 15.86618,-7.504548 17.27664,-15.921847 z"
     fill="#52170f"
     id="path29" />
  <path
     d="m 95,185.33697 c 3.197997,6.89018 17.80415,4.67032 15.55917,14.32555 -4.34731,10.95593 -11.507576,-6.05544 -16.440931,-9.33595 -2.341702,-1.08862 -0.04041,-3.71042 0.881761,-4.9896 z"
     fill="#5e2b1e"
     id="path30" />
  <path
     d="m 107,36.336973 c 7.58052,5.982511 0.36248,16.284738 -6.98221,18.21736 -7.295743,4.154241 -9.007331,-10.514642 -1.14341,-7.069718 4.9163,-1.551508 3.62715,-8.800788 8.12562,-11.147642 z"
     fill="#751f14"
     id="path31" />
  <path
     d="m 113.6875,9.7744726 c 10.05179,-1.6356269 8.07824,11.3655624 2.98831,15.7351544 -6.16052,7.06063 -8.98896,-4.332838 -3.38745,-6.896217 -1.70109,-2.183448 -3.22671,-5.855316 1.19946,-5.583989 -3.45322,2.394511 -12.73626,-3.6318745 -4.70457,-3.6515474 1.31064,0.022276 2.61303,0.1830165 3.90425,0.396599 z"
     fill="#cd402e"
     id="path32" />
  <path
     d="m 115,48.336973 c 4.7619,2.08222 15.04551,4.759623 14.78291,10.031201 -6.68582,1.370819 -15.27521,0.779133 -19.51446,-5.342863 -0.89175,-2.808576 2.71093,-4.040695 4.73155,-4.688338 z"
     fill="#9d2c1e"
     id="path33" />
  <path
     d="m 104,74.336973 c 13.422,-0.983237 2.68227,16.925548 -6.109444,12.287112 C 88.557013,83.960383 102.14181,70.8383 104.09872,80.328523 105.75603,78.8335 106.2629,75.559646 104,74.336973 Z"
     fill="#5d1a11"
     id="path34" />
  <path
     d="m 100,9.3369726 c 5.96082,2.7656234 18.55707,2.2154684 13.17034,11.7957264 -6.15722,3.328712 -13.10586,-2.553486 -12.43833,-7.987689 C 99.667429,12.306168 98.791095,10.437412 100,9.3369726 Z"
     fill="#a92e1f"
     id="path35" />
  <path
     d="m 115,77.984439 c 11.56076,-1.043681 1.76882,13.352702 -3.37569,15.880467 -3.55453,4.178871 -7.45719,1.734293 -4.10718,-3.596713 -2.65704,-7.75008 4.29718,-6.809586 7.71105,-9.343006 l 0.24011,-1.484184 z"
     fill="#300b07"
     id="path36"
     style="stroke-width:1.07257" />
  <path
     d="m 100,165.33697 c 4.42819,1.16512 17.06271,10.32129 8.69774,12.48556 -5.94073,0.87597 -15.844016,-5.80937 -9.759933,-11.74167 z"
     fill="#571b12"
     id="path37" />
  <path
     d="M 103,87.336973 C 115.64166,90.702251 94.738113,97.365849 99.186107,104.87371 92.373326,113.51828 93.94233,96.306979 98.618784,93.933087 101.78115,92.889901 102.72832,90.446024 103,87.336973 Z"
     fill="#a13627"
     id="path38" />
  <path
     d="m 123,21.336973 c 6.1154,-1.16868 15.66658,6.397781 11.45747,12.346776 -6.81626,3.362034 -6.4342,-7.511683 -13.92209,-6.994689 -2.37969,-1.660659 1.37307,-4.103972 2.46462,-5.352087 z"
     fill="#ac3121"
     id="path39" />
  <path
     d="m 122,60.336973 c -2.73639,8.242242 14.18048,6.310831 7.06386,15.00879 C 120.47284,76.663138 113.00239,65.59752 122,60.336973 Z"
     fill="#8d291c"
     id="path40" />
  <path
     d="m 115,87.336973 c 3.98925,4.772782 9.86108,16.864567 -1.24224,16.154567 -9.37975,0.31536 -4.19468,-8.07045 0.19224,-11.289522 0.97341,-1.368751 1.767,-3.192785 1.05,-4.865045 z"
     fill="#a03425"
     id="path41" />
  <path
     d="m 113,9.3369726 c 3.55597,1.0153884 15.13306,-2.9560311 11.30332,4.2855724 9.13214,-1.333203 12.07291,14.733043 1.00566,10.635456 C 118.29628,22.113462 123.53729,5.9339654 113,9.3369726 Z"
     fill="#741e13"
     id="path42" />
  <path
     d="m 92,22.336973 c 9.27958,1.58369 8.43035,18.603641 -1.894988,11.37427 -4.067132,-2.745424 -8.910886,-9.377237 -0.714185,-9.911453 l 1.252554,-0.643036 z"
     fill="#c33a2a"
     id="path43" />
  <path
     d="M 90,65.336973 C 101.45338,59.133491 97.475425,84.211441 89.664141,74.72262 87.299979,71.805149 89.132982,68.422199 90,65.336973 Z"
     fill="#5c180f"
     id="path44" />
  <path
     d="m 92,96.336973 c 5.182582,5.104287 4.317694,14.298317 1.156865,20.275337 -7.103181,-1.29595 -1.50573,-11.46258 -0.745607,-16.4272 C 92.531767,98.892633 92.413997,97.571031 92,96.336973 Z"
     fill="#6b2116"
     id="path45" />
  <path
     d="m 91.069192,45.654902 c 1.12801,7.769186 11.644668,6.885111 14.775918,11.877525 -7.290955,5.419829 -19.807127,-1.139891 -16.464458,-10.804288 z"
     fill="#210805"
     id="path46"
     sodipodi:nodetypes="cccc" />
  <path
     d="m 133,32.336973 c 8.06304,-1.499786 9.3711,7.296795 0.87733,7.67932 -4.86924,2.907724 -14.56091,-5.001307 -5.13722,-5.874305 1.36564,-0.295587 3.91117,0.01416 4.25989,-1.805015 z"
     fill="#ad3222"
     id="path47" />
  <path
     d="m 89.208365,129.33697 c 15.896185,19.36412 -4.953122,39.30147 3.717747,58.8759 -0.196642,3.07951 0.256918,13.00328 -2.689773,12.17815 -3.105874,-23.67574 0.383836,-47.37096 -1.027974,-71.05405 z"
     fill="#210806"
     id="path48"
     style="stroke-width:1.77506" />
  <path
     d="m 117.94531,127.89557 c 11.75297,0.9686 -2.13004,15.66938 -7.33093,8.88017 -1.24664,-4.01436 0.13732,-3.86428 3.11788,-2.69739 2.19529,-1.38023 0.8451,-6.05933 4.21305,-6.18278 z"
     fill="#521810"
     id="path49" />
  <path
     d="m 101,196.33697 c -0.53028,7.76321 8.14494,9.92451 14.21891,8.66483 3.48316,-1.26805 14.53813,0.86495 5.61208,1.93288 -8.15014,0.80184 -16.73692,1.61231 -24.635533,-0.96534 4.321853,-0.64818 5.797033,-5.95873 4.804543,-9.63237 z"
     fill="#35150d"
     id="path50" />
  <path
     d="m 116,142.33697 c 5.61203,4.34546 10.37939,10.63267 11.94602,17.61827 -4.57876,4.68872 -7.93969,-7.70572 -10.16562,-11.30974 -0.79392,-2.03887 -1.41389,-4.1498 -1.7804,-6.30853 z"
     fill="#4c180f"
     id="path51" />
  <path
     d="m 112,69.336973 c 8.38339,-5.381634 15.42436,11.604779 3.68467,8.788867 C 112.28688,77.630845 107.95412,71.818384 112,69.336973 Z"
     fill="#0f0201"
     id="path52" />
  <path
     d="M 70,10.336973 C 80.037237,8.620445 74.655325,30.520834 69.562515,21.466833 68.653529,17.798515 68.994052,13.947335 70,10.336973 Z"
     fill="#8f281c"
     id="path53" />
  <path
     d="m 110,148.33697 c 7.6966,0.76281 7.79571,12.80679 -0.90515,9.81969 -6.16536,-3.48063 -4.13933,-6.537 0.90515,-9.81969 z"
     fill="#581c13"
     id="path54" />
  <path
     d="m 132,115.33697 c 0,5.66667 0,11.33333 0,17 -3.48443,-2.60572 -5.1355,-8.35667 -8.0818,-10.26176 0.29565,-3.83348 4.00637,-7.78339 8.0818,-6.73824 z"
     fill="#641f14"
     id="path55" />
  <path
     d="m 104,95.336973 c 3.58289,4.406096 -0.34618,16.357547 -5.870578,14.210657 C 96.992174,104.24879 99.724726,98.485121 104,95.336973 Z"
     fill="#7e291c"
     id="path56" />
  <path
     d="M 150,9.3369726 C 158.04058,18.453895 135.18963,23.33047 141.88576,12.137446 143.48554,9.5284023 147.13177,8.3652915 150,9.3369726 Z"
     fill="#a73121"
     id="path57" />
  <path
     d="m 101,64.336973 c 4.52274,1.827135 20.88668,1.378059 9.63669,7.481992 C 106.21818,72.911262 96.560526,70.69519 101,64.336973 Z"
     fill="#2f0b07"
     id="path58" />
  <path
     d="m 115,162.33697 c 10.0471,-3.87238 8.50235,20.33684 1.7909,9.4216 -0.69992,-3.06713 -4.72788,-6.28723 -1.7909,-9.4216 z"
     fill="#611f15"
     id="path59" />
  <path
     d="m 84,12.336973 c 4.6095,0.308328 18.29053,-2.4091744 13.622533,5.762029 C 92.649932,19.954754 86.007231,17.334046 84,12.336973 Z"
     fill="#c73b29"
     id="path60" />
  <path
     d="m 97,114.33697 c 11.07805,-0.2111 0.125249,16.95447 -4.109836,10.53808 0.278801,-3.89067 3.197491,-6.84738 4.109836,-10.53808 z"
     fill="#a03728"
     id="path61" />
  <path
     d="m 90,198.33697 c 11.51356,-4.53954 6.023494,16.34249 0.111801,4.99885 C 89.238808,201.81309 89.677307,199.95339 90,198.33697 Z"
     fill="#5d261a"
     id="path62" />
  <path
     d="M 75,28.336973 C 86.464465,28.797437 70.672019,45.542854 71.2661,34.37634 69.81202,30.200294 76.808715,31.438425 75,28.336973 Z"
     fill="#b13425"
     id="path63" />
  <path
     d="m 99,129.33697 c -4.654475,1.61219 -4.45485,18.49087 -9.086861,8.14705 C 87.983993,132.83158 94.289953,126.14548 99,129.33697 Z"
     fill="#75261a"
     id="path64" />
  <path
     d="m 111,31.336973 c 3.20202,3.663728 8.80843,17.039545 -0.92185,11.575324 C 105.74821,40.894095 105.04018,31.713368 111,31.336973 Z"
     fill="#b43526"
     id="path65" />
  <path
     d="m 91,179.33697 c 8.459791,-5.64653 12.20082,14.95673 3.123238,8.0671 -2.057729,-2.06243 -4.596871,-4.9373 -3.123238,-8.0671 z"
     fill="#a03b2c"
     id="path66" />
  <path
     d="m 96,149.33697 c 6.65046,3.08989 6.17636,18.35001 -0.748289,7.77235 C 94.042617,154.73624 93.18477,150.99225 96,149.33697 Z"
     fill="#621f14"
     id="path67" />
  <path
     d="m 118,17.336973 c 3.77285,10.245569 -14.17873,15.177864 -6.32488,2.656804 1.55786,-1.766516 3.92092,-2.998602 6.32488,-2.656804 z"
     fill="#b53524"
     id="path68" />
  <path
     d="m 77,12.336973 c 7.656419,-3.6884882 10.170539,7.860265 1.842063,8.018502 C 68.347454,19.11777 80.715358,16.727403 77,12.336973 Z"
     fill="#651b13"
     id="path69" />
  <path
     d="m 116,181.33697 c 8.19526,0.53459 5.89509,11.12365 -1.68728,8.4677 -2.99342,-2.15667 0.32402,-6.33553 1.68728,-8.4677 z"
     fill="#4c1e14"
     id="path70" />
  <path
     d="m 124,143.33697 c 6.14663,-0.4862 7.80797,14.50353 4.11445,13.69721 0.47903,-5.38815 -8.90339,-8.48749 -4.11445,-13.69721 z"
     fill="#923526"
     id="path71" />
  <path
     d="m 110,86.336973 c 10.76138,0.300359 -1.26036,13.31973 -4.65354,9.095393 0.73914,-3.836295 9.85557,-4.382094 4.65354,-9.095393 z"
     fill="#57160e"
     id="path72" />
  <path
     d="m 145,31.336973 c 10.185,-0.169287 -2.03663,11.532371 -3.21478,5.129333 0.45472,-2.099986 2.79596,-3.129708 3.21478,-5.129333 z"
     fill="#9c2b1d"
     id="path73" />
  <path
     d="m 118,105.33697 c 7.70027,6.69627 -9.27896,11.74091 -10.49565,6.30443 3.08033,-3.35632 12.40064,1.37739 10.49565,-6.30443 z"
     fill="#712317"
     id="path74" />
  <path
     d="m 120,74.336973 c 9.43887,-3.144112 5.15756,14.218114 0.43191,10.866879 C 119.80425,81.419353 117.6003,78.321186 120,74.336973 Z"
     fill="#8a2c1d"
     id="path75" />
  <path
     d="m 131,58.336973 c 1.44945,6.27545 2.31081,13.579315 0.19064,19.589462 C 128.6994,72.242168 126.3249,63.666392 131,58.336973 Z"
     fill="#390d08"
     id="path76" />
  <path
     d="m 131,51.336973 c 0.54218,3.747108 0.81873,17.42049 -4.50449,8.984661 C 122.05505,55.844349 123.65902,49.291556 131,51.336973 Z"
     fill="#8a271a"
     id="path77" />
  <path
     d="m 98,43.336973 c 9.81631,3.182634 -4.357737,17.003309 -5.091301,7.407612 C 92.855713,46.695946 98.248747,47.081544 98,43.336973 Z"
     fill="#842519"
     id="path78" />
  <path
     d="m 138,35.336973 c 4.02251,1.735464 7.55378,7.439221 0.40108,6.253338 -5.12054,-2.110425 -7.99319,15.880965 -8.51809,4.07363 -1.77404,-6.690453 8.05385,-4.792893 8.11701,-10.326968 z"
     fill="#4a120b"
     id="path79" />
  <path
     d="m 104,74.336973 c 8.5529,-6.648303 7.57238,13.970787 2.09576,6.508732 C 104.96874,78.784246 105.70297,76.048187 104,74.336973 Z"
     fill="#3f100a"
     id="path80" />
  <path
     d="m 102,139.33697 c 10.84316,-3.60235 8.37037,12.41643 -0.3889,6.19462 -1.07729,-1.92075 -0.63713,-4.35352 0.3889,-6.19462 z"
     fill="#531810"
     id="path81" />
  <path
     d="m 120,88.336973 c 9.64954,-2.341547 3.02724,11.123243 -2.17462,8.045875 -0.28358,-2.94872 2.25304,-5.126333 2.17462,-8.045875 z"
     fill="#932e21"
     id="path82" />
  <path
     d="m 101,71.336973 c 11.26831,-2.981155 0.0821,17.878149 -1.65666,5.459331 -1.586277,-2.694363 1.2329,-3.253857 1.65666,-5.459331 z"
     fill="#902c1e"
     id="path83" />
  <path
     d="m 126,26.336973 c 11.26948,4.022367 -9.91749,10.945767 -4.2888,2.439374 1.08721,-1.574005 2.55431,-2.026837 4.2888,-2.439374 z"
     fill="#5d160e"
     id="path84" />
  <path
     d="m 122,56.336973 c 10.54237,-2.080399 1.10096,17.810208 -0.8052,7.593587 0.0685,-2.548368 0.62569,-5.050914 0.8052,-7.593587 z"
     fill="#641a11"
     id="path85" />
  <path
     d="m 131,26.336973 c 11.1458,-3.89197 -2.09112,15.260686 -0.91701,5.613815 0.52866,-1.73788 3.99275,-4.067891 0.91701,-5.613815 z"
     fill="#9b2d1d"
     id="path86" />
  <path
     d="m 93,155.33697 c 11.20332,0.0195 -3.532114,16.98157 -2.674327,6.87858 0.78249,-2.34171 1.99528,-4.49502 2.674327,-6.87858 z"
     fill="#8c3224"
     id="path87" />
  <path
     d="m 107,103.33697 c 7.73816,-0.53847 13.76332,10.47073 2.62155,7.997 -2.35511,-1.83608 -3.27048,-5.14245 -2.62155,-7.997 z"
     fill="#9a3525"
     id="path88" />
  <path
     d="M 86,27.336973 C 96.053938,25.8322 86.274467,42.570319 84.941604,33.181146 85.055609,31.195174 85.654797,29.287032 86,27.336973 Z"
     fill="#661b12"
     id="path89" />
  <path
     d="m 95,185.33697 c 3.184758,2.32572 8.97274,11.34019 0.547139,7.19036 C 90.774612,191.86338 90.161358,186.47901 95,185.33697 Z"
     fill="#471a11"
     id="path90" />
  <path
     d="m 101,162.33697 c 5.71226,0.58863 10.3563,10.18161 1.4234,8.21993 -4.068555,-0.95614 -3.407105,-5.66024 -1.4234,-8.21993 z"
     fill="#8f3224"
     id="path91" />
  <path
     d="m 92,33.336973 c 8.20286,-2.848282 4.911822,9.738488 -0.343574,5.709033 C 91.009098,37.177255 91.565331,35.180141 92,33.336973 Z"
     fill="#9b2c1e"
     id="path92" />
  <path
     d="m 122,10.336973 c 6.45516,-2.1506544 12.61753,7.922761 3.79279,8.501764 C 122.21114,17.894068 122.05392,13.307358 122,10.336973 Z"
     fill="#a2291c"
     id="path93" />
  <path
     d="m 131,178.33697 c 1.10388,7.59663 2.59693,15.78288 0.18604,23.21796 -5.17677,-1.33501 1.31912,-12.2759 0.43109,-17.35657 0.0792,-1.96932 -0.10088,-3.95595 -0.61713,-5.86139 z"
     fill="#260d08"
     id="path94" />
  <path
     d="m 112,123.33697 c 6.63578,3.4238 -0.38015,12.10553 -4.26227,5.75591 -0.0945,-2.60893 2.46931,-4.3238 4.26227,-5.75591 z"
     fill="#943324"
     id="path95" />
  <path
     d="m 126,187.33697 c 9.85329,2.51278 -4.2543,13.48124 -4.00894,6.19207 1.02689,-2.29652 4.80679,-3.31366 4.00894,-6.19207 z"
     fill="#461c12"
     id="path96" />
  <path
     d="m 99.375,150.77447 c 11.04917,0.56123 -1.474137,14.21539 -3.324439,2.10213 0.347626,-1.38273 1.988703,-2.1478 3.324439,-2.10213 z"
     fill="#8d3023"
     id="path97" />
  <path
     d="m 122,60.336973 c 9.88703,3.799448 -8.71507,12.47735 -4.96905,6.031454 2.08906,-1.74799 6.1371,-2.199927 4.96905,-6.031454 z"
     fill="#9e2d1f"
     id="path98" />
  <path
     d="m 109,186.33697 c 10.08165,4.45564 -11.239126,14.76957 -4.17381,6.41522 2.35606,-1.46857 3.83899,-3.66958 4.17381,-6.41522 z"
     fill="#562419"
     id="path99" />
  <path
     d="m 97.5625,195.27447 c 9.20811,3.81869 -4.911134,7.82657 -3.189577,1.82327 0.922835,-0.83228 2.060094,-1.34758 3.189577,-1.82327 z"
     fill="#672b1e"
     id="path100" />
  <path
     d="m 150,10.336973 c 10.53663,1.504893 -6.03564,23.585331 -0.59252,8.698258 1.42298,-2.419187 1.25389,-5.930705 0.59252,-8.698258 z"
     fill="#9d2c1e"
     id="path101"
     style="stroke-width:1.15514" />
  <path
     d="m 119,199.33697 c 12.82513,1.1118 -4.62377,16.50911 -6.33897,6.719 4.38625,0.63931 13.45635,-1.54737 6.33897,-6.719 z"
     fill="#220d08"
     id="path102" />
  <path
     d="m 117,161.33697 c 1.09964,10.19189 -13.02579,-2.38013 -3.64374,-1.32006 1.25504,0.31724 2.46136,0.79952 3.64374,1.32006 z"
     fill="#9a3526"
     id="path103" />
  <path
     d="m 132,115.33697 c 0,5.66667 0,11.33333 0,17 -4.26794,-2.85525 -4.36353,-14.34186 0,-17 z"
     fill="#3d100a"
     id="path104" />
  <path
     d="m 112,166.33697 c 9.2671,-3.00822 3.27374,15.82442 0.66823,5.38366 -0.22696,-1.7946 -0.38089,-3.5959 -0.66823,-5.38366 z"
     fill="#7a291d"
     id="path105" />
  <path
     d="m 139,12.336973 c 5.94468,3.182063 2.42597,11.603208 -3.14887,5.929156 -1.81971,-2.475272 1.26255,-4.827747 3.14887,-5.929156 z"
     fill="#601a12"
     id="path106" />
  <path
     d="m 125,174.33697 c 9.58466,-1.71638 -2.08558,12.19007 -0.57137,2.35323 l 0.23367,-1.09362 z"
     fill="#551d13"
     id="path107" />
  <path
     d="m 111,152.47529 c 9.01896,-5.31476 2.88149,17.1981 0.24578,5.39561 -0.29167,-1.78352 -0.2874,-3.58955 -0.24578,-5.39561 z"
     fill="#280a06"
     id="path108"
     style="stroke-width:1.09589" />
  <path
     d="m 114,48.336973 c 4.42403,4.158725 0.5856,12.363483 -3.5041,5.050434 -1.16025,-2.502524 1.38222,-4.433229 3.5041,-5.050434 z"
     fill="#c33b2a"
     id="path109" />
  <path
     d="m 115,149.33697 c 9.36131,-1.70663 0.44552,12.29971 -1.11251,4.50936 0.11627,-1.55257 0.59752,-3.0505 1.11251,-4.50936 z"
     fill="#6e2418"
     id="path111" />
  <path
     d="M 92,80.336973 C 100.49871,82.86278 86.652482,94.105706 89.438538,84.47454 89.964268,82.921343 90.537087,81.244568 92,80.336973 Z"
     fill="#702217"
     id="path112" />
  <path
     d="m 150,12.336973 c 4.65631,10.210924 -13.82333,1.529242 -0.81908,-0.10664 l 0.43467,0.05659 z"
     fill="#d13e2b"
     id="path113" />
  <path
     d="m 113,201.33697 c 6.31497,-7.1523 9.84395,9.47445 2.65316,4.20743 -1.10015,-1.25166 -1.90971,-2.726 -2.65316,-4.20743 z"
     fill="#522318"
     id="path114" />
  <path
     d="m 129,184.33697 c 8.62702,2.34081 -5.21669,11.49959 -1.31396,2.73757 0.3622,-0.95685 1.15337,-1.70345 1.31396,-2.73757 z"
     fill="#612a1d"
     id="path115" />
  <path
     d="m 95,116.33697 c 5.82489,4.5407 -7.184557,15.06153 -4.201429,6.00343 1.12182,-2.19712 2.920831,-3.91376 4.201429,-6.00343 z"
     fill="#551910"
     id="path116" />
  <path
     d="m 118,116.33697 c 9.09029,3.82042 -10.45866,10.02484 -2.17737,2.00584 l 0.98429,-0.94672 z"
     fill="#662015"
     id="path117" />
  <path
     d="m 110,69.336973 c 4.58631,1.808649 6.2481,12.377698 -0.42855,7.358224 -1.87197,-2.135436 -0.951,-5.247233 0.42855,-7.358224 z"
     fill="#741e14"
     id="path118" />
  <path
     d="m 91,66.336973 c 8.332742,-3.369593 5.916668,9.270894 -0.216839,5.629294 C 90.020443,70.155446 90.58576,68.151639 91,66.336973 Z"
     fill="#a63b29"
     id="path119" />
  <path
     d="m 107,36.336973 c 9.05139,3.547399 -9.148362,9.64868 -2.48619,3.356414 1.22796,-0.859507 3.06469,-1.518164 2.48619,-3.356414 z"
     fill="#8a2619"
     id="path120" />
  <path
     d="m 80,27.336973 c 9.082191,-1.299509 1.148264,15.110374 -0.03996,4.337596 C 79.857917,30.230368 79.904431,28.779952 80,27.336973 Z"
     fill="#b33425"
     id="path121" />
  <path
     d="m 113.1875,9.7744726 c 9.42396,4.8202514 -15.441869,2.0378704 -2.88266,-0.085666 0.96089,0.028555 1.92177,0.057111 2.88266,0.085666 z"
     fill="#c4734c"
     id="path122" />
  <path
     d="m 124,134.33697 c 6.94326,-2.23493 7.14802,12.64888 1.879,4.76615 -0.80064,-1.51316 -1.3735,-3.13468 -1.879,-4.76615 z"
     fill="#913326"
     id="path123" />
  <path
     d="m 123,120.33697 c 1.74084,3.00533 10.6358,11.75348 1.50131,9.00065 -3.27771,-1.20222 -1.31459,-6.30071 -1.50131,-9.00065 z"
     fill="#923426"
     id="path124" />
  <path
     d="m 125,47.336973 c 7.53396,5.528851 -12.32043,4.510632 -1.63546,2.253113 1.43448,0.310812 2.22052,-1.15666 1.63546,-2.253113 z"
     fill="#46110b"
     id="path125" />
  <path
     d="m 132,16.336973 c 8.30339,5.417419 -9.42508,8.461829 -2.41937,1.704723 0.75852,-0.634942 1.6026,-1.15114 2.41937,-1.704723 z"
     fill="#4a120c"
     id="path126" />
  <path
     d="m 119,199.33697 c -0.32646,5.08369 -11.18278,7.15371 -7.06848,0.91822 2.0674,-1.37635 4.72453,-1.20197 7.06848,-0.91822 z"
     fill="#3d1a11"
     id="path127" />
  <path
     d="m 98.75,29.649473 c 5.5545,4.482099 -0.396686,8.226601 -4.375013,3.720805 -3.209341,-2.893872 2.411104,-3.749186 4.375013,-3.720805 z"
     fill="#d74837"
     id="path128" />
  <path
     d="m 90,176.33697 c 7.89402,0.12097 -1.505171,15.13516 -0.405652,5.14495 0.43309,-1.70805 0.53039,-3.39753 0.405652,-5.14495 z"
     fill="#772a1e"
     id="path129" />
  <path
     d="m 96,168.33697 c 7.36557,1.34788 1.901572,12.91076 -1.706513,5.81705 C 94.185,172.0796 95.085737,170.13716 96,168.33697 Z"
     fill="#903224"
     id="path130" />
  <path
     d="m 98,85.336973 c 5.60789,5.476792 -9.396756,10.349709 -2.848556,2.778434 C 96.032465,87.121994 97.002922,86.212023 98,85.336973 Z"
     fill="#9a3324"
     id="path131" />
  <path
     d="m 117,58.336973 c 9.13944,-0.668622 -3.16592,10.329132 -0.90617,2.254952 0.17668,-0.800321 0.81419,-1.433107 0.90617,-2.254952 z"
     fill="#410f0a"
     id="path132" />
  <path
     d="m 104,52.336973 c 8.64441,1.770216 -3.08267,12.518554 -2.14332,4.182071 0.49388,-1.494473 1.29962,-2.862774 2.14332,-4.182071 z"
     fill="#390c07"
     id="path133" />
  <path
     d="m 127,37.336973 c 7.63215,0.528469 1.14844,11.674907 -1.91111,5.703471 -0.006,-2.056628 0.98538,-3.93166 1.91111,-5.703471 z"
     fill="#a12e20"
     id="path134" />
  <path
     d="m 118,16.336973 c 1.19202,7.578598 -12.28186,4.674068 -6.62274,-0.07809 2.1644,-0.630023 4.44793,-0.279421 6.62274,0.07809 z"
     fill="#611910"
     id="path135" />
  <path
     d="m 69,18.336973 c 7.832368,-2.760845 3.139739,14.269618 1.420864,3.229362 C 70.546018,20.275251 69.530349,19.38777 69,18.336973 Z"
     fill="#c7422f"
     id="path136" />
  <path
     d="m 125,182.33697 c 6.14554,-0.83078 -2.38804,5.38508 0,0 z m -3,1 c 7.98015,0.89619 -4.46925,12.72349 0.17538,3.11517 1.14117,-0.94328 0.006,-2.08429 -0.17538,-3.11517 z"
     fill="#5e281b"
     id="path137" />
  <path
     d="m 120,169.33697 c 8.66066,1.65698 -3.18118,11.04885 -2.26857,3.58193 0.54275,-1.31417 1.3943,-2.4726 2.26857,-3.58193 z"
     fill="#4f1911"
     id="path138" />
  <path
     d="m 127,138.33697 c 5.81486,3.22993 0.5783,11.98594 -3.27046,5.38717 -0.31146,-2.3048 1.69738,-4.06433 3.27046,-5.38717 z"
     fill="#541a11"
     id="path139" />
  <path
     d="m 92,22.336973 c 6.266629,7.529242 -13.886742,5.529821 -4.332623,2.141755 C 89.559843,24.28822 90.759441,23.721137 92,22.336973 Z"
     fill="#d54a36"
     id="path140" />
  <path
     d="m 106,174.33697 c 7.24041,4.2955 -7.140633,7.37704 -1.46984,1.31186 l 0.66231,-0.62943 z"
     fill="#8c3325"
     id="path141" />
  <path
     d="m 104,133.33697 c 6.09529,8.67145 -12.740083,3.94178 0,0 z"
     fill="#aa3c2b"
     id="path142" />
  <path
     d="m 92,113.33697 c 8.44229,2.15653 -6.156369,8.11441 -1.343478,1.48218 l 0.598134,-0.70111 z"
     fill="#7c291c"
     id="path143" />
  <path
     d="m 131,58.336973 c 7.98941,4.202871 -6.67676,13.064875 -3.27818,4.20211 0.89468,-1.54252 2.06824,-2.901534 3.27818,-4.20211 z"
     fill="#47120b"
     id="path144" />
  <path
     d="m 131,51.336973 c 2.11193,7.791133 -12.01104,3.723581 -4.46541,0.390219 1.45931,-0.350244 2.9714,-0.401557 4.46541,-0.390219 z"
     fill="#982d1e"
     id="path145" />
  <path
     d="m 150,28.336973 c 6.34547,7.643352 -13.9378,3.163258 -3.84381,2.063794 1.71571,0.03477 4.08092,0.352294 3.84381,-2.063794 z"
     fill="#6e1d12"
     id="path146" />
  <path
     d="m 93,132.33697 c 8.00049,1.08798 -0.01326,14.88888 -0.830743,5.22506 0.06433,-1.76758 0.414913,-3.51104 0.830743,-5.22506 z"
     fill="#662015"
     id="path147" />
  <path
     d="m 95,118.33697 c 9.58396,1.13253 -6.585144,13.1287 -2.153034,4.13325 0.881889,-1.31792 1.699696,-2.6031 2.153034,-4.13325 z"
     fill="#882d20"
     id="path148" />
  <path
     d="m 126,74.336973 c 7.79696,0.859715 0.58717,13.34674 -0.67985,4.55634 0.0133,-1.541515 0.31248,-3.06502 0.67985,-4.55634 z"
     fill="#5c190f"
     id="path149" />
  <path
     d="m 105,62.336973 c 9.42886,2.235116 -6.353301,6.998396 -1.5478,1.146284 l 0.68867,-0.546051 z"
     fill="#832217"
     id="path150" />
  <path
     d="m 120,38.336973 c 9.17216,-2.508126 -2.01139,11.862646 -0.36616,1.848186 0.10092,-0.620291 0.2378,-1.233386 0.36616,-1.848186 z"
     fill="#6c1c11"
     id="path151" />
  <path
     d="m 137,24.336973 c 7.21163,-0.02347 1.03407,13.020282 -0.66607,4.227196 -0.14324,-1.457198 -0.96642,-3.345176 0.66607,-4.227196 z"
     fill="#2b0905"
     id="path152" />
  <path
     d="m 84,12.336973 c 3.249735,-0.191125 17.2041,-0.674759 7.664897,2.550709 C 88.838681,16.456012 83.808307,17.006926 84,12.336973 Z"
     fill="#a1291c"
     id="path153" />
  <path
     d="m 130,151.33697 c 6.38366,2.95594 -4.76581,12.07789 -1.25788,3.05204 0.58364,-1.03834 0.21366,-2.26964 1.25788,-3.05204 z"
     fill="#802d21"
     id="path154" />
  <path
     d="m 98,129.33697 c 7.93893,2.95645 -7.506802,5.74087 0,0 z"
     fill="#ae3e2e"
     id="path155" />
  <path
     d="m 90,109.33697 c 7.220169,-1.88694 5.61403,9.32215 0.280749,5.03509 C 89.517187,112.80562 89.752706,110.99207 90,109.33697 Z"
     fill="#531910"
     id="path156" />
  <path
     d="m 122,106.33697 c 9.58017,1.28921 -5.20838,9.14216 0,0 z"
     fill="#601d13"
     id="path157" />
  <path
     d="m 110,96.336973 c 8.10894,4.083297 -9.16817,7.406707 -1.6551,0.913723 0.30214,-0.795468 1.03748,-0.738823 1.6551,-0.913723 z"
     fill="#8e2e20"
     id="path158" />
  <path
     d="m 131,86.336973 c 6.90575,2.19741 -5.04324,11.909402 -0.49775,4.164886 1.25998,-1.300703 1.88589,-2.720961 0.49775,-4.164886 z"
     fill="#41110b"
     id="path159" />
  <path
     d="m 110,65.336973 c 10.1002,-3.453172 -0.83793,12.628214 0,0 z"
     fill="#2c0a06"
     id="path160" />
  <path
     d="m 113,22.336973 c 5.31769,4.946135 -2.96261,8.850765 -4.6287,2.893878 0.39363,-2.050023 2.9532,-2.435417 4.6287,-2.893878 z"
     fill="#c23928"
     id="path161" />
  <path
     d="m 92,19.336973 c 3.406427,7.888469 -11.372834,0.339195 -1.863627,0.04531 0.620919,-0.02745 1.24234,-0.03355 1.863627,-0.04531 z"
     fill="#2b0b07"
     id="path162" />
  <path
     d="m 112,169.33697 c 6.98122,3.13181 -1.44717,11.67212 -2.98064,4.52692 0.38795,-1.82817 1.70962,-3.24676 2.98064,-4.52692 z"
     fill="#41130c"
     id="path163" />
  <path
     d="m 121,142.33697 c 8.3319,0.33648 -4.97159,9.38071 -0.42002,1.61994 0.80863,-0.40013 0.4636,-1.04156 0.42002,-1.61994 z"
     fill="#591c13"
     id="path164" />
  <path
     d="m 118,133.33697 c 7.85441,6.67221 -11.85211,4.25727 0,0 z"
     fill="#7b281c"
     id="path165" />
  <path
     d="m 103,117.33697 c 9.45093,-5.08903 3.31684,13.23786 0,0 z"
     fill="#551911"
     id="path166" />
  <path
     d="m 114,85.336973 c -0.96063,5.626668 -10.74663,2.101099 -4.89357,-0.826017 1.67327,-0.220207 3.33515,0.27404 4.89357,0.826017 z"
     fill="#1d0704"
     id="path167" />
  <path
     d="m 148,26.336973 c 4.97981,6.479861 -11.10272,2.478956 -2.24504,0.433301 l 1.03014,-0.223697 z"
     fill="#b33726"
     id="path168" />
  <path
     d="m 91,18.336973 c 7.958426,-3.680838 0.49244,11.692906 0.186055,1.901772 C 91.298593,19.585752 91.109094,18.965754 91,18.336973 Z"
     fill="#741f14"
     id="path169" />
  <path
     d="m 117.03623,103.64101 c 11.14542,7.67191 -10.57311,10.60442 0,0 z"
     fill="#5e1c13"
     id="path170"
     style="stroke-width:1.37043" />
  <path
     d="m 101,71.336973 c 9.35789,-1.893661 -4.4077,8.823621 -0.56674,0.951175 l 0.49694,-0.855935 z"
     fill="#ad3626"
     id="path171" />
  <path
     d="m 94,160.33697 c 9.1401,1.5395 -5.458631,8.05755 0,0 z"
     fill="#692218"
     id="path173" />
  <path
     d="m 114,141.33697 c 8.53544,0.9038 -3.57268,12.21639 -0.26935,2.73206 0.6653,-0.82366 0.25477,-1.81185 0.26935,-2.73206 z"
     fill="#74261b"
     id="path174" />
  <path
     d="m 108,140.33697 c 6.82728,1.81702 -0.13263,12.60095 -1.90293,5.03949 -0.34408,-1.88616 1.04172,-3.49795 1.90293,-5.03949 z"
     fill="#712419"
     id="path175" />
  <path
     d="m 106,64.336973 c 8.56436,1.460024 -3.12232,9.652398 0,0 z"
     fill="#440f0a"
     id="path176" />
  <path
     d="m 118,12.336973 c -0.71155,8.217408 -13.10497,-2.25756 -3.68164,-0.954558 1.25059,0.2182 2.4746,0.566189 3.68164,0.954558 z"
     fill="#5e140d"
     id="path177" />
  <path
     d="m 109,130.33697 c 7.14643,-0.3502 2.92999,12.87112 0.35863,4.55722 -0.30611,-1.4974 -0.3663,-3.03314 -0.35863,-4.55722 z"
     fill="#43130c"
     id="path178" />
  <path
     d="m 126.72998,126.90505 c 12.04906,4.50712 -9.33265,14.57221 0,0 z"
     fill="#5c1c12"
     id="path179"
     style="stroke-width:1.89979" />
  <path
     d="m 107,44.336973 c 7.80346,4.08092 -7.071341,8.517278 -1.45621,1.551152 l 0.65398,-0.740302 z"
     fill="#5f180f"
     id="path180" />
  <path
     d="m 138,35.336973 c 4.77179,0.540249 8.08404,8.683053 0.99375,5.601162 C 136.98084,39.832548 136.97044,37.124059 138,35.336973 Z"
     fill="#3d0f09"
     id="path181" />
  <path
     d="m 79,21.336973 c 5.231165,-4.848105 9.599138,4.887436 2.737109,3.865358 C 80.338514,24.347014 79.603705,22.791225 79,21.336973 Z"
     fill="#822317"
     id="path182" />
  <path
     d="m 77,12.336973 c 2.195798,7.70978 -9.518675,-1.62624 0,0 z"
     fill="#c33d2b"
     id="path183" />
  <path
     d="m 133,10.336973 c -2.01345,8.012534 -11.56553,-3.9428216 -3.09849,-1.4660398 1.07537,0.3920105 2.09983,0.91039 3.09849,1.4660398 z"
     fill="#bb734a"
     id="path184" />
  <path
     d="m 123,128.33697 c 7.69212,0.14467 2.40826,9.4924 -1.43911,4.37465 -0.22073,-1.59404 0.66623,-3.06341 1.43911,-4.37465 z"
     fill="#7c291c"
     id="path186" />
  <path
     d="m 122,118.33697 c 4.08206,5.18072 -6.97884,6.04144 -1.35961,1.09044 z"
     fill="#903123"
     id="path187" />
  <path
     d="m 120,110.33697 c 4.83652,3.32948 -7.81645,4.78917 0.49077,1.48679 -0.16359,-0.4956 -0.32718,-0.99119 -0.49077,-1.48679 z"
     fill="#842d20"
     id="path188" />
  <path
     d="m 131,46.336973 c -0.36296,8.904121 -10.16186,-5.101246 -1.40584,-0.775568 0.53959,0.137697 0.96454,0.470542 1.40584,0.775568 z"
     fill="#711e14"
     id="path189" />
  <path
     d="m 128,44.336973 c -0.88705,7.684571 -11.69614,-1.010524 -3.96454,-1.179329 1.37226,0.188752 2.68785,0.658851 3.96454,1.179329 z"
     fill="#d1412f"
     id="path190" />
  <path
     d="m 98,22.336973 c 6.49445,3.879505 -7.376517,7.262271 -0.947404,1.067276 l 0.700354,-0.70679 z"
     fill="#872316"
     id="path191" />
  <path
     d="m 113,9.3369726 c 3.07158,-0.2963912 17.69426,-0.5410239 8.02693,2.4341194 C 119.20724,9.1538642 115.2502,11.765948 113,9.3369726 Z"
     fill="#360c07"
     id="path192" />
  <path
     d="m 120,193.33697 c 8.497,3.42907 -5.84718,8.39842 0,0 z"
     fill="#502317"
     id="path193" />
  <path
     d="m 118,154.33697 c 11.05964,-4.95638 0.58413,11.3904 0,0 z"
     fill="#7f2c1f"
     id="path194" />
  <path
     d="m 106,128.33697 c 8.31477,5.5739 -9.013692,5.05082 0,0 z"
     fill="#581b12"
     id="path195" />
  <path
     d="m 127,82.336973 c 0.53664,8.388141 -11.61203,-1.829975 -2.27119,-0.418399 l 1.05874,0.16727 z"
     fill="#aa392a"
     id="path196" />
  <path
     d="m 110,76.336973 c 10.50243,1.958077 -6.20543,8.454922 0,0 z"
     fill="#190502"
     id="path197" />
  <path
     d="m 115,33.336973 c 8.29035,-0.753154 -0.81587,10.903633 -0.25059,2.089814 l 0.0884,-0.975049 z"
     fill="#c33a29"
     id="path198" />
  <path
     d="m 77,18.336973 c 8.025074,0.44543 -1.102428,10.803837 -1.341856,3.68209 0.244395,-1.294146 0.7668,-2.50756 1.341856,-3.68209 z"
     fill="#a72f20"
     id="path199" />
  <path
     d="m 77,15.336973 c 4.937698,5.273759 -7.257088,3.071107 0,0 z"
     fill="#3c110c"
     id="path200" />
  <path
     d="m 90,198.33697 c 5.813278,-3.3801 7.587279,8.87792 2.040263,3.40234 C 91.211332,200.70001 90.570858,199.53133 90,198.33697 Z"
     fill="#471c12"
     id="path201" />
  <path
     d="m 90,191.33697 c 7.076365,2.81047 -4.290338,7.63993 0,0 z"
     fill="#592419"
     id="path202" />
  <path
     d="m 96,185.33697 c 10.11198,-0.61833 -3.149191,9.9211 0,0 z"
     fill="#873425"
     id="path203" />
  <path
     d="m 102,151.33697 c 7.63846,-2.25749 -1.00555,8.83308 0,0 z"
     fill="#3b110b"
     id="path204" />
  <path
     d="m 124,91.336973 c 0.63672,5.144024 -10.01652,6.706444 -5.04113,1.51568 1.52659,-0.912647 3.30135,-1.278565 5.04113,-1.51568 z"
     fill="#54170f"
     id="path205" />
  <path
     d="m 122,85.336973 c 6.08173,-1.482934 3.75654,5.905064 -0.27812,3.074487 -0.50144,-0.98009 -0.0451,-2.134391 0.27812,-3.074487 z"
     fill="#4b140d"
     id="path206" />
  <path
     d="m 105,55.336973 c 8.90462,0.949187 -3.25269,9.574071 0,0 z"
     fill="#a22d1e"
     id="path207" />
  <path
     d="m 120,52.336973 c 8.30865,1.496534 -6.13057,6.369506 0,0 z"
     fill="#cb3f2d"
     id="path208" />
  <path
     d="m 150,9.3369726 c -0.061,7.7223014 -11.34967,-1.3317495 -2.22438,-0.2757244 l 1.0392,0.1030254 z"
     fill="#a74f32"
     id="path209" />
  <path
     d="m 99,176.33697 c 9.76955,2.71845 -7.77242,6.98159 0,0 z"
     fill="#7c291c"
     id="path210" />
  <path
     d="m 126,172.33697 c 7.07868,-2.75294 -0.301,9.47009 -0.0161,0.95243 z"
     fill="#893023"
     id="path211" />
  <path
     d="m 121,166.33697 c 10.35889,-1.02144 -1.46727,10.83121 0,0 z"
     fill="#8d3123"
     id="path212" />
  <path
     d="m 92,165.33697 c 8.02306,1.2429 -5.669516,6.83307 0,0 z"
     fill="#561b12"
     id="path213" />
  <path
     d="m 131.77732,140.62044 c 5.3147,17.51369 -12.74854,0.50446 0,0 z"
     fill="#45140d"
     id="path214"
     style="stroke-width:1.58406" />
  <path
     d="m 91,140.33697 c 10.50675,0.13282 -2.233695,11.37961 0,0 z"
     fill="#a43a2b"
     id="path215" />
  <path
     d="m 121,34.336973 c 9.75716,0.0933 -2.82187,10.206236 0,0 z"
     fill="#de4a37"
     id="path216" />
  <path
     d="m 131,30.336973 c 5.87754,6.060212 -9.81651,1.837911 0,0 z"
     fill="#902518"
     id="path217" />
  <path
     d="m 144,10.336973 c -3.00817,6.555082 -5.71565,-5.3149858 0,0 z"
     fill="#a0271a"
     id="path218" />
  <path
     d="m 100,10.336973 c -1.834127,8.454148 -7.13311,-7.0174235 0,0 z"
     fill="#d37750"
     id="path219" />
  <path
     d="m 129,198.33697 c 7.06228,4.68972 -7.10006,5.83601 0,0 z"
     fill="#33150d"
     id="path220" />
  <path
     d="m 118,183.33697 c 5.92817,3.53395 -6.24193,5.72569 0,0 z"
     fill="#3d180f"
     id="path221" />
  <path
     d="m 108,157.33697 c 11.79131,-1.31158 -1.61837,9.43604 0,0 z"
     fill="#5d1a11"
     id="path222" />
  <path
     d="m 128,111.33697 c 2.45269,7.02657 -8.65331,-4.4e-4 0,0 z"
     fill="#4c150d"
     id="path223" />
  <path
     d="m 137,34.336973 c 7.32064,-2.914791 3.86947,10.044262 0,0 z"
     fill="#cf4630"
     id="path224" />
  <path
     d="m 92,33.336973 c 7.464805,-4.306628 3.414637,7.111162 -0.26527,2.987804 C 91.582942,35.318096 91.777746,34.312852 92,33.336973 Z"
     fill="#7c2115"
     id="path225" />
  <path
     d="m 95,195.33697 c 7.58184,-3.36773 -0.646063,7.4468 0,0 z"
     fill="#7e3829"
     id="path226" />
  <path
     d="m 122,193.33697 c 7.33147,0.53822 -1.3387,10.31805 -0.29867,1.98541 l 0.11474,-0.93038 z"
     fill="#672f21"
     id="path227" />
  <path
     d="m 97,170.33697 c 9.85197,-1.5328 -2.506798,9.26231 0,0 z"
     fill="#732619"
     id="path228" />
  <path
     d="m 125,163.33697 c 8.62694,-4.11457 1.46613,9.58599 0,0 z"
     fill="#7c2b1e"
     id="path229" />
  <path
     d="m 120,151.33697 c 5.44025,-1.41467 7.02275,5.51795 0.80873,4.09539 -1.41053,-0.81948 -1.13629,-2.79238 -0.80873,-4.09539 z"
     fill="#47160e"
     id="path230" />
  <path
     d="m 115,149.33697 c 8.91394,-0.24778 -6.73036,6.18374 0,0 z"
     fill="#5a1c12"
     id="path231" />
  <path
     d="m 94,130.33697 c 6.40366,3.45236 -4.90406,6.45677 0,0 z"
     fill="#983425"
     id="path232" />
  <path
     d="m 99,129.33697 c -1.559103,5.75831 -10.69493,-1.20775 -3.597471,-0.99357 1.237489,0.17712 2.431441,0.55672 3.597471,0.99357 z"
     fill="#822c1e"
     id="path233" />
  <path
     d="m 101,111.33697 c 11.52921,-0.14174 -5.440877,9.17754 0,0 z"
     fill="#a23728"
     id="path234" />
  <path
     d="m 92,80.336973 c 9.33981,1.10259 -6.21048,5.627022 0,0 z"
     fill="#611c12"
     id="path235" />
  <path
     d="m 70,35.336973 c 9.345916,-2.659758 -2.937678,8.54014 0,0 z"
     fill="#8d281b"
     id="path236" />
  <path
     d="m 108,32.336973 c 10.01321,5.075256 -8.925727,5.927949 0,0 z"
     fill="#ce402d"
     id="path237" />
  <path
     d="m 110,27.336973 c 3.43979,9.086974 -9.52185,-0.857799 0,0 z"
     fill="#92281a"
     id="path238" />
  <path
     d=""
     fill="#800000"
     transform="translate(0,0)"
     id="path253" />
  <path
     d=""
     fill="#AA552A"
     transform="translate(0,0)"
     id="path254" />
  <path
     d=""
     fill="#FF0000"
     transform="translate(0,0)"
     id="path255" />
  <path
     d=""
     fill="#808000"
     transform="translate(0,0)"
     id="path256" />
  <path
     d=""
     fill="#FF8080"
     transform="translate(0,0)"
     id="path257" />
  <path
     d=""
     fill="#FFAA55"
     transform="translate(0,0)"
     id="path258" />
  <path
     d=""
     fill="#FF0000"
     transform="translate(0,0)"
     id="path259" />
  <path
     d=""
     fill="#800000"
     transform="translate(0,0)"
     id="path260" />
  <path
     d=""
     fill="#FF0000"
     transform="translate(0,0)"
     id="path261" />
</svg>
